<svg xmlns="http://www.w3.org/2000/svg" viewBox="0 0 680.16 623.21"><defs><style>.cls-1{fill:#41aab9;}.cls-2{fill:#f5b93b;}.cls-3{fill:#0e6466;}.cls-4{fill:#0e6467;}.cls-5{fill:#11a27f;}.cls-6{fill:#a46d29;}.cls-7{fill:#f3b93d;}.cls-8{fill:#12a27f;}.cls-9{fill:#141730;}.cls-10{fill:#cf9029;}.cls-11{fill:#f3b93c;}.cls-12{fill:#a36d2a;}.cls-13{fill:#a26d2c;}.cls-14{fill:#121730;}.cls-15{fill:#d73580;}.cls-16{fill:#f0b93e;}.cls-17{fill:#a92063;}.cls-18{fill:#111732;}.cls-19{fill:#f9f8fb;}.cls-20{fill:#0f1c36;}.cls-21{fill:#f6fbfa;}.cls-22{fill:#98b278;}.cls-23{fill:#13a27d;}.cls-24{fill:#0f6464;}.cls-25{fill:#618e3e;}.cls-26{fill:#188c95;}.cls-27{fill:#0b6d5c;}</style></defs><g id="Layer_2" data-name="Layer 2"><g id="Layer_1-2" data-name="Layer 1"><g id="Layer_2-2" data-name="Layer 2"><g id="Layer_1-2-2" data-name="Layer 1-2"><path class="cls-1" d="M382.83,584c-15.2,6.08-30.25,12.56-45.64,18.13-28.07,10.16-57.18,15.73-86.85,18.75a458.66,458.66,0,0,1-65.88,1.92C142.38,621,100.93,615.1,61,601.1c-11.1-3.92-21.52-9.79-32.21-14.87A26.14,26.14,0,0,1,24.26,583c-6.19-4.78-8.55-10.24-6.37-18.56,4.27-16.32,5.82-33.16,6.34-50a39.2,39.2,0,0,0,4.13,1.23c10.6,2,21.16,4.39,31.85,5.86,10.92,1.5,22,2.23,33,3.06,7.31.56,14.66.76,22,1,11.19.34,22.39.56,33.59.83,1.26.43,2.52,1.22,3.79,1.23,20.26.12,40.52.13,60.77.17,10.58.26,21.16.42,31.73.83q25.66,1,51.31,2.26c2.67.13,5.31.94,8,1.13a24.62,24.62,0,0,0,4.91-.55c1.48-.48,3.44-.53,4.37-1.54,4.2-4.56,9.09-8.87,11.92-14.23,4.28-8.11,7.34-16.91,10.37-25.6a137.47,137.47,0,0,0,4.73-18.42c1.39-7,2.36-14.06,3.31-21.13,1.49-11.14,3.63-22.27,4-33.45.67-18.45.21-36.93.12-55.4,0-1.92-.79-3.83-1.21-5.75,1.08-3.72-1.22-6-3.69-7.95-6-4.86-13.62-5.69-20.73-7.42s-14.29-2.26-21.48-3.07c-6-.68-12.06-1.12-18.11-1.44-10.9-.6-21.82-1.07-32.74-1.53-13.15-.55-26.32-1-39.47-1.55-8-.36-16-.89-24.07-1.45-5.91-.42-11.82-.89-17.7-1.56-7.8-.89-15.59-2-23.37-3l-21.51-3c-7.93-1-15.86-2.07-23.8-3-9.68-1.09-19.36-2.11-29-3-7.53-.7-15.07-1.14-22.61-1.69q14.08-31.49,28.16-63c3.83-.51,7.64-1.31,11.49-1.48,9.23-.42,18.47-.54,27.71-.78,4.64-.13,7.12-3.22,5.76-7.38-1-3.17-3.68-3.77-6.62-3.7l-32.19.66c2.47-6.64,5.4-13.15,7.32-20,5.75-20.39,11.23-40.87,16.59-61.37,5.94-22.73,12.47-45.23,23.82-66,11-20.07,25.09-37.52,43.26-51.53,10.12-7.8,21.92-12.31,33.83-16.5,3-1.07,6.1-2,9.15-3a60.16,60.16,0,0,0,7.1-.33c4.72-.73,9.38-2.37,14.09-2.49,15.74-.4,31.45-.93,47.13,2.39A149.21,149.21,0,0,1,315,31.12c17.46,7.77,31.67,19.47,41.65,35.95a79.33,79.33,0,0,1,9.46,24c1.12,5,1.43,10.26,2,15.41.94,9.13,2,18.25,2.58,27.39.39,5.73.09,11.5.1,17.25-.44,1.12-1.22,2.23-1.25,3.37-.15,5.9-.1,11.81-.12,17.71-.43,5.07-.93,10.12-1.26,15.19-.63,9.53-1.55,19.06-1.63,28.6-.15,15.93.27,31.87.45,47.81-1.43-.41-2.89-.75-4.28-1.26a69.16,69.16,0,0,0-34.59-3.44c-3.11.46-4.67,2.17-4.51,5.33a5.29,5.29,0,0,0,5.2,5.38h.32c1.61,0,3.22-.32,4.83-.46a51.89,51.89,0,0,1,35.68,9.38,3.83,3.83,0,0,0-.05,1.12c1.45,6.55,2.88,13.1,4.4,19.63,1,4.39,2.14,8.76,3.27,13.12,1.32,5,2.75,10.06,4.06,15.1,1.62,6.26,3.16,12.54,4.73,18.81-5.35,6.43-12.06,10.33-20.48,11.14a8.88,8.88,0,0,0-3.57,1,20.7,20.7,0,0,0-3.16,33.46c5.4,4.8,12.68,5.25,17.82,1.09a18.15,18.15,0,0,0,3.74-23.66c-.84-1.3-1.8-2.53-2.59-3.62,3.76-2.55,7.27-4.91,10.78-7.28,1.53,7.8,3.28,15.57,4.54,23.41,1.74,10.83,3.35,21.69,4.55,32.58.95,8.64,1.21,17.35,1.78,26v45.12c-.46,5.16-.83,10.34-1.4,15.49-.93,8.44-1.79,16.89-3,25.28-1.55,10.46-3.46,20.87-5.12,31.32-.1.6.68,1.34,1.05,2-3.46,8-6.93,15.9-10.45,24ZM282.34,202.89c1.27-3.71.41-6.7-3-8.83-5.22-6.86-13.78-8.74-20.91-4.6A17.27,17.27,0,0,0,251.29,211,16.62,16.62,0,0,0,271,220.57C277.26,218.92,284.62,210.8,282.34,202.89Zm-33.71,80c3.33-3.79,6.74-7.52,10-11.38,3.49-4.16,4.89-9.36,5.36-14.49.57-6.12-6-13-12.42-14.13-3.42-.32-6.95-1.33-10.24-.82-5.49.86-10.85,2.61-16.23,4.13-9.24,2.61-18.17,2.57-26.57-2.74-1.5-.74-3-2-4.51-2.14-6.79-.63-13.28-.3-19.23,4.1-5.33,3.94-8.17,9.17-6.45,15.33a26.92,26.92,0,0,0,3.07,6.11c3.8,6.51,8.12,12.6,14.24,17.2,6.6,5.81,14.25,9.81,22.9,10.93,8.22,1.07,16.67.91,24.35-2.86,5.44-2.67,10.5-6.13,15.73-9.24ZM240.34,86.1a49.34,49.34,0,0,0-5.82,2.67c-5.27,3.3-10.54,6.6-15.6,10.21-6.83,4.87-13.53,10-20.13,15.15a5,5,0,0,0-1.68,4.07,56.91,56.91,0,0,0,3.35,12.29c4.51,10.27,9.38,20.38,14.25,30.49,3,6.3,7.76,7.79,13.71,4.6a205.2,205.2,0,0,0,33.06-21.66c3.88-3.16,7.44-6.29,5.81-12-.64-2.25-.92-4.65-1.85-6.78-4.36-10-8.6-20-13.44-29.64C249.75,91,247.17,86,240.34,86.1Zm-87.75,108c.08,9.6,6.59,16.25,15.89,16.26s15.8-7,15.68-16.82c-.13-9.61-6.67-16.13-16.06-16S152.5,184.42,152.59,194.1Zm154.08-34.45,1.34-.36c-.4-2.23-.27-4.76-1.3-6.65-4.91-9.06-12.25-15.31-22.48-17.57-2-.43-4.17.09-6.21.45-.65.12-1.63,1.16-1.6,1.72a3,3,0,0,0,1.45,2.22,48,48,0,0,0,7.77,2.55c9.17,2,15.6,7.31,19.62,15.71a11.1,11.1,0,0,0,1.41,1.93Zm-161-1,1.24.12a88.71,88.71,0,0,1,5.39-8.31c5-6.11,11.79-8.79,19.36-10.21,2.12-.4,5.86-.57,5.23-3.83-.22-1.15-4.46-2.52-6.58-2.15-11.49,2-19.45,8.89-24.29,19.36-.65,1.47-.25,3.35-.34,5Z"/><path class="cls-2" d="M309.32,531.36a24.62,24.62,0,0,1-4.91.55c-2.68-.19-5.32-1-8-1.13q-25.65-1.23-51.31-2.26c-10.57-.41-21.15-.57-31.73-.83-.79-.43-1.58-1.23-2.38-1.23q-31.1-.16-62.18-.17c-11.2-.27-22.4-.49-33.59-.83-7.34-.22-14.69-.42-22-1-11-.83-22.06-1.56-33-3.06-10.69-1.47-21.25-3.84-31.85-5.86a39.2,39.2,0,0,1-4.13-1.23c-3.4-1.48-6.77-3-10.2-4.42-8.07-3.3-11.12-9.88-12.2-18C-.83,471.74,0,451.49.7,431.29c.48-13.56,2.21-27.1,4-40.57,1.68-12.81,4-25.55,6.32-38.28.74-4.13,2.21-8.13,3.34-12.19L23,342.51c-2.31,7.55-2.34,15,1.28,22.17,2.65,5.24,7.72,7,12.51,4.71,8.37-4,12.39-15.77,8.18-23.9,6.14.88,12.29,1.74,18.43,2.64,12.77,1.85,25.53,3.83,38.32,5.55,11,1.47,21.93,2.72,32.92,3.93q14.63,1.59,29.28,2.85c4.58.42,9.2.5,13.78.88,11.27.92,22.53,1.93,33.8,2.89,6.31.55,12.63,1,18.94,1.63,9.77.92,19.53,1.91,29.29,2.87,8.4.83,16.81,1.64,25.21,2.49Q302,373,319,374.73c-.26,3.45-.53,6.91-.79,10.37q-1.47,18.76-3,37.54-.79,10-1.59,20.08c-1.19,14.61-2.43,29.23-3.57,43.85-.86,11-1.6,22.07-2.4,33.11-.22,3.1-.62,6.2-.57,9.3C307.16,529.78,308.55,530.57,309.32,531.36ZM280.53,401.1c-.5-.26-1-.73-1.51-.74-9.9-.07-19.8-.08-29.71-.1l-12-.11-23.89-.75a6.11,6.11,0,0,0-1.66-.6c-12.72-.57-25.45-1-38.16-1.67-10.34-.55-20.68-1.19-31-2.19-9.61-.94-19.19-2.37-28.77-3.67-7.75-1-15.53-2-23.23-3.37-9.23-1.64-18.4-3.65-27.58-5.56s-18.21-3.65-27.22-5.85c-8.14-2-8.08-2.21-10.3,5.6-.14.48-.46.9-.57,1.38-1.28,5.38-2.52,10.77-3.85,16.47,9.09,3.16,17.7,6.36,26.45,9.16,8.11,2.57,16.34,4.77,24.56,7,6.81,1.81,13.64,3.57,20.53,5,6.65,1.38,13.38,2.45,20.12,3.41,10.4,1.5,20.81,3.44,31.28,4,14.08.74,28.23.5,42.35.4,18.86-.14,37.71-.58,56.57-.74,1.23,0,2.48,1.3,3.71,2-.62,5-1.62,10.06-1.66,15.1a7.5,7.5,0,0,0,3.45,5.63c4.56,2.3,9.36,1.2,13.56-1.25,4-2.35,5-6.45,4.13-10.77-.78-3.87-2.09-7.63-3.17-11.45,6.22-.14,12.44-.5,18.65-.36,3.64.08,4.75-1.72,5.14-4.79.26-2.06.72-4.09,1.05-6.15.75-4.69,1.46-9.4,2.25-14.49h-6.13Z"/><path class="cls-3" d="M460.77,86.59c21.47,2.46,41.67,9.1,58.93,22A231.38,231.38,0,0,1,561,148.71c13.62,16.92,20.59,36.9,25.69,57.66,4.33,17.66,3.33,35.47.71,53.17-4.31,29.14-14.13,56.34-30.79,80.8-10.94,16.07-24.43,30-38,43.88-16.56,17-33.64,33.52-47.84,52.66-1.33,1.81-2.71,3.58-4.07,5.37-.23-.8-.53-1.59-.69-2.4-1.68-8.34-2.89-16.81-5.14-25s-5.61-16.39-8.48-24.56c5.52-8,10.79-16.21,16.62-24,19.54-26.12,36.54-53.52,46.51-84.94,5.48-17.3,11.07-34.45,11.26-52.83.17-16.27-3.46-31.89-7.33-47.57-3.76-15.26-12.37-26.7-24.55-36a114.85,114.85,0,0,0-36.47-18.58c-.44-.7-1.23-1.39-1.25-2.09-.13-6.4.33-12.86-.32-19.2-.53-5.19-2.33-10.26-3.57-15.38C454.72,86,458,86.86,460.77,86.59Z"/><path class="cls-4" d="M459.23,499.19c16.37,30,42.69,46.31,75,54,19.89,4.75,40.14,4.43,60.4,3.39,20.46-1,41-2.44,61.29,1.23,7.13,1.28,14,4.34,20.84,6.76,2.68.94,3.67,3.19,3.35,6A96.4,96.4,0,0,1,668.25,607c-1.22,2.21-2.84,2.81-5.27,2.19-10.51-2.68-21-5.36-31.58-7.87-15.33-3.64-30.92-4.2-46.56-3.38a192.31,192.31,0,0,1-82.15-13.23c-21-8.35-40.34-19.2-56.06-35.74-3-3.15-5.56-6.72-8.32-10.1a6.51,6.51,0,0,1,.69-2c6.92-8.9,11.85-18.88,16.17-29.22C456.41,504.75,457.88,502,459.23,499.19Z"/><path class="cls-5" d="M459.23,499.19c-1.35,2.81-2.82,5.56-4,8.43-4.32,10.34-9.25,20.32-16.17,29.22a6.51,6.51,0,0,0-.69,2,35.91,35.91,0,0,0-2.88,2.77c-14.15,16.94-32,29.44-50.23,41.38a14.08,14.08,0,0,1-2.41,1l-2.29-.12,10.46-24c3.23-10.69,6.81-21.29,9.56-32.09,1.8-7.06,2.6-14.41,3.5-21.66,1.6-12.77,2.94-25.57,4.39-38.36a4.63,4.63,0,0,1,.56-.39,8,8,0,0,0,.71-2.3q.06-16.29,0-32.59a6.21,6.21,0,0,0-.72-1.89l-.57-1.95c-.27-5.83-.38-11.67-.86-17.49-.51-6.26-1.43-12.48-2.07-18.74-.61-5.9-1.08-11.82-1.61-17.73a18.62,18.62,0,0,0,3.29,1.46,71.45,71.45,0,0,0,7.83,1.45,13.45,13.45,0,0,0,4.05-.26c1.52-.26,3-1,4.52-1.09,7.61-.41,11.67-5.5,10.4-12.86-.29-1.66.49-3.52.78-5.28.81,1.09,1.56,2.22,2.26,3.38q7.77,14.37,15.47,28.79c2.87,8.17,6.19,16.23,8.48,24.56s3.46,16.65,5.14,25c.16.81.46,1.6.69,2.4-.08,2.21-.21,4.42-.24,6.63a162.36,162.36,0,0,1-6.42,44.89A41.77,41.77,0,0,0,459.23,499.19Z"/><path class="cls-6" d="M346.15,34.37a57.87,57.87,0,0,0,7.09-4c7.07-5.44,14.85-5.51,23-3.49l2,.68,1-.23-.09.22c.31.49.51,1.18,1,1.44,15.83,9.35,24.46,24,29,41.08a270.9,270.9,0,0,1,6.09,33.31,138.46,138.46,0,0,1-1.39,42.42c-2.54,14.32-5.66,28.54-8.27,42.86-5.47,30.08-10.77,60.2-16.14,90.3l-5.72-4.64a6.09,6.09,0,0,0,.18-1.35c-.82-9.3-2.15-18.58-2.41-27.9q-.57-20.52.19-41.12c.55-15.05,1.83-30.08,2.79-45.12a10.15,10.15,0,0,0,.61-2.44q.06-18.24,0-36.47a10.35,10.35,0,0,0-.61-2.45c-.51-6.43-.88-12.87-1.58-19.28-1.61-14.77-5.71-28.68-14.2-41.13A99,99,0,0,0,346.15,34.37Z"/><path class="cls-7" d="M384.37,158.78c-1,15-2.24,30.07-2.79,45.12q-.76,20.55-.19,41.12c.26,9.32,1.59,18.6,2.41,27.9a6.09,6.09,0,0,1-.18,1.35L367,263.88c-.18-15.94-.6-31.88-.45-47.81.08-9.54,1-19.07,1.63-28.6.33-5.07.83-10.12,1.26-15.19.44-.91,1.25-1.82,1.27-2.74.13-6.11.09-12.23.1-18.34,0-5.75.29-11.52-.1-17.25-.61-9.14-1.64-18.26-2.58-27.39-.53-5.15-.84-10.37-2-15.41a79.33,79.33,0,0,0-9.46-24C346.67,50.67,332.48,39,315,31.2a149.21,149.21,0,0,0-29.82-9.37c-15.68-3.32-31.39-2.79-47.13-2.39-4.71.12-9.37,1.76-14.09,2.49a60.16,60.16,0,0,1-7.1.33c.55-.51,1-1.28,1.67-1.49,20.95-7,42.57-9,64.41-7.29,21.59,1.73,42.16,7.44,60.61,19.37.83.54,1.7,1,2.56,1.52,8.6,6.43,16.33,13.68,22.43,22.64,8.49,12.45,12.59,26.36,14.2,41.13.7,6.41,1.07,12.85,1.58,19.28Z"/><path class="cls-8" d="M460.77,86.59c-2.79.27-6-.56-7.39,3.12a31.66,31.66,0,0,0-3.07.86,37.34,37.34,0,0,0-5.11,2.21,21.48,21.48,0,0,1-10.84,3.41c-.23,0-.44.8-.66,1.23-.74-3.44-1.47-6.89-2.22-10.33l-3.66-16.64c4.62-1.38,9.67-2,13.77-4.31,8.88-5,13.15-12.51,8.67-22.43-2.27-5-5.23-10-11.59-11-2.86-.91-5.78-2.72-8.59-2.57a41.31,41.31,0,0,0-22.26,8.34c-.71-.44-1.39-.92-2.12-1.32a104.42,104.42,0,0,0-26.6-9.71l.09-.22c9.81-12.46,22.64-20.55,37.67-25a49.76,49.76,0,0,1,42.06,5.95C479,21.1,484.46,43,473.63,64.93a66.38,66.38,0,0,1-16.15,20.74Z"/><path class="cls-9" d="M45,345.49c4.21,8.13.19,19.89-8.18,23.9-4.79,2.3-9.86.53-12.51-4.71-3.64-7.15-3.61-14.58-1.31-22.17-.06-.74.15-1.66-.22-2.19-1.76-2.6-3.68-5.1-5.55-7.64-1.88-7.06-4.88-14-5.44-21.2C9.52,282.39,27.49,256,55.68,246.59c7.74-2.57,16-3.58,24-5.3l3.23-.73,32.19-.66c2.94-.07,5.58.53,6.62,3.7,1.36,4.16-1.12,7.25-5.76,7.38-9.24.24-18.48.36-27.71.78-3.85.17-7.66,1-11.49,1.48-4.15.79-8.36,1.34-12.44,2.39C46,260.33,32.5,270.76,25.7,288.81c-3.64,9.65-4.68,19.57-1.45,29.62,2.4,4.83,4.13,10.19,7.38,14.36C35.38,337.57,40.47,341.3,45,345.49Z"/><path class="cls-10" d="M17.24,332.68c1.87,2.54,3.79,5,5.55,7.64.37.53.16,1.45.22,2.19l-8.67-2.26C15.31,337.73,16.27,335.21,17.24,332.68Z"/><path class="cls-11" d="M378.21,27.51l-2-.68Z"/><path class="cls-10" d="M45,345.49c-4.51-4.19-9.6-7.92-13.35-12.7-3.25-4.17-5-9.53-7.38-14.36a11.26,11.26,0,0,1,2.41-.76c7.32-.53,14.65-1,22-1.46,7.54.55,15.08,1,22.61,1.69,9.69.89,19.37,1.91,29.05,3,7.94.89,15.87,1.92,23.8,3,7.18.94,14.34,2,21.51,3,7.78,1.05,15.57,2.14,23.37,3,5.88.67,11.79,1.14,17.7,1.56,8,.56,16,1.09,24.07,1.45,13.15.59,26.32,1,39.47,1.55,10.92.46,21.84.93,32.74,1.53,6.05.32,12.1.76,18.11,1.44,7.19.81,14.48,1.38,21.48,3.07s14.72,2.56,20.73,7.42c2.47,2,4.77,4.23,3.69,7.95-4.89,4-9.59,8.3-14.73,12-4,2.88-7.38,7.34-13.19,6.92L285,371.28c-8.4-.85-16.81-1.66-25.21-2.49q-14.64-1.5-29.29-2.87c-6.31-.59-12.63-1.08-18.94-1.63-11.27-1-22.53-2-33.8-2.89-4.58-.38-9.2-.46-13.78-.88-9.77-.87-19.53-1.79-29.28-2.85-11-1.21-22-2.46-32.92-3.93C89,352,76.23,350,63.46,348.19,57.27,347.23,51.12,346.37,45,345.49Z"/><path class="cls-12" d="M319,374.73c5.81.42,9.17-4,13.19-6.92,5.14-3.67,9.84-7.95,14.73-12,.42,1.92,1.2,3.83,1.21,5.75.09,18.47.55,36.95-.12,55.4-.4,11.18-2.54,22.31-4,33.45-.95,7.07-1.92,14.15-3.31,21.13A137.78,137.78,0,0,1,336,490c-3,8.69-6.09,17.49-10.37,25.6-2.83,5.36-7.72,9.67-11.92,14.23-.93,1-2.89,1.06-4.37,1.54-.77-.79-2.16-1.58-2.17-2.38,0-3.1.35-6.2.57-9.3.8-11,1.54-22.08,2.4-33.11,1.14-14.62,2.38-29.24,3.57-43.85q.81-10,1.59-20.08,1.49-18.78,3-37.54C318.53,381.64,318.76,378.19,319,374.73Z"/><path class="cls-13" d="M240.34,86.1c6.83,0,9.41,5,11.63,9.4,4.87,9.68,9.11,19.67,13.47,29.59.93,2.13,1.21,4.53,1.85,6.78,1.63,5.76-1.93,8.89-5.81,12a205.2,205.2,0,0,1-33.06,21.66c-5.95,3.19-10.67,1.7-13.71-4.6-4.87-10.11-9.74-20.22-14.25-30.49a56.91,56.91,0,0,1-3.35-12.29,5,5,0,0,1,1.68-4.07c6.6-5.2,13.3-10.28,20.13-15.15,5.06-3.61,10.33-6.91,15.6-10.21A49.34,49.34,0,0,1,240.34,86.1ZM223.6,121.43c-1.25,1.65-2.53,2.6-2.45,3.41s1.65,2.64,2.09,2.5c1.22-.39,2.19-1.56,3.26-2.43Zm19.3,13c1.5-1.41,2.36-2.21,3.22-3-1-.9-1.9-2.21-3.05-2.51-.65-.17-2.29,1.23-2.46,2.12s1.16,1.77,2.29,3.35Z"/><path class="cls-14" d="M367,263.88l16.63,10.39,5.72,4.64,14.23,18.66c4.58,8.3,6.82,17.16,4.66,26.49-1.44,6.21-4,12.17-6,18.24l-13.61,16.35-10.78,7.28c.79,1.09,1.75,2.32,2.59,3.62a18.15,18.15,0,0,1-3.74,23.66c-5.14,4.16-12.42,3.71-17.82-1.09A20.71,20.71,0,0,1,362,358.56a8.88,8.88,0,0,1,3.57-1c8.42-.81,15.13-4.71,20.48-11.14,10.6-11.21,14.25-30.67,7.31-43.46a64.25,64.25,0,0,0-23.72-24.32A51.89,51.89,0,0,0,334,269.3c-1.61.14-3.22.47-4.83.46a5.29,5.29,0,0,1-5.52-5.05c0-.11,0-.21,0-.32-.16-3.16,1.4-4.87,4.51-5.33a69.19,69.19,0,0,1,34.59,3.56C364.1,263.1,365.56,263.47,367,263.88Z"/><path class="cls-15" d="M251.56,242.89c6.43,1.16,13,8,12.42,14.13-.47,5.13-1.87,10.33-5.36,14.49-3.25,3.86-6.66,7.59-10,11.38a34.76,34.76,0,0,0-19.57-10.57c-13.81-2.61-27.1-1.9-39,6.54-1.79,1.28-3,3.45-4.41,5.2-6.12-4.6-10.44-10.69-14.24-17.2a26.92,26.92,0,0,1-3.07-6.11c-1.72-6.16,1.12-11.39,6.45-15.33,5.95-4.4,12.44-4.73,19.23-4.1,1.55.15,3,1.4,4.51,2.14-.18,7.45,4.68,13.15,12.43,13.3,10.06.18,20.16-.14,30.2-.8,6.89-.45,8.65-2.55,9.95-9.38C251.34,245.37,251.41,244.1,251.56,242.89Z"/><path class="cls-16" d="M388.59,358.65,402.2,342.3c.79,10.79-1.42,21.73,1.68,32.41.53,5.91,1,11.83,1.61,17.73.64,6.26,1.56,12.48,2.07,18.74.48,5.82.59,11.66.86,17.49v39.12c-1.45,12.79-2.79,25.59-4.39,38.36-.9,7.25-1.7,14.6-3.5,21.66-2.75,10.8-6.33,21.4-9.56,32.09-.38-.68-1.16-1.42-1.06-2,1.66-10.45,3.57-20.86,5.12-31.32,1.23-8.39,2.09-16.84,3-25.28.57-5.15.94-10.33,1.4-15.49.45-1.76,1.27-3.52,1.29-5.29q.18-16.47,0-33c0-2.29-.85-4.57-1.3-6.86-.57-8.68-.83-17.39-1.78-26-1.2-10.89-2.81-21.75-4.55-32.58C391.87,374.22,390.12,366.45,388.59,358.65Z"/><path class="cls-17" d="M185.64,284.1c1.45-1.75,2.62-3.92,4.41-5.2,11.91-8.44,25.2-9.15,39-6.54a34.76,34.76,0,0,1,19.57,10.57c-5.23,3.11-10.29,6.57-15.74,9.24-7.68,3.77-16.13,3.93-24.35,2.86C199.89,293.87,192.24,289.87,185.64,284.1Z"/><path class="cls-16" d="M369.64,278.68A64.25,64.25,0,0,1,393.36,303c6.94,12.79,3.29,32.25-7.31,43.46-1.57-6.27-3.11-12.55-4.73-18.81-1.31-5-2.74-10.06-4.06-15.1-1.13-4.36-2.25-8.73-3.27-13.12-1.52-6.53-2.95-13.08-4.4-19.63A3.83,3.83,0,0,1,369.64,278.68Z"/><path class="cls-18" d="M282.34,202.89c2.28,7.91-5.08,16-11.3,17.68A16.62,16.62,0,0,1,251.3,211a17.27,17.27,0,0,1,7.14-21.52c7.13-4.14,15.69-2.26,20.91,4.6-3.48-.53-6.28.42-7.25,4.06-.75,2.8-.2,5.49,2.63,7C278,207,280.38,205.58,282.34,202.89Z"/><path class="cls-18" d="M152.59,194.1c-.09-9.68,6.25-16.45,15.51-16.57s15.93,6.4,16.06,16c.12,9.84-6.39,16.82-15.68,16.82S152.67,203.7,152.59,194.1Zm28.89-5c.05-3.41-2.17-6-5.27-6.13s-5.53,2.36-5.65,5.73c-.13,3.68,2.08,6.22,5.44,6.25C179.18,195,181.42,192.59,181.48,189.1Z"/><path class="cls-19" d="M251.56,242.89c-.15,1.23-.22,2.48-.46,3.69-1.3,6.83-3.06,8.93-9.95,9.38-10,.66-20.14,1-30.2.8-7.75-.15-12.61-5.85-12.43-13.3,8.4,5.31,17.33,5.35,26.57,2.74,5.38-1.52,10.74-3.27,16.23-4.13C244.61,241.56,248.14,242.57,251.56,242.89Z"/><path class="cls-20" d="M306.67,159.65a11.1,11.1,0,0,1-1.41-1.93c-4-8.4-10.45-13.7-19.62-15.71a48,48,0,0,1-7.77-2.55,3,3,0,0,1-1.45-2.22,2.51,2.51,0,0,1,1.6-1.72c2-.36,4.26-.88,6.21-.45,10.23,2.26,17.57,8.51,22.48,17.57,1,1.89.9,4.42,1.3,6.65Z"/><path class="cls-20" d="M145.68,158.67c.09-1.69-.31-3.6.35-5,4.84-10.47,12.8-17.35,24.29-19.36,2.12-.37,6.36,1,6.58,2.15.63,3.26-3.11,3.43-5.23,3.83-7.57,1.42-14.4,4.1-19.36,10.21a88.71,88.71,0,0,0-5.39,8.31Z"/><path class="cls-21" d="M282.34,202.89c-2,2.69-4.36,4.07-7.61,2.28-2.83-1.56-3.38-4.25-2.63-7,1-3.64,3.77-4.59,7.25-4.06C282.75,196.19,283.61,199.18,282.34,202.89Z"/><path class="cls-22" d="M148.82,526.29q31.1,0,62.18.17c.8,0,1.59.8,2.38,1.23q-30.37,0-60.77-.17C151.34,527.51,150.08,526.72,148.82,526.29Z"/><path class="cls-22" d="M399.46,440.67c.45,2.29,1.27,4.57,1.3,6.86q.21,16.5,0,33c0,1.77-.84,3.53-1.29,5.29Q399.47,463.23,399.46,440.67Z"/><path class="cls-22" d="M370.8,151.2c0,6.11,0,12.23-.1,18.34,0,.92-.83,1.83-1.27,2.74,0-5.9,0-11.81.12-17.71C369.58,153.43,370.36,152.32,370.8,151.2Z"/><path class="cls-23" d="M246.65,430.1c-1.23-.69-2.48-2-3.71-2-18.86.16-37.71.6-56.57.74-14.12.1-28.27.34-42.35-.4-10.47-.56-20.88-2.5-31.28-4-6.74-1-13.47-2-20.12-3.41-6.89-1.43-13.72-3.19-20.53-5-8.22-2.2-16.45-4.4-24.56-7-8.75-2.77-17.36-6-26.41-9.11,1.33-5.7,2.57-11.09,3.85-16.47.11-.48.43-.9.57-1.38,2.22-7.81,2.16-7.58,10.3-5.6,9,2.2,18.13,4,27.22,5.85s18.35,3.92,27.58,5.56c7.7,1.37,15.48,2.33,23.23,3.37,9.58,1.3,19.16,2.73,28.77,3.67,10.31,1,20.65,1.64,31,2.19,12.71.68,25.44,1.1,38.16,1.67a6.11,6.11,0,0,1,1.66.6,6.67,6.67,0,0,0,2,.68c7.3.07,14.6.06,21.9.07l12,.11.56.6c.38.24.76.67,1.14.68q16.45.08,32.9.08h6c-.79,5.09-1.5,9.8-2.25,14.49-.33,2.06-.79,4.09-1.05,6.15-.39,3.07-1.5,4.87-5.14,4.79-6.21-.14-12.43.22-18.65.36l-6.12-10.71c.22-1.07.45-2.13.74-3.53q-3-.6-6-.92c-6.71-.34-13.43-.53-20.14-.84q-6.9-.3-13.78-.8-20.07-1.41-40.14-2.92c-7.19-.52-14.39-.87-21.56-1.63-12.33-1.31-24.65-2.74-36.94-4.39-12.54-1.68-25-3.62-37.53-5.6-7.72-1.22-15.38-2.78-23.1-4-1.15-.19-3.18.27-3.57,1-1.58,3.18-2.69,6.6-4,10.08a19.28,19.28,0,0,0,2.36.93c11.79,2.93,23.49,6.37,35.41,8.62,15.09,2.85,30.32,5.14,45.57,6.92,13.31,1.55,26.73,2.28,40.12,3,11.45.59,22.92.6,34.38.86.5,0,1,.07,1.5.08q18.84.36,37.7.66Z"/><path class="cls-24" d="M246.65,430.1l1.14-5.85c1-2,2-4.07,3.08-6.06,2.51-4.58,2.54-4.56,6-1.47L263,427.43c1.08,3.82,2.39,7.58,3.17,11.45.87,4.32-.16,8.42-4.13,10.77-4.19,2.49-9,3.55-13.55,1.18A7.53,7.53,0,0,1,245,445.2C245,440.16,246,435.1,246.65,430.1Z"/><path class="cls-25" d="M283.91,401.64q-16.47,0-32.9-.08c-.38,0-.76-.44-1.15-.68l30.67.24Z"/><path class="cls-22" d="M280.53,401.1l-30.67-.24-.55-.6c9.91,0,19.81,0,29.71.1C279.53,400.39,280,400.86,280.53,401.1Z"/><path class="cls-25" d="M237.34,400.17c-7.3,0-14.6,0-21.9-.07a6.67,6.67,0,0,1-2-.68Z"/><path class="cls-26" d="M458.52,126.38c-.57.8-1.54,1.56-1.65,2.42-2.94,23.57-11,45.82-17.58,68.44-7.83,26.85-14,54-12.07,82.2,1.17,17.07,3.08,34.08,4.72,51.12.88,9.19,1.87,18.38,2.82,27.57-.3,1.76-1.08,3.62-.79,5.28,1.27,7.36-2.79,12.45-10.4,12.86-1.52.08-3,.83-4.52,1.09a13.45,13.45,0,0,1-4.05.26,71.45,71.45,0,0,1-7.83-1.45,19,19,0,0,1-3.29-1.46c-3.1-10.68-.89-21.62-1.68-32.41,2.05-6.07,4.59-12,6-18.24,2.16-9.33-.08-18.19-4.65-26.49.58-7,.68-14.14,1.86-21.07,1.72-10.17,4.13-20.23,6.41-30.3,1.71-7.55,3.72-15,5.51-22.56,1.26-5.29,2.38-10.61,3.54-15.92,1.83-8.43,3.71-16.86,5.46-25.3q1.8-8.73,3.27-17.51c1.51-9,2.88-18,4.31-27.08l.66-1.85a11.7,11.7,0,0,0,.68-2.74q.08-11.22,0-22.49a11.66,11.66,0,0,0-.68-2.72L434,106.1c-.08-2.91-.17-5.81-.25-8.71.22-.43.43-1.23.66-1.23a21.48,21.48,0,0,0,10.84-3.41,37.34,37.34,0,0,1,5.11-2.21,31.66,31.66,0,0,1,3.07-.86c1.24,5.12,3,10.19,3.57,15.38.65,6.34.19,12.8.32,19.2C457.29,125,458.08,125.68,458.52,126.38Z"/><path class="cls-22" d="M408.45,467.79V428.67l.57,1.95V467.4A5.72,5.72,0,0,0,408.45,467.79Z"/><path class="cls-25" d="M409,467.4V430.62a6.21,6.21,0,0,1,.72,1.89q.06,16.29,0,32.59A8.32,8.32,0,0,1,409,467.4Z"/><path class="cls-11" d="M433.7,97.42c.08,2.9.17,5.8.25,8.71v31.7c-1.43,9-2.8,18.07-4.31,27.08q-1.47,8.79-3.27,17.51c-1.75,8.44-3.63,16.87-5.46,25.3-1.16,5.31-2.28,10.63-3.54,15.92-1.79,7.53-3.8,15-5.51,22.56-2.28,10.07-4.69,20.13-6.41,30.3-1.18,6.93-1.28,14-1.86,21.07l-14.24-18.66c5.37-30.1,10.67-60.22,16.14-90.3,2.61-14.32,5.73-28.54,8.27-42.86a138.46,138.46,0,0,0,1.39-42.42A270.9,270.9,0,0,0,409.06,70c-4.53-17.08-13.16-31.73-29-41.08-.45-.26-.65-1-1-1.44a104.42,104.42,0,0,1,26.6,9.71c.73.4,1.41.88,2.12,1.32l3.44,2.88c2,3,4.08,6,5.95,9,3.07,5,6,10.15,9,15.23l1.61,4.77q1.83,8.34,3.66,16.64C432.23,90.53,433,94,433.7,97.42Z"/><path class="cls-16" d="M384.37,158.78V117.42a10.35,10.35,0,0,1,.61,2.45q.06,18.24,0,36.47A10.15,10.15,0,0,1,384.37,158.78Z"/><path class="cls-27" d="M437.65,60.44c7.24-4.24,9.8-12.87,5.87-20.65-1.27-2.52-3.21-4.7-4.85-7,6.36,1,9.32,6,11.59,11,4.48,9.92.21,17.42-8.67,22.43-4.1,2.31-9.15,2.93-13.77,4.31-.55-1.62-1.09-3.23-1.61-4.85C430.83,65.7,434.37,63.37,437.65,60.44Z"/><path class="cls-1" d="M223.6,121.43l2.9,3.48c-1.07.87-2,2-3.26,2.43-.44.14-2-1.55-2.09-2.5S222.35,123.1,223.6,121.43Z"/><path class="cls-1" d="M242.9,134.39c-1.13-1.58-2.43-2.62-2.29-3.39s1.81-2.29,2.46-2.12c1.15.3,2,1.61,3.05,2.51C245.26,132.18,244.4,133,242.9,134.39Z"/><path class="cls-21" d="M181.48,189.1c-.06,3.48-2.3,5.87-5.48,5.85-3.36,0-5.57-2.57-5.44-6.25.12-3.37,2.57-5.86,5.65-5.73S181.53,185.7,181.48,189.1Z"/><path class="cls-27" d="M256.83,416.72c-3.42-3.09-3.45-3.11-6,1.47-1.09,2-2.06,4-3.08,6.06l-37.7-.66c-.5,0-1-.06-1.5-.08-11.46-.26-22.93-.27-34.38-.86-13.39-.69-26.81-1.42-40.12-3-15.25-1.78-30.48-4.07-45.57-6.92-11.88-2.22-23.58-5.63-35.37-8.63a19.28,19.28,0,0,1-2.36-.93c1.34-3.48,2.45-6.9,4-10.08.39-.77,2.42-1.23,3.57-1,7.72,1.22,15.38,2.78,23.1,4,12.49,2,25,3.92,37.53,5.6,12.29,1.65,24.61,3.08,36.94,4.39,7.17.76,14.37,1.11,21.56,1.63q20.07,1.47,40.14,2.92,6.87.51,13.78.8c6.71.31,13.43.5,20.14.84q3,.32,6,.92C257.28,414.59,257.05,415.65,256.83,416.72Z"/><path class="cls-22" d="M433.94,137.83v-31.7l.63,1.9V136Z"/><path class="cls-25" d="M434.6,136V108a11.66,11.66,0,0,1,.68,2.72q.11,11.25,0,22.49A11.7,11.7,0,0,1,434.6,136Z"/><path class="cls-26" d="M437.65,60.44c-3.28,2.93-6.82,5.26-11.44,5.24-3-5.08-5.93-10.2-9-15.23-1.87-3.08-4-6-5.95-9C421.05,46.37,430.27,52.1,437.65,60.44Z"/></g></g></g></g></svg>