<svg xmlns="http://www.w3.org/2000/svg" viewBox="0 0 228.95 148.83"><defs><style>.cls-1{fill:#72f286;}.cls-2{fill:#84cef5;}.cls-3{fill:#f8e14f;}.cls-4{fill:#3b79bc;}.cls-5{fill:#f8dc2a;}.cls-6{fill:#bec0be;}.cls-7{fill:#df5d51;}.cls-8{fill:#4e63ca;}.cls-9{fill:#0a99dc;}.cls-10{fill:#c0c429;}.cls-11{fill:#c93329;}.cls-12{fill:#2937ab;}.cls-13{fill:#6b83dd;}.cls-14{fill:#ec7c6d;}.cls-15{fill:#097db4;}.cls-16{fill:#d3d3d3;}.cls-17{fill:#fce7c3;}.cls-18{fill:#519e5e;}.cls-19{fill:#b6b6b6;}.cls-20{fill:#d6d7d6;}.cls-21{fill:#fbfcfb;}.cls-22{fill:#f1f8f2;}.cls-23{fill:#abe9fc;}.cls-24{fill:#f5dc2e;}.cls-25{fill:#3992d8;}.cls-26{fill:#ace9f6;}.cls-27{fill:#baebf6;}.cls-28{fill:#52fc6d;}.cls-29{fill:#666;}</style></defs><g id="Layer_2" data-name="Layer 2"><g id="Layer_1-2" data-name="Layer 1"><path class="cls-1" d="M84,84.7c-4-2.5-8.1-5-12.3-7.6,2.2-1.2,4.2-2.3,6.3-3.4,14.6-7.9,29.2-15.7,43.8-23.6,4.5-2.4,9.1-4.9,13.6-7.3a1.5,1.5,0,0,1,1.8.1c11.7,7.3,23.4,14.5,35,21.7,13,8.1,26,16.1,39,24.2.2.1.4.3.8.5-1.5.8-2.8,1.5-4.1,2.3-.5-.7-.9-1.5-1.5-2.2-1.8-2.2-3.9-3.8-6.9-2.8a1.57,1.57,0,0,0-1,1.1c0,.8.5,1.1,1.4.9a3.41,3.41,0,0,1,2.2-.2,6.09,6.09,0,0,1,3.9,4.2c-1.5.8-2.9,1.6-4.4,2.4a12.66,12.66,0,0,0-4.2-4.7c-1.6-1-3.5-1.1-4.6-.2a2.92,2.92,0,0,0-.5,1.4c.4.1.9.4,1.3.3a3.57,3.57,0,0,1,4.1,1.1c.8,1,1.5,2,2.3,3.1-1.3.7-2.7,1.4-4,2.1a12.78,12.78,0,0,0-3.7-4.6c-1.7-1.3-3.9-1.6-5.2-.5-.3.2-.3.9-.5,1.3a5.27,5.27,0,0,0,1.2.3,10.89,10.89,0,0,1,3.2.3,6.61,6.61,0,0,1,3.2,4.1c-1.2.7-2.4,1.3-3.7,2-.2-.4-.5-.7-.7-1.1a9.76,9.76,0,0,0-3.9-3.9,4.2,4.2,0,0,0-4.2,0c-.3.2-.4.9-.5,1.4a5.85,5.85,0,0,0,1.3.2c.8.1,1.8-.2,2.5.1a7,7,0,0,1,3.7,4.2c-1,.6-2.1,1.1-3.1,1.7-1-1.2-2-2.6-3.1-3.7a5.46,5.46,0,0,0-5-1.5,1.32,1.32,0,0,0-1.2,1.6c.1.8.8.7,1.5.6.9-.2,1.9-.6,2.9.1a8.68,8.68,0,0,1,3.2,3.9c-1.2.7-2.4,1.3-3.6,2l-1.2-1.5a9,9,0,0,0-4.1-3.6,3.77,3.77,0,0,0-3.7.2c-.3.2-.4.8-.6,1.3a3.26,3.26,0,0,0,1.3.4c.8,0,1.8-.4,2.4-.1a6.54,6.54,0,0,1,3.8,4.3c-1.3.7-2.7,1.4-4,2a21.24,21.24,0,0,0-2.9-3.8c-1.5-1.4-3.4-2.5-5.6-1.3-.4.2-.6.9-.9,1.3a7.37,7.37,0,0,0,1.4.4c1,.1,2.2-.2,3,.3a7.12,7.12,0,0,1,3.3,4.1l-3.6,1.8a32.12,32.12,0,0,0-2.1-3,6.58,6.58,0,0,0-5.8-2.3,1.42,1.42,0,0,0-1.3,1.7c.2.9.9.6,1.5.5a4.5,4.5,0,0,1,2.6.2,6.72,6.72,0,0,1,3.3,3.9c-1.2.6-2.4,1.3-3.6,1.9-.2-.3-.5-.5-.6-.8a9.87,9.87,0,0,0-4.6-4.2,3.58,3.58,0,0,0-3.6.3c-.3.2-.4.8-.6,1.3a3.26,3.26,0,0,0,1.3.4c.8,0,1.7-.5,2.3-.2a6.85,6.85,0,0,1,3.9,4.4c-.9.5-1.9,1-2.8,1.4a29.71,29.71,0,0,0-2.8-3.4,5.15,5.15,0,0,0-5.7-1.5c-.5.2-.8.8-1.2,1.2a11.91,11.91,0,0,0,1.5.9c.3.1.8-.2,1.2-.2a4.3,4.3,0,0,1,1.6,0,7.61,7.61,0,0,1,3.7,4c-1.1.6-2.2,1.2-3.3,1.7a13,13,0,0,0-1-1.5c-2.2-2.8-4.6-4.4-7.7-3.2-.5.3-1.1.7-1.6,1l1.3,1a11.14,11.14,0,0,1,1.7-.2,5.34,5.34,0,0,1,2.2.2,8,8,0,0,1,3.3,3.7c-1.3.7-2.5,1.4-3.8,2a1.71,1.71,0,0,1-1.4,0c-2.8-1.6-5.5-3.4-8.3-5.1-11-6.8-22.1-13.7-33.1-20.5.9-.7,1.8-1.4,2.7-2.2,1.3-1,2.6-1.9,3.7-2.9a2.31,2.31,0,0,0,.6-1.9,61.37,61.37,0,0,0-2.5-5.9c-.4-.5-.7-1.2-1.2-1.5-3.4-1.9-7-3.7-10.4-5.6a4.72,4.72,0,0,0-4.6-.2,47.34,47.34,0,0,0-4.6,3.2C87.55,82.2,85.75,83.4,84,84.7Zm97.8-.9c-.4-.3-.7-.5-1-.7-6-3.7-12-7.4-17.9-11.1-.7-.5-1.2-.1-1.7.2-12.5,6.7-25,13.4-37.5,20.2-.7.4-1.3.8-2.1,1.2,6.4,4,12.6,7.8,18.8,11.7a1.67,1.67,0,0,0,1.8,0c11.5-6.2,23.1-12.4,34.6-18.6A34.47,34.47,0,0,1,181.75,83.8Z"/><path class="cls-2" d="M164.35,6.7c3.4,2.2,6.9,4.4,10.3,6.6.4.3.8.7,1.2,1-1.3.6-2.6,1.3-3.9,1.9l-2.7,1.2c-1.7-1.1-3.3-2.3-5-3.4-.2-.1-.6,0-.9,0a4.23,4.23,0,0,0,1.3,1.1c1.3,1,2.6,1.9,4,2.9H168c-.7-.5-1.2-1.4-2.2-1,0,.1-.1.3-.1.4.6.4,1.2.7,1.8,1.1-.2.1-.3.2-.5.3a14,14,0,0,0-1.7-.9,3.35,3.35,0,0,0-1,0v.3c.5.3,1.1.7,1.6,1-.3.1-.5.3-.8.4-.7-.5-1.2-1.5-2.4-.9.7.5,1.2,1,1.7,1.4-.3.1-.5.1-.8.2a2.21,2.21,0,0,0-2.5-.9c.8.6,1.4,1,1.9,1.4-.3.1-.6.1-.8.2-1.8-1.6-3.5-2.4-4.1-1.8,1.2.8,2.4,1.5,3.6,2.3l-.9.3c-.7-.4-1.2-1.4-2.4-.9.7.6,1.2,1.1,1.7,1.6h-.7c-.7-.4-1.2-1.4-2.5-.7.8.4,1.4.8,2,1.1-.2.2-.5.3-.7.5-.8-.4-1.3-1.5-2.6-.9.7.6,1.2,1,1.7,1.4a2.35,2.35,0,0,1-.8.2c-1.3-1.2-1.6-1.3-2.3-.7l1.5,1.5c-.2,0-.3.1-.5.1-1.7-1.1-3.3-2.2-5-3.3a2,2,0,0,0-1.1-.2c0,.1-.1.3-.1.4l4.2,2.7c.4.3.7.7,1.1,1h-.7c-.7-.5-1.3-1.2-2.6-.8.9.5,1.5.9,2.1,1.2-.3.1-.6.3-.9.4-.6-.5-1.2-1.3-2.4-.9a5.77,5.77,0,0,0,1,.8,5,5,0,0,1,.8.7l-.6.3c-.7-.5-1.4-1.4-2.6-1,.6.6,1.1,1.2,1.6,1.7a.9.9,0,0,0-.5.1c-.8-.3-1.3-1.6-2.2-1.1l1.2,1.8h-.7c-1.3-.8-2.3-2.1-3.9-2.2-.1.1-.1.3-.2.4,1.2.7,2.4,1.5,3.6,2.2-.3.1-.6.3-.9.4-.6-.6-1.2-1.3-2.2-.7.6.3,1.1.7,1.7,1-.2.2-.5.3-.7.5-.7-.5-1.3-1.3-2.3-1.2-.1.1-.1.2-.2.4a17.38,17.38,0,0,1,1.5,1.3c-.3.1-.5.1-.8.2-.6-.6-1.2-1.3-2.2-.9.5.6,1,1.1,1.5,1.7H142c-1.6-1.2-1.6-1.2-2.3-.6a17.39,17.39,0,0,0,1.8,1.1,2.51,2.51,0,0,0-.7.4l-5.1-3.3c-.3-.2-.7-.1-1.1-.1a.6.6,0,0,1-.1.4c1.8,1.1,3.6,2.3,5.4,3.4-.2.2-.5.3-.7.5-1.8-1.4-1.8-1.4-2.6-.7a16.18,16.18,0,0,1,1.8,1c-.2.2-.5.3-.7.5-.8-.3-1.2-1.5-2.5-.9a12.7,12.7,0,0,1,1.7,1.4c-.3.1-.6.1-.8.2-1.3-1.2-1.5-1.2-2.3-.7l1.8,1.2c-.2.1-.3.2-.5.3a9.15,9.15,0,0,0-1.7-.9,3.75,3.75,0,0,0-1.1-.1v.4c.6.4,1.2.7,1.8,1.1-.2.2-.5.3-.7.5-1.3-1-2.5-2.1-4.1-2.4a.76.76,0,0,0-.2.4c1.2.7,2.4,1.5,3.6,2.2-.2.2-.5.3-.7.5-.8-.4-1.3-1.5-2.6-.9.7.5,1.2,1,1.7,1.4a2.19,2.19,0,0,0-.5.3c-.8-.4-1.3-1.5-2.5-1,.6.6,1,1.1,1.5,1.6a.9.9,0,0,0-.5.1c-1.9-1.2-1.9-1.2-2.4-.7.1.1.1.2.2.3.5.3.9.6,1.4.9-.2.1-.3.2-.5.3a12.9,12.9,0,0,0-1.6-.9,3.75,3.75,0,0,0-1.1-.1.6.6,0,0,1-.1.4,16.18,16.18,0,0,0,1.8,1c-.2.2-.5.3-.7.5-1.6-1.1-3.2-2.2-4.8-3.2a4.22,4.22,0,0,0-1.2-.3c0,.1-.1.3-.1.4l5.4,3.3c-.2.2-.5.3-.7.5-.8-.4-1.3-1.5-2.6-.9.7.5,1.2,1,1.7,1.4-.3.1-.5.1-.8.2-1.3-1.2-1.5-1.2-2.2-.6.6.4,1.1.7,1.7,1.1-.2.1-.5.2-.7.3-.8-.3-1.4-1.5-2.8-.8.8.5,1.4.9,2,1.2l-.9.3c-.7-.5-1.2-1.3-2.3-.8.6.5,1.1,1,1.7,1.5a1.69,1.69,0,0,1-.5.2c-3-2.3-3.5-2.5-4.4-1.9,1.2.7,2.3,1.5,3.5,2.2-.2.2-.4.3-.6.5-.7-.4-1.2-1.5-2.6-.9.7.5,1.2.9,1.8,1.3-.3.1-.6.1-.9.2-1.3-1.2-1.5-1.2-2.2-.6.6.4,1.1.7,1.7,1.1-.2.1-.3.2-.5.3a14,14,0,0,0-1.7-.9,3.35,3.35,0,0,0-1,0v.3c.6.3,1.2.7,1.7,1-.2.2-.5.3-.7.5-.7-.5-1.4-1.5-2.8-.8a14.3,14.3,0,0,0,2.1,1.1c-.2.2-.5.3-.7.5-1.5-1-3.1-2.1-4.6-3.1a5.91,5.91,0,0,0-1.4-.6c.2-.2.3-.6.5-.7,4.4-2.9,8.9-5.8,13.2-8.8a100.17,100.17,0,0,0,8.1-6.5,25.08,25.08,0,0,0,2.7-3.7,4.62,4.62,0,0,0,.7-.7,4.87,4.87,0,0,0,1.1-.4C143,18.2,153.65,12.5,164.35,6.7Z"/><path class="cls-3" d="M.25,82.3l7.5-4.2c16.6-8.9,33.2-17.9,49.8-26.8,4.7-2.5,9.5-5,14.3-7.6.8,3.2-.3,5.9-2.2,8.5a1,1,0,0,1,.1.3c-.5.4-1,.7-1.6,1.1a11.11,11.11,0,0,0-1.6.7c-15.4,8.3-30.8,16.5-46.2,24.8-4.6,2.5-9.1,4.9-13.7,7.4C4.55,85.1,2.45,83.7.25,82.3Z"/><path class="cls-4" d="M.25,82.3c2.2,1.4,4.3,2.8,6.5,4.2.9.6,1.8,1.1,2.6,1.7.5.3,1.1.7,1.6,1,.2.2.5.3.7.5,1.6,1.1,3.3,2.1,4.9,3.2a29,29,0,0,1,3.6,2.5c1.6,1.4,3,1.2,4.5,0,.1,0,.1-.1.2-.2a4.23,4.23,0,0,1,.7-.5c.3-.1.5-.2.8-.3s.5-.3.7-.5.5-.3.7-.5.5-.2.7-.3.5-.3.7-.4.5-.2.7-.3.5-.3.7-.4.6-.3.9-.4a2.19,2.19,0,0,0,.5-.3,4.23,4.23,0,0,1,.7-.5c.2-.2.5-.3.7-.5s.5-.2.7-.3.5-.3.7-.5.5-.2.7-.3.5-.3.7-.4.5-.2.7-.3.5-.3.7-.4.5-.3.7-.5.5-.3.7-.5a1.85,1.85,0,0,1,.7-.2,1.85,1.85,0,0,1,.7-.2c.2-.2.5-.3.7-.5s.5-.3.7-.4l.9-.3a2.18,2.18,0,0,0,.5-.4l.5-.5c.3-.1.6-.1,1-.2.2-.2.5-.3.7-.5s.5-.3.7-.5.5-.2.7-.3.5-.3.7-.5.5-.2.8-.3.5-.3.7-.5.5-.2.7-.3.5-.3.7-.4.5-.3.7-.4.5-.2.7-.3c.4-.2.8-.3,1.2-.5.1-.1.2-.2.3-.2.2-.2.5-.3.7-.5s.5-.3.7-.4.6-.3.9-.4.3-.2.5-.3.5-.3.7-.4.5-.2.7-.3.5-.3.7-.5.5-.2.7-.3.5-.3.7-.5.5-.3.7-.5.5-.2.7-.3.5-.3.7-.4.5-.2.8-.3.5-.3.7-.4.5-.3.7-.4.5-.2.7-.3.3-.4.5-.5.6-.3.9-.4a3,3,0,0,1,1-.2l.5-.5c.3-.1.5-.2.8-.3s.5-.3.7-.4.6-.3.9-.4.3-.2.5-.3.5-.3.7-.5.5-.2.7-.3.5-.3.7-.5.5-.3.7-.5.5-.2.8-.3.5-.3.7-.4.5-.2.7-.3.5-.3.7-.4l.5-.5c.3-.1.6-.1,1-.2a9.29,9.29,0,0,1,1-.5l.5-.5c.2-.1.5-.2.7-.3s.5-.3.7-.5.5-.2.7-.3.5-.3.7-.4.5-.3.7-.4.5-.2.7-.3.6-.3.9-.4.3-.2.5-.3.5-.3.7-.5.5-.3.7-.5.5-.2.7-.3.5-.3.7-.4.6-.3.9-.4.3-.2.5-.3.5-.3.7-.4a2.19,2.19,0,0,0,.5-.3c.3-.2.6-.3.9-.5s.5-.2.7-.3.5-.3.7-.5.5-.3.7-.5.5-.3.7-.4.5-.2.7-.3.5-.3.7-.4.5-.2.7-.3l.5-.5c.3-.1.6-.1.9-.2s.5-.3.7-.5.5-.3.7-.5.5-.2.7-.3.5-.3.7-.5a10.37,10.37,0,0,1,1-.4c.2-.1.3-.2.5-.3s.5-.3.7-.4a.9.9,0,0,0,.5-.1c.3-.2.6-.5.9-.7s.5-.3.7-.5.5-.2.7-.3.5-.3.7-.5.5-.2.8-.3.5-.3.7-.4a10.37,10.37,0,0,1,1-.4c.2-.1.3-.2.5-.3s.5-.3.7-.4.5-.2.7-.3.5-.3.7-.5.5-.3.7-.5.5-.2.7-.3.5-.3.7-.5a10.37,10.37,0,0,1,1-.4c.2-.1.3-.2.5-.3l.5-.5c.3-.1.6-.1.9-.2s.5-.3.8-.5.4-.3.6-.5l.9-.3a1.69,1.69,0,0,1,.5-.2,4.62,4.62,0,0,1,.7-.7l.9-.3c.3-.1.5-.3.8-.4s.5-.2.7-.3l.5-.5c.3-.1.5-.1.8-.2s.6-.3.9-.5.5-.3.7-.5.5-.2.8-.3.5-.3.7-.5a10.37,10.37,0,0,1,1-.4c.2-.1.3-.2.5-.3s.5-.3.8-.4a.9.9,0,0,0,.5-.1c.3-.2.6-.5.9-.7a2.19,2.19,0,0,0,.5-.3c.3-.2.6-.3.9-.5s.5-.3.7-.5.5-.2.8-.3.5-.3.7-.5a10.37,10.37,0,0,1,1-.4c.2-.1.3-.2.5-.3l.5-.5c.3-.1.6-.1.8-.2a5.58,5.58,0,0,0,.8-.5c.2-.2.5-.3.7-.5s.5-.2.8-.3.5-.3.7-.5a3,3,0,0,0,.8-.4,2.51,2.51,0,0,0,.7-.4l.5-.5h.7l.7-.7c.3-.1.5-.1.8-.2s.6-.3.9-.5.5-.3.7-.5l.6-.3c.3-.1.6-.3.9-.4l.5-.5h.7c.3-.2.6-.4,1-.7a.9.9,0,0,0,.5-.1c.3-.2.6-.5.9-.7l.6-.3.6-.6c.3-.1.6-.3.9-.4l.5-.5h.7a8.79,8.79,0,0,1,1-.6c.2,0,.3-.1.5-.1l.7-.7a2.35,2.35,0,0,1,.8-.2c.3-.2.6-.3.9-.5s.5-.3.7-.5.3-.3.5-.4h.7l.7-.7.9-.3.5-.5c.3-.1.6-.1.8-.2a2.65,2.65,0,0,1,.6-.5c.3-.1.5-.1.8-.2a3,3,0,0,1,.7-.5c.3-.1.5-.3.8-.4s.7-.3,1.1-.4c.2-.1.3-.2.5-.3l.5-.5h.7l.7-.7c.9-.4,1.8-.7,2.7-1.2,1.3-.6,2.6-1.3,3.9-1.9a2.75,2.75,0,0,1-1.7,3.3c-20.7,11-41.3,22.1-62,33.2-24.3,13.1-48.6,26.1-72.9,39.2-5.4,2.9-10.8,5.8-16.1,8.7a1.36,1.36,0,0,1-1.7-.1c-6.6-4.3-13.3-8.6-19.9-13C-.15,84.6-.15,84.5.25,82.3Z"/><path class="cls-5" d="M69.75,52.5c0-.1-.2-.2-.1-.3,1.8-2.6,3-5.3,2.2-8.5,5.4-2.9,10.7-5.8,16.1-8.7l35.7-19.2a9.14,9.14,0,0,0,1.4-.7,10.08,10.08,0,0,1,6.1,4.4v.2c-2.3,1.2-4.7,2.4-7,3.7-12.8,6.9-25.6,13.8-38.4,20.6C80.35,46.9,75.05,49.7,69.75,52.5Z"/><path class="cls-6" d="M188.65,101.9a7,7,0,0,0-3.7-4.2,6.92,6.92,0,0,0-2.5-.1c-.4,0-.9-.2-1.3-.2.2-.5.2-1.2.5-1.4a4.2,4.2,0,0,1,4.2,0,9.17,9.17,0,0,1,3.9,3.9c.2.4.5.7.7,1.1s.2.5.3.8c.4,1.1.7,2.3,1.1,3.4-.1.5-.3.9-.4,1.4.1.1.2.1.3.2.9-.7,1.9-1.3,2.8-2.1.2-.2.1-.7.1-1,1-1.3.3-2.6-.2-3.8-.1-.3-.2-.5-.3-.8A7.37,7.37,0,0,0,191,95c-.9-.5-2.1-.2-3.2-.3a5.27,5.27,0,0,1-1.2-.3c.1-.5.2-1.1.5-1.3,1.3-1.1,3.5-.8,5.2.5a12.78,12.78,0,0,1,3.7,4.6c.2.3.3.6.5.9.2,1.2.5,2.3.7,3.5l-.3,1.5c-.5,2.5-1.7,3.2-5.3,3.2-1.3,2.9-2.1,3.5-4.8,3.2-.8.9-1.3,1.9-2.2,2.4a5.91,5.91,0,0,1-2.7.4c-.5,0-.9-.2-1.2.5-1.1,2.4-2.4,2.9-4.9,2.2-.1,0-.3-.1-.4-.1-1.8,3.2-2.4,3.6-5.2,3.2-1.7,3.3-2.5,3.7-5.6,2.9a14.67,14.67,0,0,1-.6,1.4,3.82,3.82,0,0,1-3.3,1.9,1.43,1.43,0,0,0-1.1.5c-1,2-2.6,2.4-4.6,2-2,3.1-3.9,3.9-5.9,2.2a8,8,0,0,1,2.4-1.3,2.06,2.06,0,0,0,1.7-2.2l-.9-3.6-.3-.9a7.91,7.91,0,0,0-3.3-3.7,5.34,5.34,0,0,0-2.2-.2,8.81,8.81,0,0,0-1.7.2c.1-.7.2-1.3.3-2,3.1-1.2,5.5.4,7.7,3.2a13,13,0,0,1,1,1.5c.1.3.3.5.4.8.3,1.2.5,2.4.8,3.6,0,.4.1.8.1,1.3.6-.3,1.2-.5,1.7-.8a2.16,2.16,0,0,0,1.5-2.1c-.2-1.2-.5-2.3-.7-3.5a9.29,9.29,0,0,1-.5-1,7.61,7.61,0,0,0-3.7-4c-.4-.2-1,0-1.6,0-.4,0-.8.3-1.2.2a11.91,11.91,0,0,1-1.5-.9c.4-.4.8-1.1,1.2-1.2a5.15,5.15,0,0,1,5.7,1.5c1,1,1.8,2.3,2.8,3.4.1.3.3.5.4.8.4,1.1.7,2.3,1.1,3.4-.1.4-.2.8-.4,1.5,1.4-.7,2.7-1,2.9-2.6l-.6-3.6c-.2-.3-.3-.7-.5-1a7.12,7.12,0,0,0-3.9-4.4c-.6-.3-1.5.2-2.3.2a6.47,6.47,0,0,1-1.3-.4,5.17,5.17,0,0,1,.6-1.3,3.84,3.84,0,0,1,3.6-.3,9.87,9.87,0,0,1,4.6,4.2,5.55,5.55,0,0,0,.6.8,2.92,2.92,0,0,1,.2.9c.3,1.1.7,2.3,1,3.4-.1.4-.2.9-.4,1.7,1.1-.6,1.8-1.1,2.6-1.5a2.15,2.15,0,0,0,1.4-1.9c-.2-1.2-.5-2.4-.7-3.6-.1-.3-.3-.6-.4-.9a7.1,7.1,0,0,0-3.3-3.9,4.5,4.5,0,0,0-2.6-.2c-.7.1-1.3.4-1.5-.5a1.46,1.46,0,0,1,1.3-1.7,6.43,6.43,0,0,1,5.8,2.3,32.12,32.12,0,0,1,2.1,3c.1.2.3.5.4.7.3,1.2.5,2.4.8,3.7,0,.4.1.8.1,1.6,1.2-1.3,3.2-1.2,3.2-3.3,0-1.3.3-2.6-.6-3.7-.1-.3-.2-.5-.3-.8a6.76,6.76,0,0,0-3.3-4.1c-.8-.4-2-.2-3-.3-.5-.1-.9-.3-1.4-.4.3-.5.4-1.1.9-1.3,2.2-1.2,4.1-.1,5.6,1.3a38,38,0,0,1,2.9,3.8c.2.3.3.6.5.9.3,1.2.5,2.3.8,3.5v1.5a25.16,25.16,0,0,1,2.7-1.5,1.75,1.75,0,0,0,1.1-1.9c-.2-1.2-.3-2.5-.5-3.7-.2-.3-.3-.5-.5-.8a7.08,7.08,0,0,0-3.8-4.3c-.7-.3-1.6.1-2.4.1a6.47,6.47,0,0,1-1.3-.4,5.17,5.17,0,0,1,.6-1.3,3.74,3.74,0,0,1,3.7-.2,8.4,8.4,0,0,1,4.1,3.6,15.76,15.76,0,0,0,1.2,1.5,3,3,0,0,1,.4.8l.6,3.6v1.5c1.5-1.1,3.4-1.2,3.8-3.3-.2-1.2-.5-2.4-.7-3.6-.1-.3-.3-.6-.4-.9a8.68,8.68,0,0,0-3.2-3.9c-.9-.7-1.9-.3-2.9-.1-.7.1-1.4.2-1.5-.6a1.38,1.38,0,0,1,1.2-1.6,5.38,5.38,0,0,1,5,1.5c1.1,1.2,2.1,2.5,3.1,3.7.1.3.2.5.3.8.3,1.2.5,2.4.8,3.6a7.6,7.6,0,0,0,.1,1.4c1.3-.8,2.9-1,3-2.9-.1-1.2.3-2.5-.7-3.6A4.23,4.23,0,0,1,188.65,101.9Z"/><path class="cls-7" d="M85.55,127.6a7.42,7.42,0,0,1,1.2-4.6c4.1,1.1,8.2,2.2,12.2,3.2,7.7,2,15.4,4.1,23.1,6.2,5.3,1.4,10.6,3,16,4.4,4,1.1,7.9,2.1,11.9,3.2.3.1.7.4,1,.5-.4,1.4-.7,2.9-1.1,4.3-.3,0-.6-.1-.8-.1-4-1.1-8-2.2-12-3.2-8-2.1-15.9-4.3-23.9-6.4l-15.6-4.2Z"/><path class="cls-8" d="M164,46.7a8,8,0,0,1,2.9-4.1c4.9,3.6,9.8,7.1,14.6,10.7l17.6,12.8L216.75,79c1.2.9,2.4,1.9,3.6,2.9-.9,1.3-1.8,2.5-2.6,3.8-4.1-3-8.2-5.9-12.3-8.9-3.8-2.7-7.6-5.4-11.3-8.1-3.3-2.4-6.6-4.9-9.9-7.3l-14.2-10.3C168.05,49.5,166,48.1,164,46.7Z"/><path class="cls-9" d="M84,84.7c1.8-1.2,3.5-2.5,5.3-3.7,5.4,2.8,10.8,5.7,16.2,8.5v.2l-13.3,10c-1.1.9-2.2,1.8-3.3,2.8h-.2l-4.8-2.7c-3.8-2-7.7-4-11.6-6.1,2.3-1.8,4.6-3.6,6.8-5.3.2-.2.5-.3.7-.5,1.2-.9,2.4-1.8,3.6-2.6A1.7,1.7,0,0,1,84,84.7Zm-4.9,7.9c.1.1.1.2.2.3,3,1.6,6,3.2,9,4.7.3.2,1,0,1.4-.3,1.7-1.2,3.3-2.5,5-3.7,1.4-1,2.8-2.1,4.3-3.3-2.7-1.4-5.3-2.6-7.7-4.1-1.7-1.1-2.9-.8-4.3.4C84.45,88.7,81.75,90.6,79.05,92.6Z"/><path class="cls-10" d="M131.15,19.6a10.19,10.19,0,0,0-6.1-4.4c3.7-2,7.3-4,11-6,5.5-3,11-5.9,16.4-8.8a2,2,0,0,1,2.5.1c1.7,1.3,3.6,2.4,5.4,3.6-4,2.1-7.9,4.2-11.9,6.3C142.65,13.4,136.85,16.5,131.15,19.6Z"/><path class="cls-11" d="M85.55,127.6l12,3.3,15.6,4.2c8,2.1,15.9,4.3,23.9,6.4,4,1.1,8,2.2,12,3.2a2.2,2.2,0,0,0,.8.1c.4,1.3.7,2.6,1.1,3.8l-13.3-3.6-48.9-13.2C86.15,131.2,85.35,130.2,85.55,127.6Z"/><path class="cls-12" d="M220.45,81.8c-1.2-1-2.4-2-3.6-2.9L199.15,66l-17.6-12.8c-4.9-3.6-9.8-7.1-14.6-10.7,1.9-1.6,3.2-1.6,5.1-.2,17.3,12.5,34.5,25.1,51.8,37.6a2.65,2.65,0,0,0,.6.5A6.91,6.91,0,0,0,220.45,81.8Z"/><path class="cls-13" d="M164,46.7l6.1,4.3c4.7,3.4,9.5,6.8,14.2,10.3,3.3,2.4,6.6,4.9,9.9,7.3,3.8,2.7,7.6,5.4,11.3,8.1,4.1,3,8.2,5.9,12.3,8.9v3.9c-6.3-4.6-12.7-9.2-19-13.8-11.2-8.1-22.4-16.3-33.6-24.4C163.35,50.1,163.05,48.9,164,46.7Z"/><path class="cls-14" d="M150.85,140.6a1.91,1.91,0,0,0-1-.5c-4-1.1-7.9-2.1-11.9-3.2-5.3-1.5-10.6-3-16-4.4-7.7-2.1-15.4-4.1-23.1-6.2-4.1-1.1-8.1-2.2-12.2-3.2,1.1-2.1,2.4-2.7,4.5-2.1,17.1,4.6,34.3,9.2,51.4,13.9,3.7,1,7.4,2,11.1,2.9C152.85,138.7,151.85,139.6,150.85,140.6Z"/><path class="cls-15" d="M88.85,102.4c1.1-.9,2.2-1.9,3.3-2.8,4.4-3.4,8.8-6.7,13.3-10,.9,2.1,1.8,4.1,2.7,6.2-.9.7-1.8,1.4-2.7,2.2-.2.1-.3.2-.5.3-1.2.9-2.4,1.9-3.6,2.8-.2.2-.4.3-.5.5-1.3.9-2.7,1.8-4,2.8-1.9,1.3-3.7,2.7-5.6,4Z"/><path class="cls-16" d="M88.85,102.4c.8,2,1.6,4,2.4,6.1-1.8,1.6-3.6,3.3-6.3,3.1a3.17,3.17,0,0,1-1.6-.4c-3.7-1.9-7.4-3.9-11.1-5.8a2.19,2.19,0,0,1-1-.9c-.8-1.8-1.5-3.7-2.4-5.8l5,2.5c2,1.1,4.1,2.1,6.1,3.3,2.4,1.4,4.6.8,6.7-.7.7-.5,1.4-1,2-1.4A.14.14,0,0,1,88.85,102.4Z"/><path class="cls-2" d="M131.15,19.6c5.8-3.1,11.5-6.1,17.3-9.2,4-2.1,7.9-4.2,11.9-6.3.8.5,1.6,1.1,2.3,1.6a3.33,3.33,0,0,1-1,.6c-3.2,1.7-6.4,3.4-9.6,5.2-6.8,3.7-13.6,7.3-20.5,10.9-.2-.9-.3-1.7-.5-2.6A.35.35,0,0,1,131.15,19.6Z"/><path class="cls-6" d="M206.05,92.5a6.54,6.54,0,0,0-3.9-4.2,4.24,4.24,0,0,0-2.2.2c-.9.2-1.4-.2-1.4-.9a1.57,1.57,0,0,1,1-1.1c3-.9,5.1.7,6.9,2.8a17,17,0,0,1,1.5,2.2c.2.3.3.5.5.8.3,1.1.7,2.2,1,3.4v1.4c-.2.5-.4,1-.6,1.6a3.54,3.54,0,0,1-4.7,2.3c-1-.3-1.4-.2-1.6.9a3.36,3.36,0,0,1-5.1,2c.9-.5,1.7-1.1,2.6-1.6.6-.4,1.1-.9.8-1.7a4.2,4.2,0,0,0-.5-3.6,3.55,3.55,0,0,1-.2-1,30.94,30.94,0,0,0-2.3-3.1,3.57,3.57,0,0,0-4.1-1.1c-.4.1-.8-.2-1.3-.3.2-.5.2-1.1.5-1.4,1-.9,2.9-.8,4.6.2a12.66,12.66,0,0,1,4.2,4.7c.1.3.2.5.3.8.2,1.2.5,2.5.7,3.7,0,.4.1.7.1,1.3a27,27,0,0,1,2.9-1.5c1-.4,1.7-1,1.5-2.1s-.5-2.3-.7-3.5A10.41,10.41,0,0,1,206.05,92.5Z"/><path class="cls-17" d="M150.85,140.6c1-1,2-1.9,3-2.9,2.4.6,3.3,2.6,4.7,4.3a6.12,6.12,0,0,0-.5,1.2c-.3,1.4-.5,2.8-.7,4.1-1.9.5-3.7,1.1-5.6,1.5-.3.1-.6-.1-.9-.2-.4-1.3-.7-2.6-1.1-3.8C150.05,143.4,150.45,142,150.85,140.6Z"/><path class="cls-17" d="M217.85,89.5V85.6c.9-1.3,1.8-2.5,2.6-3.8,1.2-.8,2.4-1.6,4-1.3a13.93,13.93,0,0,1,1.5,1.9,27.92,27.92,0,0,1,1.4,3.7,6.64,6.64,0,0,0-3.3,4.5c-1.5-.1-3.1-.1-4.6-.2A5.07,5.07,0,0,1,217.85,89.5Z"/><path class="cls-10" d="M131.65,22.4c6.8-3.6,13.6-7.3,20.5-10.9,3.2-1.7,6.4-3.4,9.6-5.2.3-.2.7-.4,1-.6.6.4,1.2.7,1.7,1.1-10.7,5.8-21.5,11.5-32.2,17.3-.3.2-.7.2-1.1.4.1-.6.2-1.2.3-1.7A.52.52,0,0,1,131.65,22.4Z"/><path class="cls-18" d="M100.75,101.6c.2-.2.4-.3.5-.5.1.1.3.1.4.2,12,7.5,24.1,14.9,36.1,22.4,3,1.9,6.1,3.7,9.1,5.5a9.14,9.14,0,0,0,1.4-.7l4.8-2.4a2.15,2.15,0,0,1-1.7,2.2c-.8.3-1.6.9-2.4,1.3-1.5,1.1-2.6.4-3.9-.4-14.5-9-29.1-18-43.6-27.1A6.82,6.82,0,0,0,100.75,101.6Z"/><path class="cls-19" d="M83.35,85.1c-1.2.9-2.4,1.8-3.6,2.6-1.7-1.1-3.5-2.2-5.2-3.3-.8-.5-1.7-.9-2.5-1.3a1.74,1.74,0,0,1-.7-2.2c.2-.9.3-1.9.5-3C75.85,80.4,79.65,82.8,83.35,85.1Z"/><path class="cls-8" d="M224.05,90.6a6.36,6.36,0,0,1,3.3-4.5c.5,1.5,1.1,3,1.6,4.5Z"/><path class="cls-7" d="M157.25,147.4c.2-1.4.4-2.8.7-4.1a6.12,6.12,0,0,1,.5-1.2c1.1,1.2,2.3,2.4,3.6,3.8C160.35,146.4,158.85,146.9,157.25,147.4Z"/><path class="cls-20" d="M209.35,95.7c-.3-1.1-.7-2.2-1-3.4,1.2-.7,2.4-1.3,3.6-2,.1.1.3.2.4.3-.4,1.5-.9,3-1.3,4.6A10.93,10.93,0,0,0,209.35,95.7Z"/><path class="cls-18" d="M72.05,83.2c.8.4,1.7.8,2.5,1.3,1.8,1.1,3.5,2.2,5.2,3.3-.2.2-.5.3-.7.5-2.5-1.5-5-3.1-7.5-4.7C71.75,83.4,72,83.3,72.05,83.2Z"/><path class="cls-18" d="M200.75,100.4c.3.8-.1,1.3-.8,1.7-.9.5-1.7,1.1-2.6,1.6h-.5l.3-1.5C198.35,101.7,199.55,101,200.75,100.4Z"/><path class="cls-18" d="M209.35,95.7a10.93,10.93,0,0,1,1.7-.5,5.55,5.55,0,0,0,.8.6c-.9.5-1.7.9-2.5,1.3Z"/><path class="cls-21" d="M181.75,83.8c-1.8,1-3.4,1.8-5.1,2.7-11.5,6.2-23.1,12.4-34.6,18.6a1.67,1.67,0,0,1-1.8,0c-6.2-3.9-12.4-7.7-18.8-11.7.8-.5,1.4-.8,2.1-1.2,12.5-6.7,25-13.4,37.5-20.2a1.49,1.49,0,0,1,1.7-.2c6,3.7,12,7.4,17.9,11.1A13.5,13.5,0,0,0,181.75,83.8Zm-18.1-1.6c-.4-.3-.8-.5-1-.7-1-.9-2-.8-3.2-.1-7.3,4-14.7,7.9-22,11.9a9,9,0,0,0-.9.5,14.19,14.19,0,0,1,1.8,1.1c.5.4.9.3,1.5,0,6.9-3.7,13.8-7.5,20.8-11.2Q162,83.1,163.65,82.2Zm4.8,3.3c-.5-.3-.8-.5-1.1-.7-1-.9-1.9-.8-3.1-.1-5.4,3-10.8,5.9-16.2,8.8-2.2,1.2-4.5,2.4-6.8,3.7a5.34,5.34,0,0,1,1,.7,2.43,2.43,0,0,0,3.2.1c3.6-2.1,7.3-4,10.9-5.9C160.45,89.8,164.35,87.7,168.45,85.5Z"/><path class="cls-21" d="M105.45,89.4c-5.4-2.8-10.8-5.7-16.2-8.5a37.65,37.65,0,0,1,4.6-3.2,4.72,4.72,0,0,1,4.6.2c3.5,1.9,7,3.7,10.4,5.6.5.3.8,1,1.2,1.5C109.35,87.5,107.35,88.3,105.45,89.4Z"/><path class="cls-22" d="M105,98.3c.2-.1.3-.2.5-.3,11,6.8,22.1,13.7,33.1,20.5,2.8,1.7,5.5,3.4,8.3,5.1a1.7,1.7,0,0,0,1.4,0c1.3-.6,2.5-1.3,3.8-2l.3.9c-1.5.8-3.1,1.6-4.6,2.4-6-3.7-12.1-7.4-18.1-11.2l-18.3-11.4C109.15,101.1,107.05,99.7,105,98.3Z"/><path class="cls-16" d="M105.45,89.4c1.8-1.1,3.9-2,4.6-4.3.8,2,1.8,3.9,2.5,5.9a2.31,2.31,0,0,1-.6,1.9,33.66,33.66,0,0,1-3.7,2.9c-.9-2.1-1.8-4.1-2.7-6.2C105.45,89.5,105.45,89.5,105.45,89.4Z"/><path class="cls-22" d="M206.05,92.5a9.29,9.29,0,0,1,.5,1,4.18,4.18,0,0,0-1,.4L202,95.7c-.1-.3-.2-.5-.3-.8C203.05,94.1,204.55,93.3,206.05,92.5Z"/><path class="cls-22" d="M200,95.9c.1.3.2.7.3,1-1.3.6-2.6,1.3-3.8,1.9-.2-.3-.3-.6-.5-.9C197.25,97.2,198.65,96.5,200,95.9Z"/><path class="cls-22" d="M178.15,107.6c.2.3.3.5.5.8-1.4.7-2.7,1.5-4.1,2.2-.2-.3-.3-.6-.5-.9C175.45,109,176.75,108.3,178.15,107.6Z"/><path class="cls-22" d="M167.15,113.4c.1.3.3.6.4.9-1.3.6-2.6,1.3-3.8,1.9a2.92,2.92,0,0,1-.2-.9C164.75,114.7,166,114.1,167.15,113.4Z"/><path class="cls-22" d="M183.75,104.5c.1.3.3.6.4.9l-3.6,1.8c-.1-.3-.3-.5-.4-.8C181.25,105.9,182.45,105.2,183.75,104.5Z"/><path class="cls-22" d="M172.35,110.7c.1.3.2.5.3.8-1.1.6-2.3,1.1-3.4,1.7-.1-.2-.3-.5-.4-.7C170.05,111.9,171.25,111.3,172.35,110.7Z"/><path class="cls-22" d="M190.85,101.7c-.1-.3-.2-.5-.3-.8,1.2-.7,2.4-1.3,3.7-2,.1.3.2.5.3.8C193.35,100.4,192.05,101,190.85,101.7Z"/><path class="cls-22" d="M157.05,118.9a9.29,9.29,0,0,1,.5,1c-1.1.5-2.2,1-3.4,1.5-.1-.3-.3-.5-.4-.8C154.75,120.1,156,119.5,157.05,118.9Z"/><path class="cls-22" d="M188.65,101.9c.1.3.2.7.3,1-1.1.5-2.1,1-3.2,1.5-.1-.3-.2-.5-.3-.8C186.65,103,187.65,102.4,188.65,101.9Z"/><path class="cls-22" d="M159.15,118.7c-.1-.3-.3-.5-.4-.8.9-.5,1.9-1,2.8-1.4.2.3.3.7.5,1C161.05,117.9,160.15,118.3,159.15,118.7Z"/><path class="cls-22" d="M145.05,115.9c-.1.7-.2,1.3-.3,2l-1.3-1C144,116.6,144.45,116.3,145.05,115.9Z"/><path class="cls-23" d="M16.65,92.9c-1.6-1.1-3.3-2.1-4.9-3.2,1.7-.8,3.4-1.5,5.1-2.3,2.1-1,4.1-2.2,6.2-3.2,2.8-1.4,5.7-2.8,8.6-4.2,2.6-1.3,5.1-2.7,7.6-4.2,4.5-2.7,8.9-5.5,13.3-8.3.6-.4,1-1,1.6-1.5,1.3-.7,2.6-1.5,3.9-2.2a3.13,3.13,0,0,1,1-.5h0c.4-.2.7-.3,1.1-.5,18.7-10,37.4-20.1,56-30.1,4.8-2.6,9.6-5.1,14.4-7.7a20.72,20.72,0,0,1-2.7,3.7,100.17,100.17,0,0,1-8.1,6.5c-4.3,3-8.8,5.9-13.2,8.8a3,3,0,0,0-.5.7h0a3.58,3.58,0,0,0-1.1.4l-9.9,6c-.8.5-1.5,1.1-2.2,1.6-.4.1-1.2-.9-1.2.4-3.5,2-6.9,4-10.4,6-.9.5-1.9,1-2.8,1.4-.4-.1-.8-.2-1.3-.3.3.5.5.7.7,1-.2.1-.4.1-.6.2-2.6,1.4-5.2,2.8-7.7,4.3-1.6.9-3.2,1.9-4.8,2.9-.7,0-1.2-1.2-2.1-.3a4.23,4.23,0,0,1,.7.5,5.55,5.55,0,0,1-.6.8c-2,1.2-4.1,2.3-6.1,3.4s-4.3,2.2-6.5,3.3c-.5-.2-1.1-.4-1.6-.6,0,.1-.1.2-.1.4a6.47,6.47,0,0,0,.9.8c-3.2,1.6-6.3,3.2-9.5,4.8-1.4.7-2.7,1.5-4,2.3a4.67,4.67,0,0,0-1-.5,1.85,1.85,0,0,0-.7.2c.1.1.2.3.3.4-.2.2-.4.6-.7.7-2.8,1.4-5.6,2.7-8.4,4.1-1.5.8-3.1,1.5-4.6,2.3-.3,0-.6.1-1,.1A29.41,29.41,0,0,0,16.65,92.9Z"/><path class="cls-24" d="M130.35,25c-4.8,2.6-9.6,5.1-14.4,7.7-18.7,10-37.4,20.1-56,30.1a11.73,11.73,0,0,1-1.1.5c.1-.2.1-.6.3-.7.9-.7,1.8-1.3,2.6-2,.2-.1.1-.4.2-.7l.1-.1c.3-.2.5-.3.8-.5.8-.5,1.6-1,2.4-1.4,1.3-.7,2.6-1.3,3.9-2q25.2-13.5,50.3-27c3.9-2.1,7.8-4.2,11.7-6.2-.1.6-.2,1.2-.3,1.7C130.85,24.6,130.65,24.8,130.35,25Z"/><path class="cls-25" d="M155.15,25.2a8.79,8.79,0,0,1-1,.6c-.4-.3-.7-.7-1.1-1l-4.2-2.7c0-.1.1-.3.1-.4.4.1.8,0,1.1.2C151.85,23,153.45,24.1,155.15,25.2Z"/><path class="cls-25" d="M169.25,17.4l-.7.7c-1.3-1-2.6-2-4-2.9a6.34,6.34,0,0,1-1.3-1.1c.3,0,.7-.2.9,0C166,15.1,167.65,16.3,169.25,17.4Z"/><path class="cls-25" d="M112,48.4c-.2.2-.5.3-.7.5-1.6-1-3.2-2.1-4.7-3.1a1.62,1.62,0,0,1-.5-.9h0a5.91,5.91,0,0,1,1.4.6C108.85,46.3,110.35,47.4,112,48.4Z"/><path class="cls-25" d="M140.75,32.9a3,3,0,0,0-.8.4c-1.8-1.1-3.6-2.3-5.4-3.4a.6.6,0,0,1,.1-.4c.4,0,.8-.1,1.1.1C137.35,30.7,139.05,31.8,140.75,32.9Z"/><path class="cls-25" d="M126.35,40.7c-.3.1-.5.2-.8.3l-5.4-3.3c0-.1.1-.3.1-.4a4.22,4.22,0,0,1,1.2.3A50.41,50.41,0,0,1,126.35,40.7Z"/><path class="cls-25" d="M119.15,44.5l-.9.3c-1.1-.7-2.3-1.4-3.5-2.2C115.65,42,116.15,42.3,119.15,44.5Z"/><path class="cls-25" d="M162.05,21.2l-.5.5c-1.2-.8-2.4-1.5-3.6-2.3C158.65,18.9,160.25,19.6,162.05,21.2Z"/><path class="cls-25" d="M133.55,36.8c-.3.1-.5.2-.8.3-1.2-.7-2.4-1.5-3.6-2.2a.76.76,0,0,0,.2-.4C131.05,34.8,132.25,35.9,133.55,36.8Z"/><path class="cls-25" d="M147.65,29l-.5.5c-1.2-.7-2.4-1.5-3.6-2.2.1-.1.1-.3.2-.4C145.45,26.9,146.45,28.2,147.65,29Z"/><path class="cls-25" d="M150.75,27.5c-.3.2-.6.5-.9.7-.5-.5-1-1.1-1.6-1.7C149.45,26.2,150.05,27,150.75,27.5Z"/><path class="cls-25" d="M149.35,28.3c-.3.2-.6.4-1,.7l-1.2-1.8C148.05,26.7,148.55,27.9,149.35,28.3Z"/><path class="cls-25" d="M167.85,18.2l-.5.5c-.6-.4-1.2-.7-1.8-1.1,0-.1.1-.3.1-.4C166.65,16.8,167.15,17.6,167.85,18.2Z"/><path class="cls-25" d="M160.65,22l-.7.7c-.5-.5-1-.9-1.7-1.6C159.45,20.6,160,21.6,160.65,22Z"/><path class="cls-25" d="M124.85,41.4c-.3.2-.6.3-.9.5-.5-.4-1.1-.9-1.7-1.4C123.55,39.9,124.05,41,124.85,41.4Z"/><path class="cls-25" d="M128,39.8a10.37,10.37,0,0,1-1,.4c-.6-.3-1.2-.7-1.8-1a.6.6,0,0,1,.1-.4,3.75,3.75,0,0,1,1.1.1C127,39.2,127.45,39.5,128,39.8Z"/><path class="cls-25" d="M166.85,18.9c-.4.1-.7.3-1.1.4-.5-.3-1.1-.7-1.6-1V18a3.35,3.35,0,0,1,1,0C165.75,18.3,166.35,18.6,166.85,18.9Z"/><path class="cls-25" d="M156.35,24.4l-.7.7-1.5-1.5C154.65,23.1,155,23.1,156.35,24.4Z"/><path class="cls-25" d="M117.65,45.3c-.3.2-.5.3-.8.5a17.21,17.21,0,0,0-1.8-1.3C116.45,43.8,117,44.9,117.65,45.3Z"/><path class="cls-25" d="M143.35,31.3l-.7.7c-.5-.5-1-1.1-1.5-1.7C142.15,30,142.75,30.7,143.35,31.3Z"/><path class="cls-25" d="M135.15,36a10.37,10.37,0,0,1-1,.4c-.6-.4-1.2-.7-1.8-1.1v-.4a3.75,3.75,0,0,1,1.1.1A12.75,12.75,0,0,1,135.15,36Z"/><path class="cls-25" d="M115.05,46.8a10.37,10.37,0,0,1-1,.4c-.6-.3-1.2-.7-1.7-1v-.3a3.35,3.35,0,0,1,1,0A14,14,0,0,1,115.05,46.8Z"/><path class="cls-25" d="M113.35,47.6c-.2.1-.5.2-.7.3-.6-.3-1.2-.7-2.1-1.1C112.05,46.2,112.65,47.1,113.35,47.6Z"/><path class="cls-25" d="M122.05,42.9c-.3.1-.5.3-.8.4-.6-.4-1.2-.7-2-1.2C120.65,41.4,121.15,42.6,122.05,42.9Z"/><path class="cls-25" d="M130.65,38.3c-.3.2-.6.5-.9.7-.5-.5-1-1-1.5-1.6C129.35,36.8,129.85,38,130.65,38.3Z"/><path class="cls-25" d="M132.05,37.6c-.3.2-.6.3-.9.5-.5-.4-1.1-.9-1.7-1.4C130.75,36.1,131.25,37.1,132.05,37.6Z"/><path class="cls-25" d="M145.05,30.6c-.3.2-.6.3-.9.5a17.38,17.38,0,0,1-1.5-1.3c.1-.1.1-.2.2-.4C143.75,29.3,144.35,30.2,145.05,30.6Z"/><path class="cls-25" d="M163.55,20.5a2.65,2.65,0,0,1-.6.5c-.5-.4-1.1-.8-1.9-1.4A2.36,2.36,0,0,1,163.55,20.5Z"/><path class="cls-25" d="M165,19.8a3,3,0,0,1-.7.5c-.5-.4-1.1-.9-1.7-1.4C163.75,18.3,164.35,19.2,165,19.8Z"/><path class="cls-25" d="M120.35,43.6a4.62,4.62,0,0,1-.7.7c-.5-.5-1-.9-1.7-1.5C119.15,42.3,119.65,43.1,120.35,43.6Z"/><path class="cls-25" d="M142,32.1l-.5.5c-.6-.4-1.2-.7-1.8-1.1C140.35,30.8,140.35,30.8,142,32.1Z"/><path class="cls-25" d="M158,23.7c-.3.2-.6.3-.9.5-.5-.4-1-.8-1.7-1.4C156.75,22.2,157.25,23.3,158,23.7Z"/><path class="cls-25" d="M139.25,33.7c-.3.1-.5.2-.8.3a16.18,16.18,0,0,1-1.8-1C137.55,32.4,137.55,32.4,139.25,33.7Z"/><path class="cls-25" d="M129.25,39.1c-.3.1-.5.3-.8.4-.5-.3-.9-.6-1.4-.9-.1-.1-.1-.2-.2-.3C127.35,37.9,127.35,37.9,129.25,39.1Z"/><path class="cls-25" d="M116.05,46l-.5.5c-.6-.4-1.1-.7-1.7-1.1C114.45,44.7,114.75,44.8,116.05,46Z"/><path class="cls-25" d="M153.45,25.9l-.5.5c-.6-.4-1.2-.7-2.1-1.2C152.15,24.6,152.75,25.3,153.45,25.9Z"/><path class="cls-25" d="M152.05,26.7l-.6.6a5,5,0,0,1-.8-.7c-.3-.2-.5-.4-1-.8C150.85,25.4,151.35,26.2,152.05,26.7Z"/><path class="cls-25" d="M136.15,35.2l-.5.5-1.8-1.2C134.65,33.9,134.85,34,136.15,35.2Z"/><path class="cls-25" d="M137.85,34.5a5.58,5.58,0,0,0-.8.5c-.5-.4-1-.8-1.7-1.4C136.65,33,137.05,34.1,137.85,34.5Z"/><path class="cls-25" d="M159.25,22.7c-.2.1-.3.3-.5.4-.6-.3-1.2-.7-2-1.1C158,21.4,158.45,22.3,159.25,22.7Z"/><path class="cls-25" d="M123.25,42.1l-.5.5c-.6-.4-1.1-.7-1.7-1.1C121.65,40.9,122,41,123.25,42.1Z"/><path class="cls-25" d="M146.25,29.8l-.6.3c-.6-.3-1.1-.7-1.7-1C145.15,28.6,145.65,29.2,146.25,29.8Z"/><path class="cls-26" d="M131.35,22.6c-3.9,2.1-7.8,4.1-11.7,6.2q-25.2,13.5-50.3,27c-1.3.7-2.6,1.4-3.9,2,.3-.4.5-.8.8-1.2.7-1,2.1-1.6,2.1-3.1.5-.4,1-.7,1.6-1.1,5.3-2.8,10.6-5.6,15.9-8.5,12.8-6.9,25.6-13.8,38.4-20.6,2.3-1.2,4.7-2.5,7-3.7.2.9.3,1.7.5,2.6C131.55,22.5,131.45,22.6,131.35,22.6Z"/><path class="cls-27" d="M68.25,53.6c0,1.5-1.4,2.1-2.1,3.1-.3.4-.5.8-.8,1.2-.8.5-1.6,1-2.4,1.4-.3.2-.5.3-.8.5-.1,0-.1,0-.1.1-.2.1-.4.1-.6.2C47.75,67.5,34,74.8,20.25,82.2c-3.7,2-7.3,4-10.9,6-.9-.6-1.8-1.1-2.6-1.7,4.6-2.5,9.1-5,13.7-7.4q23.1-12.45,46.2-24.8A7.74,7.74,0,0,1,68.25,53.6Z"/><path class="cls-3" d="M9.35,88.2c3.6-2,7.3-4,10.9-6,13.7-7.4,27.4-14.7,41.2-22.1.2-.1.4-.1.6-.2-.1.2-.1.5-.2.7-.9.7-1.8,1.3-2.6,2-.2.1-.2.5-.3.7h0a3.13,3.13,0,0,1-1,.5c-1.3.7-2.6,1.5-3.9,2.2a3,3,0,0,0-.8.4c-10.2,5.5-20.5,11-30.7,16.5-3.9,2.1-7.7,4.2-11.6,6.3C10.45,88.9,10,88.5,9.35,88.2Z"/><path class="cls-2" d="M106,44.8c.2.3.3.8.5.9,1.6,1.1,3.2,2.1,4.7,3.1-.2.1-.5.2-.7.3-1.7-1.3-1.7-1.3-2.4-.6.6.4,1.1.7,1.7,1.1-.2.1-.3.2-.5.3-.5-.3-1-.7-1.6-1a3.08,3.08,0,0,0-1-.1.6.6,0,0,1-.1.4c.6.3,1.1.7,1.7,1-.2.1-.5.3-.7.4-.8-.5-1.3-1.6-2.8-.9a21.86,21.86,0,0,0,2,1.1c-.2.2-.5.3-.7.5-.7-.6-1.3-1.2-2.3-1.1-.1.1-.1.3-.2.4.6.3,1.1.7,1.7,1-.2.2-.5.3-.7.5a39.56,39.56,0,0,0-3.4-2.2c-.2-.1-.6.1-.9.1a7.12,7.12,0,0,0,1.5,1.2c.6.5,1.2,1.1,1.8,1.6a.9.9,0,0,0-.5.1c-1.7-1.3-1.7-1.3-2.4-.7.6.4,1.1.7,1.7,1.1-.2.1-.3.2-.5.3-.9-.2-1.5-1.3-2.9-.8a22,22,0,0,1,1.9,1.2c-.2.2-.5.3-.7.5-.7-.5-1.3-1.3-2.3-1.1-.1.1-.1.2-.2.3.6.3,1.1.7,1.7,1-.2.2-.5.3-.7.5-1.7-1.3-1.7-1.3-2.4-.7.6.4,1.1.8,1.6,1.2-.3.1-.6.1-.9.2a3.92,3.92,0,0,0-1-.8c-1.2-.8-2.4-1.6-3.6-2.5.7-.5,1.4-1.1,2.2-1.6l9.9-6C105.15,44.9,105.55,44.9,106,44.8Z"/><path class="cls-27" d="M11,89.2c3.9-2.1,7.7-4.2,11.6-6.3,10.2-5.5,20.5-11,30.7-16.5a5.9,5.9,0,0,0,.8-.4,11.37,11.37,0,0,1-1.6,1.5c-4.4,2.8-8.8,5.6-13.3,8.3-2.5,1.5-5,2.9-7.6,4.2-2.8,1.5-5.7,2.8-8.6,4.2-2.1,1-4.1,2.2-6.2,3.2-1.7.8-3.4,1.5-5.1,2.3A4.23,4.23,0,0,0,11,89.2Z"/><path class="cls-2" d="M20.45,91.2c1.5-.8,3.1-1.5,4.6-2.3,2.8-1.4,5.6-2.7,8.4-4.1.3-.1.5-.5.7-.7,1.7,1,3.4,2.1,5,3.1-.2.2-.5.3-.7.5-.7-.4-1.2-1.4-2.2-1,0,.1-.1.3-.1.4.6.4,1.1.7,1.7,1.1-.2.1-.5.3-.7.4-.7-.5-1.2-1.4-2.6-.9.8.5,1.3.8,1.9,1.2-.2.1-.5.3-.7.4-1.1-1.1-1.6-1.2-2.6-.8a2.19,2.19,0,0,1,.5.3c.4.3.9.5,1.3.8-.2.2-.5.3-.7.5-.7-.5-1.2-1.4-2.6-.8a21.87,21.87,0,0,0,1.9,1.1c-.2.2-.5.3-.7.5-2.3-1.9-3.5-2.5-4.3-1.9l3.6,2.4a2.19,2.19,0,0,0-.5.3c-2-1.1-2-1.1-2.6-.7.6.4,1.1.7,1.7,1.1-.2.1-.5.3-.7.4-.7-.6-1.3-1.3-2.5-.8.6.4,1.1.7,1.7,1.1-.2.1-.5.3-.7.4-.7-.5-1.2-1.4-2.6-.8a21.87,21.87,0,0,0,1.9,1.1c-.2.2-.5.3-.7.5-.7-.4-1.2-1.4-2.5-.9.7.6,1.3,1,1.8,1.4-.3.1-.5.2-.8.3-.3-.3-.7-.5-1-.8C23.15,93,21.85,92.1,20.45,91.2Z"/><path class="cls-2" d="M78.35,60.6c.9-.5,1.9-.9,2.8-1.4,3.5-2,6.9-4,10.4-6,1.8,1.1,3.5,2.3,5.3,3.4-.2.1-.5.2-.7.3-1.4-1.1-1.6-1.2-2.5-.7a1.38,1.38,0,0,1,.4.3c.4.3.9.5,1.3.8-.2.1-.5.2-.7.3-.7-.4-1.3-1.3-2.2-1-.1.1-.1.3-.2.4.6.3,1.1.7,1.7,1-.2.2-.5.3-.7.5-.7-.4-1.3-1.3-2.6-1,.8.6,1.3,1,1.9,1.5-.2.1-.5.2-.7.3-1.7-1.4-1.7-1.4-2.4-.8L91,59.7a2.19,2.19,0,0,0-.5.3c-2.9-2.2-3.5-2.5-4.3-1.9,1.2.8,2.4,1.6,3.6,2.3-.2.1-.3.2-.5.3-.9-.1-1.5-1.3-2.6-.7a1.38,1.38,0,0,0,.3.4c.4.3.9.5,1.3.8-.2.1-.5.3-.7.4-.7-.5-1.3-1.3-2.3-1.1-.1.1-.1.2-.2.3.6.3,1.1.7,1.7,1-.2.2-.5.3-.7.5-.8-.4-1.3-1.5-2.6-.9.7.5,1.3.9,1.9,1.4-.2.1-.3.2-.5.3-.9-.2-1.4-1.4-2.9-.9a20.15,20.15,0,0,1,1.9,1.3c-.2.1-.5.2-.7.3C81.55,62.7,80,61.7,78.35,60.6Z"/><path class="cls-2" d="M35.55,84c1.3-.8,2.7-1.6,4-2.3,3.2-1.6,6.3-3.2,9.5-4.8,1.5,1,3,1.9,4.5,2.9-.1.1-.2.2-.3.2-1,0-1.6-1.5-3-.9.8.6,1.3,1,1.9,1.4-.2.1-.5.2-.7.3-.8-.5-1.3-1.4-2.7-.9.8.6,1.4.9,2,1.3-.2.1-.5.3-.7.4-.7-.6-1.3-1.4-2.3-1.1-.1.1-.1.3-.2.4.6.3,1.1.7,1.7,1-.2.2-.5.3-.7.5-.7-.5-1.3-1.3-2.3-1.1-.1.1-.1.2-.2.4.6.3,1.1.7,1.7,1-.2.2-.5.3-.7.5-2.8-2.2-3.4-2.5-4.3-1.9,1.2.7,2.4,1.5,3.6,2.2-.2.2-.5.3-.7.5-.7-.3-1.2-1.4-2.6-.9.8.6,1.4,1,1.9,1.4-.3.1-.6.1-1,.2-.6-.5-1.1-1.2-2.4-.7.8.5,1.3.8,1.9,1.2a2.18,2.18,0,0,0-.5.4c-.9-.3-1.4-1.3-2.9-.9.8.5,1.4.9,2,1.2a5.94,5.94,0,0,1-.8.4c-.7-.5-1.2-1.4-2.5-.9.7.5,1.2,1,1.7,1.4a1.85,1.85,0,0,1-.7.2Q37.8,85.5,35.55,84Z"/><path class="cls-2" d="M64.65,68.7c1.6-1,3.2-1.9,4.8-2.9,2.6-1.5,5.1-2.9,7.7-4.3.2-.1.4-.1.6-.2,1.6,1,3.1,1.9,4.7,2.9-.2.1-.5.3-.7.4-.7-.5-1.3-1.3-2.2-1.1-.1.1-.1.2-.2.4.6.3,1.1.7,1.7,1-.2.2-.5.3-.7.5-.7-.4-1.2-1.4-2.7-.9.8.5,1.4.8,1.9,1.1l-.5.5c-.9-.2-1.4-1.5-2.8-.9.7.5,1.3.9,1.9,1.3-.3.1-.6.1-1,.2-1.3-1.1-1.5-1.2-2.1-.6.6.4,1.1.7,1.7,1.1-.2.1-.5.3-.7.4-2.1-1.8-3.4-2.4-4.3-2.1.2.1.3.3.5.4,1,.7,2.1,1.3,3.1,2-.2.1-.5.3-.7.4-.7-.5-1.3-1.3-2.4-.8.6.3,1.1.7,1.7,1-.2.2-.5.3-.7.5-1.7-1.3-1.7-1.3-2.3-.7.5.4,1.1.8,1.6,1.2-.2.1-.5.2-.7.3-1.7-1.4-1.7-1.4-2.4-.7a16.29,16.29,0,0,0,1.7,1.1c-.2.1-.3.2-.5.3-.5-.3-1-.7-1.6-1a3.33,3.33,0,0,0-1,0v.4c.6.3,1.1.7,1.7,1-.2.1-.5.3-.7.4A26.85,26.85,0,0,1,64.65,68.7Z"/><path class="cls-2" d="M50,76.3c2.2-1.1,4.3-2.2,6.5-3.3s4.1-2.3,6.1-3.4a2.41,2.41,0,0,0,.6-.8c1.6,1,3.2,2.1,4.8,3.1l-.5.5c-.9-.3-1.5-1.5-2.8-.9.6.4,1,.7,1.4,1,.1.1.3.1.4.2-.3.1-.6.3-.9.4-1.2-1.2-1.4-1.3-2.1-.6.6.4,1.1.8,1.7,1.2-.2.1-.5.2-.7.3-1.6-1.3-1.7-1.3-2.3-.7,0,.1.1.1.1.2.5.3,1,.7,1.5,1-.2.1-.5.3-.7.4-1.4-1.3-1.8-1.4-2.5-.8.6.4,1.1.7,1.7,1.1-.2.1-.5.3-.7.4-2.2-1.9-3.5-2.5-4.3-1.9,1.2.8,2.4,1.5,3.6,2.2-.2.2-.5.3-.7.5-.7-.5-1.3-1.3-2.4-1,.1.2.1.3.2.3a14.31,14.31,0,0,0,1.5,1.1c-.2.1-.5.2-.7.3-1.7-1.3-1.7-1.3-2.3-.7a15.26,15.26,0,0,0,1.6,1.1c-.2.1-.5.2-.7.3-1.7-1.3-1.7-1.3-2.4-.7.6.4,1.1.7,1.7,1.1-.2.1-.3.2-.5.3-.9-.1-1.5-1.3-2.9-.7a22,22,0,0,1,1.9,1.2c-.2.1-.5.3-.7.4C52.85,78.3,51.45,77.3,50,76.3Z"/><path class="cls-2" d="M16.65,92.9c1-.5,1.9-1,2.9-1.5a2.7,2.7,0,0,0,.7.8c1.5,1,3.1,2,4.6,3l-.2.2c-1.5,1.2-2.9,1.4-4.5,0A22.15,22.15,0,0,0,16.65,92.9Z"/><path class="cls-25" d="M96.75,56.5c-1.8-1.1-3.5-2.3-5.3-3.4,0-1.3.8-.3,1.2-.4,1.2.8,2.4,1.6,3.6,2.5a7,7,0,0,1,1,.8A1.21,1.21,0,0,1,96.75,56.5Z"/><path class="cls-25" d="M50,76.3c1.5,1,2.9,2,4.4,3-.2.2-.5.3-.7.5-1.5-1-3-1.9-4.5-2.9a6.47,6.47,0,0,0-.9-.8c0-.1.1-.2.1-.4C48.85,75.9,49.45,76.1,50,76.3Z"/><path class="cls-25" d="M68.05,71.9c-1.6-1-3.2-2.1-4.8-3.1-.2-.1-.4-.3-.7-.5.9-.9,1.5.3,2.1.3,1.4,1,2.7,2,4.1,3C68.55,71.7,68.25,71.8,68.05,71.9Z"/><path class="cls-25" d="M35.55,84c1.4,1,2.9,2,4.3,3.1a1.85,1.85,0,0,1-.7.2c-1.7-1-3.4-2.1-5-3.1-.1-.1-.2-.3-.3-.4.2-.1.5-.3.7-.2A1.78,1.78,0,0,1,35.55,84Z"/><path class="cls-25" d="M82.45,64.2c-1.6-1-3.1-1.9-4.7-2.9-.2-.3-.4-.5-.7-1,.5.1.9.2,1.3.3,1.6,1.1,3.2,2.1,4.8,3.2A4.35,4.35,0,0,0,82.45,64.2Z"/><path class="cls-25" d="M24.85,95.2c-1.5-1-3.1-2-4.6-3a2.7,2.7,0,0,1-.7-.8c.3,0,.6-.1,1-.1,1.3.9,2.7,1.8,4,2.7a3.92,3.92,0,0,1,1,.8A1.61,1.61,0,0,0,24.85,95.2Z"/><path class="cls-25" d="M89.55,60.4c-1.2-.8-2.4-1.5-3.6-2.3.9-.6,1.5-.3,4.3,1.9A5.74,5.74,0,0,0,89.55,60.4Z"/><path class="cls-25" d="M32.05,91.3l-3.6-2.4c.7-.6,1.9,0,4.3,1.9C32.45,91,32.25,91.2,32.05,91.3Z"/><path class="cls-25" d="M103.75,52.9c-.6-.5-1.2-1.1-1.8-1.6a7.89,7.89,0,0,1-1.5-1.2c.3,0,.7-.2.9-.1,1.2.7,2.3,1.5,3.4,2.2A6.07,6.07,0,0,1,103.75,52.9Z"/><path class="cls-25" d="M60.75,75.7c-1.2-.7-2.4-1.4-3.6-2.2.8-.6,2.1,0,4.3,1.9C61.25,75.6,61.05,75.6,60.75,75.7Z"/><path class="cls-25" d="M75.25,68.1c-1-.7-2.1-1.3-3.1-2a1.76,1.76,0,0,1-.5-.4c.9-.4,2.1.2,4.3,2.1A4.88,4.88,0,0,0,75.25,68.1Z"/><path class="cls-25" d="M46.35,83.4c-1.2-.7-2.4-1.4-3.6-2.2.9-.6,1.5-.3,4.3,1.9C46.85,83.3,46.65,83.3,46.35,83.4Z"/><path class="cls-25" d="M78.05,66.6c-.6-.4-1.1-.8-1.9-1.3,1.4-.7,1.9.7,2.8.9A3.92,3.92,0,0,1,78.05,66.6Z"/><path class="cls-25" d="M90.85,59.7l-1.5-1.2c.8-.6.8-.6,2.4.8A3.55,3.55,0,0,0,90.85,59.7Z"/><path class="cls-25" d="M71,70.5a16.29,16.29,0,0,0-1.7-1.1c.7-.7.7-.7,2.4.7A1.61,1.61,0,0,0,71,70.5Z"/><path class="cls-25" d="M52.15,80.5c-.6-.4-1.1-.8-1.9-1.4,1.5-.6,2,.9,3,.9A3.7,3.7,0,0,1,52.15,80.5Z"/><path class="cls-25" d="M50.75,81.3c-.6-.4-1.2-.8-2-1.3,1.4-.5,2,.4,2.7.9A2.51,2.51,0,0,0,50.75,81.3Z"/><path class="cls-25" d="M69.45,71.2c-.6-.3-1.1-.7-1.7-1v-.4a3.35,3.35,0,0,1,1,0,8.64,8.64,0,0,1,1.6,1A3.55,3.55,0,0,0,69.45,71.2Z"/><path class="cls-25" d="M83.85,63.5c-.6-.4-1.1-.8-1.9-1.3,1.4-.5,2,.7,2.9.9A10.37,10.37,0,0,0,83.85,63.5Z"/><path class="cls-25" d="M102.55,53.4c-.6-.4-1.1-.7-1.7-1.1.7-.6.7-.6,2.4.7C103.05,53.1,102.75,53.3,102.55,53.4Z"/><path class="cls-25" d="M106.85,51c-.6-.3-1.2-.7-2-1.1,1.4-.7,2,.4,2.8.9A2.35,2.35,0,0,0,106.85,51Z"/><path class="cls-25" d="M108.35,50.3c-.6-.3-1.1-.7-1.7-1a.6.6,0,0,1,.1-.4,1.73,1.73,0,0,1,1,.1,8.64,8.64,0,0,1,1.6,1A2.93,2.93,0,0,0,108.35,50.3Z"/><path class="cls-25" d="M109.75,49.6c-.6-.4-1.1-.7-1.7-1.1.7-.7.7-.7,2.4.6C110.25,49.3,110,49.4,109.75,49.6Z"/><path class="cls-25" d="M85.25,62.8c-.6-.4-1.2-.9-1.9-1.4,1.3-.7,1.8.5,2.6.9A4.23,4.23,0,0,1,85.25,62.8Z"/><path class="cls-25" d="M98.25,55.8c-.5-.4-1.1-.8-1.6-1.2.7-.6.7-.6,2.4.7A9.22,9.22,0,0,1,98.25,55.8Z"/><path class="cls-25" d="M37.75,88.2c-.6-.4-1.1-.7-1.7-1.1,0-.1.1-.3.1-.4,1-.4,1.5.7,2.2,1A1,1,0,0,1,37.75,88.2Z"/><path class="cls-25" d="M62.25,75a16.29,16.29,0,0,1-1.7-1.1c.7-.7,1-.6,2.5.8C62.75,74.8,62.55,74.9,62.25,75Z"/><path class="cls-25" d="M55.05,78.9c-.6-.3-1.1-.7-1.9-1.2,1.4-.6,2,.6,2.9.7A9.29,9.29,0,0,0,55.05,78.9Z"/><path class="cls-25" d="M26.25,94.5a17.91,17.91,0,0,1-1.8-1.4c1.3-.5,1.8.5,2.5.9C26.75,94.1,26.55,94.3,26.25,94.5Z"/><path class="cls-25" d="M101.15,54.1c-.6-.3-1.1-.7-1.9-1.2,1.4-.5,2,.6,2.9.8A6.89,6.89,0,0,1,101.15,54.1Z"/><path class="cls-25" d="M92.45,58.9c-.6-.4-1.1-.9-1.9-1.5,1.4-.4,1.9.6,2.6,1A1.79,1.79,0,0,1,92.45,58.9Z"/><path class="cls-25" d="M36.35,88.9c-.6-.4-1.1-.7-1.9-1.2,1.4-.5,2,.3,2.6.9C36.85,88.7,36.55,88.8,36.35,88.9Z"/><path class="cls-25" d="M99.65,54.9c-.6-.3-1.1-.7-1.7-1,.1-.1.1-.2.2-.3,1-.2,1.6.6,2.3,1.1A2.35,2.35,0,0,0,99.65,54.9Z"/><path class="cls-25" d="M66.55,72.6a.76.76,0,0,1-.4-.2c-.4-.3-.8-.6-1.4-1,1.4-.7,1.9.6,2.8.9A5.39,5.39,0,0,1,66.55,72.6Z"/><path class="cls-25" d="M63.65,74.3c-.5-.3-1-.7-1.5-1-.1,0-.1-.1-.1-.2.6-.6.7-.5,2.3.7A1.79,1.79,0,0,1,63.65,74.3Z"/><path class="cls-25" d="M72.35,69.7c-.5-.4-1.1-.8-1.6-1.2.7-.6.7-.6,2.3.7A3,3,0,0,1,72.35,69.7Z"/><path class="cls-25" d="M59.35,76.7a14.31,14.31,0,0,0-1.5-1.1c-.1,0-.1-.1-.2-.3,1.1-.4,1.7.5,2.4,1A5.74,5.74,0,0,0,59.35,76.7Z"/><path class="cls-25" d="M56.55,78.1c-.6-.4-1.1-.7-1.7-1.1.6-.6.6-.6,2.4.7A5.74,5.74,0,0,1,56.55,78.1Z"/><path class="cls-25" d="M105.45,51.8c-.6-.3-1.1-.7-1.7-1,.1-.1.1-.3.2-.4.9-.1,1.6.6,2.3,1.1A6.89,6.89,0,0,0,105.45,51.8Z"/><path class="cls-25" d="M30.55,92.1c-.6-.4-1.1-.7-1.7-1.1.6-.4.6-.4,2.6.7A6.31,6.31,0,0,0,30.55,92.1Z"/><path class="cls-25" d="M33.45,90.4a21.87,21.87,0,0,1-1.9-1.1c1.4-.6,1.9.4,2.6.8C34,90.2,33.65,90.3,33.45,90.4Z"/><path class="cls-25" d="M49.35,82c-.6-.3-1.1-.7-1.7-1,.1-.1.1-.3.2-.4,1-.2,1.6.6,2.3,1.1A6.89,6.89,0,0,0,49.35,82Z"/><path class="cls-25" d="M45,84.4c-.5-.4-1.1-.8-1.9-1.4,1.4-.5,1.9.5,2.6.9A4.23,4.23,0,0,1,45,84.4Z"/><path class="cls-25" d="M88.15,61.1c-.4-.3-.9-.5-1.3-.8-.1-.1-.3-.1-.3-.4,1.1-.6,1.7.6,2.6.7A9.25,9.25,0,0,1,88.15,61.1Z"/><path class="cls-25" d="M65.15,73.6c-.5-.4-1.1-.8-1.7-1.2.7-.7.9-.6,2.1.6C65.45,73.2,65.25,73.4,65.15,73.6Z"/><path class="cls-25" d="M42.15,85.8c-.6-.4-1.2-.7-2-1.2,1.5-.5,2,.6,2.9.9Z"/><path class="cls-25" d="M40.65,86.8c-.5-.4-1.1-.9-1.7-1.4,1.2-.5,1.8.4,2.5.9A2.18,2.18,0,0,0,40.65,86.8Z"/><path class="cls-25" d="M34.85,89.7c-.4-.3-.9-.5-1.3-.8-.1-.1-.3-.1-.5-.3,1-.5,1.5-.3,2.6.8C35.35,89.5,35.15,89.6,34.85,89.7Z"/><path class="cls-25" d="M95.35,57.3c-.4-.3-.9-.5-1.3-.8-.1-.1-.3-.2-.4-.3.8-.5,1.1-.4,2.5.7A3,3,0,0,0,95.35,57.3Z"/><path class="cls-25" d="M58,77.4a15.26,15.26,0,0,0-1.6-1.1c.6-.6.6-.6,2.3.7C58.45,77.1,58.15,77.3,58,77.4Z"/><path class="cls-25" d="M29.15,92.8c-.6-.4-1.1-.7-1.7-1.1,1.2-.5,1.8.2,2.5.8A6.89,6.89,0,0,0,29.15,92.8Z"/><path class="cls-25" d="M94,58c-.6-.3-1.1-.7-1.7-1,.1-.1.1-.3.2-.4.9-.3,1.5.6,2.2,1A4.35,4.35,0,0,0,94,58Z"/><path class="cls-25" d="M86.75,61.8c-.6-.3-1.1-.7-1.7-1,.1-.1.1-.2.2-.3,1-.2,1.6.6,2.3,1.1A1.88,1.88,0,0,0,86.75,61.8Z"/><path class="cls-25" d="M81,64.9c-.6-.3-1.1-.7-1.7-1,.1-.1.1-.2.2-.4.9-.2,1.6.6,2.2,1.1A4.88,4.88,0,0,1,81,64.9Z"/><path class="cls-25" d="M76.65,67.3c-.6-.4-1.1-.7-1.7-1.1.7-.6.9-.5,2.1.6A1,1,0,0,1,76.65,67.3Z"/><path class="cls-25" d="M27.65,93.5c-.6-.3-1.1-.7-1.9-1.1,1.4-.6,1.9.4,2.6.8A4.88,4.88,0,0,1,27.65,93.5Z"/><path class="cls-25" d="M43.55,85.1c-.6-.4-1.1-.7-1.9-1.2,1.2-.6,1.8.2,2.4.7Z"/><path class="cls-25" d="M47.85,82.7c-.6-.3-1.1-.7-1.7-1,.1-.1.1-.2.2-.4,1-.2,1.6.6,2.3,1.1A6.89,6.89,0,0,0,47.85,82.7Z"/><path class="cls-25" d="M73.75,68.8c-.6-.3-1.1-.7-1.7-1,1.1-.5,1.7.3,2.4.8A1.85,1.85,0,0,0,73.75,68.8Z"/><path class="cls-25" d="M79.55,65.7a21.87,21.87,0,0,1-1.9-1.1c1.4-.5,2,.5,2.7.9A1.55,1.55,0,0,0,79.55,65.7Z"/><path class="cls-20" d="M147.65,125c1.5-.8,3.1-1.6,4.6-2.4l.9,3.6-4.8,2.4a9.14,9.14,0,0,0-1.4.7C147.25,127.8,147.45,126.4,147.65,125Z"/><path class="cls-20" d="M174.55,110.5c1.4-.7,2.7-1.5,4.1-2.2.2,1.2.3,2.5.5,3.7-1.3.7-2.5,1.3-3.8,2C175.05,112.8,174.85,111.7,174.55,110.5Z"/><path class="cls-20" d="M196.35,98.8c1.3-.6,2.6-1.3,3.8-1.9a4.15,4.15,0,0,1,.5,3.6c-1.2.6-2.4,1.2-3.6,1.9A32.87,32.87,0,0,0,196.35,98.8Z"/><path class="cls-20" d="M163.75,116.3c1.3-.6,2.6-1.3,3.8-1.9.2,1.2.5,2.4.7,3.6-1.2.6-2.4,1.1-3.6,1.7C164.45,118.6,164.05,117.4,163.75,116.3Z"/><path class="cls-20" d="M180.55,107.3l3.6-1.8c.2,1.2.5,2.4.7,3.6-1.3.6-2.5,1.2-3.8,1.8C180.85,109.7,180.75,108.5,180.55,107.3Z"/><path class="cls-20" d="M190.85,101.7c1.2-.7,2.5-1.3,3.7-2,.5,1.3,1.2,2.5.2,3.8-.9.5-1.9,1-2.8,1.5C191.55,104,191.25,102.8,190.85,101.7Z"/><path class="cls-20" d="M169.25,113.2c1.1-.6,2.3-1.1,3.4-1.7.9,1.1.6,2.4.6,3.7-1.1.6-2.2,1.1-3.3,1.7C169.75,115.7,169.55,114.4,169.25,113.2Z"/><path class="cls-20" d="M154.15,121.4c1.1-.5,2.2-1,3.4-1.5.2,1.2.5,2.3.7,3.5-1.1.5-2.2,1.1-3.3,1.6C154.65,123.8,154.35,122.6,154.15,121.4Z"/><path class="cls-20" d="M185.85,104.3c1.1-.5,2.1-1,3.2-1.5,1,1.1.6,2.4.7,3.6-1,.5-2.1,1-3.1,1.5C186.35,106.8,186.05,105.5,185.85,104.3Z"/><path class="cls-20" d="M159.15,118.7c1-.4,1.9-.8,2.9-1.2l.6,3.6c-.8.3-1.6.7-2.5,1C159.85,121,159.55,119.9,159.15,118.7Z"/><path class="cls-18" d="M175.35,114c1.3-.7,2.5-1.3,3.8-2a1.75,1.75,0,0,1-1.1,1.9,25.16,25.16,0,0,0-2.7,1.5Z"/><path class="cls-18" d="M164.75,119.7c1.2-.6,2.4-1.1,3.6-1.7a2,2,0,0,1-1.4,1.9,15.12,15.12,0,0,0-2.6,1.5C164.55,120.5,164.65,120.1,164.75,119.7Z"/><path class="cls-18" d="M181.05,110.9c1.3-.6,2.5-1.2,3.8-1.8-.4,2-2.3,2.2-3.8,3.3Z"/><path class="cls-18" d="M155,125c1.1-.5,2.2-1.1,3.3-1.6a2,2,0,0,1-1.5,2.1,13.76,13.76,0,0,1-1.7.8A6.15,6.15,0,0,1,155,125Z"/><path class="cls-18" d="M170.05,116.9c1.1-.6,2.2-1.1,3.3-1.7,0,2-2,2-3.2,3.3A11,11,0,0,1,170.05,116.9Z"/><path class="cls-18" d="M192,105.1c.9-.5,1.9-1,2.8-1.5,0,.3.1.8-.1,1-.9.7-1.9,1.4-2.8,2.1-.1-.1-.2-.1-.3-.2A5.73,5.73,0,0,1,192,105.1Z"/><path class="cls-18" d="M186.55,108c1-.5,2.1-1,3.1-1.5-.1,1.9-1.8,2-3,2.9C186.65,108.7,186.55,108.3,186.55,108Z"/><path class="cls-18" d="M160.25,122.1c.8-.3,1.6-.7,2.5-1-.1,1.6-1.4,1.9-2.9,2.6C160.05,123,160.15,122.5,160.25,122.1Z"/><path class="cls-28" d="M79.05,92.6c2.6-2,5.3-3.9,7.9-6,1.5-1.2,2.6-1.5,4.3-.4,2.4,1.5,5,2.7,7.7,4.1-1.6,1.2-2.9,2.2-4.3,3.3-1.7,1.2-3.3,2.5-5,3.7a1.49,1.49,0,0,1-1.4.3c-3-1.5-6-3.1-9-4.7A1.24,1.24,0,0,1,79.05,92.6Z"/><path class="cls-19" d="M147.65,125c-.2,1.4-.5,2.8-.7,4.3-3-1.8-6.1-3.7-9.1-5.5-12-7.5-24.1-14.9-36.1-22.4-.1-.1-.3-.1-.4-.2,1.2-.9,2.4-1.9,3.6-2.8,2.1,1.4,4.2,2.7,6.3,4.1l18.3,11.4C135.55,117.5,141.65,121.2,147.65,125Z"/><path class="cls-20" d="M202,95.7l3.6-1.8a10.37,10.37,0,0,1,1-.4c.2,1.2.5,2.3.7,3.5l-4.5,2.4C202.45,98.1,202.15,96.9,202,95.7Z"/><path class="cls-18" d="M202.65,99.3l4.5-2.4c.1,1.2-.5,1.7-1.5,2.1s-1.8.9-2.9,1.5A4.87,4.87,0,0,0,202.65,99.3Z"/><path class="cls-29" d="M163.65,82.2c-1.1.6-2,1.1-3,1.6-6.9,3.7-13.9,7.4-20.8,11.2-.6.3-1,.4-1.5,0a14.19,14.19,0,0,0-1.8-1.1,9,9,0,0,1,.9-.5c7.3-4,14.7-7.9,22-11.9a2.43,2.43,0,0,1,3.2.1A6.42,6.42,0,0,1,163.65,82.2Z"/><path class="cls-29" d="M168.45,85.5c-4.1,2.2-8,4.3-12,6.4-3.7,2-7.3,3.9-10.9,5.9a2.43,2.43,0,0,1-3.2-.1c-.3-.2-.6-.4-1-.7l6.8-3.7c5.4-2.9,10.8-5.8,16.2-8.8,1.2-.6,2.1-.8,3.1.1A4.3,4.3,0,0,0,168.45,85.5Z"/><path class="cls-24" d="M58,63.8a3.13,3.13,0,0,1,1-.5A9.29,9.29,0,0,0,58,63.8Z"/><path class="cls-3" d="M62.15,59.9c.3-.2.5-.3.8-.5A3.51,3.51,0,0,0,62.15,59.9Z"/></g></g></svg>