<svg xmlns="http://www.w3.org/2000/svg" viewBox="0 0 484.77 195.63"><defs><style>.cls-1{fill:#f3f3f3;}.cls-2{fill:#c4ebfe;}.cls-3{fill:#00a6f6;}.cls-4{fill:#61c9fb;}.cls-5{fill:#ed899e;}.cls-6{fill:#f5bc8a;}.cls-7{fill:#fadab9;}.cls-8{fill:#c8c7c6;}.cls-9{fill:#e2e1e0;}.cls-10{fill:#dbdbdb;}.cls-11{fill:#4c4a48;}.cls-12{fill:#fc9510;}.cls-13{fill:#f8cba0;}.cls-14{fill:#d5d4d3;}.cls-15{fill:#f7a7b9;}</style></defs><g id="Layer_2" data-name="Layer 2"><g id="Layer_1-2" data-name="Layer 1"><path class="cls-1" d="M14.44,151.18,1.6,165.61l18.13,2c1.75.24,3.51.53,5.27.72,7.75.83,15.49,1.67,23.24,2.43,6.77.67,13.54,1.26,20.31,1.88a11,11,0,0,0,3.16-.12q10.79-3.78,21.5-7.76c13.79-5.1,27.55-10.3,41.34-15.39,11.78-4.33,23.6-8.52,35.39-12.83,15.2-5.56,30.29-11.47,45.62-16.62,6.5-2.19,10.8-6.43,14.59-12.59H212.79l-.11-1,15.49-12.88,0,0,.69-.57,4-3-.25-1.16H212.89l-.15-1c2.46-2.69,4.9-5.41,7.4-8.06.7-.75,1.75-1.35-.24-1.57l-15.61-1.89,14.77-15.22c-4.66-.9-8.69-1.82-12.76-2.4a13.23,13.23,0,0,0-6.11.18c-11.57,4.12-23.06,8.48-34.58,12.76-7,2.6-14,5.24-21,7.79-8.56,3.12-17.17,6.11-25.73,9.24-10.53,3.86-21,7.82-31.54,11.72q-11,4.08-22.08,8.08c-5.17,1.88-10.36,3.7-15.54,5.55l-1.23,1.22a3.86,3.86,0,0,1-.09.49c-3.53,3.29-7.2,6.45-10.57,9.91-4.18,4.28-8.12,8.8-12.15,13.24C21.91,142.86,18.18,147,14.44,151.18Zm431.79-43.52c-1-.4-2-.87-3-1.19Q431,102.69,418.77,99c-1.22-.4-2.43-.83-3.65-1.2-8.34-2.57-16.7-5.09-25-7.69C380,86.9,369.83,83.66,359.7,80.48c-8.15-2.56-16.32-5-24.47-7.62C328.11,70.6,321,68.22,313.89,66q-11.25-3.57-22.55-7c-5.3-1.63-10.62-3.19-16.67-5l10.64,12.37-20,2.73-.22.81,6.63,5.69,6,6-13.32,2.57,16.17,13.35-2.18.89-24.09.59-.14.71,13.77,11.72-10.55,2-.07.77c1.56.42,3.14.77,4.68,1.26,9.76,3.1,19.51,6.28,29.28,9.35,11.41,3.59,22.83,7.1,34.25,10.64,9.8,3.05,19.62,6.07,29.41,9.15s19.57,6.24,29.37,9.29c5.84,1.82,11.73,3.49,17.59,5.22l27.56,8.75c10.88,3.43,21.75,6.9,32.65,10.26,4.45,1.37,7.28-.16,8.66-4.8q6.8-22.81,13.38-45.69c1.65-5.73.07-8.34-5.5-10-4.85-1.44-9.67-3-14.51-4.43Zm-368,86.28.18-.89a12.57,12.57,0,0,0-2.41-.73c-2.94-.27-5.9-.54-8.85-.62-9.29-.26-18.59-.58-27.88-.59-8.41,0-16.81.32-25.21.57-4,.13-8.09.38-12.12.65A7.66,7.66,0,0,0,0,193l.11.89A614,614,0,0,0,78.27,193.94Zm405.89.45,0-1c-4.5-.36-9-.94-13.51-1-8.73-.17-17.47-.14-26.2-.05-12.18.14-24.36.4-36.54.64a16.84,16.84,0,0,0-2.93.57l.09,1.06A673.88,673.88,0,0,0,484.16,194.39ZM245.84,0c-2.64-.11-3.37,1.11-3.36,3.54q.14,19.92,0,39.83c0,2.94,1.1,3.28,3.35,2.38Zm-48.6,14c-.48.89-1.25,1.65-1.13,2.2A6.3,6.3,0,0,0,197.65,19c3.43,3.64,7,7.19,10.45,10.78l14.63,15.1c1.08,1.12,2.06,1.82,3.42.22s.14-2.14-.89-3a41,41,0,0,1-4-3.6q-10.94-11.34-21.82-22.73A25.89,25.89,0,0,0,197.24,14Zm96.3,3c-1.57-3.14-3-3.57-4.42-2.08-6.46,6.56-12.82,13.2-19.2,19.84-2.21,2.3-4.47,4.57-6.49,7-.55.69-.3,2.08-.42,3.15.93-.2,2.06-.13,2.75-.66a41.37,41.37,0,0,0,3.56-3.57Z"/><path class="cls-2" d="M49.7,113.86c5.18-1.85,10.37-3.67,15.54-5.55q11-4,22.08-8.08c10.52-3.9,21-7.86,31.54-11.72,8.56-3.13,17.17-6.12,25.73-9.24,7-2.55,14-5.19,21-7.79,11.52-4.28,23-8.64,34.58-12.76a13.23,13.23,0,0,1,6.11-.18c4.07.58,8.1,1.5,12.76,2.4L204.29,76.16l15.61,1.89c-2.27,0-4.55-.13-6.82-.1s-4.64-.33-6.68.36c-6.62,2.26-13.09,4.94-19.63,7.41q-15.84,6-31.68,11.89c-2.4.9-4.8,1.81-7.22,2.67-5.23,1.86-10.51,3.59-15.71,5.55-7.77,2.93-15.45,6.11-23.24,9s-15.66,5.5-23.48,8.3S69.8,128.7,62,131.66a55.73,55.73,0,0,0-6.54,3.51l-1.11-.61c1-2.65,1.85-5.35,2.93-8,1.52-3.66.69-5.91-2.8-7.6-2.1-1-4.09-2.29-6.14-3.44a3.86,3.86,0,0,0,.09-.49Z"/><path class="cls-3" d="M228.17,93.46l-15.49,12.88.11,1h17.36c-3.79,6.16-8.09,10.4-14.59,12.59-15.33,5.15-30.42,11.06-45.62,16.62-11.79,4.31-23.61,8.5-35.39,12.83C120.76,154.5,107,159.7,93.21,164.8q-10.71,4-21.5,7.76a11,11,0,0,1-3.16.12c.81-2.36,1.6-4.73,2.41-7.08,1.43-4.13,1.14-4.91-2.68-7a33.79,33.79,0,0,1-3.67-1.95,13.45,13.45,0,0,1-2.07-2.35c.26-.4.44-1,.8-1.17,3-1.13,5.94-2.18,8.91-3.24,5.56-2,11.14-3.94,16.67-6,8.25-3.06,16.44-6.28,24.71-9.29,9.72-3.55,19.52-6.9,29.25-10.44,9.45-3.43,18.86-7,28.29-10.49,14.5-5.36,29-10.74,43.51-16C219.11,96.1,223.67,94.86,228.17,93.46Z"/><path class="cls-4" d="M228.17,93.46c-4.5,1.4-9.06,2.64-13.49,4.24-14.53,5.26-29,10.64-43.51,16-9.43,3.48-18.84,7.06-28.29,10.49-9.73,3.54-19.53,6.89-29.25,10.44-8.27,3-16.46,6.23-24.71,9.29-5.53,2.06-11.11,4-16.67,6-3,1.06-6,2.11-8.91,3.24-.36.14-.54.77-.8,1.17l-1-.12a81.66,81.66,0,0,1,2.85-8.42c1.31-2.86.81-4.92-1.92-6.41-2.37-1.28-4.62-2.79-6.92-4.21A55.73,55.73,0,0,1,62,131.66c7.76-3,15.58-5.74,23.4-8.53s15.69-5.42,23.48-8.3,15.47-6.07,23.24-9c5.2-2,10.48-3.69,15.71-5.55,2.42-.86,4.82-1.77,7.22-2.67q15.84-5.94,31.68-11.89c6.54-2.47,13-5.15,19.63-7.41,2-.69,4.44-.33,6.68-.36s4.55.06,6.82.1c2,.22.94.82.24,1.57-2.5,2.65-4.94,5.37-7.4,8.06l.15,1h19.77l.25,1.16-4,3-.69.57Z"/><path class="cls-3" d="M401.9,159c-5.86-1.73-11.75-3.4-17.59-5.22-9.8-3-19.57-6.22-29.37-9.29s-19.61-6.1-29.41-9.15c-11.42-3.54-22.84-7-34.25-10.64-9.77-3.07-19.52-6.25-29.28-9.35-1.54-.49-3.12-.84-4.68-1.26l.07-.77,10.55-2L254.17,99.62l.14-.71,24.09-.59c6.64,2.21,13.24,4.54,19.91,6.63,8.77,2.73,17.61,5.19,26.37,7.91,7.06,2.2,14,4.68,21.08,6.91,8,2.52,16.05,4.88,24.06,7.35q16.28,5,32.51,10.12c1.72.54,3.38,1.3,5.07,2l-1.29,4.65Q404,151.42,401.9,159Z"/><path class="cls-2" d="M271.69,75.55l-6.63-5.69.22-.81,20-2.73L274.67,54c6.05,1.81,11.37,3.37,16.67,5q11.3,3.46,22.55,7c7.12,2.25,14.22,4.63,21.34,6.89,8.15,2.58,16.32,5.06,24.47,7.62,10.13,3.18,20.25,6.42,30.39,9.59,8.33,2.6,16.69,5.12,25,7.69,1.22.37,2.43.8,3.65,1.2-.25,1.48-.4,3-.76,4.42-1.38,5.47-2.82,10.93-4.23,16.4l-.92.15c-1-.79-1.79-1.94-2.88-2.3-4.76-1.6-9.59-2.95-14.39-4.42q-15.31-4.65-30.63-9.34c-10-3.07-20-6.12-30-9.23q-16.53-5.15-33-10.41c-8.21-2.61-16.37-5.36-24.59-7.9A32.76,32.76,0,0,0,271.69,75.55Z"/><path class="cls-4" d="M271.69,75.55a32.76,32.76,0,0,1,5.63.78c8.22,2.54,16.38,5.29,24.59,7.9q16.5,5.25,33,10.41c10,3.11,20,6.16,30,9.23q15.32,4.68,30.63,9.34c4.8,1.47,9.63,2.82,14.39,4.42,1.09.36,1.92,1.51,2.88,2.3q-.94,3.78-1.9,7.58c-1,4-2,8-3.07,12a.83.83,0,0,1-.49-.25c-1.69-.67-3.35-1.43-5.07-2q-16.24-5.12-32.51-10.12c-8-2.47-16.06-4.83-24.06-7.35-7.05-2.23-14-4.71-21.08-6.91-8.76-2.72-17.6-5.18-26.37-7.91-6.67-2.09-13.27-4.42-19.91-6.63l2.18-.89L264.41,84.08l13.32-2.57Z"/><path class="cls-5" d="M446.23,107.66l17.91,5.41c4.84,1.47,9.66,3,14.51,4.43,5.57,1.66,7.15,4.27,5.5,10q-6.56,22.89-13.38,45.69c-1.38,4.64-4.21,6.17-8.66,4.8-10.9-3.36-21.77-6.83-32.65-10.26.6-3,1.13-6,1.83-8.93.91-3.78,2-7.51,3-11.26q3-10.12,6-20.25c.45-1.21,1-2.41,1.33-3.64C443.15,118.32,444.68,113,446.23,107.66Zm2.64,5.91c-.43,1.77-.7,3.05-1.05,4.31-1.66,6-1.69,6.07,3.84,7.85,8.25,2.66,16.55,5.17,25,7.8,1-3,2-5.64,2.62-8.38a3.19,3.19,0,0,0-1.66-2.48c-3.22-1.26-6.55-2.25-9.85-3.28C461.58,117.46,455.37,115.57,448.87,113.57Z"/><path class="cls-6" d="M61.49,154.21l1,.12a13.45,13.45,0,0,0,2.07,2.35,33.79,33.79,0,0,0,3.67,1.95c3.82,2.06,4.11,2.84,2.68,7-.81,2.35-1.6,4.72-2.41,7.08-6.77-.62-13.54-1.21-20.31-1.88-7.75-.76-15.49-1.6-23.24-2.43-1.76-.19-3.52-.48-5.28-.72q-.66-2.67-1.34-5.33c7.42-1.48,14.83-3,22.27-4.42C47.58,156.59,54.54,155.43,61.49,154.21Z"/><path class="cls-7" d="M48.38,115.57c2,1.15,4,2.42,6.14,3.44,3.49,1.69,4.32,3.94,2.8,7.6-1.08,2.6-2,5.3-2.93,8-2.81,1.67-5.6,3.38-8.43,5-5.29,3-10.64,6-15.91,9.06-2.81,1.65-5.34,4-8.31,5.12-2.27.88-4.16,1.57-4.85,4.12l-2.45-6.69c3.74-4.15,7.47-8.32,11.22-12.46,4-4.44,8-9,12.15-13.24C41.18,122,44.85,118.86,48.38,115.57Z"/><path class="cls-8" d="M434.25,147.54c-1,3.75-2.05,7.48-3,11.26-.7,2.95-1.23,5.95-1.83,8.93L401.9,159q2.1-7.56,4.21-15.12l1.29-4.65a.83.83,0,0,0,.49.25c3.77,1.06,7.56,2,11.3,3.19C424.23,144.21,429.23,145.9,434.25,147.54Z"/><path class="cls-9" d="M446.23,107.66c-1.55,5.33-3.08,10.66-4.66,16-.37,1.23-.88,2.43-1.33,3.64-4.53-1.41-9-2.9-13.61-4.2-4.25-1.21-8.57-2.22-12.85-3.31,1.41-5.47,2.85-10.93,4.23-16.4.36-1.45.51-2.94.76-4.42q12.23,3.75,24.44,7.51C444.24,106.79,445.22,107.26,446.23,107.66Z"/><path class="cls-10" d="M78.27,193.94a614,614,0,0,1-78.16,0L0,193a7.66,7.66,0,0,1,2-.69c4-.27,8.08-.52,12.12-.65,8.4-.25,16.8-.58,25.21-.57,9.29,0,18.59.33,27.88.59,3,.08,5.91.35,8.85.62a12.57,12.57,0,0,1,2.41.73Z"/><path class="cls-10" d="M484.16,194.39a673.88,673.88,0,0,1-79.13.16l-.09-1.06a16.84,16.84,0,0,1,2.93-.57c12.18-.24,24.36-.5,36.54-.64,8.73-.09,17.47-.12,26.2.05,4.51.09,9,.67,13.51,1Z"/><path class="cls-11" d="M14.44,151.18q1.22,3.34,2.45,6.69c.5,1.48,1,3,1.49,4.45q.68,2.66,1.34,5.33l-18.12-2Z"/><path class="cls-2" d="M245.84,0V45.76c-2.25.9-3.37.56-3.35-2.38q.13-19.91,0-39.83C242.47,1.12,243.2-.1,245.84,0Z"/><path class="cls-2" d="M197.24,14a25.89,25.89,0,0,1,2.24,1.8Q210.4,27.11,221.3,38.49a41,41,0,0,0,4,3.6c1,.82,2.35,1.25.89,3s-2.34.9-3.42-.22L208.1,29.73c-3.49-3.59-7-7.14-10.45-10.78a6.3,6.3,0,0,1-1.54-2.79C196,15.61,196.76,14.85,197.24,14Z"/><path class="cls-2" d="M293.54,17,269.32,40.72a41.37,41.37,0,0,1-3.56,3.57c-.69.53-1.82.46-2.75.66.12-1.07-.13-2.46.42-3.15,2-2.48,4.28-4.75,6.49-7,6.38-6.64,12.74-13.28,19.2-19.84C290.58,13.42,292,13.85,293.54,17Z"/><path class="cls-7" d="M49.7,113.86l-1.23,1.22Z"/><path class="cls-12" d="M228.19,93.43l.69-.57Z"/><path class="cls-13" d="M18.38,162.32c-.5-1.48-1-3-1.49-4.45.69-2.55,2.58-3.24,4.85-4.12,3-1.15,5.5-3.47,8.31-5.12,5.27-3.08,10.62-6,15.91-9.06,2.83-1.63,5.62-3.34,8.43-5l1.11.61c2.3,1.42,4.55,2.93,6.92,4.21,2.73,1.49,3.23,3.55,1.92,6.41a81.66,81.66,0,0,0-2.85,8.42c-7,1.22-13.91,2.38-20.84,3.69C33.21,159.3,25.8,160.84,18.38,162.32Z"/><path class="cls-14" d="M413.78,119.78c4.28,1.09,8.6,2.1,12.85,3.31,4.57,1.3,9.08,2.79,13.61,4.2q-3,10.12-6,20.25c-5-1.64-10-3.33-15.06-4.89-3.74-1.15-7.53-2.13-11.3-3.19,1-4,2.06-8,3.07-12q1-3.8,1.9-7.58Z"/><path class="cls-15" d="M448.87,113.57c6.5,2,12.71,3.89,18.91,5.82,3.3,1,6.63,2,9.85,3.28a3.19,3.19,0,0,1,1.66,2.48c-.61,2.74-1.64,5.38-2.62,8.38-8.46-2.63-16.76-5.14-25-7.8-5.53-1.78-5.5-1.87-3.84-7.85C448.17,116.62,448.44,115.34,448.87,113.57Z"/></g></g></svg>