<svg xmlns="http://www.w3.org/2000/svg"  version="1.1" x="0px" y="0px" viewBox="0 0 100 125" enable-background="new 0 0 100 100" xml:space="preserve" style="&#10;"><path fill-rule="evenodd" clip-rule="evenodd" d="M94.848,54.413c0.646,6.84-3.531,13.257-10.159,15.605  c-0.055,0.02-0.111,0.029-0.168,0.029c-0.074,0-0.147-0.017-0.216-0.048c-0.12-0.058-0.214-0.159-0.258-0.283l-0.858-2.389  c-0.045-0.125-0.038-0.263,0.02-0.383c0.058-0.118,0.159-0.211,0.285-0.255c5.096-1.802,8.308-6.714,7.81-11.945  c-0.371-3.944-2.76-7.339-6.339-9.128l1.516,3.111c0.121,0.248,0.017,0.545-0.233,0.666l-2.299,1.106  c-0.12,0.059-0.258,0.066-0.385,0.022c-0.125-0.043-0.229-0.135-0.287-0.254l-3.818-7.833c-0.11-0.228-0.032-0.502,0.182-0.638  l7.6-4.819c0.233-0.148,0.543-0.083,0.694,0.151l1.376,2.133c0.072,0.111,0.097,0.247,0.068,0.376  c-0.029,0.129-0.108,0.242-0.22,0.313l-3.376,2.144C90.89,44.301,94.33,48.938,94.848,54.413z M84.415,41.78l3.776-2.397  l-0.834-1.293l-6.801,4.312l3.405,6.983l1.394-0.671l-1.888-3.876c-0.09-0.184-0.057-0.402,0.081-0.553  c0.138-0.151,0.356-0.203,0.547-0.131c4.615,1.713,7.76,5.737,8.208,10.498c0.525,5.523-2.746,10.718-8.003,12.802l0.521,1.449  c5.921-2.326,9.613-8.175,9.025-14.396c-0.511-5.411-4.087-9.946-9.333-11.837c-0.179-0.065-0.306-0.226-0.327-0.415  C84.166,42.066,84.254,41.882,84.415,41.78z M69.556,78.502H30.102c-0.278,0-0.503-0.224-0.503-0.499V49.561  c0-0.276,0.225-0.499,0.503-0.499h6.543V34.587c0-7.217,5.914-13.089,13.185-13.089c7.269,0,13.183,5.872,13.183,13.089v6.788  c0,0.276-0.225,0.499-0.503,0.499h-3.608c-0.278,0-0.503-0.223-0.503-0.499v-6.451c0-4.692-3.845-8.509-8.569-8.509  c-4.728,0-8.573,3.817-8.573,8.509v14.137h28.299c0.278,0,0.503,0.223,0.503,0.499v28.442  C70.059,78.278,69.834,78.502,69.556,78.502z M49.83,25.417c5.279,0,9.574,4.265,9.574,9.507v5.952h2.604v-6.289  c0-6.667-5.463-12.092-12.177-12.092c-6.716,0-12.18,5.425-12.18,12.092v14.474h2.601V34.924  C40.25,29.682,44.547,25.417,49.83,25.417z M69.053,50.059H30.604v27.445h38.448V50.059z M49.83,57.929  c3.247,0,5.89,2.625,5.89,5.853s-2.644,5.854-5.89,5.854c-3.249,0-5.892-2.626-5.892-5.854S46.581,57.929,49.83,57.929z   M49.83,68.637c2.693,0,4.884-2.179,4.884-4.855c0-2.678-2.191-4.854-4.884-4.854c-2.694,0-4.887,2.177-4.887,4.854  C44.943,66.458,47.135,68.637,49.83,68.637z M12.757,71.109c-0.082,0.052-0.175,0.078-0.271,0.078c-0.037,0-0.073-0.004-0.108-0.012  c-0.13-0.028-0.244-0.107-0.315-0.22l-1.372-2.137c-0.149-0.231-0.081-0.54,0.153-0.688l3.373-2.136  C9.11,63.79,5.669,59.149,5.152,53.671C4.505,46.832,8.681,40.417,15.307,38.07c0.125-0.045,0.264-0.038,0.384,0.019  c0.121,0.057,0.214,0.159,0.258,0.284l0.857,2.392c0.093,0.259-0.043,0.545-0.305,0.638C11.41,43.203,8.2,48.114,8.696,53.345  c0.372,3.947,2.761,7.342,6.34,9.129l-1.516-3.116c-0.058-0.12-0.066-0.257-0.022-0.382s0.136-0.228,0.256-0.285l2.299-1.101  c0.253-0.12,0.55-0.016,0.671,0.232l3.817,7.833c0.111,0.228,0.033,0.502-0.182,0.639L12.757,71.109z M16.038,58.705l-1.394,0.668  l1.887,3.88c0.089,0.184,0.057,0.402-0.081,0.554c-0.139,0.149-0.356,0.2-0.548,0.131c-4.614-1.713-7.759-5.736-8.208-10.499  c-0.524-5.522,2.747-10.716,8-12.801l-0.521-1.452c-5.919,2.324-9.61,8.171-9.021,14.393c0.511,5.414,4.087,9.953,9.332,11.845  c0.18,0.064,0.307,0.226,0.328,0.414c0.021,0.189-0.068,0.374-0.229,0.477l-3.776,2.391l0.832,1.295l6.803-4.309L16.038,58.705z" style="&#10;    fill: #535766;&#10;    font-weight: bold;&#10;    height: auto;&#10;    width: auto;&#10;"/><div xmlns="" id="divScriptsUsed" style="display: none"/><script xmlns="" id="globalVarsDetection" src="chrome-extension://cmkdbmfndkfgebldhnkbfhlneefdaaip/js/wrs_env.js"/></svg>