<svg xmlns="http://www.w3.org/2000/svg" viewBox="0 0 95.06 193.38"><defs><style>.cls-1{fill:#fbc54d;}.cls-2{fill:#c49023;}.cls-3{fill:#742d1b;}.cls-4{fill:#fbfbfa;}.cls-5{fill:#c44d30;}.cls-6{fill:#742e1c;}.cls-7{fill:#3b2c33;}.cls-8{fill:#e5e5e5;}.cls-9{fill:#d6d7d9;}.cls-10{fill:#723121;}.cls-11{fill:#e4e4e4;}.cls-12{fill:#0288ce;}.cls-13{fill:#5cb1bc;}.cls-14{fill:#40959f;}.cls-15{fill:#58a8b3;}.cls-16{fill:#c9c9c9;}.cls-17{fill:#0674bc;}.cls-18{fill:#ee7ad1;}.cls-19{fill:#babec1;}.cls-20{fill:#f5a1df;}</style></defs><g id="Layer_2" data-name="Layer 2"><g id="Layer_1-2" data-name="Layer 1"><path class="cls-1" d="M47.81,1.17a5.43,5.43,0,0,1,.86,1.47c.23,1.11.29,2.25.42,3.38.21,2,.41,4,.62,6s.43,4,.64,6l.6,6,.66,6c.21,2,.43,4,.64,6,.2,2.26.37,4.52.6,6.78.18,1.74.43,3.46.65,5.19l.59,6,.66,6q.3,3,.61,6L56,72c.13.91.27,1.83.4,2.75l.27,3.72c0,.32,0,.64.05,1l2.07,19.4q1.15,11,2.29,21.91a5.78,5.78,0,0,1-1.66.65c-4.12.21-8.26.49-12.39.46a56.59,56.59,0,0,1-6.93-.88c-.26-3-.49-6.11-.79-9.16-.35-3.6-.77-7.2-1.15-10.8-.27-2.57-.51-5.14-.78-7.72-.37-3.52-.76-7-1.13-10.55-.28-2.58-.53-5.15-.8-7.72-.37-3.48-.75-7-1.12-10.44-.28-2.61-.53-5.22-.81-7.84-.36-3.48-.75-7-1.11-10.44-.27-2.65-.51-5.3-.79-8-.36-3.4-.76-6.79-1.13-10.19q-.59-5.46-1.16-10.92c-.16-1.44-.1-2.71,1.35-3.64,1.88-1.2,3.63-2.6,5.44-3.91Zm-13.73,19c.55,1.23,1.17,1.5,2.32,1,1.74-.75,3.35-4,2.9-5.83C39,14,38.11,13.46,36.91,14,34.79,14.76,33.36,17.9,34.08,20.16ZM57,96.07c-.23-.45-.33-.92-.57-1a1.39,1.39,0,0,0-1.07.21c-1.92,1.35-3.86,2.69-5.7,4.17a4.35,4.35,0,0,0-1,1.92,1,1,0,0,0,.37.9,1.07,1.07,0,0,0,.95-.15c2-1.4,4-2.81,5.9-4.31A6.83,6.83,0,0,0,57,96.07Zm-8.9-84.88c-.25-.47-.35-1-.59-1a1.38,1.38,0,0,0-1.07.22c-1.93,1.35-3.86,2.7-5.71,4.16a3.64,3.64,0,0,0-1,1.69,1.37,1.37,0,0,0,.36,1.14c.15.14.76,0,1.05-.22C43.09,15.79,45,14.43,46.86,13A7.36,7.36,0,0,0,48.12,11.19ZM47.41,91.8c.26.48.37,1,.61,1a1.41,1.41,0,0,0,1.07-.23c1.93-1.35,3.85-2.71,5.7-4.16a3.62,3.62,0,0,0,1-1.7,1.38,1.38,0,0,0-.38-1.13c-.15-.14-.75,0-1,.23-1.9,1.33-3.8,2.66-5.62,4.09A8.66,8.66,0,0,0,47.41,91.8Zm6.65-24c-.26-.48-.38-1-.55-1a1.87,1.87,0,0,0-1.19.25c-1.86,1.3-3.73,2.61-5.5,4a4.53,4.53,0,0,0-1.14,1.86,1.13,1.13,0,0,0,.35,1,1.19,1.19,0,0,0,1-.18c1.92-1.35,3.85-2.7,5.69-4.16A7.51,7.51,0,0,0,54.06,67.76ZM46.41,82.47c.31.45.44.88.7,1a1.22,1.22,0,0,0,1-.24c1.92-1.36,3.85-2.72,5.7-4.17a3.78,3.78,0,0,0,1-1.68,1.4,1.4,0,0,0-.32-1.16c-.14-.14-.77,0-1,.21-1.93,1.35-3.86,2.7-5.7,4.16A8.15,8.15,0,0,0,46.41,82.47Zm5.64-33.53c-.24-.48-.32-.92-.56-1a1.14,1.14,0,0,0-1,.15c-2,1.4-4,2.8-5.88,4.3a3.63,3.63,0,0,0-.93,1.73,1.1,1.1,0,0,0,.36,1c.23.15.77,0,1.06-.2,1.92-1.35,3.85-2.71,5.69-4.16A7.4,7.4,0,0,0,52.05,48.94ZM41.49,35.2c.28.51.38.95.63,1.06a1.17,1.17,0,0,0,1-.21c2-1.38,3.92-2.76,5.81-4.22a3.4,3.4,0,0,0,1-1.59,1.29,1.29,0,0,0-.29-1.16c-.2-.17-.83,0-1.13.19-1.9,1.32-3.8,2.65-5.61,4.09A8.07,8.07,0,0,0,41.49,35.2Zm7.62-14.6c-.25-.47-.35-.91-.6-1a1.19,1.19,0,0,0-1,.17c-2,1.41-4,2.81-5.89,4.31a3.17,3.17,0,0,0-.88,1.62,1.36,1.36,0,0,0,.36,1.13c.15.14.76,0,1-.24,1.92-1.35,3.85-2.7,5.7-4.16A7.07,7.07,0,0,0,49.11,20.6ZM58,105.49c-.26-.46-.38-.94-.61-1a1.46,1.46,0,0,0-1.07.25c-1.89,1.33-3.79,2.66-5.6,4.09a4,4,0,0,0-1.06,1.77,1.31,1.31,0,0,0,.38,1.13c.14.14.75-.06,1-.26,1.93-1.35,3.86-2.7,5.7-4.16A7.21,7.21,0,0,0,58,105.49Zm-5-47.15c-.26-.48-.35-.92-.59-1a1.21,1.21,0,0,0-1,.18c-2,1.38-3.92,2.76-5.8,4.24a3.62,3.62,0,0,0-1,1.7,1.32,1.32,0,0,0,.38,1.12c.15.14.76,0,1-.24,1.93-1.35,3.85-2.71,5.7-4.17A7.06,7.06,0,0,0,53.05,58.34ZM42.5,44.56c.25.53.33,1,.56,1.1a1.36,1.36,0,0,0,1.06-.21c1.93-1.35,3.85-2.71,5.71-4.15a3.39,3.39,0,0,0,1-1.57c.11-.38-.17-.87-.28-1.31a3.6,3.6,0,0,0-1.17.31c-1.87,1.3-3.73,2.61-5.52,4A8.67,8.67,0,0,0,42.5,44.56Z"/><path class="cls-2" d="M47.81,1.17,36.11,9.68c-1.81,1.31-3.56,2.71-5.44,3.91-1.45.93-1.51,2.2-1.35,3.64q.59,5.46,1.16,10.92c.37,3.4.77,6.79,1.13,10.19.28,2.66.52,5.31.79,8,.36,3.48.75,7,1.11,10.44.28,2.62.53,5.23.81,7.84.37,3.48.75,7,1.12,10.44.27,2.57.52,5.14.8,7.72.37,3.52.76,7,1.13,10.55.27,2.58.51,5.15.78,7.72.38,3.6.8,7.2,1.15,10.8.3,3,.53,6.11.79,9.16l-2.69-.52q-.61-6-1.22-12c1.22-1.54.88-2.29-.13-4-.32-.54-.34-.49-.8-1.21a11.69,11.69,0,0,0,.19-1.52q-.78-7.6-1.61-15.2c-.21-2-.46-3.94-.69-5.91l-.33-3.89c-.18-1.57-.35-3.14-.53-4.7l-.63-6-.16-1.47s0,0,0-.07a.27.27,0,0,0,0-.15c-.15-1.44-.31-2.88-.46-4.32l-.59-6c-.21-2-.43-4-.65-6L28.53,36l-.63-6-.6-6.2Q27,20.88,26.65,18a17,17,0,0,0-.16-1.89,3.36,3.36,0,0,1,1.37-3.82L29,11.48l12-8.76L44.88,0Z"/><path class="cls-3" d="M44.25,191.82l-8.56-1.67-5.21-1.75-4.43-2.17a1,1,0,0,1-.28-.17l-4-3h0l-.1-.09-3.56-4.48-.32-.53-1.4-4.11-.66-5.65-.76-6-.78-6-.82-6c-.25-2-.51-4-.77-6-.11-1.07-.21-2.14-.35-3.2q-.65-4.65-1.31-9.28l-.28-2.41c-.12-.88-.23-1.76-.35-2.65s-.25-1.9-.38-2.85l-.45-3.61-.77-6c-.3-2-.59-3.94-.89-5.92,0,0,0-.09,0-.14-.07-1.1-.42-2-.49-3.13.3.69,1,1.26,1.32,1.94,2.67,5.48,7,8.85,12.21,11.67,8.4,4.56,17.58,6.1,27,6.55a89.61,89.61,0,0,0,11.21-.54,54.64,54.64,0,0,0,17.57-4,36.9,36.9,0,0,0,12.37-8.72c1.19-.4,4.74-9.28,5.8-10.62a7.46,7.46,0,0,1,0,3.63c-.5,1.87-1.51,9.49-1.51,9.52l0,.1v.06l-.1.54c-.21,1.68-.43,3.36-.64,5-.27,2-.55,4-.82,6l-.81,6.25-.73,5.76-.72,5.53-1.65,12.46c-.25,2-.51,4-.76,6l-.78,6.06q-.35,3-.68,5.94a.88.88,0,0,0-.12.21c-1,5.2-4.66,8.45-8.72,11.29a38.31,38.31,0,0,1-5.22,2.68l-5.76,2c-1.78.35-3.56.69-5.33,1.06-.44.1-.87.26-1.3.4a1.63,1.63,0,0,1-.45.09l-5.19.26-3,0-2.9-.06Z"/><path class="cls-4" d="M47,192.48l.71,0-.71.22Z"/><path class="cls-4" d="M44.44,193.26s0,.08,0,.09-.06,0-.1,0,0-.07,0-.08Z"/><path class="cls-5" d="M93.85,105.83c-3.57,7.55-10,11.76-17.36,14.87A57.14,57.14,0,0,1,58.58,125a87.66,87.66,0,0,1-11.1.42c-9.43-.46-18.57-2.3-27-6.86-5.2-2.82-9.72-6.42-12.39-11.9-.33-.68-.61-1.38-.91-2.06L6.67,102l-.1-1a.26.26,0,0,0,0-.23l0-1.16.06-.74,0-.24L7.09,96q1.37-2.76,2.75-5.53l2.94,8.3c-.44,4.27,1.16,7.8,3.93,10.92.28.34.52.7.83,1,5.14,5.14,11.55,7.82,18.47,9.51l1.38.22,2.7.52a56.59,56.59,0,0,0,6.93.88c4.13,0,8.27-.25,12.39-.46a5.78,5.78,0,0,0,1.66-.65c.71.71,1.41.07,2.11,0L69.61,119l8.88-4L81,113.28c.86-.69,1.77-1.33,2.56-2.1a17,17,0,0,0,4.78-7.71c1.57-6-.74-10.71-5-14.72l.51-5.6,1.42.86,3.88,3.27L91.43,90l2.94,6A17.42,17.42,0,0,1,93.85,105.83Z"/><path class="cls-6" d="M63.18,120.7c-.7.11-1.4.75-2.11,0q-1.14-11-2.29-21.91l-2.07-19.4c0-.31,0-.63-.05-1a40.05,40.05,0,0,1,10.19,1.67c-.38,4.41-.75,8.83-1.15,13.24Q64.46,107.06,63.18,120.7Z"/><path class="cls-5" d="M66.85,80.15a40.05,40.05,0,0,0-10.19-1.67l-.27-3.72,2.64.15,6,.93,2.13.5C67.07,77.61,67,78.88,66.85,80.15Z"/><path class="cls-7" d="M57,96.07a6.83,6.83,0,0,1-1.15,1.74C54,99.31,52,100.72,50,102.12a1.07,1.07,0,0,1-.95.15,1,1,0,0,1-.37-.9,4.35,4.35,0,0,1,1-1.92c1.84-1.48,3.78-2.82,5.7-4.17a1.39,1.39,0,0,1,1.07-.21C56.69,95.15,56.79,95.62,57,96.07Z"/><path class="cls-7" d="M48.12,11.19A7.36,7.36,0,0,1,46.86,13c-1.85,1.45-3.77,2.81-5.69,4.17-.29.2-.9.36-1.05.22a1.37,1.37,0,0,1-.36-1.14,3.64,3.64,0,0,1,1-1.69c1.85-1.46,3.78-2.81,5.71-4.16a1.38,1.38,0,0,1,1.07-.22C47.77,10.23,47.87,10.72,48.12,11.19Z"/><path class="cls-7" d="M47.41,91.8a8.66,8.66,0,0,1,1.36-1.86c1.82-1.43,3.72-2.76,5.62-4.09.28-.2.88-.37,1-.23a1.38,1.38,0,0,1,.38,1.13,3.62,3.62,0,0,1-1,1.7c-1.85,1.45-3.77,2.81-5.7,4.16a1.41,1.41,0,0,1-1.07.23C47.78,92.76,47.67,92.28,47.41,91.8Z"/><path class="cls-7" d="M54.06,67.76a7.51,7.51,0,0,1-1.29,1.84c-1.84,1.46-3.77,2.81-5.69,4.16a1.19,1.19,0,0,1-1,.18,1.13,1.13,0,0,1-.35-1,4.53,4.53,0,0,1,1.14-1.86c1.77-1.42,3.64-2.73,5.5-4a1.87,1.87,0,0,1,1.19-.25C53.68,66.8,53.8,67.28,54.06,67.76Z"/><path class="cls-7" d="M46.41,82.47a8.15,8.15,0,0,1,1.31-1.91c1.84-1.46,3.77-2.81,5.7-4.16.28-.2.91-.35,1-.21a1.4,1.4,0,0,1,.32,1.16,3.78,3.78,0,0,1-1,1.68c-1.85,1.45-3.78,2.81-5.7,4.17a1.22,1.22,0,0,1-1,.24C46.85,83.35,46.72,82.92,46.41,82.47Z"/><path class="cls-7" d="M52.05,48.94a7.4,7.4,0,0,1-1.23,1.78c-1.84,1.45-3.77,2.81-5.69,4.16-.29.2-.83.35-1.06.2a1.1,1.1,0,0,1-.36-1,3.63,3.63,0,0,1,.93-1.73c1.9-1.5,3.9-2.9,5.88-4.3a1.14,1.14,0,0,1,1-.15C51.73,48,51.81,48.46,52.05,48.94Z"/><path class="cls-7" d="M41.49,35.2a8.07,8.07,0,0,1,1.32-1.84c1.81-1.44,3.71-2.77,5.61-4.09.3-.21.93-.36,1.13-.19a1.29,1.29,0,0,1,.29,1.16,3.4,3.4,0,0,1-1,1.59C47,33.29,45,34.67,43.07,36.05a1.17,1.17,0,0,1-1,.21C41.87,36.15,41.77,35.71,41.49,35.2Z"/><path class="cls-7" d="M49.11,20.6a7.07,7.07,0,0,1-1.23,1.8c-1.85,1.46-3.78,2.81-5.7,4.16-.29.2-.9.38-1,.24a1.36,1.36,0,0,1-.36-1.13,3.17,3.17,0,0,1,.88-1.62c1.91-1.5,3.9-2.9,5.89-4.31a1.19,1.19,0,0,1,1-.17C48.76,19.69,48.86,20.13,49.11,20.6Z"/><path class="cls-7" d="M58,105.49a7.21,7.21,0,0,1-1.23,1.81c-1.84,1.46-3.77,2.81-5.7,4.16-.28.2-.89.4-1,.26a1.31,1.31,0,0,1-.38-1.13,4,4,0,0,1,1.06-1.77c1.81-1.43,3.71-2.76,5.6-4.09a1.46,1.46,0,0,1,1.07-.25C57.64,104.55,57.76,105,58,105.49Z"/><path class="cls-7" d="M53.05,58.34a7.06,7.06,0,0,1-1.22,1.79C50,61.59,48.06,63,46.13,64.3c-.28.2-.89.38-1,.24a1.32,1.32,0,0,1-.38-1.12,3.62,3.62,0,0,1,1-1.7c1.88-1.48,3.84-2.86,5.8-4.24a1.21,1.21,0,0,1,1-.18C52.7,57.42,52.79,57.86,53.05,58.34Z"/><path class="cls-7" d="M42.5,44.56a8.67,8.67,0,0,1,1.34-1.81c1.79-1.41,3.65-2.72,5.52-4a3.6,3.6,0,0,1,1.17-.31c.11.44.39.93.28,1.31a3.39,3.39,0,0,1-1,1.57c-1.86,1.44-3.78,2.8-5.71,4.15a1.36,1.36,0,0,1-1.06.21C42.83,45.57,42.75,45.09,42.5,44.56Z"/><path class="cls-7" d="M50.42,120.58a7.76,7.76,0,0,1,1.23-1.79c1.85-1.45,3.78-2.8,5.7-4.16.28-.2.89-.37,1-.23a1.37,1.37,0,0,1,.37,1.13,3.23,3.23,0,0,1-.89,1.62c-1.92,1.49-3.91,2.9-5.89,4.3a1.18,1.18,0,0,1-1,.16C50.76,121.5,50.67,121.06,50.42,120.58Z"/><path class="cls-2" d="M36.91,14c1.3-.54,2.43.16,2.69,1.82a5.43,5.43,0,0,1-3,5.46,1.74,1.74,0,0,1-2.55-1.08C36.43,18.73,37.18,16.58,36.91,14Z"/><path class="cls-8" d="M36.91,14c.27,2.62-.48,4.77-2.83,6.2C33.36,17.9,34.79,14.76,36.91,14Z"/><path class="cls-9" d="M35.15,103.09c.35.52.68,1.07,1.05,1.58,1.26,1.75,1.24,2.38-.21,3.89-2.21.6-3.08.28-4-1.82s-1.84-4.51-2.62-6.81c-1.75-5.18-3.41-9.9-5.1-15.1l-1.35-4.07c-.44.21-.72-.14-1,0L21.39,79c.21-.53.88-.85.48-1.64-.73-1.45-1.3-3-2-4.44-.17-.34-.67-.52-1-.77a10.83,10.83,0,0,1-.53-1.33,2.83,2.83,0,0,0-2.82-2.41,2,2,0,0,1-2-2.06,2.25,2.25,0,0,1,1.38-2.52,5.37,5.37,0,0,0,.78-.57l1.17.47a6.79,6.79,0,0,1,1.06.49c.94.62,1.84,1.29,2.76,1.94.72,1,1.44,2.07,2.15,3.11l1.23,2.86c.18.44.35.88.54,1.31l2.33,5.18,1.25,3.63Q29.52,87.1,30.87,92A45.23,45.23,0,0,0,35.15,103.09Z"/><path class="cls-6" d="M35.25,103a44.73,44.73,0,0,1-4.38-11q-1.36-4.89-2.69-9.77c1.59-.5,3.36-1.34,5-1.84.23,2,.48,4.17.69,6.14q.83,7.61,1.61,15.2A8.25,8.25,0,0,1,35.25,103Z"/><path class="cls-10" d="M24.45,84.72c1.7,5.2,3.36,10.41,5.1,15.59.78,2.3,1.65,4.58,2.62,6.81,1,1.88,1.8,1.93,4,1.34.4,4,.81,8.48,1.22,12.47L36,120.71c-.11-.38-.19-.77-.32-1.14q-3.3-9.3-6.6-18.59-2.79-7.89-5.55-15.8Z"/><path class="cls-5" d="M33.14,80.61c-1.6.5-3.37,1.11-5,1.61l-1.25-3.63L29,77.75l3.77-1Z"/><path class="cls-11" d="M29.66,64.76a.31.31,0,0,1,0-.23,1.09,1.09,0,0,1,.08.15S29.68,64.73,29.66,64.76Z"/><path class="cls-9" d="M21.39,183.35l-.26-.26Z"/><path class="cls-12" d="M23.39,84.83q2.77,7.9,5.55,15.79,3.28,9.3,6.6,18.6c.13.37.21.76.32,1.14-6.92-1.68-13.33-4.37-18.47-9.51-.3-.31-.55-.67-.83-1L12.63,98.92,9.69,90.63l-.2-.51c-.69-2-1.38-4-2.06-6q-2.16-6-4.3-12c-.61-1.84-1.23-3.67-1.84-5.51a12.53,12.53,0,0,0,1.56.77c3.2,1.06,6.09.05,8.85-1.47a7.79,7.79,0,0,0,3.42-4.09l.61,1.44a4.65,4.65,0,0,1-.78.56,2.27,2.27,0,0,0-1.38,2.53,2.05,2.05,0,0,0,2,2.06,2.81,2.81,0,0,1,2.82,2.41,10.83,10.83,0,0,0,.53,1.33c.5,1.46,1,2.92,1.52,4.37.31.84.69,1.65,1,2.47L22,80.77Z"/><path class="cls-13" d="M78.49,115l-8.88,4c.09-1.19.16-2.38.27-3.57.3-3.2.63-6.4.91-9.6.2-2.22.33-4.44.53-6.66.29-3.16.62-6.32.92-9.48.19-2,.33-4,.52-5.94.3-3,.63-6,.91-9s.49-6.1.76-9.15c.29-3.32.63-6.64.93-10,.19-2.06.34-4.12.52-6.18.3-3.52.62-7,.92-10.56a14.68,14.68,0,0,0,8.38-.36c-.17,3.06-.28,6.12-.51,9.18s-.62,6.08-.91,9.12c-.19,2-.33,4.12-.51,6.17-.3,3.32-.62,6.64-.93,10-.18,2-.34,4-.52,5.94-.3,3.28-.62,6.55-.92,9.83-.18,2-.34,4-.53,6.06-.29,3.16-.61,6.32-.91,9.48-.12,1.34-.19,2.69-.31,4C78.92,110.55,78.7,112.76,78.49,115Z"/><path class="cls-14" d="M76.81,38.92c-.31,3.52-.63,7-.93,10.56-.18,2.06-.33,4.12-.52,6.18-.3,3.32-.64,6.64-.93,10-.27,3-.48,6.1-.76,9.15s-.61,6-.91,9c-.19,2-.33,4-.52,5.94-.3,3.16-.63,6.32-.92,9.48-.2,2.22-.33,4.44-.53,6.66-.28,3.2-.61,6.4-.91,9.6-.11,1.19-.18,2.38-.27,3.57l-6.43,1.68Q64.44,107,65.7,93.39c.4-4.41.77-8.83,1.15-13.24.11-1.27.22-2.54.32-3.81s.25-2.67.37-4c.19-2.11.39-4.22.58-6.34s.35-4,.52-6,.39-4,.59-6c.14-1.57.28-3.14.41-4.71l0-.29.09-1,.53-6,.54-6,.22-1.19c.4.55.68,1.26,1.2,1.6C73.73,37.34,75.29,38.1,76.81,38.92Z"/><path class="cls-15" d="M78.49,115c.21-2.21.43-4.42.64-6.63.12-1.35.19-2.7.31-4,.3-3.16.62-6.32.91-9.48.19-2,.35-4,.53-6.06.3-3.28.62-6.55.92-9.83.18-2,.34-4,.52-5.94.31-3.32.63-6.64.93-10,.18-2.05.32-4.12.51-6.17.29-3,.67-6.08.91-9.12s.34-6.12.51-9.18l2.68-2.14c-.1,1.85-.2,3.71-.31,5.56-.16,1.59-.31,3.18-.47,4.77l-.1.52,0,.72c-.18,2-.36,4-.53,6s-.36,4-.53,6-.41,4.16-.62,6.24c-.17,1.92-.33,3.84-.5,5.76s-.35,4-.53,6l-.47,5.15-.51,5.61c-.09.82-.2,1.65-.28,2.48l-2,22Z"/><path class="cls-6" d="M81,113.28l2-22c.08-.83.19-1.66.28-2.48,4.31,4,6.62,8.72,5,14.71a17,17,0,0,1-4.78,7.71C82.73,112,81.82,112.59,81,113.28Z"/><path class="cls-10" d="M12.78,99.27l3.93,10.92C13.94,107.07,12.34,103.54,12.78,99.27Z"/><path class="cls-16" d="M6.58,101.27l0-1.16Z"/><path class="cls-16" d="M6.61,99.36a1.21,1.21,0,0,1-.05-.18s.05,0,.08-.06Z"/><path class="cls-5" d="M23.54,85.18,22.1,81.12l1-.46,1.34,4.06Z"/><path class="cls-17" d="M15.27,62.17a7.81,7.81,0,0,1-3.43,4.09C9.09,67.78,6.2,68.79,3,67.74A12.07,12.07,0,0,1,1.43,67l-.28-.47c-.76-1.85,0-3.29,1.25-4.59a22.27,22.27,0,0,1,1,2.12,2.26,2.26,0,0,0,1.95,1.7,6.77,6.77,0,0,0,6-2,2.36,2.36,0,0,0,.57-2.64c-.26-.74-.42-1.51-.63-2.28a4.67,4.67,0,0,1,3.51,1.76"/><path class="cls-18" d="M87.87,36.42l-2.69,2.14a14.68,14.68,0,0,1-8.38.36c-1.51-.82-3.07-1.58-4.53-2.5-.52-.34-.8-1.05-1.2-1.6.06-1.37.11-2.75.17-4.12,0-.32,0-.63,0-.94l.23-1.23c.88,2,2.6,3,4.5,3.84,3.78,1.64,9.93,1.41,12.63-2.14q-.27,2.88-.55,5.76Z"/><path class="cls-8" d="M69.64,49.75c0-.1,0-.19,0-.28C69.68,49.56,69.66,49.65,69.64,49.75Z"/><path class="cls-11" d="M87.08,47.23c0,.17-.07.35-.1.52C87,47.58,87.05,47.4,87.08,47.23Z"/><path class="cls-19" d="M11,58.31c.08.15.15.3.22.45.21.76.37,1.54.63,2.28a2.36,2.36,0,0,1-.57,2.64,6.77,6.77,0,0,1-6,2A2.25,2.25,0,0,1,3.36,64a20.22,20.22,0,0,0-1-2.12c-.1-.49-.19-1-.29-1.44q-.82-2.53-1.67-5a6.17,6.17,0,0,0,4.93.16,6.9,6.9,0,0,0,3.5-3l.74,1.91Z"/><path class="cls-20" d="M88.82,29.77c-.07.15-.13.31-.2.46C85.92,33.78,79.77,34,76,32.37c-1.9-.83-3.62-1.84-4.5-3.84a11.93,11.93,0,0,1,1-2.91A8,8,0,0,1,74.65,24l2.4-.71,6,.43,1.4.3c.9.58,1.82,1.13,2.68,1.77A4.14,4.14,0,0,1,88.82,29.77Z"/><path class="cls-9" d="M8.87,52.58a6.88,6.88,0,0,1-3.5,3,6.17,6.17,0,0,1-4.93-.15C.3,55.12.15,54.8,0,54.49a5.77,5.77,0,0,1,.21-1c.91-2.12,2.8-2.72,4.84-3.07C7.88,50.42,8.27,50.64,8.87,52.58Z"/></g></g></svg>