<svg xmlns="http://www.w3.org/2000/svg" xmlns:xlink="http://www.w3.org/1999/xlink" viewBox="0 0 641.82 651.09"><defs><style>.cls-1{isolation:isolate;}.cls-2{fill:url(#linear-gradient);}.cls-3{fill:url(#linear-gradient-2);}.cls-26,.cls-29,.cls-30,.cls-33,.cls-36,.cls-4{fill:none;stroke-miterlimit:10;}.cls-33,.cls-36,.cls-4{stroke:#fff;opacity:0.7;}.cls-4{stroke-width:0.52px;}.cls-15,.cls-16,.cls-18,.cls-20,.cls-23,.cls-34,.cls-37,.cls-5,.cls-6{mix-blend-mode:multiply;}.cls-5{fill:url(#radial-gradient);}.cls-6{fill:url(#linear-gradient-3);}.cls-7{fill:url(#linear-gradient-4);}.cls-8{fill:url(#linear-gradient-5);}.cls-9{fill:url(#linear-gradient-6);}.cls-10{fill:url(#linear-gradient-7);}.cls-11{fill:url(#linear-gradient-8);}.cls-12{fill:url(#linear-gradient-9);}.cls-13{fill:url(#linear-gradient-10);}.cls-14{fill:url(#linear-gradient-11);}.cls-15{fill:url(#radial-gradient-2);}.cls-16{fill:url(#radial-gradient-3);}.cls-17{fill:url(#linear-gradient-12);}.cls-18{fill:url(#linear-gradient-13);}.cls-19{fill:url(#linear-gradient-14);}.cls-20{fill:url(#linear-gradient-15);}.cls-21{fill:url(#linear-gradient-16);}.cls-22{fill:url(#linear-gradient-17);}.cls-23{fill:url(#radial-gradient-4);}.cls-24{fill:url(#linear-gradient-18);}.cls-25{fill:url(#linear-gradient-19);}.cls-26,.cls-29,.cls-30{stroke-linecap:round;}.cls-26{stroke-width:2.57px;stroke:url(#linear-gradient-20);}.cls-27{fill:url(#linear-gradient-21);}.cls-28{fill:url(#linear-gradient-22);}.cls-29,.cls-30{stroke-width:1.28px;}.cls-29{stroke:url(#linear-gradient-23);}.cls-30{stroke:url(#linear-gradient-24);}.cls-31{fill:url(#linear-gradient-25);}.cls-32{fill:url(#linear-gradient-26);}.cls-33{stroke-width:1.04px;}.cls-34{fill:url(#linear-gradient-27);}.cls-35{fill:url(#linear-gradient-28);}.cls-36{stroke-width:0.93px;}.cls-37{fill:url(#linear-gradient-29);}</style><linearGradient id="linear-gradient" x1="80.9" y1="-205.47" x2="523.04" y2="702.78" gradientUnits="userSpaceOnUse"><stop offset="0" stop-color="#99c4de"/><stop offset="0.65" stop-color="#d4e6f0"/><stop offset="1" stop-color="#eef5f8"/></linearGradient><linearGradient id="linear-gradient-2" x1="462.17" y1="578.33" x2="409.87" y2="610.65" gradientUnits="userSpaceOnUse"><stop offset="0" stop-color="#c4dfcc"/><stop offset="0.17" stop-color="#bbdac6"/><stop offset="0.68" stop-color="#a3ccb6"/><stop offset="1" stop-color="#9ac7b0"/></linearGradient><radialGradient id="radial-gradient" cx="415.01" cy="572.71" fx="424.90711463464004" r="49.17" gradientTransform="translate(118.4 1254.38) rotate(-122.55) scale(1 1.08)" gradientUnits="userSpaceOnUse"><stop offset="0.18" stop-color="#9ac7b0"/><stop offset="0.27" stop-color="#9ec9b3" stop-opacity="0.9"/><stop offset="0.46" stop-color="#a9cfba" stop-opacity="0.65"/><stop offset="0.72" stop-color="#bad9c5" stop-opacity="0.25"/><stop offset="0.88" stop-color="#c4dfcc" stop-opacity="0"/></radialGradient><linearGradient id="linear-gradient-3" x1="395.36" y1="600.04" x2="425.81" y2="596.18" gradientTransform="matrix(1, 0, 0, 1, 0, 0)" xlink:href="#radial-gradient"/><linearGradient id="linear-gradient-4" x1="388.12" y1="630.29" x2="388.12" y2="407.13" gradientUnits="userSpaceOnUse"><stop offset="0" stop-color="#2059b1"/><stop offset="0.18" stop-color="#2662b7"/><stop offset="0.49" stop-color="#387bc7"/><stop offset="0.87" stop-color="#54a3e1"/><stop offset="1" stop-color="#5fb3eb"/></linearGradient><linearGradient id="linear-gradient-5" x1="365.51" y1="597.27" x2="365.51" y2="328.49" gradientUnits="userSpaceOnUse"><stop offset="0" stop-color="#6ba3d8"/><stop offset="0.16" stop-color="#75abdb"/><stop offset="0.44" stop-color="#8fbfe3"/><stop offset="0.79" stop-color="#bae0ef"/><stop offset="1" stop-color="#d7f7f8"/></linearGradient><linearGradient id="linear-gradient-6" x1="336.86" y1="167.07" x2="336.86" y2="403.3" gradientUnits="userSpaceOnUse"><stop offset="0" stop-color="#f9de5b"/><stop offset="0.21" stop-color="#ffe361"/><stop offset="0.25" stop-color="#fdd851"/><stop offset="0.35" stop-color="#f9c534"/><stop offset="0.44" stop-color="#f7b71d"/><stop offset="0.55" stop-color="#f5ac0d"/><stop offset="0.67" stop-color="#f3a604"/><stop offset="0.84" stop-color="#f3a401"/><stop offset="0.92" stop-color="#f39805"/><stop offset="1" stop-color="#f39007"/></linearGradient><linearGradient id="linear-gradient-7" x1="560.75" y1="386.01" x2="326.66" y2="407.3" gradientTransform="translate(859.96 796.46) rotate(-180)" gradientUnits="userSpaceOnUse"><stop offset="0" stop-color="#f9de5b" stop-opacity="0.99"/><stop offset="1" stop-color="#f3a401"/></linearGradient><linearGradient id="linear-gradient-8" x1="239.22" y1="185.73" x2="239.22" y2="392.37" gradientUnits="userSpaceOnUse"><stop offset="0.01" stop-color="#f2f7f8"/><stop offset="0.7" stop-color="#89b5d4"/></linearGradient><linearGradient id="linear-gradient-9" x1="185.81" y1="162.72" x2="247.45" y2="410.67" gradientUnits="userSpaceOnUse"><stop offset="0" stop-color="#f2f7f8"/><stop offset="0.04" stop-color="#ebf3f6"/><stop offset="0.37" stop-color="#b0d0e9"/><stop offset="0.65" stop-color="#85b6e0"/><stop offset="0.87" stop-color="#6ba6da"/><stop offset="1" stop-color="#61a0d8"/></linearGradient><linearGradient id="linear-gradient-10" x1="37.47" y1="172.6" x2="323.33" y2="394.93" gradientUnits="userSpaceOnUse"><stop offset="0.1" stop-color="#228df5"/><stop offset="0.17" stop-color="#2083e6"/><stop offset="0.45" stop-color="#1a5baf"/><stop offset="0.69" stop-color="#163f86"/><stop offset="0.88" stop-color="#132d6d"/><stop offset="1" stop-color="#122764"/></linearGradient><linearGradient id="linear-gradient-11" x1="8.29" y1="398.23" x2="302" y2="398.23" gradientUnits="userSpaceOnUse"><stop offset="0" stop-color="#f9de5b"/><stop offset="0.64" stop-color="#f3a401"/><stop offset="0.82" stop-color="#f39805"/><stop offset="1" stop-color="#f39007"/></linearGradient><radialGradient id="radial-gradient-2" cx="1378.13" cy="426.47" r="9.42" gradientTransform="matrix(1.25, 0.01, -0.02, 2.66, -1235.58, -821.68)" gradientUnits="userSpaceOnUse"><stop offset="0.24" stop-color="#f3a401"/><stop offset="0.3" stop-color="#f3a604" stop-opacity="0.97"/><stop offset="0.41" stop-color="#f4ab0c" stop-opacity="0.88"/><stop offset="0.54" stop-color="#f5b41a" stop-opacity="0.73"/><stop offset="0.69" stop-color="#f6c02c" stop-opacity="0.52"/><stop offset="0.85" stop-color="#f7cf43" stop-opacity="0.26"/><stop offset="1" stop-color="#f9de5b" stop-opacity="0"/></radialGradient><radialGradient id="radial-gradient-3" cx="371.01" cy="345.43" r="35.08" gradientUnits="userSpaceOnUse"><stop offset="0.24" stop-color="#f3a401"/><stop offset="0.29" stop-color="#f3a604" stop-opacity="0.97"/><stop offset="0.39" stop-color="#f4ab0c" stop-opacity="0.88"/><stop offset="0.5" stop-color="#f5b41a" stop-opacity="0.73"/><stop offset="0.63" stop-color="#f6c02c" stop-opacity="0.52"/><stop offset="0.77" stop-color="#f7cf43" stop-opacity="0.26"/><stop offset="0.9" stop-color="#f9de5b" stop-opacity="0"/></radialGradient><linearGradient id="linear-gradient-12" x1="478.08" y1="300.2" x2="526.69" y2="342.79" gradientUnits="userSpaceOnUse"><stop offset="0.01" stop-color="#cc1e13"/><stop offset="0.2" stop-color="#d02519"/><stop offset="0.49" stop-color="#dc3a28"/><stop offset="0.83" stop-color="#ef5b42"/><stop offset="0.88" stop-color="#f25f45"/></linearGradient><linearGradient id="linear-gradient-13" x1="487.9" y1="442.39" x2="479.22" y2="417.41" gradientTransform="matrix(0.99, 0.03, 0.03, 1.05, -54.65, -150.23)" gradientUnits="userSpaceOnUse"><stop offset="0" stop-color="#f9de5b" stop-opacity="0"/><stop offset="0.51" stop-color="#f3a401"/><stop offset="0.56" stop-color="#f3a604" stop-opacity="0.97"/><stop offset="0.62" stop-color="#f4ab0c" stop-opacity="0.88"/><stop offset="0.71" stop-color="#f5b41a" stop-opacity="0.73"/><stop offset="0.8" stop-color="#f6c02c" stop-opacity="0.52"/><stop offset="0.91" stop-color="#f7cf43" stop-opacity="0.26"/><stop offset="1" stop-color="#f9de5b" stop-opacity="0"/></linearGradient><linearGradient id="linear-gradient-14" x1="438.1" y1="320.49" x2="435.11" y2="312.42" gradientUnits="userSpaceOnUse"><stop offset="0.01" stop-color="#ded6cb"/><stop offset="0.98" stop-color="#faf7f6"/></linearGradient><linearGradient id="linear-gradient-15" x1="389.8" y1="341.1" x2="408.9" y2="330.77" gradientUnits="userSpaceOnUse"><stop offset="0.01" stop-color="#ded6cb"/><stop offset="0.98" stop-color="#faf7f6" stop-opacity="0"/></linearGradient><linearGradient id="linear-gradient-16" x1="400.53" y1="311.54" x2="353.55" y2="364.83" gradientUnits="userSpaceOnUse"><stop offset="0.1" stop-color="#5fb3eb"/><stop offset="0.22" stop-color="#54a3e1"/><stop offset="0.56" stop-color="#387bc7"/><stop offset="0.84" stop-color="#2662b7"/><stop offset="1" stop-color="#2059b1"/></linearGradient><linearGradient id="linear-gradient-17" x1="398.39" y1="311.72" x2="353.4" y2="362.75" gradientUnits="userSpaceOnUse"><stop offset="0" stop-color="#f2f7f8"/><stop offset="0.33" stop-color="#bad4eb"/><stop offset="0.63" stop-color="#8fbae1"/><stop offset="0.86" stop-color="#75a9da"/><stop offset="1" stop-color="#6ba3d8"/></linearGradient><radialGradient id="radial-gradient-4" cx="370.98" cy="342.77" r="14.44" gradientUnits="userSpaceOnUse"><stop offset="0" stop-color="#6ba3d8"/><stop offset="0.1" stop-color="#71a7d9" stop-opacity="0.95"/><stop offset="0.26" stop-color="#82b1dd" stop-opacity="0.83"/><stop offset="0.47" stop-color="#9dc2e4" stop-opacity="0.63"/><stop offset="0.72" stop-color="#c2d9ed" stop-opacity="0.36"/><stop offset="0.99" stop-color="#f1f6f8" stop-opacity="0.01"/><stop offset="1" stop-color="#f2f7f8" stop-opacity="0"/></radialGradient><linearGradient id="linear-gradient-18" x1="365.17" y1="349.96" x2="374.91" y2="337.91" xlink:href="#linear-gradient-14"/><linearGradient id="linear-gradient-19" x1="-189.88" y1="-73.66" x2="252.26" y2="834.6" xlink:href="#linear-gradient"/><linearGradient id="linear-gradient-20" x1="277.79" y1="384.49" x2="97.1" y2="67.34" gradientUnits="userSpaceOnUse"><stop offset="0" stop-color="#4696d8"/><stop offset="0.24" stop-color="#509bd9"/><stop offset="0.63" stop-color="#6aa9dc"/><stop offset="1" stop-color="#88b9e0"/></linearGradient><linearGradient id="linear-gradient-21" x1="198.04" y1="3.35" x2="165.58" y2="30.35" xlink:href="#linear-gradient-9"/><linearGradient id="linear-gradient-22" x1="211.15" y1="19.12" x2="178.7" y2="46.11" xlink:href="#linear-gradient-9"/><linearGradient id="linear-gradient-23" x1="198.04" y1="21.01" x2="217.05" y2="21.01" xlink:href="#linear-gradient-4"/><linearGradient id="linear-gradient-24" x1="197.83" y1="13.32" x2="211.69" y2="13.32" xlink:href="#linear-gradient-4"/><linearGradient id="linear-gradient-25" x1="201.62" y1="-8.3" x2="185.33" y2="28.79" gradientTransform="translate(18.03 -60.13) rotate(19.11)" gradientUnits="userSpaceOnUse"><stop offset="0" stop-color="#5fb3eb"/><stop offset="0.13" stop-color="#54a3e1"/><stop offset="0.51" stop-color="#387bc7"/><stop offset="0.82" stop-color="#2662b7"/><stop offset="1" stop-color="#2059b1"/></linearGradient><linearGradient id="linear-gradient-26" x1="333.14" y1="498.38" x2="321.77" y2="610.07" xlink:href="#linear-gradient-2"/><linearGradient id="linear-gradient-27" x1="300.07" y1="624.16" x2="348.19" y2="536.25" gradientUnits="userSpaceOnUse"><stop offset="0" stop-color="#9ac7b0"/><stop offset="0.34" stop-color="#acd1bc" stop-opacity="0.58"/><stop offset="0.71" stop-color="#bddbc7" stop-opacity="0.16"/><stop offset="0.88" stop-color="#c4dfcc" stop-opacity="0"/></linearGradient><linearGradient id="linear-gradient-28" x1="311.58" y1="583.43" x2="281.59" y2="633.99" xlink:href="#linear-gradient-2"/><linearGradient id="linear-gradient-29" x1="288.28" y1="638.13" x2="292.35" y2="600.44" xlink:href="#linear-gradient-27"/></defs><g class="cls-1"><g id="Layer_2" data-name="Layer 2"><g id="Layer_1-2" data-name="Layer 1"><path class="cls-2" d="M533.85,593c-28.1,21.51-60.19,36.48-93.57,45.79a322.54,322.54,0,0,1-33.84,7.47c-8,1.34-16.11,2.37-24.16,3.1h0c-2.5.24-5,.44-7.49.61l-2.32.16c-.88.06-1.77.11-2.65.15-3.77.22-7.5.36-11.24.44q-3.58.09-7.15.09c-2.73,0-5.46,0-8.17-.1q-5.07-.11-10.08-.37-9.84-.5-19.48-1.56a316.7,316.7,0,0,1-36.12-6.07c-52.39-12-95.29-36.64-114.64-69.42-18.1-30.67.35-41.43-18.49-92.43C108.51,383.56,24,375.76,4,297.27c-12-47.22,6-93.22,18.49-114.61C100.9,47.72,473.59-1.53,598.06,194.19,670.47,308,655.68,499.75,533.85,593Z"/><path class="cls-3" d="M478.19,574.77c-4.29,14.57-23.88,15.91-25.82,29.73-.59,4.21,1.18,4.4,1.35,9.43.29,8.85-5.15,17.51-13.44,24.87a322.54,322.54,0,0,1-33.84,7.47c-8,1.34-16.11,2.37-24.16,3.1h0a24.45,24.45,0,0,1-3.63-2c-6.16-4.81-1.9-17.47.5-23.21,2.29-5.46,7.17-22.75,20.11-33,5.82-4.63,9.14-3.69,13.43-5.73a23.34,23.34,0,0,0,4-2.69c6.43-5.29,5.44-21.36,11.17-28.91,8.55-11.28,38-11.32,47.55,3.2A22.13,22.13,0,0,1,478.19,574.77Z"/><path class="cls-4" d="M455.4,567.41c-6.17,5.52-12.53,11.73-18.89,18.68a267.57,267.57,0,0,0-37.57,52.82c2.49-4.47,9-14.67,21.63-20.11a42.68,42.68,0,0,1,11.72-3.15"/><path class="cls-5" d="M478.19,574.77c-4.29,14.57-23.88,15.91-25.82,29.73-.59,4.21,1.18,4.4,1.35,9.43.29,8.85-5.15,17.51-13.44,24.87a322.54,322.54,0,0,1-33.84,7.47c-8,1.34-16.11,2.37-24.16,3.1h0a24.45,24.45,0,0,1-3.63-2c-6.16-4.81-1.9-17.47.5-23.21,2.29-5.46,7.17-22.75,20.11-33,5.82-4.63,9.14-3.69,13.43-5.73a23.34,23.34,0,0,0,4-2.69c6.43-5.29,5.44-21.36,11.17-28.91,8.55-11.28,38-11.32,47.55,3.2A22.13,22.13,0,0,1,478.19,574.77Z"/><path class="cls-6" d="M478.19,574.77c-4.29,14.57-23.88,15.91-25.82,29.73-.59,4.21,1.18,4.4,1.35,9.43.29,8.85-5.15,17.51-13.44,24.87a322.54,322.54,0,0,1-33.84,7.47c-8,1.34-16.11,2.37-24.16,3.1a24.72,24.72,0,0,1-3.64-2c-6.16-4.81-1.9-17.47.5-23.21,2.29-5.46,7.17-22.75,20.11-33,5.82-4.63,9.14-3.69,13.43-5.73a23.34,23.34,0,0,0,4-2.69c6.43-5.29,5.44-21.36,11.17-28.91,8.55-11.28,38-11.32,47.55,3.2A22.13,22.13,0,0,1,478.19,574.77Z"/><path class="cls-7" d="M406.44,386V646.27a333.72,333.72,0,0,1-34,3.87c-.89.06-1.77.11-2.66.15V386Z"/><path class="cls-8" d="M372.46,386V650.14c-.89.06-1.77.11-2.66.15-3.76.22-7.5.36-11.23.44V386Z"/><path class="cls-9" d="M229.64,182.76H444.08a87.18,87.18,0,0,1,87.18,87.18V405.82a0,0,0,0,1,0,0H142.47a0,0,0,0,1,0,0V269.94A87.18,87.18,0,0,1,229.64,182.76Z"/><path class="cls-10" d="M329.41,390.65H538.14a0,0,0,0,1,0,0v15.17a0,0,0,0,1,0,0H329.41a7.59,7.59,0,0,1-7.59-7.59v0a7.59,7.59,0,0,1,7.59-7.59Z" transform="translate(859.96 796.46) rotate(180)"/><path class="cls-11" d="M327.91,405.82H150.53l.88-150.65a76.91,76.91,0,0,1,76.91-76.51h10.9a88.69,88.69,0,0,1,88.69,88.7Z"/><path class="cls-12" d="M227.67,178.66h0a88.69,88.69,0,0,1,88.69,88.69V405.82a0,0,0,0,1,0,0H139a0,0,0,0,1,0,0V267.36a88.69,88.69,0,0,1,88.69-88.69Z"/><path class="cls-13" d="M227.48,197.37h.37A74.14,74.14,0,0,1,302,271.51v134.3a0,0,0,0,1,0,0H153.34a0,0,0,0,1,0,0V271.51A74.14,74.14,0,0,1,227.48,197.37Z"/><path class="cls-14" d="M15.87,390.65H302a0,0,0,0,1,0,0v15.17a0,0,0,0,1,0,0H15.87a7.59,7.59,0,0,1-7.59-7.59v0a7.59,7.59,0,0,1,7.59-7.59Z"/><ellipse class="cls-15" cx="479.67" cy="323.81" rx="12.55" ry="26.22" transform="translate(-94.54 251.56) rotate(-26.85)"/><circle class="cls-16" cx="371.01" cy="345.43" r="35.07"/><polygon class="cls-17" points="505.11 291.91 521.52 330.2 491.43 343.88 469.55 305.13 505.11 291.91"/><path class="cls-18" d="M365.63,345.68h0c-3.15-7.6-3.77-17.51-.73-18.77l128-49.05c3.06-1.26,11,2.59,14.14,10.23l-2.88,1.31c3.16,7.63,3.25,14.85.2,16.11L376.88,357.22C373.84,358.48,368.78,353.29,365.63,345.68Z"/><path class="cls-19" d="M365.38,345.09h0a6.16,6.16,0,0,1,3.33-8l130.67-53.69a6.14,6.14,0,0,1,8,3.33h0a6.15,6.15,0,0,1-3.32,8L373.41,348.42A6.17,6.17,0,0,1,365.38,345.09Z"/><path class="cls-20" d="M365.38,345.09h0a6.16,6.16,0,0,1,3.33-8l130.67-53.69a6.14,6.14,0,0,1,8,3.33h0a6.15,6.15,0,0,1-3.32,8L373.41,348.42A6.17,6.17,0,0,1,365.38,345.09Z"/><circle class="cls-21" cx="371.94" cy="343.97" r="19.23"/><circle class="cls-22" cx="371.01" cy="342.77" r="18.41"/><circle class="cls-23" cx="370.98" cy="342.77" r="14.43"/><circle class="cls-24" cx="370.98" cy="342.77" r="7.12"/><path class="cls-25" d="M67.12,429c16.95-4.94,66.75,61.5,49.4,108.91-.92,2.53-8,21.86-19.08,22.46-16,.86-32.15-37.6-37.06-67.37C57,472.32,55.16,432.49,67.12,429Z"/><path class="cls-26" d="M301.58,369.46c-11.34-1.73-165.75-26.79-197.85-112.9-4-10.75-15.56-40.69-2.88-70.13,8.42-19.56,28.38-42.09,43.68-39.61,3.74.61,10.52,3.26,11.58,8,.87,3.94-2.43,8.07-5.61,10.13-6.58,4.27-15.48,1.52-18.63.55-18-5.55-32.81-32.74-33.67-54.35C96.88,78,128.26,43.24,176.7,27"/><path class="cls-27" d="M194.49,20.86c4.29-4.85,4.59-11.69,1.15-16.11-3.17-4.07-9.43-6-12.12-3.88-3.17,2.5-1.78,10.94,3.7,21-7.79-10.86-11-12.25-12.58-11.62-2.14.88-3,6.5-.41,10.47a9.28,9.28,0,0,0,9,4.05"/><path class="cls-28" d="M195.22,21.75c6.38,1.15,10.84,6.34,10.87,12,0,5.15-3.7,10.54-7.12,10.54-4,0-8.16-7.49-10.07-18.77.6,13.36-1.1,16.46-2.7,16.91-2.22.63-6.38-3.25-6.8-8A9.31,9.31,0,0,1,184,25.64"/><path class="cls-29" d="M198.68,21.25a30.74,30.74,0,0,1,11.59-.84,30.35,30.35,0,0,1,6.14,1.41"/><path class="cls-30" d="M198.47,18.27a21,21,0,0,0,11-7.34A18.44,18.44,0,0,0,211,8.38"/><rect class="cls-31" x="174.02" y="19.82" width="27.27" height="7.34" rx="3.67" transform="translate(2.65 62.72) rotate(-19.11)"/><path class="cls-32" d="M374.78,650l-2.32.16c-.88.06-1.77.11-2.65.15-3.77.22-7.5.36-11.24.44q-3.58.09-7.15.09a344.27,344.27,0,0,1-37.73-2c-19.19-18.39-34.33-42.59-28.77-56.92,1.89-4.85,4.56-4.48,6.59-10,7-19-21-33.7-21.07-57,0-25.07,32.4-52.37,51.76-46.64,9.82,2.91,14.76,13.87,16.46,17.67,11.39,25.29-8.57,45.06,2.4,61.41,7.31,10.89,17.27,3.75,28.85,15.36C390,592.78,379.21,633.33,374.78,650Z"/><path class="cls-33" d="M305,510a330.39,330.39,0,0,0,46.44,140.82"/><path class="cls-34" d="M374.78,650l-2.32.16c-.88.06-1.77.11-2.65.15-3.77.22-7.5.36-11.24.44q-3.58.09-7.15.09a344.27,344.27,0,0,1-37.73-2c-19.19-18.39-34.33-42.59-28.77-56.92,1.89-4.85,4.56-4.48,6.59-10,7-19-21-33.7-21.07-57,0-25.07,32.4-52.37,51.76-46.64,9.82,2.91,14.76,13.87,16.46,17.67,11.39,25.29-8.57,45.06,2.4,61.41,7.31,10.89,17.27,3.75,28.85,15.36C390,592.78,379.21,633.33,374.78,650Z"/><path class="cls-35" d="M343.25,650.72q-5.07-.11-10.08-.37-9.84-.5-19.48-1.56a316.7,316.7,0,0,1-36.12-6.07,12.42,12.42,0,0,1-.64-1.26c-3.87-8.68,1.79-11.54-2.61-18.26-6.2-9.47-21.63-4.07-32.38-16-1.38-1.53-5.56-8.74-5.23-15,.77-14.85,26.81-27.61,42.22-21.37,14.31,5.79,14.61,26.41,27.54,27.66,6.39.62,8-3.2,13.73-2.54C334.62,597.65,347.41,633.81,343.25,650.72Z"/><path class="cls-36" d="M268.2,593.53a215.07,215.07,0,0,1,65,56.82"/><path class="cls-37" d="M343.25,650.72q-5.07-.11-10.08-.37-9.84-.5-19.48-1.56a316.7,316.7,0,0,1-36.12-6.07,12.42,12.42,0,0,1-.64-1.26c-3.87-8.68,1.79-11.54-2.61-18.26-6.2-9.47-21.63-4.07-32.38-16-1.38-1.53-5.56-8.74-5.23-15,.77-14.85,26.81-27.61,42.22-21.37,14.31,5.79,14.61,26.41,27.54,27.66,6.39.62,8-3.2,13.73-2.54C334.62,597.65,347.41,633.81,343.25,650.72Z"/></g></g></g></svg>