<svg xmlns="http://www.w3.org/2000/svg" xmlns:xlink="http://www.w3.org/1999/xlink" viewBox="0 0 701.15 572.35"><defs><style>.cls-1{isolation:isolate;}.cls-2{fill:#f9f6f1;}.cls-3{opacity:0.4;mix-blend-mode:multiply;fill:url(#radial-gradient);}.cls-4{fill:url(#linear-gradient);}.cls-5{fill:url(#linear-gradient-2);}.cls-6{fill:url(#linear-gradient-3);}.cls-7{fill:url(#linear-gradient-4);}.cls-8{fill:url(#linear-gradient-5);}.cls-9{fill:#fff;opacity:0.7;}.cls-10{fill:url(#linear-gradient-6);}</style><radialGradient id="radial-gradient" cx="412.98" cy="303.1" r="308.48" gradientTransform="translate(-37.49 397.6) rotate(-38.05) scale(1 0.67)" gradientUnits="userSpaceOnUse"><stop offset="0.01" stop-color="#b2b1b4"/><stop offset="0.12" stop-color="#b5b4b6" stop-opacity="0.95"/><stop offset="0.3" stop-color="#bdbabc" stop-opacity="0.8"/><stop offset="0.53" stop-color="#c9c6c5" stop-opacity="0.57"/><stop offset="0.8" stop-color="#dad5d1" stop-opacity="0.25"/><stop offset="1" stop-color="#e8e1db" stop-opacity="0"/></radialGradient><linearGradient id="linear-gradient" x1="204.43" y1="120.79" x2="245.89" y2="-8.19" gradientUnits="userSpaceOnUse"><stop offset="0" stop-color="#cde4f3"/><stop offset="1" stop-color="#e2f0f9"/></linearGradient><linearGradient id="linear-gradient-2" x1="607.22" y1="497.53" x2="639.33" y2="397.62" xlink:href="#linear-gradient"/><linearGradient id="linear-gradient-3" x1="47.62" y1="198.5" x2="69.32" y2="130.99" xlink:href="#linear-gradient"/><linearGradient id="linear-gradient-4" x1="307.95" y1="288.62" x2="649.54" y2="288.62" gradientUnits="userSpaceOnUse"><stop offset="0" stop-color="#2059b1"/><stop offset="0.16" stop-color="#2662b7"/><stop offset="0.44" stop-color="#387bc7"/><stop offset="0.78" stop-color="#54a3e1"/><stop offset="0.9" stop-color="#5fb3eb"/></linearGradient><linearGradient id="linear-gradient-5" x1="416.13" y1="5.22" x2="355.5" y2="781.33" gradientUnits="userSpaceOnUse"><stop offset="0.01" stop-color="#f2f4ef"/><stop offset="0.4" stop-color="#c1d7e1"/><stop offset="0.8" stop-color="#96bdd5"/><stop offset="1" stop-color="#85b3d0"/></linearGradient><linearGradient id="linear-gradient-6" x1="496.18" y1="349.54" x2="454.51" y2="240.13" gradientUnits="userSpaceOnUse"><stop offset="0" stop-color="#639cc9"/><stop offset="0.21" stop-color="#689fca"/><stop offset="0.47" stop-color="#77a9ce"/><stop offset="0.75" stop-color="#8fb9d3"/><stop offset="0.99" stop-color="#9cc8e2"/></linearGradient></defs><g class="cls-1"><g id="Layer_2" data-name="Layer 2"><g id="Layer_1-2" data-name="Layer 1"><path class="cls-2" d="M615.59,465.17q-2.82,4.81-5.76,9.09c-19,27.75-48.07,49.46-83.18,65.31C388.59,602,157,573.9,76.06,467.19a149.41,149.41,0,0,1-10.8-16.27c-3.15-5.48-44-79-15.57-136.92,20.36-41.39,58-37.91,91.81-85.57,37-52.21,13.61-87.12,37.34-132.26C228.38,1.92,428.29-32.26,488.47,35.49a70.22,70.22,0,0,1,5.69,7.34c40,59.35-28.58,135.63,33.21,200.31,36.18,37.89,79.33,47.16,102.68,88C652.91,371.06,637.17,428.61,615.59,465.17Z"/><path class="cls-3" d="M615.59,465.17a505.24,505.24,0,0,1-77.87,66.89q-5.51,3.84-11.07,7.51C388.59,602,157,573.9,76.06,467.19,54,358.65,123.26,219.93,255.49,127.65,333,73.54,418.05,45.25,494.16,42.83c40,59.35-28.58,135.63,33.21,200.31,36.18,37.89,79.33,47.16,102.68,88C652.91,371.06,637.17,428.61,615.59,465.17Z"/><path class="cls-4" d="M209.85,119.46c44.74-.07,111-12,115.59-38.53,1.17-6.86-1.75-14.93-7.06-19.27-8.81-7.2-25.23-5-41.62,5.73,8.55-22.58,5.78-44.64-7-55.94C258.7,1.61,243.46,3,235.44,3.66,193.34,7.37,166.93,47,160.77,56.8c-.26-3.8-1.28-8.74-4.93-11.64-9.45-7.52-33.26,1.37-40.88,17.59a32.77,32.77,0,0,0-.23,26.2C128,119.58,189.36,119.49,209.85,119.46Z"/><path class="cls-5" d="M611.41,496.49c34.66-.05,86-9.32,89.54-29.84a16.64,16.64,0,0,0-5.47-14.93c-6.82-5.58-19.54-3.9-32.23,4.44,6.62-17.49,4.48-34.58-5.4-43.33-8.59-7.63-20.4-6.58-26.61-6-32.61,2.88-53.07,33.59-57.84,41.17-.21-2.94-1-6.77-3.82-9-7.32-5.82-25.77,1.06-31.67,13.63a25.4,25.4,0,0,0-.17,20.3C548,496.59,595.55,496.52,611.41,496.49Z"/><path class="cls-6" d="M106.13,183.2c2.51-3.73,7.37-13.27,3.48-18.8-3.31-4.72-12.29-5.58-22.28-2.09.37-1.58,2.57-11.42-3.48-18.8-4.6-5.62-11.33-6.59-13.93-7-14.45-2.09-31.59,11-44.57,32-3.12-8.84-6.71-10.19-8.36-10.44C9.58,157-1.95,171.27.28,180.41,5.41,201.44,87.21,211.29,106.13,183.2Z"/><path class="cls-7" d="M649.54,96.41,360.71,422.48,308,482.05,320.41,399,648.81,95.18A5.87,5.87,0,0,1,649.54,96.41Z"/><path class="cls-8" d="M649.19,102.5,443.49,456.26a12.5,12.5,0,0,1-17.08,4.5l-65.7-38.28L320.41,399l-71.08-42.45-3.71-2.22-87.1-52.09a12.49,12.49,0,0,1,1.88-22.35L641,92.88a6.49,6.49,0,0,1,6.14.66l.1,0a6.58,6.58,0,0,1,1.61,1.59,5.87,5.87,0,0,1,.73,1.23A6.5,6.5,0,0,1,649.19,102.5Z"/><path class="cls-9" d="M649.19,102.5,443.49,456.26a12.49,12.49,0,0,1-17,4.55,12.47,12.47,0,0,0,13.8-5.83l207.8-354.39a7.56,7.56,0,0,0,1.45-4.18A6.5,6.5,0,0,1,649.19,102.5Z"/><path class="cls-10" d="M648.81,95.18,320.41,399,308,482.05,249.33,356.54l397.87-263A6.58,6.58,0,0,1,648.81,95.18Z"/><path class="cls-9" d="M647.2,93.59l-397.87,263-3.72-2.21h0L647.1,93.54Z"/></g></g></g></svg>