<svg xmlns="http://www.w3.org/2000/svg" xmlns:xlink="http://www.w3.org/1999/xlink" version="1.1" x="0px" y="0px" viewBox="0 0 512 480" style="enable-background:new 0 0 512 512;" xml:space="preserve"><g style="&#10;    fill: #06A4F0;&#10;"><g><g><path d="M317.842,418.392c-1.356,0-2.674-0.702-3.4-1.961c-1.083-1.875-0.441-4.273,1.435-5.357l92.722-53.562     c2.17-1.253,3.519-3.609,3.519-6.148c0-1.214-0.32-2.408-0.924-3.453l-38.937-67.398c-1.249-2.189-3.584-3.539-6.105-3.539     c-1.224,0-2.433,0.325-3.495,0.94l-107.224,61.897c-2.165,1.25-3.509,3.594-3.509,6.116c0,1.219,0.325,2.418,0.938,3.467     l31.377,54.36c1.082,1.877,0.44,4.274-1.436,5.356c-1.875,1.086-4.274,0.44-5.356-1.435l-31.368-54.341     c-1.304-2.231-2-4.799-2-7.408c0-5.316,2.848-10.263,7.431-12.908l107.22-61.896c2.252-1.303,4.818-1.992,7.42-1.992     c5.33,0,10.276,2.864,12.908,7.477l38.925,67.379c1.292,2.235,1.976,4.787,1.976,7.378c0,5.331-2.85,10.289-7.438,12.94     l-92.722,53.562C319.182,418.222,318.507,418.392,317.842,418.392z"/></g><g><path d="M260.958,375.172c-1.355,0-2.674-0.703-3.399-1.961l-8.214-14.228c-1.083-1.875-0.441-4.273,1.434-5.355l126.14-72.899     c0.901-0.523,1.972-0.665,2.979-0.393c1.005,0.269,1.861,0.928,2.382,1.828l8.244,14.303c1.081,1.877,0.438,4.273-1.438,5.355     l-126.17,72.823C262.298,375.003,261.623,375.172,260.958,375.172z M258.097,358.457l4.293,7.436l119.38-68.903l-4.326-7.507     L258.097,358.457z"/></g><g><path d="M369.61,369.521c-5.341,0-10.29-2.866-12.914-7.48c-1.291-2.231-1.98-4.8-1.98-7.404c0-5.334,2.865-10.277,7.477-12.902     c2.607-1.524,5.732-2.215,8.771-1.947c1.252-2.751,3.349-5.084,6.076-6.682c2.276-1.306,4.83-1.986,7.415-1.986     c5.309,0,10.272,2.843,12.951,7.422c1.319,2.288,2.011,4.858,2.011,7.456c0,5.297-2.847,10.232-7.43,12.88     c-2.646,1.546-5.784,2.233-8.836,1.957c-1.284,2.793-3.389,5.135-6.091,6.696C374.788,368.834,372.216,369.521,369.61,369.521z      M369.644,347.572c-1.241,0-2.462,0.33-3.533,0.956c-2.205,1.255-3.551,3.587-3.551,6.107c0,1.228,0.325,2.439,0.939,3.503     c1.247,2.191,3.584,3.539,6.111,3.539c1.237,0,2.459-0.327,3.534-0.944c1.879-1.087,3.116-2.913,3.472-5.139     c0.188-1.171,0.895-2.194,1.924-2.784c1.03-0.589,2.271-0.679,3.375-0.25c1.989,0.777,4.29,0.61,6.133-0.466     c2.181-1.26,3.525-3.593,3.525-6.099c0-1.224-0.328-2.439-0.948-3.517c-1.266-2.162-3.635-3.519-6.17-3.519     c-1.219,0-2.423,0.321-3.481,0.929c-1.876,1.099-3.133,2.945-3.417,5.045c-0.161,1.191-0.861,2.244-1.897,2.854     c-1.036,0.61-2.296,0.71-3.416,0.274C371.411,347.736,370.536,347.572,369.644,347.572z"/></g><g><path d="M289.119,402.523c-1.354,0-2.669-0.7-3.396-1.955c-1.086-1.873-0.449-4.272,1.425-5.359l22.882-13.271     c1.875-1.087,4.272-0.448,5.359,1.425c1.086,1.873,0.449,4.272-1.425,5.359l-22.882,13.271     C290.463,402.353,289.786,402.523,289.119,402.523z"/></g><g><path d="M293.441,410.005c-1.355,0-2.674-0.704-3.4-1.963c-1.082-1.875-0.438-4.273,1.437-5.356l49.946-28.819     c1.878-1.084,4.273-0.439,5.357,1.438c1.082,1.875,0.438,4.273-1.438,5.356l-49.946,28.819     C294.78,409.835,294.106,410.005,293.441,410.005z"/></g><g><path d="M293.957,372.896c-1.358,0-2.678-0.706-3.404-1.968l-4.471-7.773c-1.079-1.877-0.433-4.274,1.444-5.354     c1.876-1.079,4.274-0.434,5.355,1.445l4.471,7.772c1.079,1.878,0.433,4.275-1.444,5.355     C295.292,372.728,294.62,372.896,293.957,372.896z"/></g><g><path d="M299.64,369.598c-1.352,0-2.667-0.699-3.395-1.953l-4.472-7.701c-1.087-1.873-0.45-4.273,1.422-5.36     c1.875-1.09,4.273-0.451,5.36,1.422l4.472,7.701c1.088,1.874,0.451,4.274-1.422,5.36     C300.985,369.427,300.309,369.598,299.64,369.598z"/></g><g><path d="M305.326,366.297c-1.352,0-2.668-0.7-3.396-1.953l-4.472-7.698c-1.088-1.873-0.451-4.273,1.422-5.36     c1.871-1.089,4.272-0.451,5.36,1.421l4.472,7.699c1.088,1.872,0.451,4.272-1.421,5.36     C306.672,366.126,305.994,366.297,305.326,366.297z"/></g><g><path d="M311.009,363.07c-1.362,0-2.686-0.71-3.409-1.978l-4.439-7.774c-1.074-1.881-0.42-4.275,1.461-5.35     c1.884-1.076,4.277-0.42,5.351,1.461l4.439,7.773c1.074,1.881,0.42,4.276-1.461,5.351     C312.336,362.904,311.668,363.07,311.009,363.07z"/></g><g><path d="M316.692,359.771c-1.356,0-2.676-0.706-3.401-1.966l-4.478-7.773c-1.081-1.876-0.437-4.273,1.441-5.354     c1.877-1.082,4.273-0.436,5.354,1.44l4.477,7.773c1.081,1.877,0.438,4.274-1.44,5.354     C318.029,359.602,317.355,359.771,316.692,359.771z"/></g><g><path d="M322.378,356.469c-1.352,0-2.666-0.698-3.394-1.95l-4.479-7.698c-1.09-1.873-0.455-4.273,1.417-5.361     c1.872-1.089,4.273-0.454,5.361,1.417l4.479,7.698c1.09,1.873,0.455,4.273-1.417,5.361     C323.726,356.297,323.047,356.469,322.378,356.469z"/></g><g><path d="M328.056,353.172c-1.352,0-2.667-0.7-3.395-1.953l-4.473-7.702c-1.087-1.874-0.45-4.273,1.422-5.361     c1.875-1.089,4.273-0.45,5.36,1.422l4.473,7.703c1.088,1.873,0.451,4.272-1.422,5.36     C329.401,353,328.725,353.172,328.056,353.172z"/></g><g><path d="M333.741,349.87c-1.356,0-2.676-0.706-3.401-1.966l-4.435-7.699c-1.081-1.876-0.436-4.273,1.441-5.354     c1.876-1.082,4.273-0.435,5.354,1.441l4.434,7.698c1.081,1.877,0.437,4.273-1.44,5.354     C335.078,349.7,334.404,349.87,333.741,349.87z"/></g><g><path d="M339.424,346.644c-1.357,0-2.678-0.706-3.403-1.968l-4.471-7.774c-1.079-1.877-0.433-4.274,1.444-5.354     c1.877-1.081,4.276-0.433,5.355,1.444l4.471,7.774c1.079,1.878,0.433,4.274-1.445,5.354     C340.76,346.475,340.087,346.644,339.424,346.644z"/></g><g><path d="M345.107,343.344c-1.356,0-2.676-0.704-3.401-1.965l-4.438-7.701c-1.081-1.876-0.437-4.274,1.439-5.355     s4.275-0.437,5.355,1.439l4.438,7.702c1.08,1.876,0.437,4.274-1.44,5.355C346.445,343.175,345.771,343.344,345.107,343.344z"/></g><g><path d="M350.794,340.043c-1.353,0-2.668-0.7-3.396-1.953l-4.472-7.699c-1.088-1.873-0.451-4.273,1.422-5.361     c1.872-1.088,4.272-0.451,5.36,1.422l4.472,7.699c1.088,1.873,0.451,4.273-1.422,5.361     C352.14,339.871,351.462,340.043,350.794,340.043z"/></g><g><path d="M390.235,471.313c-1.283,0-2.567-0.166-3.815-0.495l-119.553-32.054c-6.483-1.71-11.022-7.621-11.022-14.371     c0-1.306,0.174-2.606,0.519-3.868l9.454-35.329c0.411-1.533,1.704-2.667,3.277-2.874c1.577-0.209,3.116,0.556,3.908,1.929     l18.772,32.562c0.206,0.355,0.44,0.692,0.699,1.001c1.389,1.661,1.168,4.135-0.494,5.523c-1.661,1.388-4.133,1.168-5.524-0.493     c-0.547-0.654-1.042-1.365-1.475-2.113l-14.038-24.349l-7.008,26.19c-0.166,0.605-0.247,1.213-0.247,1.821     c0,3.192,2.136,5.985,5.195,6.791l119.55,32.055c0.579,0.152,1.19,0.231,1.802,0.231c3.225,0,6.043-2.146,6.853-5.218     l20.168-75.188c0.148-0.573,0.229-1.18,0.229-1.782c0-3.205-2.146-6.015-5.219-6.83l-11.756-3.175l-66.004,38.103     c-1.875,1.084-4.273,0.44-5.356-1.436c-1.083-1.875-0.44-4.273,1.435-5.356L398,363.672c0.902-0.522,1.977-0.663,2.983-0.39     l13.311,3.595c6.489,1.724,11.033,7.649,11.033,14.406c0,1.272-0.165,2.549-0.491,3.792l-20.169,75.193     C402.955,466.766,397.019,471.313,390.235,471.313z"/></g><g><path d="M415.104,410.15c-0.341,0-0.681-0.044-1.015-0.133l-56.688-15.179c-1.531-0.411-2.666-1.704-2.874-3.275     c-0.208-1.572,0.553-3.115,1.926-3.908l20.169-11.661c0.9-0.521,1.972-0.663,2.978-0.393l40.775,10.928     c2.092,0.56,3.332,2.709,2.773,4.8l-4.257,15.913c-0.27,1.005-0.926,1.861-1.827,2.383     C416.465,409.973,415.787,410.15,415.104,410.15z M368.57,389.709l43.759,11.718l2.23-8.337l-35.419-9.492L368.57,389.709z"/></g><g><path d="M151.022,389.397h-2.314c-2.166,0-3.922-1.756-3.922-3.922c0-1.104,0.466-2.194,1.283-2.938     c0.817-0.741,1.909-1.141,3.01-1.039c0.59,0.057,1.187,0.057,1.943,0.057c2.166,0,3.921,1.756,3.921,3.921     C154.943,387.642,153.188,389.397,151.022,389.397z"/></g><g><path d="M269.167,389.397h-43.552c-2.166,0-3.922-1.756-3.922-3.922c0-2.165,1.756-3.921,3.922-3.921h36.76l-16.295-28.218     c-1.306-2.232-2.001-4.801-2.001-7.41c0-5.315,2.848-10.263,7.432-12.908l107.22-61.896c2.253-1.302,4.819-1.991,7.421-1.991     c5.331,0,10.276,2.864,12.907,7.476l6.967,12.06v-58.687c0-2.166,1.756-3.922,3.922-3.922c2.165,0,3.921,1.756,3.921,3.922     v73.361c0,1.777-1.193,3.331-2.91,3.79c-1.72,0.456-3.527-0.297-4.412-1.837l-14.287-24.777     c-1.251-2.193-3.587-3.542-6.107-3.542c-1.226,0-2.435,0.325-3.497,0.939l-107.223,61.897c-2.165,1.25-3.51,3.594-3.51,6.116     c0,1.219,0.325,2.418,0.938,3.467l19.703,34.122c0.7,1.213,0.7,2.708,0,3.921S270.568,389.397,269.167,389.397z M176.595,389.397     h-25.573c-2.166,0-3.921-1.756-3.921-3.922c0-2.165,1.756-3.921,3.921-3.921c8.916,0,16.17-7.288,16.17-16.247V79.373     c0-2.166,1.756-3.922,3.921-3.922s3.921,1.756,3.921,3.922v285.935c0,6.254-2.389,11.96-6.298,16.247h7.858     c2.166,0,3.922,1.756,3.922,3.921C180.517,387.642,178.761,389.397,176.595,389.397z M389.947,184.881     c-2.166,0-3.922-1.756-3.922-3.921V60.702H171.113c-2.166,0-3.921-1.756-3.921-3.921s1.756-3.921,3.921-3.921h218.834     c2.165,0,3.921,1.756,3.921,3.921v124.179C393.868,183.125,392.112,184.881,389.947,184.881z"/></g><g><path d="M151.022,389.397c-13.284,0-24.09-10.772-24.09-24.015V224.426c0-2.166,1.756-3.921,3.921-3.921s3.921,1.756,3.921,3.921     v140.957c0,8.917,7.289,16.172,16.248,16.172c8.916,0,16.17-7.255,16.17-16.172V226.388c0-2.166,1.756-3.921,3.921-3.921     s3.921,1.756,3.921,3.921v138.995C175.035,378.625,164.263,389.397,151.022,389.397z M171.113,181.29     c-2.166,0-3.921-1.756-3.921-3.921V129.97c0-2.166,1.756-3.921,3.921-3.921s3.921,1.756,3.921,3.921v47.399     C175.035,179.534,173.279,181.29,171.113,181.29z"/></g><g><path d="M401.83,268.537c-2.165,0-3.921-1.756-3.921-3.921V48.528h-99.296c-2.165,0-3.921-1.756-3.921-3.921     c0-2.166,1.756-3.922,3.921-3.922H401.83c2.166,0,3.922,1.756,3.922,3.922v220.009     C405.752,266.781,403.996,268.537,401.83,268.537z"/></g><g><path d="M90.593,320.609c-2.166,0-3.921-1.756-3.921-3.922V81.275c0-13.282,10.772-24.088,24.013-24.088     c13.283,0,24.09,10.806,24.09,24.088v44.442c0,2.166-1.756,3.922-3.921,3.922s-3.921-1.756-3.921-3.922V81.275     c0-8.957-7.289-16.245-16.247-16.245c-8.916,0-16.17,7.288-16.17,16.245v235.413C94.515,318.854,92.759,320.609,90.593,320.609z      M130.853,235.17c-2.166,0-3.921-1.756-3.921-3.921v-56.512c0-2.166,1.756-3.922,3.921-3.922s3.921,1.756,3.921,3.922v56.512     C134.774,233.415,133.019,235.17,130.853,235.17z"/></g><g><path d="M266.306,94.659h-73.334c-2.166,0-3.922-1.756-3.922-3.922s1.756-3.921,3.922-3.921h73.334     c2.166,0,3.922,1.756,3.922,3.921S268.472,94.659,266.306,94.659z"/></g><g><path d="M266.306,106.393h-73.334c-2.166,0-3.922-1.756-3.922-3.921c0-2.166,1.756-3.922,3.922-3.922h73.334     c2.166,0,3.922,1.756,3.922,3.922C270.228,104.637,268.472,106.393,266.306,106.393z"/></g><g><path d="M266.306,153.985h-73.334c-2.166,0-3.922-1.756-3.922-3.921s1.756-3.921,3.922-3.921h73.334     c2.166,0,3.922,1.756,3.922,3.921S268.472,153.985,266.306,153.985z"/></g><g><path d="M325.451,165.719h-132.48c-2.166,0-3.922-1.756-3.922-3.921c0-2.166,1.756-3.922,3.922-3.922h132.48     c2.165,0,3.921,1.756,3.921,3.922C329.372,163.963,327.616,165.719,325.451,165.719z"/></g><g><path d="M325.451,177.234h-132.48c-2.166,0-3.922-1.756-3.922-3.921s1.756-3.921,3.922-3.921h132.48     c2.165,0,3.921,1.756,3.921,3.921S327.616,177.234,325.451,177.234z"/></g><g><path d="M325.451,188.969h-132.48c-2.166,0-3.922-1.756-3.922-3.922c0-2.166,1.756-3.921,3.922-3.921h132.48     c2.165,0,3.921,1.756,3.921,3.921C329.372,187.213,327.616,188.969,325.451,188.969z"/></g><g><path d="M325.451,200.481h-132.48c-2.166,0-3.922-1.756-3.922-3.921c0-2.166,1.756-3.922,3.922-3.922h132.48     c2.165,0,3.921,1.756,3.921,3.922C329.372,198.725,327.616,200.481,325.451,200.481z"/></g><g><path d="M325.451,212.214h-132.48c-2.166,0-3.922-1.756-3.922-3.921s1.756-3.921,3.922-3.921h132.48     c2.165,0,3.921,1.756,3.921,3.921S327.616,212.214,325.451,212.214z"/></g><g><path d="M325.451,223.73h-132.48c-2.166,0-3.922-1.756-3.922-3.922c0-2.166,1.756-3.921,3.922-3.921h132.48     c2.165,0,3.921,1.756,3.921,3.921C329.372,221.974,327.616,223.73,325.451,223.73z"/></g><g><path d="M325.451,235.464h-132.48c-2.166,0-3.922-1.756-3.922-3.921s1.756-3.922,3.922-3.922h132.48     c2.165,0,3.921,1.756,3.921,3.922S327.616,235.464,325.451,235.464z"/></g><g><path d="M325.451,246.976h-132.48c-2.166,0-3.922-1.756-3.922-3.922c0-2.166,1.756-3.921,3.922-3.921h132.48     c2.165,0,3.921,1.756,3.921,3.921C329.372,245.22,327.616,246.976,325.451,246.976z"/></g><g><path d="M325.451,258.711h-132.48c-2.166,0-3.922-1.756-3.922-3.921c0-2.166,1.756-3.922,3.922-3.922h132.48     c2.165,0,3.921,1.756,3.921,3.922C329.372,256.955,327.616,258.711,325.451,258.711z"/></g><g><path d="M325.451,270.226h-132.48c-2.166,0-3.922-1.756-3.922-3.922s1.756-3.922,3.922-3.922h132.48     c2.165,0,3.921,1.756,3.921,3.922S327.616,270.226,325.451,270.226z"/></g><g><path d="M266.306,281.959h-73.334c-2.166,0-3.922-1.756-3.922-3.921c0-2.166,1.756-3.922,3.922-3.922h73.334     c2.166,0,3.922,1.756,3.922,3.922C270.228,280.203,268.472,281.959,266.306,281.959z"/></g></g></g></svg>