<svg xmlns="http://www.w3.org/2000/svg" viewBox="0 0 512 640" x="0px" y="0px" style="&#10;    fill: #06A4F0;&#10;"><path d="M384,144H112a8,8,0,0,0-8,8v96a8,8,0,0,0,8,8H312v24a8,8,0,0,0,8,8h64a8,8,0,0,0,8-8V152A8,8,0,0,0,384,144Zm-8,64H328V192h48Zm0,16v16H328V224ZM152,192H312v16H152Zm-16,16H120V192h16Zm16-32V160H312v16Zm224,0H328V160h48ZM136,160v16H120V160Zm-16,64h16v16H120Zm32,16V224H312v16Zm176,32V256h48v16Z"/><path d="M224,120a7.974,7.974,0,0,0,5.657-2.343l48-48a8,8,0,0,0-11.314-11.314l-48,48A8,8,0,0,0,224,120Z"/><circle cx="224" cy="64" r="8"/><circle cx="272" cy="112" r="8"/><path d="M112,96h32a8,8,0,0,0,0-16H112a8,8,0,0,0,0,16Z"/><path d="M384,80H352a8,8,0,0,0,0,16h32a8,8,0,0,0,0-16Z"/><path d="M256,288H112a8,8,0,0,0,0,16H256a8,8,0,0,0,0-16Z"/><path d="M111,336h32a8,8,0,0,0,0-16H112a8,8,0,0,0,0,16Z"/><path d="M256,320H176a8,8,0,0,0,0,16h80a8,8,0,0,0,0-16Z"/><path d="M240,352H112a8,8,0,0,0,0,16H240a8,8,0,0,0,0-16Z"/><path d="M176,384H112a8,8,0,0,0,0,16h64a8,8,0,0,0,0-16Z"/><path d="M448,144a8,8,0,0,0,8-8V24a8,8,0,0,0-8-8H111.875a47.109,47.109,0,0,0-19.526,4.851C79.227,27.437,72,39.92,72,56V448H32a8,8,0,0,0-8,8,40.045,40.045,0,0,0,40,40H480a8,8,0,0,0,8-8V328a8,8,0,0,0-8-8H424l.027-176ZM440,33.381V128H424.03l.011-72A24.035,24.035,0,0,1,440,33.381ZM41.371,464H312v16H64A24.042,24.042,0,0,1,41.371,464ZM416,336v73.052l-11.562-7.708a8,8,0,0,0-8.876,0L384,409.052V336Zm-48,16H328V336h40ZM328,480V368h40v56a8,8,0,0,0,12.438,6.656L400,417.615l19.562,13.041A8,8,0,0,0,432,424V368h40V480ZM472,352H432V336h40ZM320,320a8,8,0,0,0-8,8V448H88V56c0-9.961,3.637-16.713,11.119-20.642A31.871,31.871,0,0,1,111.875,32H416.052a39.817,39.817,0,0,0-8.011,24L408,320Z"/></svg>