<svg xmlns="http://www.w3.org/2000/svg" xmlns:xlink="http://www.w3.org/1999/xlink" viewBox="0 0 667.23 553.73"><defs><style>.cls-1,.cls-12,.cls-15,.cls-18,.cls-6,.cls-9{fill:none;}.cls-2{isolation:isolate;}.cls-3{fill:url(#linear-gradient);}.cls-4{fill:url(#linear-gradient-2);}.cls-5{fill:url(#radial-gradient);}.cls-12,.cls-15,.cls-18,.cls-6,.cls-9{stroke:#fff;stroke-miterlimit:10;opacity:0.7;}.cls-6{stroke-width:1.09px;}.cls-10,.cls-13,.cls-16,.cls-19,.cls-24,.cls-25,.cls-26,.cls-27,.cls-28,.cls-30,.cls-31,.cls-37,.cls-38,.cls-39,.cls-40,.cls-41,.cls-42,.cls-43,.cls-46,.cls-7{mix-blend-mode:multiply;}.cls-7{fill:url(#linear-gradient-3);}.cls-8{fill:url(#radial-gradient-2);}.cls-9{stroke-width:1.1px;}.cls-10{fill:url(#linear-gradient-4);}.cls-11{fill:url(#radial-gradient-3);}.cls-12{stroke-width:0.88px;}.cls-13{fill:url(#linear-gradient-5);}.cls-14{fill:url(#radial-gradient-4);}.cls-15{stroke-width:1.02px;}.cls-16{fill:url(#linear-gradient-6);}.cls-17{fill:url(#linear-gradient-7);}.cls-18{stroke-width:0.92px;}.cls-19{fill:url(#linear-gradient-8);}.cls-20{fill:url(#linear-gradient-9);}.cls-21{fill:url(#linear-gradient-10);}.cls-22{fill:#dfd4c1;}.cls-23{fill:url(#linear-gradient-11);}.cls-24,.cls-25,.cls-26,.cls-27,.cls-30,.cls-31,.cls-37,.cls-38,.cls-39,.cls-40,.cls-42,.cls-43{opacity:0.8;}.cls-24{fill:url(#linear-gradient-12);}.cls-25{fill:url(#linear-gradient-13);}.cls-26{fill:url(#linear-gradient-14);}.cls-27{fill:url(#linear-gradient-15);}.cls-28{fill:url(#radial-gradient-5);}.cls-29,.cls-50,.cls-53{fill:#fff;}.cls-30{fill:url(#linear-gradient-16);}.cls-31{fill:url(#linear-gradient-17);}.cls-32{fill:url(#linear-gradient-18);}.cls-33{clip-path:url(#clip-path);}.cls-34{fill:url(#linear-gradient-19);}.cls-35{fill:url(#linear-gradient-20);}.cls-36{fill:url(#linear-gradient-21);}.cls-37{fill:url(#linear-gradient-22);}.cls-38{fill:url(#linear-gradient-23);}.cls-39{fill:url(#linear-gradient-24);}.cls-40{fill:url(#linear-gradient-25);}.cls-41{fill:url(#radial-gradient-6);}.cls-42{fill:url(#linear-gradient-26);}.cls-43{fill:url(#linear-gradient-27);}.cls-44{fill:url(#linear-gradient-28);}.cls-45{fill:url(#linear-gradient-29);}.cls-46{fill:url(#linear-gradient-30);}.cls-47{fill:url(#linear-gradient-31);}.cls-48{fill:url(#linear-gradient-32);}.cls-49{fill:url(#linear-gradient-33);}.cls-50{opacity:0.4;mix-blend-mode:screen;}.cls-51{fill:url(#linear-gradient-34);}.cls-52{fill:url(#linear-gradient-35);}.cls-53{opacity:0.6;}.cls-54{fill:url(#linear-gradient-36);}.cls-55{mix-blend-mode:overlay;fill:url(#radial-gradient-7);}.cls-56{opacity:0.3;fill:url(#radial-gradient-8);}</style><linearGradient id="linear-gradient" x1="5900.79" y1="-2749.44" x2="6519.03" y2="-2131.21" gradientTransform="matrix(-0.58, -0.82, 0.82, -0.58, 6107.76, 3833.64)" gradientUnits="userSpaceOnUse"><stop offset="0" stop-color="#99c4de"/><stop offset="0.65" stop-color="#d4e6f0"/><stop offset="1" stop-color="#eef5f8"/></linearGradient><linearGradient id="linear-gradient-2" x1="-14.58" y1="-16.29" x2="603.65" y2="601.94" gradientTransform="matrix(1, 0, 0, 1, 0, 0)" xlink:href="#linear-gradient"/><radialGradient id="radial-gradient" cx="2258.98" cy="2575.47" fx="2230.9223112506997" r="83.39" gradientTransform="matrix(0.4, -0.92, -0.92, -0.4, 1894.95, 3433.53)" gradientUnits="userSpaceOnUse"><stop offset="0" stop-color="#9bc091"/><stop offset="0.27" stop-color="#a7c999"/><stop offset="0.77" stop-color="#c8e2ae"/><stop offset="0.93" stop-color="#d4ebb6"/></radialGradient><linearGradient id="linear-gradient-3" x1="389.93" y1="311.76" x2="462.3" y2="361.31" gradientUnits="userSpaceOnUse"><stop offset="0" stop-color="#9bc091"/><stop offset="0.1" stop-color="#9fc393" stop-opacity="0.94"/><stop offset="0.29" stop-color="#a8ca9a" stop-opacity="0.76"/><stop offset="0.54" stop-color="#b8d6a4" stop-opacity="0.49"/><stop offset="0.85" stop-color="#cee6b2" stop-opacity="0.11"/><stop offset="0.93" stop-color="#d4ebb6" stop-opacity="0"/></linearGradient><radialGradient id="radial-gradient-2" cx="2235.41" cy="-7400.69" fx="2290.8523646105255" fy="-7333.874063504756" r="129.94" gradientTransform="matrix(-0.5, 0.9, 0.92, 0.48, 8040.27, 1842.3)" xlink:href="#radial-gradient"/><linearGradient id="linear-gradient-4" x1="7218.91" y1="748.26" x2="7269.85" y2="646.38" gradientTransform="matrix(-1, -0.08, -0.08, 1, 7379.68, 236.92)" xlink:href="#linear-gradient-3"/><radialGradient id="radial-gradient-3" cx="-1596.01" cy="-1468.51" fx="-1551.8255207100297" fy="-1415.2654973928647" r="103.55" gradientTransform="matrix(0.6, 0.84, -0.86, 0.58, 122.68, 2293.2)" xlink:href="#radial-gradient"/><linearGradient id="linear-gradient-5" x1="-81.53" y1="-459.78" x2="-40.94" y2="-540.97" gradientTransform="translate(600.72 624.33) rotate(-11.2)" xlink:href="#linear-gradient-3"/><radialGradient id="radial-gradient-4" cx="6464.99" cy="194.5" fx="6497.542737222109" r="76.81" gradientTransform="matrix(-1.08, 0.09, 0.1, 1.04, 7075.65, -392.52)" xlink:href="#radial-gradient"/><linearGradient id="linear-gradient-6" x1="7043.57" y1="389.49" x2="7121.65" y2="342.92" gradientTransform="matrix(-1, 0.07, 0.07, 1, 7155.72, -444.38)" xlink:href="#linear-gradient-3"/><linearGradient id="linear-gradient-7" x1="6391.53" y1="-2054.3" x2="6322.62" y2="-2150.91" gradientTransform="matrix(-0.69, 0.72, 0.81, 0.78, 6498.2, -2824.11)" gradientUnits="userSpaceOnUse"><stop offset="0" stop-color="#9bc091"/><stop offset="0.33" stop-color="#a7c999"/><stop offset="0.93" stop-color="#c8e2ae"/><stop offset="1" stop-color="#cce5b1"/></linearGradient><linearGradient id="linear-gradient-8" x1="6350.62" y1="-1984.74" x2="6350.62" y2="-2200.4" gradientTransform="matrix(-0.69, 0.72, 0.81, 0.78, 6498.2, -2824.11)" xlink:href="#linear-gradient-3"/><linearGradient id="linear-gradient-9" x1="7288.96" y1="96.1" x2="7312.3" y2="141.16" gradientTransform="matrix(-1, 0, 0, 1, 7405.7, 0)" gradientUnits="userSpaceOnUse"><stop offset="0.12" stop-color="#d3cdc6"/><stop offset="0.28" stop-color="#d8d1cd"/><stop offset="1" stop-color="#f0f0ea"/></linearGradient><linearGradient id="linear-gradient-10" x1="7249.05" y1="479" x2="7087.53" y2="196.97" gradientTransform="matrix(-1, 0, 0, 1, 7405.7, 0)" gradientUnits="userSpaceOnUse"><stop offset="0.01" stop-color="#ded6cb"/><stop offset="0.83" stop-color="#faf7f6"/><stop offset="1" stop-color="#fff"/></linearGradient><linearGradient id="linear-gradient-11" x1="7087.11" y1="486.07" x2="7087.11" y2="429.3" gradientTransform="matrix(-1, 0, 0, 1, 7405.7, 0)" gradientUnits="userSpaceOnUse"><stop offset="0" stop-color="#e8e1db"/><stop offset="1" stop-color="#fff"/></linearGradient><linearGradient id="linear-gradient-12" x1="7091.34" y1="73.31" x2="7291.91" y2="422.28" gradientTransform="matrix(1, 0, 0, -1, -6857.35, 286.48)" gradientUnits="userSpaceOnUse"><stop offset="0.01" stop-color="#e4e4e4"/><stop offset="1" stop-color="#d3d7d0"/></linearGradient><linearGradient id="linear-gradient-13" x1="7056.2" y1="71.78" x2="7287.59" y2="474.37" gradientTransform="matrix(1, 0, 0, -1, -6814.02, 330.3)" xlink:href="#linear-gradient-12"/><linearGradient id="linear-gradient-14" x1="6983.82" y1="46.95" x2="7184.4" y2="395.92" gradientTransform="matrix(1, 0, 0, -1, -6857.35, 607.86)" xlink:href="#linear-gradient-12"/><linearGradient id="linear-gradient-15" x1="6932.17" y1="16.67" x2="7163.56" y2="419.26" gradientTransform="matrix(1, 0, 0, -1, -6814.02, 651.68)" xlink:href="#linear-gradient-12"/><radialGradient id="radial-gradient-5" cx="7363.45" cy="245.16" fx="7444.8369990633055" r="183.2" gradientTransform="matrix(-0.97, 0, 0, 0.35, 7467.42, 160.05)" gradientUnits="userSpaceOnUse"><stop offset="0.01" stop-color="#cbc7c3"/><stop offset="0.41" stop-color="#ded6cb"/><stop offset="0.41" stop-color="#ded6cb" stop-opacity="0.99"/><stop offset="0.71" stop-color="#e3dcd4" stop-opacity="0.46"/><stop offset="0.91" stop-color="#e7e0d9" stop-opacity="0.13"/><stop offset="1" stop-color="#e8e1db" stop-opacity="0"/></radialGradient><linearGradient id="linear-gradient-16" x1="7057.65" y1="118.98" x2="7187.17" y2="344.32" gradientTransform="matrix(1, 0, 0, -1, -6830.93, 449.04)" xlink:href="#linear-gradient-12"/><linearGradient id="linear-gradient-17" x1="7031.9" y1="133.77" x2="7161.42" y2="359.12" gradientTransform="matrix(1, 0, 0, -1, -6787.6, 492.86)" xlink:href="#linear-gradient-12"/><linearGradient id="linear-gradient-18" x1="386.13" y1="255.04" x2="431.31" y2="209.08" gradientUnits="userSpaceOnUse"><stop offset="0.01" stop-color="#cc1e13"/><stop offset="0.15" stop-color="#d02519"/><stop offset="0.36" stop-color="#dc3a28"/><stop offset="0.61" stop-color="#ef5b42"/><stop offset="0.64" stop-color="#f25f45"/><stop offset="1" stop-color="#f89574"/></linearGradient><clipPath id="clip-path" transform="translate(49.47)"><path class="cls-1" d="M409.59,324.14a86.87,86.87,0,1,1,86.87-86.87A86.87,86.87,0,0,1,409.59,324.14Z"/></clipPath><linearGradient id="linear-gradient-19" x1="7392.47" y1="46.63" x2="7424.12" y2="107.72" xlink:href="#linear-gradient-9"/><linearGradient id="linear-gradient-20" x1="7338.36" y1="565.76" x2="7119.37" y2="183.39" xlink:href="#linear-gradient-10"/><linearGradient id="linear-gradient-21" x1="7118.8" y1="575.36" x2="7118.8" y2="498.39" xlink:href="#linear-gradient-11"/><linearGradient id="linear-gradient-22" x1="7124.53" y1="15.73" x2="7396.47" y2="488.87" gradientTransform="matrix(1, 0, 0, -1, -6952.34, 221.08)" xlink:href="#linear-gradient-12"/><linearGradient id="linear-gradient-23" x1="7076.89" y1="13.65" x2="7390.62" y2="559.49" gradientTransform="matrix(1, 0, 0, -1, -6893.6, 280.49)" xlink:href="#linear-gradient-12"/><linearGradient id="linear-gradient-24" x1="6978.77" y1="-20.01" x2="7250.71" y2="453.13" gradientTransform="matrix(1, 0, 0, -1, -6952.34, 656.81)" xlink:href="#linear-gradient-12"/><linearGradient id="linear-gradient-25" x1="6908.73" y1="-61.06" x2="7222.45" y2="484.77" gradientTransform="matrix(1, 0, 0, -1, -6893.6, 716.22)" xlink:href="#linear-gradient-12"/><radialGradient id="radial-gradient-6" cx="7389.92" cy="248.73" fx="7500.260252664928" r="248.38" gradientTransform="matrix(-0.97, 0, 0, 0.35, 7467.42, 162.38)" xlink:href="#radial-gradient-5"/><linearGradient id="linear-gradient-26" x1="7078.86" y1="77.64" x2="7254.47" y2="383.16" gradientTransform="matrix(1, 0, 0, -1, -6916.52, 441.48)" xlink:href="#linear-gradient-12"/><linearGradient id="linear-gradient-27" x1="7043.95" y1="97.71" x2="7219.55" y2="403.23" gradientTransform="matrix(1, 0, 0, -1, -6857.78, 500.9)" xlink:href="#linear-gradient-12"/><linearGradient id="linear-gradient-28" x1="378.47" y1="262.11" x2="439.72" y2="199.81" xlink:href="#linear-gradient-18"/><linearGradient id="linear-gradient-29" x1="533.7" y1="334.08" x2="515.17" y2="352.61" gradientUnits="userSpaceOnUse"><stop offset="0" stop-color="#aacbdf"/><stop offset="0.3" stop-color="#cfe3ef"/><stop offset="0.56" stop-color="#b7d3e5"/><stop offset="1" stop-color="#85b3d0"/></linearGradient><linearGradient id="linear-gradient-30" x1="554.55" y1="350.32" x2="531.67" y2="373.2" gradientTransform="translate(415.19 -277.72) rotate(45.01)" xlink:href="#linear-gradient-29"/><linearGradient id="linear-gradient-31" x1="587.63" y1="369.9" x2="551.68" y2="405.84" gradientTransform="translate(441.37 -288.6) rotate(45)" gradientUnits="userSpaceOnUse"><stop offset="0" stop-color="#3d82cb"/><stop offset="0.01" stop-color="#3f85cd"/><stop offset="0.13" stop-color="#509edd"/><stop offset="0.23" stop-color="#5baee7"/><stop offset="0.32" stop-color="#5fb3eb"/><stop offset="0.77" stop-color="#3273c2"/><stop offset="1" stop-color="#2059b1"/></linearGradient><linearGradient id="linear-gradient-32" x1="455.46" y1="131.77" x2="391.77" y2="339.13" gradientTransform="matrix(1, 0, 0, 1, 0, 0)" xlink:href="#linear-gradient-31"/><linearGradient id="linear-gradient-33" x1="365.31" y1="135.55" x2="365.31" y2="314.72" gradientTransform="matrix(1, 0, 0, 1, 0, 0)" xlink:href="#linear-gradient-31"/><linearGradient id="linear-gradient-34" x1="289.19" y1="116.87" x2="492" y2="319.68" gradientUnits="userSpaceOnUse"><stop offset="0.01" stop-color="#f2f4ef"/><stop offset="0.68" stop-color="#85b3d0"/></linearGradient><linearGradient id="linear-gradient-35" x1="321.2" y1="148.87" x2="603.85" y2="431.52" gradientUnits="userSpaceOnUse"><stop offset="0.01" stop-color="#f2f7f8"/><stop offset="0.7" stop-color="#89b5d4"/></linearGradient><linearGradient id="linear-gradient-36" x1="310.32" y1="54.93" x2="457.14" y2="324.6" xlink:href="#linear-gradient-34"/><radialGradient id="radial-gradient-7" cx="409.59" cy="237.27" fx="393.77554085319326" fy="212.92416389189987" r="86.87" gradientUnits="userSpaceOnUse"><stop offset="0" stop-color="#dcf3ff"/><stop offset="0.98" stop-color="#fff" stop-opacity="0"/></radialGradient><radialGradient id="radial-gradient-8" cx="408.28" cy="285.49" fx="383.11124856962175" r="53.99" gradientTransform="matrix(0, 0.72, -0.18, 0, 619.24, 85.04)" gradientUnits="userSpaceOnUse"><stop offset="0" stop-color="#fff"/><stop offset="0.1" stop-color="#fff" stop-opacity="0.88"/><stop offset="0.35" stop-color="#fff" stop-opacity="0.57"/><stop offset="0.57" stop-color="#fff" stop-opacity="0.32"/><stop offset="0.76" stop-color="#fff" stop-opacity="0.15"/><stop offset="0.9" stop-color="#fff" stop-opacity="0.04"/><stop offset="0.98" stop-color="#fff" stop-opacity="0"/></radialGradient></defs><g class="cls-2"><g id="Layer_2" data-name="Layer 2"><g id="Layer_1-2" data-name="Layer 1"><path class="cls-3" d="M503,102.7c-5-17.92.66-36.12,13.6-41.89C533.06,53.45,559,79,563.06,115.43c2.61,23.07,24.68,58.41,7.4,65.3C555,186.9,515.18,146.36,503,102.7Z" transform="translate(49.47)"/><path class="cls-4" d="M304.9,509.71c59.26,7.21,77.38,41.34,152.65,29.68C531,528,582.53,432.37,595.81,375c4.34-18.77,16.2-70-6.36-120.85-15.05-33.94-41.78-51.22-74.38-93.6-40.77-53-20.92-64.48-47.56-99.2-29.32-38.21-54.34-44-69.93-49.95C293.53-28.26,149,40.4,72.14,141.8c-52.4,69.11-101.94,197.14-46,283.39,30.83,47.56,78.4,72.46,96.07,77.95C200.64,527.52,226.45,500.17,304.9,509.71Z" transform="translate(49.47)"/><path class="cls-5" d="M363.12,270.47c12.12-14.85,131.64,33.53,129.4,88.87-.86,21.09-19.4,43.54-37.37,44.79-24.6,1.7-45-36.59-81.34-105C361.69,276.29,361.36,272.62,363.12,270.47Z" transform="translate(49.47)"/><path class="cls-6" d="M462.92,360.66s-13.71-38.52-63.43-64.57" transform="translate(49.47)"/><path class="cls-7" d="M363.12,270.47c-1.76,2.15-1.43,5.82,10.69,28.63,7.58,14.25,14.46,27.2,20.83,38.75,24.21,43.9,41,67.63,60.51,66.28,18-1.24,36.52-23.7,37.36-44.79.73-17.89-11.27-35-28.25-49.58C428.71,279.34,371.32,260.42,363.12,270.47Z" transform="translate(49.47)"/><path class="cls-8" d="M205.78,412C192.44,428.08,20.42,344.1,2.57,243.31c-2.37-13.38-7.7-43.45,10.82-64.06,9.66-10.76,27.44-20.74,46.14-18.18,5.31.73,15.09,3.08,26.06,12.67,31.42,27.46,31,77.84,42.55,119.37C150.72,374,213.77,402.37,205.78,412Z" transform="translate(49.47)"/><path class="cls-9" d="M156.27,374a318.3,318.3,0,0,1-79.66-89.69,314.93,314.93,0,0,1-29-64.52" transform="translate(49.47)"/><path class="cls-10" d="M2.57,243.32C20.42,344.1,192.44,428.08,205.78,412c6.63-8-35.63-28.86-63.11-81.93a192.23,192.23,0,0,1-14.54-37c-11-39.26-11.14-86.43-37.68-114.67-1.53-1.63-3.15-3.19-4.86-4.7-11-9.59-20.75-11.94-26.06-12.67-18.7-2.57-36.47,7.42-46.14,18.18C-5.13,199.86.2,229.93,2.57,243.32Z" transform="translate(49.47)"/><path class="cls-11" d="M369.39,224.32c12,11.55,140.78-70.19,146-151.59.69-10.81,2.24-35.09-14.25-49.78-8.61-7.66-23.57-14-38.15-10.3-4.14,1-11.68,3.77-19.52,12.34-22.45,24.53-17.62,64.38-23.12,98.3C409.63,189.36,362.21,217.41,369.39,224.32Z" transform="translate(49.47)"/><path class="cls-12" d="M405.23,189.82a253.61,253.61,0,0,0,55.14-78.09,250.42,250.42,0,0,0,17.21-53.65" transform="translate(49.47)"/><path class="cls-13" d="M515.37,72.73c-5.21,81.4-134,163.15-146,151.59-5.95-5.73,25.66-26,42.73-70.47a153.12,153.12,0,0,0,8.23-30.56c5.21-32.06,1.17-69.44,19.69-94.15A51.46,51.46,0,0,1,443.47,25c7.83-8.57,15.37-11.3,19.51-12.35C477.56,9,492.52,15.29,501.13,23,517.62,37.64,516.07,61.93,515.37,72.73Z" transform="translate(49.47)"/><path class="cls-14" d="M163.91,457.92c8.15-4.32-3.44-77.05-52-103.92-6.68-3.7-41.14-18.42-65.19-4-14,8.37-23.54,27.36-18.21,41.27,9.2,24,68.59,6.8,117.13,45.93C160.59,449.26,160.65,459.65,163.91,457.92Z" transform="translate(49.47)"/><path class="cls-15" d="M160.85,434.2S130.64,372.32,68,374" transform="translate(49.47)"/><path class="cls-16" d="M163.91,457.92c8.15-4.32-3.44-77.05-52-103.92-6.68-3.7-41.14-18.42-65.19-4-14,8.37-23.54,27.36-18.21,41.27,9.2,24,68.59,6.8,117.13,45.93C160.59,449.26,160.65,459.65,163.91,457.92Z" transform="translate(49.47)"/><path class="cls-17" d="M383.14,183.23c16.62-20,48.46-40.78,44.58-83.4-.4-4.4-4.48-43.35-31.87-57.64-3-1.56-16.51-8.18-30-3.56-11.49,3.94-21.19,15.49-21.67,28.53-.92,25.4,33.9,37.5,45.1,77.26C392.66,156.29,386.25,175.5,383.14,183.23Z" transform="translate(49.47)"/><path class="cls-18" d="M383.14,183.23s29.38-31.16,27.42-64.57c-1.91-32.58-25.6-51.5-25.6-51.5" transform="translate(49.47)"/><path class="cls-19" d="M383.14,183.23c16.62-20,48.46-40.78,44.58-83.4-.4-4.4-4.48-43.35-31.87-57.64-3-1.56-16.51-8.18-30-3.56-11.49,3.94-21.19,15.49-21.67,28.53-.92,25.4,33.9,37.5,45.1,77.26C392.66,156.29,386.25,175.5,383.14,183.23Z" transform="translate(49.47)"/><path class="cls-20" d="M70.5,120.11v22h60v-22a30,30,0,1,0-60,0Z" transform="translate(49.47)"/><path class="cls-21" d="M130.55,90.1h250a30,30,0,0,1,30,30v3c0,.54,0,1.08,0,1.62V440.11a30,30,0,0,0,30,30h-280a30,30,0,0,1-30-30v-3.05c0-.54,0-1.08,0-1.62V120.11a30,30,0,0,0-30-30Z" transform="translate(49.47)"/><path class="cls-22" d="M154.5,469.43a29.21,29.21,0,0,0,6.38.69,29.93,29.93,0,0,0,6.39-.69Z" transform="translate(49.47)"/><path class="cls-23" d="M167.27,469.43a30,30,0,0,0,23.62-29.32v-22h279v22a30,30,0,0,1-36.4,29.32Z" transform="translate(49.47)"/><rect class="cls-24" x="171.44" y="138.44" width="205.48" height="9.6" rx="4.8" transform="translate(597.83 286.48) rotate(-180)"/><rect class="cls-25" x="214.77" y="160.35" width="162.15" height="9.6" rx="3.91" transform="translate(641.15 330.3) rotate(-180)"/><rect class="cls-26" x="171.44" y="299.13" width="205.48" height="9.6" rx="4.8" transform="translate(597.83 607.86) rotate(-180)"/><rect class="cls-27" x="214.77" y="321.04" width="162.15" height="9.6" rx="3.91" transform="translate(641.15 651.68) rotate(-180)"/><path class="cls-28" d="M156.5,196.46v98a15.73,15.73,0,0,0,15.48,16H410.6v-130H172A15.73,15.73,0,0,0,156.5,196.46Z" transform="translate(49.47)"/><rect class="cls-29" x="189.32" y="197.84" width="263.43" height="75.27" rx="10.62" transform="translate(691.54 470.95) rotate(-180)"/><rect class="cls-30" x="222.75" y="219.72" width="129.27" height="9.6" rx="4.8" transform="translate(624.24 449.04) rotate(180)"/><rect class="cls-31" x="266.08" y="241.63" width="85.94" height="9.6" rx="3.91" transform="translate(667.57 492.86) rotate(-180)"/><path class="cls-32" d="M413.85,224.34c0-4.22-2.62-6.32-5.12-6.32-6.21,0-4.56,10.48-10.37,10.48a4,4,0,0,1-4.27-4.05c0-4.73,6.32-9.85,14.29-9.85,7.81,0,14.19,3.24,14.19,10.71,0,9.74-12.48,10.65-12.48,17.66,0,1.88-5.35,2.05-6,0C402.29,234.59,413.85,232.77,413.85,224.34Zm-11.73,27.51c0-3.13,2.33-4.61,5.07-4.61s5,1.48,5,4.61-2.33,4.5-5,4.5S402.12,254.87,402.12,251.85Z" transform="translate(49.47)"/><g class="cls-33"><path class="cls-34" d="M-49.47,79.18V109H31.89V79.18A40.68,40.68,0,0,0-8.78,38.49,40.56,40.56,0,0,0-37.55,50.41,40.56,40.56,0,0,0-49.47,79.18Z" transform="translate(49.47)"/><path class="cls-35" d="M32,38.49h339A40.69,40.69,0,0,1,411.6,79.18v4.14c0,.73.06,1.46.06,2.19V513a40.68,40.68,0,0,0,40.67,40.69H72.64A40.69,40.69,0,0,1,32,513V508.9c0-.73-.06-1.46-.06-2.19V79.18A40.68,40.68,0,0,0-8.78,38.49Z" transform="translate(49.47)"/><path class="cls-22" d="M64.42,552.79a39.2,39.2,0,0,0,8.65.94,40.53,40.53,0,0,0,8.66-.94Z" transform="translate(49.47)"/><path class="cls-36" d="M81.73,552.79a40.68,40.68,0,0,0,32-39.75V483.18H492.07V513a40.66,40.66,0,0,1-49.35,39.75Z" transform="translate(49.47)"/><rect class="cls-37" x="87.39" y="104.03" width="278.59" height="13.01" rx="6.51" transform="translate(502.83 221.08) rotate(-180)"/><rect class="cls-38" x="146.13" y="133.74" width="219.85" height="13.01" rx="5.31" transform="translate(561.58 280.49) rotate(-180)"/><rect class="cls-39" x="87.39" y="321.9" width="278.59" height="13.01" rx="6.51" transform="translate(502.83 656.81) rotate(-180)"/><rect class="cls-40" x="146.13" y="351.6" width="219.85" height="13.01" rx="5.31" transform="translate(561.58 716.22) rotate(-180)"/><path class="cls-41" d="M67.13,182.69V315.61c0,12,9.39,21.67,21,21.67H411.65V161H88.12C76.52,161,67.13,170.72,67.13,182.69Z" transform="translate(49.47)"/><rect class="cls-29" x="111.63" y="184.57" width="357.16" height="102.05" rx="14.39" transform="translate(629.89 471.19) rotate(-180)"/><rect class="cls-42" x="156.96" y="214.24" width="175.26" height="13.01" rx="6.51" transform="translate(538.65 441.48) rotate(180)"/><rect class="cls-43" x="215.7" y="243.94" width="116.52" height="13.01" rx="5.31" transform="translate(597.39 500.9) rotate(-180)"/><path class="cls-44" d="M416.06,220.5c0-5.72-3.56-8.58-7-8.58-8.41,0-6.17,14.21-14.05,14.21-3.25,0-5.8-2-5.8-5.48,0-6.41,8.58-13.36,19.39-13.36,10.58,0,19.23,4.4,19.23,14.52,0,13.21-16.91,14.44-16.91,23.94,0,2.55-7.26,2.78-8.11,0C400.38,234.4,416.06,231.93,416.06,220.5Zm-15.92,37.3c0-4.25,3.17-6.26,6.88-6.26s6.8,2,6.8,6.26c0,4.09-3.17,6.1-6.8,6.1S400.14,261.89,400.14,257.8Z" transform="translate(49.47)"/></g><path class="cls-45" d="M564.15,362.68l-20.89,20.9-53.82-53.82a7.4,7.4,0,0,1,0-10.48l10.41-10.42a7.42,7.42,0,0,1,10.48,0l28.89,28.89Z" transform="translate(49.47)"/><rect class="cls-46" x="527.95" y="344.52" width="29.55" height="35.26" transform="translate(-47.62 489.99) rotate(-45.01)"/><rect class="cls-47" x="545.83" y="338.08" width="46.43" height="100.8" rx="8.06" transform="translate(-58.55 516.16) rotate(-45)"/><path class="cls-48" d="M423.05,124H409.59v.8a113.31,113.31,0,0,0,0,225v.8h13.46a113.31,113.31,0,1,0,0-226.62Zm0,200.18a86.87,86.87,0,1,1,86.88-86.87A86.87,86.87,0,0,1,423.05,324.14Z" transform="translate(49.47)"/><path class="cls-49" d="M336.18,237.27a86.88,86.88,0,0,1,77.34-86.35,85.78,85.78,0,0,0-9.54-.53,86.88,86.88,0,0,0,0,173.75,85.78,85.78,0,0,0,9.54-.53A86.87,86.87,0,0,1,336.18,237.27Z" transform="translate(49.47)"/><path class="cls-50" d="M411.59,124A113.31,113.31,0,1,0,524.9,237.27,113.31,113.31,0,0,0,411.59,124Zm0,200.18a86.87,86.87,0,1,1,86.87-86.87A86.87,86.87,0,0,1,411.59,324.14Z" transform="translate(49.47)"/><path class="cls-51" d="M409.59,124A113.31,113.31,0,1,0,522.9,237.27,113.31,113.31,0,0,0,409.59,124Zm0,200.18a86.87,86.87,0,1,1,86.87-86.87A86.87,86.87,0,0,1,409.59,324.14Z" transform="translate(49.47)"/><path class="cls-52" d="M409.59,131A106.23,106.23,0,1,0,515.81,237.27,106.23,106.23,0,0,0,409.59,131Zm0,193.1a86.87,86.87,0,1,1,86.87-86.87A86.87,86.87,0,0,1,409.59,324.14Z" transform="translate(49.47)"/><path class="cls-53" d="M483.42,160.89a106.21,106.21,0,0,1-150.2,150.2,106.22,106.22,0,1,0,150.2-150.2Z" transform="translate(49.47)"/><path class="cls-29" d="M407.49,128.94a106.21,106.21,0,0,0-74.27,182.15,106.22,106.22,0,0,1,150.2-150.2A105.87,105.87,0,0,0,407.49,128.94Z" transform="translate(49.47)"/><path class="cls-54" d="M409.59,143.75a93.52,93.52,0,1,0,93.52,93.52A93.52,93.52,0,0,0,409.59,143.75Zm0,180.39a86.87,86.87,0,1,1,86.87-86.87A86.87,86.87,0,0,1,409.59,324.14Z" transform="translate(49.47)"/><path class="cls-55" d="M409.59,324.14a86.87,86.87,0,1,1,86.87-86.87A86.87,86.87,0,0,1,409.59,324.14Z" transform="translate(49.47)"/><ellipse class="cls-56" cx="569.37" cy="377.81" rx="9.97" ry="38.84" transform="translate(-50.92 513.26) rotate(-45)"/></g></g></g></svg>