<svg xmlns="http://www.w3.org/2000/svg" viewBox="0 0 305.12 242.74"><defs><style>.cls-1{fill:#06a4f0;}.cls-2{fill:#051c2e;}.cls-3{fill:#085375;}</style></defs><g id="Layer_2" data-name="Layer 2"><g id="Layer_1-2" data-name="Layer 1"><path class="cls-1" d="M252.89,2.29v4q0,81.93,0,163.87c0,2.83-.78,4.21-3.49,5.94-7.7,4.93-15.55,9.62-23.28,14.52-12,7.58-24.17,14.75-36.24,22.12-7.09,4.33-14.14,8.74-21.81,12.7,1.54-3.2,2.79-6.58,4.67-9.56,3.07-4.87,4.92-10.3,7.66-15.29a11.85,11.85,0,0,0,1.21-6.07q0-73.12-.08-146.25c0-3,.89-4.71,3.54-6.15,9.82-5.36,19.54-10.91,29.26-16.45q17.08-9.73,34.1-19.6C249.92,5.23,251.08,3.87,252.89,2.29Z"/><path class="cls-1" d="M136.83,225.67c-3-1.45-5.33-2.3-7.37-3.67-10.45-7-21.25-13.5-32-20.13-13.2-8.17-26.34-16.43-39.7-24.33-4.09-2.42-5.28-5.27-5.26-9.89.16-52.74.1-105.48.1-158.22v-5c3.65.9,6.35,3.07,9.18,4.65,15.39,8.57,30.62,17.43,45.92,26.16q6.21,3.54,12.53,6.9c2.16,1.15,2.94,2.68,2.93,5.25-.09,47.62,0,95.23-.19,142.85,0,6.64,2.18,12.19,5.12,17.71S134.19,218.82,136.83,225.67Z"/><path class="cls-2" d="M59.67,0c4.14.83,7.89,3,11.76,4.57,22.39,9.37,44.71,18.93,67.11,28.27,2.64,1.1,3.4,2.52,3.4,5.28q-.12,77-.05,154.08c0,5.11,0,5.12-5.3,5.18H134l8.75,17.55a29.07,29.07,0,0,1,1.64,3.31c1.73,5,4.87,7.19,10.32,6.26,1.85-.31,3.23-.49,4.12-2.28q6.09-12.22,12.27-24.44c-.38-.2-.56-.38-.75-.39-7.32-.15-7.31-.15-7.31-7.33q0-75.92-.08-151.83c0-3.06,1-4.24,3.69-5.35C185,25.23,203.22,17.39,221.52,9.63q9.39-4,18.81-7.94c1.25-.52,2.51-1.18,4.18-.65-1.78,3-5.11,3.79-7.74,5.33-15.47,9-31.08,17.82-46.64,26.69-2.69,1.53-5.28,3.35-8.13,4.47-4.73,1.86-5.87,5-5.85,9.94.22,46.86.09,93.72.19,140.58,0,5.56-.7,10.58-3.47,15.66-6.92,12.7-13.21,25.74-20,39-3.15-3.82-4.73-8.1-6.81-12-5.42-10.26-10.43-20.73-15.75-31a11.78,11.78,0,0,1-1.22-5.69c0-49.49,0-99,.11-148.46,0-3.42-1.06-5.34-3.92-6.93-11.67-6.49-23.27-13.14-34.89-19.72q-15-8.51-30.08-17C59.75,1.56,59.25,1.27,59.67,0Z"/><path class="cls-2" d="M305,1.81V8.12q0,87,.08,174c0,2.52-.72,3.79-3.1,4.68q-37.9,14.2-75.75,28.57-24.69,9.31-49.4,18.56c-1.59.59-3.18,1.58-5.39.59,4.8-3,9.91-4.85,14.82-7q28.59-12.74,57.25-25.33c13.58-6,27.11-12.12,40.8-17.85,2.71-1.13,3.07-2.48,3.07-4.92q-.07-83.24-.12-166.46c0-3.39.83-5.1,4.13-6.08C295.8,5.51,300,3.69,305,1.81Z"/><path class="cls-2" d="M133.4,234.7a8.52,8.52,0,0,1-4.71-.4q-30-11.53-60.17-22.88-22.54-8.52-45.13-17c-7-2.63-14-5.32-21-7.84-2.55-.91-2.32-2.79-2.32-4.79Q.07,116.38.06,51q0-22.31,0-44.62c0-1.22-.34-2.5.41-3.81,2.57-.6,4.62,1.13,6.84,1.91C18.18,8.26,18.16,8.31,18.16,19.64c0,52.87.05,105.74-.12,158.6,0,3.82,1.39,5.34,4.53,6.68,13.53,5.8,27,11.8,40.46,17.73q31.83,14,63.66,28A71.32,71.32,0,0,1,133.4,234.7Z"/><path class="cls-3" d="M71.67,201,23.48,179.2V1.77c2.85,2.53,6.54,2.94,9.68,5V180.45l39,20.05Z"/><path class="cls-3" d="M247.44,193.4c7.08-3.81,14-7.93,21.31-11.29,3-1.36,3.71-2.83,3.69-5.77-.1-18.73-.05-37.47-.05-56.21,0-36.1.05-72.19-.08-108.29,0-3.16.76-5,3.79-6.11a9.33,9.33,0,0,0,5.29-4.11v4q0,85.07.05,170.12c0,2.66-.55,4.16-3.25,5.29-10.11,4.25-20.08,8.82-30.1,13.27C247.88,194,247.66,193.69,247.44,193.4Z"/><path class="cls-3" d="M76,197.32a4.63,4.63,0,0,1,.4-.48l.09-.1a4.91,4.91,0,0,1,.48-.43h0c-14.74-9.51-25-15.79-27.1-16.81a5.73,5.73,0,0,1-2.45-2.08,6.66,6.66,0,0,1-.81-3.62c.09-52.45-.08-104.9.25-157.35,0-6.79-1-11.6-7.92-13.67-.1,0-.24.05-.51.12C38.92,91,36.13,155,38.17,165c.53,2.58,0,8.19,2.5,12.21,2,3.29,10.5,7.74,11.86,8.39,8.3,4,16.93,8.37,23.43,11.68Z"/><path class="cls-3" d="M240.7,188.9c5-3.27,9.81-6.76,15.12-9.51,2.36-1.22,3.13-3,3.13-5.69-.07-53.83,0-107.65-.14-161.48,0-3.74.47-6.42,4.4-7.62,1-.3,1.79-1.21,2.92-2V177.45c-8.48,3.41-16.48,8.15-24.8,12.24C241.12,189.44,240.91,189.17,240.7,188.9Z"/><path class="cls-3" d="M76.35,196.84a4.34,4.34,0,0,1,.76-.65h0c-2.09-1.52-4.36-2.93-7.33-3a39.31,39.31,0,0,1,5.74,3.06Z"/><path class="cls-3" d="M63.8,190c-.11-1.07-1.15-1-1.79-1.4l1.74,1.36Z"/><path class="cls-3" d="M70.26,192.16c-1.81.43-2.75-.61-4.08-1.2C67.93,190.2,68.9,191.17,70.26,192.16Z"/><path class="cls-3" d="M248.1,194.26c-.87,1.23-2,1.11-3.33.71.59-1.13,1.82-1,2.68-1.57C247.66,193.69,247.88,194,248.1,194.26Z"/><path class="cls-3" d="M241.33,189.7a1.94,1.94,0,0,1-1.89,1l-.59-.55a2.48,2.48,0,0,1,1.84-1.24Z"/><path class="cls-3" d="M63.75,189.93l.49.34.16-.26-.59,0S63.75,189.93,63.75,189.93Z"/></g></g></svg>
