<svg xmlns="http://www.w3.org/2000/svg" data-name="Layer 1" viewBox="0 0 128 160" x="0px" y="0px" style="&#10;    fill: #06A4F0;&#10;"><title>solid - Copy</title><path d="M99,16a6,6,0,0,0-6-6H25a6,6,0,0,0-6,6v6a6,6,0,0,0,6,6H93a6,6,0,0,0,6-6Zm-4,6a2,2,0,0,1-2,2H25a2,2,0,0,1-2-2V16a2,2,0,0,1,2-2H93a2,2,0,0,1,2,2Z"/><path d="M99,40a6,6,0,0,0-6-6H75a6,6,0,0,0-6,6V56a6,6,0,0,0,6,6H93a6,6,0,0,0,6-6ZM95,56a2,2,0,0,1-2,2H75a2,2,0,0,1-2-2V40a2,2,0,0,1,2-2H93a2,2,0,0,1,2,2Z"/><path d="M21,62H61a2,2,0,0,0,0-4H21a2,2,0,0,0,0,4Z"/><path d="M21,54H61a2,2,0,0,0,0-4H21a2,2,0,0,0,0,4Z"/><path d="M21,46H61a2,2,0,0,0,0-4H21a2,2,0,0,0,0,4Z"/><path d="M21,38H61a2,2,0,0,0,0-4H21a2,2,0,0,0,0,4Z"/><path d="M97.85,66.2A2,2,0,0,0,97,66H21a2,2,0,0,0,0,4H87.17A25.81,25.81,0,0,1,97.85,66.2Z"/><path d="M111,122v-6a25.72,25.72,0,0,1-4,1.3V122a2,2,0,0,1-2,2H13a2,2,0,0,1-2-2V6a2,2,0,0,1,2-2h92a2,2,0,0,1,2,2V66.71a25.72,25.72,0,0,1,4,1.3V6a6,6,0,0,0-6-6H13A6,6,0,0,0,7,6V122a6,6,0,0,0,6,6h92A6,6,0,0,0,111,122Z"/><path d="M101,70a22,22,0,1,0,22,22A22,22,0,0,0,101,70Zm0,40a18,18,0,1,1,18-18A18,18,0,0,1,101,110Z"/><path d="M110,86.25,96.93,93.48l-4.44-5a2,2,0,0,0-3,2.67L95,97.33a2,2,0,0,0,2.46.42l14.5-8a2,2,0,1,0-1.93-3.5Z"/><path d="M82.26,74H21a2,2,0,0,0,0,4H79.11A26.17,26.17,0,0,1,82.26,74Z"/><path d="M19,84a2,2,0,0,0,2,2H75.71A25.72,25.72,0,0,1,77,82H21A2,2,0,0,0,19,84Z"/><path d="M21,90a2,2,0,0,0,0,4H75.08C75,93.34,75,92.67,75,92s0-1.34.08-2Z"/><path d="M21,102H77a25.72,25.72,0,0,1-1.3-4H21a2,2,0,0,0,0,4Z"/><path d="M21,106a2,2,0,0,0,0,4H82.26a26.17,26.17,0,0,1-3.16-4Z"/><path d="M19,116a2,2,0,0,0,2,2H97a2,2,0,0,0,.85-.2A25.81,25.81,0,0,1,87.17,114H21A2,2,0,0,0,19,116Z"/></svg>