<svg xmlns="http://www.w3.org/2000/svg" xmlns:xlink="http://www.w3.org/1999/xlink" version="1.1" x="0px" y="0px" viewBox="0 0 100 125" style="enable-background:new 0 0 100 100;color: #06A4F0;fill: #06A4F0;" xml:space="preserve"><g><path d="M77.11,47.81C77.11,32.87,64.95,20.7,50,20.7S22.89,32.87,22.89,47.81S35.05,74.92,50,74.92S77.11,62.76,77.11,47.81z    M25.89,47.81C25.89,34.52,36.71,23.7,50,23.7s24.11,10.82,24.11,24.11S63.29,71.92,50,71.92S25.89,61.11,25.89,47.81z"/><path d="M50.76,49.11l12.07-7.08c0.71-0.42,0.95-1.34,0.54-2.05c-0.42-0.71-1.34-0.95-2.05-0.54l-10.93,6.41l-10.04-13.1   c-0.5-0.66-1.44-0.78-2.1-0.28c-0.66,0.5-0.78,1.45-0.28,2.1l10.84,14.15c0.29,0.38,0.74,0.59,1.19,0.59   C50.26,49.31,50.52,49.25,50.76,49.11z"/><path d="M91.26,36.91h-0.42c-1.35,0-2.57,0.53-3.5,1.37C82.99,21.73,67.9,9.47,50,9.47S17.01,21.73,12.67,38.28   c-0.93-0.84-2.15-1.37-3.5-1.37H8.74c-2.89,0-5.24,2.35-5.24,5.24v11.82c0,2.89,2.35,5.24,5.24,5.24h0.42   c2.89,0,5.24-2.35,5.24-5.24v-5.91c0-19.63,15.97-35.59,35.59-35.59s35.59,15.97,35.59,35.59c0,16.01-10.57,29.91-25.85,34.24   c-0.86-1.29-2.33-2.13-3.99-2.13H49.3c-2.65,0-4.8,2.15-4.8,4.8v0.37c0,2.65,2.15,4.8,4.8,4.8h6.45c2.65,0,4.8-2.15,4.8-4.8v-0.15   c13.36-3.78,23.4-14.3,26.79-27.34c0.93,0.84,2.15,1.36,3.49,1.36h0.42c2.89,0,5.24-2.35,5.24-5.24V42.16   C96.5,39.27,94.15,36.91,91.26,36.91z M11.41,53.97c0,1.24-1.01,2.24-2.24,2.24H8.74c-1.24,0-2.24-1.01-2.24-2.24V42.16   c0-1.24,1.01-2.24,2.24-2.24h0.42c1.24,0,2.24,1.01,2.24,2.24V53.97z M57.56,85.34c0,0.99-0.81,1.8-1.8,1.8H49.3   c-0.99,0-1.8-0.81-1.8-1.8v-0.37c0-0.99,0.81-1.8,1.8-1.8h6.45c0.73,0,1.37,0.44,1.65,1.08c0.01,0.07,0.01,0.13,0.03,0.2   c0.02,0.08,0.07,0.15,0.1,0.22c0.02,0.1,0.03,0.2,0.03,0.3V85.34z M93.5,53.97c0,1.24-1.01,2.24-2.24,2.24h-0.42   c-1.24,0-2.24-1.01-2.24-2.24V42.16c0-1.24,1.01-2.24,2.24-2.24h0.42c1.24,0,2.24,1.01,2.24,2.24V53.97z"/></g></svg>