<svg xmlns="http://www.w3.org/2000/svg" viewBox="0 0 333.83 586.99"><defs><style>.cls-1{fill:#fefefe;}.cls-2{fill:#e6f7fe;}.cls-3{fill:#2c3d4d;}.cls-4{fill:#d3e8f5;}.cls-5{fill:#fca557;}.cls-6{fill:#eb8a4c;}.cls-7{fill:#92c8e7;}.cls-8{fill:#96c8e5;}.cls-9{fill:#93c8e7;}.cls-10{fill:#cccaca;}.cls-11{fill:#cccbca;}.cls-12{fill:#a5b4be;}.cls-13{fill:#fa6c5c;}.cls-14{fill:#a5b3bd;}.cls-15{fill:#202c38;}</style></defs><g id="Layer_2" data-name="Layer 2"><g id="Layer_1-2" data-name="Layer 1"><path class="cls-1" d="M149.46,47.1q0,104.69,0,209.37c0,1.75-.11,3.49-.17,5.23l-37.19,1.66c-2.76-9.69-5.42-19.42-8.28-29.08-6.26-21.12-12.68-42.2-18.94-63.32Q70.42,122.27,56.12,73.55l-7.5-25c-1.23-4.3-2.37-8.63-3.72-12.89-1.82-5.74-5.69-7.82-11.55-6.21q-7.56,2.09-15,4.44c-5.05,1.59-7.19,5.62-5.77,10.85,1.18,4.32,2.56,8.59,3.86,12.87.28,1.08.53,2.16.85,3.22q3.68,12.26,7.36,24.48c.2,1,.32,2,.61,2.93C28,97.18,30.82,106.05,33.45,115c4.29,14.65,8.35,29.37,12.67,44,4.71,16,9.68,31.87,14.43,47.83,5.87,19.77,11.62,39.58,17.43,59.37a6,6,0,0,1-1.31.61c-16.21,3.07-32.5,5.75-48.59,9.32C19.76,278,11.59,281,4.69,286.45c-5.37,4.28-6,7.69-2.47,13.46a79.6,79.6,0,0,0,1,8c1.53,6.69,3.35,13.32,4.92,20,1.35,5.76,2.4,11.6,3.82,17.35,2.11,8.53,4.6,17,6.61,25.52,2.87,12.22,5.36,24.54,8.2,36.78,1.61,7,3.72,13.81,5.35,20.78,2.26,9.62,4.19,19.32,6.46,28.94,1.69,7.21,3.76,14.33,5.52,21.52,2.73,11.14,5.42,22.3,8,33.48,1.29,5.63,2.22,11.34,3.32,17a63.7,63.7,0,0,0-8.08,1.2c-6,1.64-11.91,3.53-17.83,5.42-7.38,2.36-14.4,5.56-19.42,11.65-1.48,1.79-2.55,5.39-1.74,7.25a20.86,20.86,0,0,0,6.85,8.29C28,572.14,43.08,575,57.86,577.9c15.54,3.05,31.4,4.54,47.17,6.22,13,1.38,26,2.78,39,2.85q32.88.18,65.77-1.44c15.34-.74,30.64-2.71,45.92-4.37a213.8,213.8,0,0,0,49.63-11.23c6.56-2.37,13.12-4.88,18-10.27,3.5-3.86,4-8.38.84-12.18a21.22,21.22,0,0,0-6.23-5.22c-5.16-2.68-10.39-5.42-15.91-7.13-7.79-2.4-15.87-3.89-23.82-5.78.48-2.15,1-4.31,1.45-6.47,2.06-9.33,4-18.7,6.2-28,2.62-11.06,5.51-22.06,8.22-33.1q3.36-13.63,6.56-27.29c1.62-6.9,3.16-13.83,4.72-20.75,1.52-6.75,2.92-13.53,4.58-20.25,1.24-5,3-9.86,4.2-14.85,1.5-6.09,2.64-12.27,4.06-18.38,1.61-7,3.39-13.95,5-20.93,1.25-5.31,2.42-10.63,3.61-15.95q2.7-12.09,5.37-24.17c2.71-5.77,2.11-9.33-3.09-12.92A60.68,60.68,0,0,0,317,279.81c-16.63-6.54-34.18-9.28-51.69-12.18-1.21-.2-2.26-1.3-3.39-2,.89-5.9,1.86-11.8,2.63-17.72,2.22-17.06,4.32-34.14,6.54-51.2,1.79-13.85,3.71-27.68,5.51-41.53,2.22-17.07,4.37-34.14,6.56-51.21l6.33-49.35Q291.27,41.82,293,29c.58-4.94,1.37-9.88,1.7-14.84.29-4.44-2-7.56-6.42-8.28-6.25-1-12.57-1.76-18.89-2.24-4.14-.3-7,2.35-7.74,6.51C261,14,260.6,17.8,260.08,21.63c-.33,2.28-.69,4.56-1,6.85q-1.35,10.83-2.65,21.65-1.37,10.17-2.74,20.32c-1.31,9.75-2.66,19.5-3.92,29.25-1.71,13.21-3.31,26.43-5,39.64s-3.64,26.4-5.34,39.61c-1.73,13.45-3.23,26.94-5,40.39-1.88,14.69-3.91,29.37-5.87,44l-37.13-1.79c0-1.49-.1-3-.1-4.49q0-114,0-228.08V24.18H178.68c.11-7.22.28-14.43.23-21.65,0-.84-1.25-2.36-2-2.39C172.13-.08,167.3,0,161.79,0V24.27H149.2V41.89c-2.24,0-4.49,0-6.74,0-5.53,0-5.81.26-5.81,5.64q0,56.35,0,112.72a30.22,30.22,0,0,0,.51,5.19c.48,2.66,2.52,3.21,4.8,3.08,2.51-.15,2.87-1.88,2.77-4-.29-6.1-.5-12.21-.72-18.31-.51-13.57-1.05-27.15-1.49-40.72q-.91-27.86-1.69-55.71c0-1.29.1-2.58.17-4l8.14,1.44.19.07Z"/><path class="cls-2" d="M55.44,529.34c-1.1-5.67-2-11.38-3.32-17-2.55-11.18-5.24-22.34-8-33.48-1.76-7.19-3.83-14.31-5.52-21.52-2.27-9.62-4.2-19.32-6.46-28.94-1.63-7-3.74-13.82-5.35-20.78-2.84-12.24-5.33-24.56-8.2-36.78-2-8.56-4.5-17-6.61-25.52-1.42-5.75-2.47-11.59-3.82-17.35-1.57-6.69-3.39-13.32-4.92-20a79.6,79.6,0,0,1-1-8c5.52,3,10.81,6.62,16.6,9C32.47,314.51,47,317,61.47,319.26c10.78,1.7,21.68,2.58,32.53,3.83l18.47,1.49,17.24,1.2,19.58.3,41.93.05c9.32-.27,18.64-.52,28-.83a8.06,8.06,0,0,0,2-.67l16.48-1.47,16.67-1.47c15.89-2.85,31.85-5.35,47.64-8.67,11-2.3,21.66-5.91,30.22-13.81q-2.69,12.07-5.37,24.17c-1.19,5.32-2.36,10.64-3.61,15.95-1.65,7-3.43,13.94-5,20.93-1.42,6.11-2.56,12.29-4.06,18.38-1.23,5-3,9.86-4.2,14.85-1.66,6.72-3.06,13.5-4.58,20.25-1.56,6.92-3.1,13.85-4.72,20.75q-3.21,13.67-6.56,27.29c-2.71,11-5.6,22-8.22,33.1-2.21,9.3-4.14,18.67-6.2,28-.47,2.16-1,4.32-1.45,6.48-1,3.46-1.76,7-2.92,10.38-.57,1.67-1.44,3.69-2.8,4.54-3.67,2.3-7.49,4.76-11.6,5.87a185.43,185.43,0,0,1-26.08,5.48c-16.36,1.94-32.8,3.76-49.25,4.33-17.3.61-34.66-.18-52-.61a199.87,199.87,0,0,1-22.28-1.62,268,268,0,0,1-29.57-5.28c-6.89-1.75-13.44-5-19.94-8-1.54-.72-2.62-3-3.31-4.85C57.24,536.24,56.44,532.76,55.44,529.34Z"/><path class="cls-3" d="M191.22,326.13l-41.93-.05c0-13.91,0-27.83.1-41.75,0-7.07.16-14.15.24-21.22a13.23,13.23,0,0,0,1-3.6c.08-13.48.05-27,.05-40.43q0-83.87-.05-167.72c0-1.42-.79-2.84-1.21-4.26l-.11.17-.19-.07c0-1.77,0-3.54,0-5.31V24.27h12.59l16.89-.09h12.66V29q0,114,0,228.08c0,1.5.06,3,.1,4.49s-.11,2.73-.11,4.1Z"/><path class="cls-4" d="M55.44,529.34c1,3.42,1.8,6.9,3.06,10.22.69,1.81,1.77,4.13,3.31,4.85,6.5,3,13,6.29,19.94,8a268,268,0,0,0,29.57,5.28,199.87,199.87,0,0,0,22.28,1.62c17.32.43,34.68,1.22,52,.61,16.45-.57,32.89-2.39,49.25-4.33a185.43,185.43,0,0,0,26.08-5.48c4.11-1.11,7.93-3.57,11.6-5.87,1.36-.85,2.23-2.87,2.8-4.54,1.16-3.4,2-6.92,2.92-10.38,7.95,1.88,16,3.37,23.82,5.77,5.52,1.71,10.75,4.45,15.91,7.13a21.22,21.22,0,0,1,6.23,5.22c3.17,3.8,2.66,8.32-.84,12.18-4.89,5.39-11.45,7.9-18,10.27a213.8,213.8,0,0,1-49.63,11.23c-15.28,1.66-30.58,3.63-45.92,4.37Q176.94,587.12,144,587c-13-.07-26-1.47-39-2.85C89.26,582.44,73.4,581,57.86,577.9,43.08,575,28,572.14,15.22,563.15a20.86,20.86,0,0,1-6.85-8.29c-.81-1.86.26-5.46,1.74-7.25,5-6.09,12-9.29,19.42-11.65,5.92-1.89,11.84-3.78,17.83-5.42A63.7,63.7,0,0,1,55.44,529.34Z"/><path class="cls-5" d="M237.71,323.16l-16.48,1.47c.46-4.13.94-8.26,1.39-12.39q1.63-15,3.25-30c.06-.62.11-1.24.2-1.85q1.25-8.49,2.51-17c2-14.68,4-29.36,5.87-44,1.72-13.45,3.22-26.94,5-40.39,1.7-13.21,3.61-26.4,5.34-39.61s3.34-26.43,5-39.64c1.26-9.75,2.61-19.5,3.92-29.25q1.36-10.16,2.74-20.32c5.54.6,11.09,1.19,16.63,1.81.19,0,.35.31.53.47-.26.42-.71.82-.77,1.27-1.28,9.58-2.51,19.16-3.75,28.74q-1.81,13.81-3.63,27.64c-1.18,9-2.39,17.93-3.56,26.9-1.08,8.23-2.12,16.48-3.19,24.71-1.16,9-2.36,17.94-3.52,26.91-1.34,10.33-2.63,20.66-4,31-1.12,8.6-2.31,17.2-3.43,25.8s-2.22,17.21-3.31,25.82-2.15,17.47-3.29,26.19S238.87,314.57,237.71,323.16Z"/><path class="cls-6" d="M237.71,323.16c1.16-8.59,2.35-17.18,3.47-25.79s2.19-17.46,3.29-26.19,2.18-17.22,3.31-25.82,2.31-17.2,3.43-25.8c1.35-10.32,2.64-20.65,4-31,1.16-9,2.36-17.94,3.52-26.91,1.07-8.23,2.11-16.48,3.19-24.71,1.17-9,2.38-17.93,3.56-26.9q1.83-13.82,3.63-27.64c1.24-9.58,2.47-19.16,3.75-28.74.06-.45.51-.85.77-1.27l15.9,2.22L283.18,104c-2.19,17.07-4.34,34.14-6.56,51.21-1.8,13.85-3.72,27.68-5.51,41.53-2.22,17.06-4.32,34.14-6.54,51.2-.77,5.92-1.74,11.82-2.63,17.72-.67,6.73-1.18,13.49-2,20.2-1.28,10-2.77,19.93-4.23,29.89-.3,2-.85,4-1.29,6Z"/><path class="cls-6" d="M129.71,325.78l-17.24-1.2c-3.36-11.93-6.62-23.89-10.12-35.78-4.27-14.51-8.76-29-13.1-43.44-3.75-12.5-7.43-25-11.14-37.53-4.26-14.38-8.56-28.75-12.8-43.14-3.32-11.29-6.54-22.62-9.86-33.92Q50.64,114.34,45.68,98c-2-6.49-4.12-12.93-6.19-19.39l16.63-5Q70.47,122.26,84.85,171c6.26,21.12,12.68,42.2,18.94,63.32,2.86,9.66,5.52,19.39,8.28,29.08,3,10.14,5.89,20.31,8.94,30.43,1.74,5.82,3.87,11.53,5.49,17.38C127.83,316,128.66,320.9,129.71,325.78Z"/><path class="cls-5" d="M39.49,78.57C41.56,85,43.71,91.47,45.68,98q5,16.38,9.77,32.81c3.32,11.3,6.54,22.63,9.86,33.92,4.24,14.39,8.54,28.76,12.8,43.14,3.71,12.51,7.39,25,11.14,37.53,4.34,14.48,8.83,28.93,13.1,43.44,3.5,11.89,6.76,23.85,10.12,35.78L94,323.09c-.75-3.83-1.23-7.74-2.3-11.47-2.14-7.4-4.67-14.69-6.9-22.06C82.45,281.8,80.24,274,78,266.21c-5.81-19.79-11.56-39.6-17.43-59.37C55.8,190.88,50.83,175,46.12,159c-4.32-14.65-8.38-29.37-12.67-44-2.63-8.94-5.49-17.81-8.22-26.72-.29-1-.41-2-.61-2.93.38-1.18.49-3.21,1.16-3.41C30.28,80.59,34.91,79.65,39.49,78.57Z"/><path class="cls-7" d="M78,266.21c2.26,7.79,4.47,15.59,6.82,23.35,2.23,7.37,4.76,14.66,6.9,22.06,1.07,3.73,1.55,7.64,2.3,11.47-10.85-1.25-21.75-2.13-32.53-3.83C47,317,32.47,314.51,18.82,308.9c-5.79-2.37-11.08-6-16.6-9-3.56-5.77-2.9-9.18,2.47-13.46,6.9-5.49,15.07-8.46,23.39-10.31,16.09-3.57,32.38-6.25,48.59-9.32A6,6,0,0,0,78,266.21Z"/><path class="cls-7" d="M254.38,321.69c.44-2,1-3.95,1.29-6,1.46-10,3-19.91,4.23-29.89.86-6.71,1.37-13.47,2-20.2,1.13.69,2.18,1.79,3.39,2,17.51,2.9,35.06,5.64,51.69,12.18a60.68,60.68,0,0,1,12.13,6.48c5.2,3.59,5.8,7.15,3.09,12.92C323.68,307.11,313,310.72,302,313,286.23,316.34,270.27,318.84,254.38,321.69Z"/><path class="cls-8" d="M228.58,263.39q-1.26,8.5-2.51,17c-.09.61-.14,1.23-.2,1.85q-1.63,15-3.25,30c-.45,4.13-.93,8.26-1.39,12.39a8.06,8.06,0,0,1-2,.67c-9.32.31-18.64.56-28,.83l.12-60.43c0-1.37.07-2.73.11-4.1Z"/><path class="cls-9" d="M129.71,325.78c-1.05-4.88-1.88-9.81-3.21-14.61-1.62-5.85-3.75-11.56-5.49-17.38-3.05-10.12-6-20.29-8.94-30.43l37.19-1.66c.13.47.25.94.37,1.41-.08,7.07-.21,14.15-.24,21.22-.06,13.92-.07,27.84-.1,41.75Z"/><path class="cls-10" d="M39.49,78.57c-4.58,1.08-9.21,2-13.71,3.36-.67.2-.78,2.23-1.16,3.41Q20.95,73.1,17.26,60.86c-.32-1.06-.57-2.14-.85-3.21a12.48,12.48,0,0,0,2.95-.15c9.77-2.94,19.51-5.94,29.26-8.92l7.5,25Z"/><path class="cls-11" d="M289.51,54.63l-15.9-2.22c-.18-.16-.34-.45-.53-.47-5.54-.62-11.09-1.21-16.63-1.81q1.32-10.82,2.65-21.65c.29-2.29.65-4.57,1-6.85l.35,3.45c5.76.82,11.38,1.72,17,2.41,5.17.63,10.36,1,15.55,1.52Q291.26,41.82,289.51,54.63Z"/><path class="cls-12" d="M149.2,41.89c0,1.77,0,3.54,0,5.31L141,45.76c-.07,1.43-.21,2.72-.17,4q.81,27.85,1.69,55.71c.44,13.57,1,27.15,1.49,40.72.22,6.1.43,12.21.72,18.31.1,2.1-.26,3.83-2.77,4-2.28.13-4.32-.42-4.8-3.08a30.22,30.22,0,0,1-.51-5.19q0-56.37,0-112.72c0-5.38.28-5.63,5.81-5.64C144.71,41.86,147,41.88,149.2,41.89Z"/><path class="cls-13" d="M48.62,48.58c-9.75,3-19.49,6-29.26,8.92a12.48,12.48,0,0,1-2.95.15c-1.3-4.29-2.68-8.56-3.86-12.88-1.42-5.23.72-9.26,5.77-10.85s10-3.05,15-4.44c5.86-1.61,9.73.47,11.55,6.21C46.25,40,47.39,44.28,48.62,48.58Z"/><path class="cls-13" d="M293,29c-5.19-.5-10.38-.89-15.55-1.52-5.65-.69-11.27-1.59-17-2.41l-.35-3.45c.52-3.83.94-7.66,1.58-11.47.7-4.16,3.6-6.81,7.74-6.51,6.32.48,12.64,1.2,18.89,2.24,4.39.72,6.71,3.84,6.42,8.28C294.38,19.13,293.59,24.07,293,29Z"/><path class="cls-14" d="M178.68,24.18l-16.89.09V0c5.51,0,10.34-.11,15.15.11.72,0,2,1.55,2,2.39C179,9.75,178.79,17,178.68,24.18Z"/><path class="cls-15" d="M149.63,263.11c-.12-.47-.24-.94-.37-1.41.06-1.74.17-3.48.17-5.23q0-104.69,0-209.37c.42,1.42,1.21,2.84,1.21,4.26q.09,83.85.05,167.72c0,13.47,0,26.95-.05,40.43A13.23,13.23,0,0,1,149.63,263.11Z"/></g></g></svg>