<svg xmlns="http://www.w3.org/2000/svg" viewBox="0 0 5495.35 5670.45"><defs><style>.cls-1{fill:#ffd2d5;}.cls-2{fill:#abe9e8;}.cls-3{fill:#3ed9e6;}.cls-4{fill:#fc5f37;}.cls-5{fill:#e8e9e5;}.cls-6{fill:#4079b1;}.cls-7{fill:#a0dbdb;}.cls-8{fill:#f6adc1;}.cls-9{fill:#e55a9a;}.cls-10{fill:#df5630;}.cls-11{fill:#b66247;}.cls-12{fill:#c66950;}.cls-13{fill:#191515;}.cls-14{fill:#e2e4e0;}.cls-15{fill:#eff0ea;}.cls-16{fill:#373837;}.cls-17{fill:#2b2b2b;}.cls-18{fill:#3c6a9e;}.cls-19{fill:#97cdca;}.cls-20{fill:#cecdc5;}.cls-21{fill:#4680be;}.cls-22{fill:#ffd878;}.cls-23{fill:#01b0df;}.cls-24{fill:#f6dba4;}.cls-25{fill:#e9c989;}.cls-26{fill:#ff5ba6;}.cls-27{fill:#fa8069;}.cls-28{fill:#f1b92f;}.cls-29{fill:#e6bc01;}.cls-30{fill:#fff;}</style></defs><g id="Layer_2" data-name="Layer 2"><g id="Layer_1-2" data-name="Layer 1"><path class="cls-1" d="M2107.73,672c43.21-3.78,46.34-8.76,38.73-53.4-2.54-14.87-2.61-30.36-2.09-45.51.92-26.57-7.9-39.91-36.61-31.07-3.62,1.12-7.88.17-11.84.18q-1.89-39.48-3.79-79c44.25-1.69,44-1.67,40.55-46.07a402.06,402.06,0,0,1-1-49.57c1.68-35.47-18.7-41.14-47.39-36.71q-2.21-39.37-4.4-78.75c13.16-6.78,39.26,11.51,40-17.79.88-32.87-1.38-66-4.68-98.7-.58-5.77-12.3-12.37-20.07-14.87-6.87-2.22-15.42.75-23.23,1.42q.21-13.47.41-26.95c22.15-2.63,44.23-6.39,66.45-7.7,78.89-4.66,157.87-7.77,236.73-12.78,135.1-8.58,270.12-18.46,405.21-27.21,74.2-4.8,148.52-7.94,222.73-12.64,117.21-7.42,234.37-15.66,351.57-23.3,67.56-4.4,135.14-8.75,202.77-11.6,5.86-.24,17.13,10.69,17.58,17,7.71,107.23,14.08,214.57,20.77,321.88,6.65,106.64,13.14,213.3,20.07,319.93,3.58,54.94,8,109.84,12,164.75l-73,95.49q-10.26-56.48-20.54-112.93c-2.68-17-5.24-34.13-8.17-51.13-.54-3.1-2.63-5.93-4-8.89-2.22,2.2-5.35,4-6.5,6.65-7.1,16.4-13.75,33-20.55,49.52l-79.5,164.15c-1.32,4.31-3.22,8.54-3.89,13q-12.09,79.36-23.87,158.79L3340,1194.67l-168,8.2q-3.51-30.06-7-60.12,90.3-6,180.58-12.2c4.31-.3,12.19-2.63,12.16-3.88-.41-18.39,0-37.25-4.54-54.78-1-3.92-20.18-4.91-30.81-4.3-54.91,3.16-109.77,7.28-164.64,11.06l-41.85-372.19c-2.86-6.67-5.61-13.39-8.62-20q-34.44-75.78-69-151.53Q3026,506,3013.76,477q-7.2,30-14.39,60a7.76,7.76,0,0,0,0,2l-35.85,182.48c2.07,27.52,3.55,55.1,6.34,82.55,9.72,95.62,19.9,191.2,29.91,286.8L2875,1094.91q-10.95-53.76-21.91-107.53l-82-166c-8-16-16-31.94-24.21-47.81-1.41-2.73-3.83-4.95-5.78-7.4-1.3,2.86-3.34,5.61-3.78,8.6-2.61,17.68-4.85,35.41-7.22,53.13l-25.5,184.53q5.78,47.11,11.56,94.22l-163.66,8.45q23.46-111.87,46.95-223.72,68.87-324.89,137.89-649.75c4.68-22.05-5.82-37.51-25.59-42.72-32.57-8.59-66.09-13.59-99.21-20.1-79-17.37-158.06-34.48-237-52.26-28.12-6.34-44.41,6.1-50,31.8-34.2,158.44-67.4,317.1-101.36,475.59-23.22,108.41-47.14,216.68-70.75,325l-29.1,0q-2.1-37.9-4.19-75.81c29.42,1.06,46.54-8.89,40.33-42.42-2.74-14.81-3.56-30.09-3.94-45.19-1.1-43.51-.84-43.52-44.45-45Z"/><path class="cls-2" d="M1429.29,5668.64c-15.94.26-31.89.75-47.83.75q-342.51.07-685,0c-9.3,0-18.6-.62-27.9-.95,1.38-9.79,4-19.59,4-29.39q.3-854.73,0-1709.46c0-9.1-2.47-18.2-3.79-27.29l450.54-.56c-9.25,127.38-18.21,254.78-27.81,382.13q-21.07,279.63-42.84,559.2c-8.49,111.46-15.69,223-25.27,334.39-15.43,179.23,49.72,320.18,198.08,421.73C1283.78,5641.86,1354.83,5660.94,1429.29,5668.64Z"/><path class="cls-1" d="M1119.27,3901.73l-450.54.55c-65.93-.13-131.89.86-197.78-1-25.05-.7-31,7.38-31,31.57q1,854.16.53,1708.33c0,9.32.52,18.63.8,27.95q-70.53-.41-141.07-.81c1.53-9.75,4.38-19.5,4.38-29.25q.31-1129.19,0-2258.37c0-9.75-2.86-19.5-4.38-29.25,9.29-.39,18.58-1.12,27.87-1.12q416.13-.1,832.28-.07c-2.59,40.49-4.77,81-7.85,121.46Q1136.14,3686.76,1119.27,3901.73Z"/><path class="cls-3" d="M3837,640.58c71.85,55,144,109.59,215.48,165.12q322.47,250.64,644.49,501.85c29.38,22.88,31.46,41,8.26,70.84q-152.79,196.15-305.53,392.34l-59.92-8.09L4269.48,1742c11.93-27.23,5.58-48.68-19-65.84-18-12.54-34.76-26.84-52.13-40.29-22.82-17.66-53-18.1-75.38-1.18-23.58,17.83-29.94,43.67-17.92,72.86l-228.4-48.71c-16.78-18.87-36.79-21.51-59.25-11.76q-26.37-6.58-52.71-13.17l50.91-156.38c37.88,2.09,62.25-11.85,72.73-41.68,12.87-36.62-12.11-53-37.15-69.29,1.8-8.33,3.06-16.83,5.48-25,12.54-42.36,25.38-84.64,38.11-127l1.65-31.61Q4115,1352.8,4333.52,1522.63c58.92,45.81,59.16,46.14,105.15-13.66,23.77-30.9,46.2-62.83,69.24-94.3-3.13-5.31-5.05-12.17-9.57-15.7Q4162,1136.27,3824.75,874.78c-5.32-4.12-22.5-2.08-26.84,3.15-33.6,40.49-65.09,82.71-97.93,123.84-10.46,13.1-8.39,21.63,4.51,31.23,31,23.08,61.27,47.07,91.84,70.69q-22,33.21-44,66.42c-2.82,6.61-6.2,13-8.38,19.86q-48.27,151.08-96.26,302.25c-32.32,1.88-55.56,16.22-63.63,49-6.37,25.82,6,43.07,28.46,54.41l1.86,6.85-131.63-28.37,13-76.19c36.72,0,58.83-14.07,68.83-42.81,10.95-31.45-7.53-48.55-30.08-64.08-7.65-5.26-15-11-22.46-16.48q8-58,16-116c26.18,20.53,51.94,41.63,78.66,61.43,23.43,17.36,60.94,9.36,80.07-15.75,20.32-26.69,16.78-53.41-10-74.57-14.11-11.15-28.33-22.15-42.5-33.23-39.53-30.92-57.4-31.38-97.72-2.47.47-4,.89-7.91,1.4-11.85q12.69-97.62,25.41-195.24-1.34-13.58-2.66-27.15c3.72-3.66,7.9-7,11.08-11q102.26-131.13,204.41-262.36C3792.28,665.75,3805.1,640.3,3837,640.58Zm173.74,986.84c38.48-.63,61.59-13.76,67.91-41.73,3.47-15.37-.83-38.48-11-49.67-19.76-21.84-45.6-38.41-69.8-56-23-16.65-60.35-7.48-79.57,18.17-18.77,25-14.71,53.19,10.53,73,17.79,13.93,35.09,28.56,53.6,41.47C3993.33,1620.26,4006.14,1625.1,4010.72,1627.42Z"/><path class="cls-4" d="M987.78,1202.24q-3.12-9.48-6.23-18.94c14-3.36,28-6.31,41.73-10.45,2.89-.88,4.45-6.15,6.63-9.39-3.8-2.06-8.31-6.61-11.29-5.76-13.73,3.92-27,9.33-40.48,14.2L973.85,1158c14-3.58,28.19-6.87,42.06-11,2.69-.81,6.22-5.36,5.94-7.79-.33-2.84-5.48-7.91-6.71-7.42-14.63,5.82-28.92,12.5-43.31,19q-3-9.47-6-18.91c30-8.3,60-16.4,89.78-25.22,2.88-.85,4.44-6.15,6.62-9.38-4.17-1.78-9-5.91-12.41-5q-38.35,10.65-76.14,23.3c-3.89,1.3-6.37,6.85-9.5,10.43q-3.13-9.84-6.26-19.65c14.05-3.45,28.2-6.58,42.07-10.63,2.75-.8,6.36-5.29,6.15-7.81-.22-2.84-5.35-8.09-6.54-7.63-14.76,5.72-29.2,12.29-43.72,18.65q-2.93-9-5.84-18c14.06-3.39,28.21-6.47,42.1-10.47,2.74-.79,6.45-5.35,6.16-7.74-.35-2.84-5.58-7.91-6.88-7.39-14.6,5.74-28.85,12.37-43.2,18.77q-3.13-8-6.28-16c13.93-4.08,28.05-7.63,41.63-12.63,3.22-1.19,4.66-7.24,6.92-11.06-3.62-1.5-7.85-5-10.77-4.17-13.77,4.09-27.18,9.39-40.72,14.26l-4.86-15.21c30.45-8.27,60.93-16.41,91.25-25.14,2.51-.73,5.67-5.79,5.26-8.31-.45-2.75-5.59-7.45-7.15-6.9-30.56,10.65-60.89,21.95-91.27,33.11l-5.85-15.2c14-4.18,28.21-7.94,42-12.87,3-1.07,4.48-6.34,6.66-9.68-3.62-1.91-7.94-6.17-10.73-5.33-13.84,4.18-27.28,9.69-40.86,14.74q-2.62-8.06-5.23-16.08c14.07-2.9,28.25-5.38,42.09-9.12,2.92-.79,4.57-6.24,6.81-9.54-4.07-1.73-8.77-5.72-12.1-4.8-13.32,3.68-26.22,8.88-39.27,13.52q-2.52-7.32-5-14.61c14-3.19,28.23-5.94,42-10,2.94-.86,4.53-6.35,6.74-9.71-4.2-1.82-9.07-6-12.48-5-13.33,3.75-26.21,9.13-39.25,13.9q-2.72-6-5.42-12c29.1-8.86,58.3-17.43,87.18-26.94,4-1.33,6.55-7.27,9.77-11.07-4.33-1.47-9.36-5.16-12.9-4.07-29,9-57.66,18.82-86.44,28.41q-2.56-7.64-5.13-15.25c13.83-3,27.81-5.49,41.34-9.5,3.18-1,4.81-7.09,7.16-10.84-4.26-1.36-9.08-4.74-12.67-3.73-13.12,3.69-25.83,8.85-38.69,13.45L887.55,877c13.93-3.39,28-6.36,41.65-10.57,2.9-.9,4.39-6.38,6.53-9.75-4.23-1.74-9.06-5.75-12.57-4.81-13.28,3.57-26.14,8.74-39.16,13.32q-2.44-6.67-4.87-13.34c13.43-3.28,27-6,40.17-10.21,3.57-1.15,5.68-6.83,8.46-10.43-4.15-1.61-8.92-5.4-12.34-4.43-13.26,3.75-26.09,9-39.08,13.72q-1.94-6-3.86-12.07c29.24-8.27,58.56-16.28,87.6-25.18,3.52-1.08,5.57-6.93,8.3-10.56-4.27-1.52-9.22-5.27-12.7-4.2-29.08,8.89-57.9,18.66-86.79,28.17-10.61-32.88-21.95-65.55-31.3-98.78-2.3-8.18-.91-23.65,3.8-26.1,7.24-3.76,20.82-2.31,28.27,2.38,109.34,68.82,218.12,138.53,327,208q266.08,169.86,532.17,339.7c5,3.22,10.38,5.95,15.57,8.91,77.37,50,154.61,100.21,232.21,149.84,15.35,9.83,32.1,17.48,48.2,26.13,1.21,15.35,8.53,23.29,24.77,20.39q-1.11,7.1-2.21,14.19c-5.9,3.48-16.67,7-16.66,10.42,0,6.5,6.26,13,9.91,19.46l-24.42,116.15-87.74-52.92c-73.55-47.37-146.91-95-220.73-142-54.17-34.47-108.93-68-163.43-101.94-1.18-1.55-2-3.59-3.58-4.57q-196-125.42-392.27-250.23c-5.28-3.34-17.78-3.47-21,.16-4.57,5.12-6.68,16.1-4.58,23,33.5,109.4,67.84,218.55,102,327.75,25.16,81.82,50,163.73,75.63,245.42,8.86,28.29,19.55,56,29.4,84,.61,5.75.29,11.79,2,17.21q45.75,148.14,92.06,296.1c1.71,5.45,5.28,10.33,8,15.47,8.87,32.53,17,65.29,26.75,97.55,27.09,89.5,54.86,178.8,82.37,268.17l-71.9,92.68-49.4-75.67c12.67-4.06,25.59-7.5,37.88-12.48,4.84-2,8.3-7.34,12.39-11.17-6-1.21-12.38-4.44-17.81-3.23-14.23,3.16-28,8.27-42,12.6l-6.14-9,9.42-12.91-18.92-.67-5.9-9,17.74-13.69c-7.71-.74-15.41-1.55-23.13-2.15-1.22-.09-2.51.74-3.77,1.14l-4.65-8.22,23.31-17.66c-10,.46-20,.9-30,1.43a21.49,21.49,0,0,0-3.87.91l-5-8.51c22.13-7,44.44-13.56,66.24-21.46,5.12-1.85,8.55-8.36,12.76-12.73-5.59-.87-11.68-3.63-16.67-2.29-24.34,6.53-48.39,14.16-72.54,21.4q-2.74-4.15-5.51-8.31c9.44-3,19.29-5.16,28.15-9.37,4.51-2.15,7.25-8,10.79-12.21-4.9-1.16-10.17-4.07-14.64-3.14-11.59,2.41-22.84,6.51-34.22,9.94q-2.85-4.63-5.69-9.27c13.33-3.9,26.81-7.38,39.89-12,3.14-1.11,4.92-6,7.32-9.23-4-2.06-8.47-6.49-11.86-5.77-12.91,2.74-25.46,7.14-38.15,10.92l-4.86-.67h0l.39-8.8c13.3-3.9,26.75-7.36,39.77-12,3-1.06,4.43-6.31,6.58-9.64-3.61-1.82-7.74-5.81-10.74-5.09-13.41,3.24-26.5,7.82-39.7,11.91q-2-5.79-4.07-11.6c27.45-8.06,55-15.75,82.24-24.49,4.85-1.56,8.31-7.44,12.41-11.33-5.63-1.27-11.88-4.79-16.81-3.45-27,7.35-53.61,15.9-80.36,24l-5.49-9.72c12.73-3.66,25.65-6.78,38.06-11.31,3.71-1.35,6-6.61,8.94-10.08-4.78-1.7-10-5.57-14.26-4.69-12.29,2.54-24.18,7-36.23,10.7q-2-5-4.09-10c12.69-3.65,25.59-6.76,38-11.31,3.58-1.31,5.64-6.75,8.39-10.3-4.32-1.6-9.15-5.32-12.87-4.42-12.79,3.09-25.2,7.8-37.75,11.89q-2-6-4.06-12c13.3-3.62,26.81-6.68,39.77-11.26,3.17-1.12,4.57-7.25,6.79-11.08-3.72-1.23-7.84-4.16-11.09-3.4-12.81,3-25.35,7.13-38,10.85l-5.27-10.31c27.29-8,54.74-15.63,81.75-24.51,5.16-1.7,8.65-8.5,12.91-12.94-5.65-.78-11.84-3.44-16.85-2-27.43,7.82-54.57,16.65-81.81,25.13l-.27-11.39c11.92-3.64,24.08-6.67,35.61-11.28,3.41-1.36,5-7.18,7.5-10.95-4.21-1.3-8.86-4.46-12.54-3.57-12.71,3.07-25.08,7.56-37.58,11.51-.37-3.6-.75-7.2-1.12-10.8,11.93-3.76,24.1-6.95,35.65-11.66,3.43-1.39,5.13-7.05,7.63-10.75-4.28-1.33-9-4.52-12.77-3.64-12.8,3-25.25,7.43-37.84,11.31q-.4-5.07-.83-10.13c11.29-3.68,22.87-6.69,33.74-11.36,4.12-1.78,6.61-7.37,9.85-11.22-5-1.23-10.5-4.37-15-3.31-12.2,2.86-24,7.5-35.91,11.44l-.42-12.07c26.74-8.21,53.6-16,80.09-25,4.68-1.59,7.77-7.86,11.6-12-5.57-1-11.74-4.1-16.61-2.69-27.5,7.92-54.69,16.92-82,25.55l-1.29-11c11.36-3.62,23-6.56,33.93-11.2,4.1-1.73,6.54-7.4,9.74-11.27-5-1.12-10.36-4-14.84-3-12.22,2.82-24.06,7.3-36.05,11.12q-.57-5.49-1.13-11c11.4-3.52,23.08-6.39,34.08-10.91,4.25-1.74,7-7.23,10.38-11-4.72-1.46-9.8-4.83-14.09-4-11,2.1-21.69,6-32.51,9.25l-5.31-9.06c10.75-3.17,21.82-5.59,32.14-9.83,4.82-2,8.2-7.5,12.24-11.41-5.87-1.21-12-4.14-17.55-3.26-10.34,1.65-20.33,5.51-30.47,8.44l-4.62-9.27c27.28-8.42,54.69-16.47,81.72-25.64,4.42-1.5,7.17-7.92,10.69-12.07-5-1-10.47-4-14.79-2.76-27.5,7.82-54.74,16.56-82.07,25q-1.62-5.31-3.23-10.63c12.62-3.76,25.46-7,37.7-11.69,3.07-1.19,4.22-7.34,6.26-11.21-3.7-1.21-7.77-4.07-11-3.34-12.17,2.74-24.09,6.67-36.1,10.15l-4.94-9c10.85-3.23,22-5.72,32.41-10,4.84-2,8.25-7.46,12.3-11.36-6-1.16-12.23-4-17.86-3.11-10.43,1.72-20.49,5.67-30.7,8.69l-4.38-9.34c12-3.68,24.38-6.69,36-11.42,3.88-1.57,6-7.55,8.87-11.51-4.33-1.25-9.1-4.33-12.9-3.41-12.25,3-24.14,7.4-36.17,11.27l-3.48-11.25c27.28-8.19,54.67-16,81.7-24.94,4.54-1.49,7.52-7.69,11.23-11.72-5.47-1.09-11.5-4.25-16.31-2.94-26.82,7.33-53.35,15.74-80,23.78q-2.4-4.68-4.82-9.34c11.34-3.39,23-6,33.87-10.52,4.56-1.87,7.51-7.64,11.19-11.64-5.56-1-11.45-3.7-16.62-2.69-11,2.14-21.59,6.21-32.35,9.48l-3.87-10.39c12.76-3.64,25.73-6.72,38.13-11.33,3.15-1.17,4.5-7.2,6.67-11-3.65-1.37-7.72-4.53-10.89-3.81-12.27,2.8-24.26,6.84-36.35,10.42l-5.65-9.49c12.78-3.66,25.75-6.77,38.18-11.37,3.33-1.23,5-7,7.38-10.7-4.22-1.47-8.87-4.86-12.61-4.06-12.31,2.65-24.3,6.82-36.42,10.4q-2.22-4.89-4.43-9.8c27.25-8.25,54.6-16.15,81.62-25.07,4.79-1.59,8.15-7.46,12.17-11.35-5.42-1.31-11.48-4.87-16.17-3.55-27.43,7.72-54.55,16.59-81.76,25.07l-3.84-11.17c13.28-3.84,26.72-7.25,39.72-11.87,2.76-1,3.94-6.39,5.84-9.77-3.51-1.69-7.47-5.4-10.44-4.72-12.83,2.91-25.36,7.11-38,10.84q-2.65-4.73-5.29-9.45c12.61-3.66,25.41-6.79,37.72-11.29,3.61-1.32,5.82-6.49,8.67-9.9-4.71-1.75-9.88-5.69-14.06-4.83-12.18,2.51-24,6.93-35.91,10.61l-4.18-9.93c13.19-3.85,26.54-7.26,39.46-11.89,3-1.06,4.43-6.31,6.58-9.63-3.6-1.78-7.74-5.72-10.72-5-13.22,3.29-26.1,7.92-39.1,12.06q-2.19-5.94-4.39-11.88c28-8.18,56-16.06,83.74-24.86,4.33-1.37,7.32-7,10.93-10.59-5.29-1.5-11.22-5.37-15.76-4.13-27.46,7.48-54.62,16.13-81.87,24.39l-4.91-9.9c11.37-3.24,23-5.76,34-10,4.88-1.9,8.38-7.35,12.51-11.19-6-1.17-12.41-4.15-18.05-3.12-10.91,2-21.42,6.23-32.09,9.53l-4.51-11.26c12.18-3.18,24.6-5.69,36.4-9.91,4.2-1.51,6.9-7.2,10.29-11-4.8-1.44-10-4.82-14.31-3.93-11.65,2.4-22.93,6.63-34.35,10.13l-5.93-10.48c13.3-3.66,26.74-6.88,39.78-11.3,3.09-1.05,4.81-6.11,7.17-9.32-4-1.87-8.51-5.95-11.94-5.2-12.83,2.81-25.32,7.2-37.93,11l-4.78-10.48c28.46-8.45,57-16.58,85.25-25.73,3.89-1.25,6.13-7.56,9.14-11.53-4.39-1.23-9.36-4.45-13.07-3.36-28.51,8.3-56.78,17.44-85.12,26.32l-4.51-12c13.34-3.48,26.89-6.38,39.89-10.85,3.15-1.08,4.53-7.32,6.73-11.19-3.71-1.26-7.82-4.24-11-3.47-12.81,3-25.34,7.23-38,11l-5.56-10.27c13.21-3.59,26.63-6.61,39.52-11.13,3.36-1.18,5.07-7,7.55-10.75-4.27-1.53-9-5.09-12.71-4.23-12.72,3-25.08,7.47-37.58,11.39l-4.29-10.59c12.79-3.54,25.79-6.51,38.25-11,3.58-1.28,5.62-6.85,8.37-10.46-4.38-1.52-9.29-5.15-13-4.2-12.83,3.24-25.26,8.09-37.85,12.33l-4-13.14c28.75-8.18,57.62-16,86.14-24.94,3.84-1.2,6-7.89,8.87-12-5-.87-10.63-3.59-15-2.3-28.11,8.22-56,17.32-83.9,26.13l-3.94-11.8c13.34-3.61,26.87-6.66,39.86-11.25,3.25-1.15,4.74-7.26,7-11.09-3.83-1.41-8.18-4.75-11.41-3.89-13.37,3.54-26.41,8.36-39.57,12.7l-3.69-11.85c12.8-3.41,25.87-6.08,38.23-10.66,3.86-1.43,5.81-8,8.63-12.22-4.39-1.06-9.23-3.86-13.08-2.86-12.8,3.33-25.25,8-37.83,12.21q-2-6.2-3.94-12.4c12.69-3.26,25.64-5.82,37.93-10.22,3.88-1.38,6-7.68,8.93-11.74-4.38-1.11-9.2-4-13.06-3-12.75,3.21-25.15,7.8-37.68,11.85q-2-6.11-4-12.2c28.72-8.35,57.55-16.38,86-25.46,3.81-1.22,5.9-7.82,8.79-11.93-4.52-1-9.61-3.86-13.47-2.69-28.6,8.71-56.95,18.22-85.38,27.48l-4.13-13.85c13.9-3.49,27.95-6.53,41.58-10.86,2.71-.86,3.85-6.67,5.71-10.2-3.56-1.5-7.75-5-10.56-4.16-13.6,4.27-26.83,9.73-40.19,14.76l-4.3-14.41c13.34-3.47,26.88-6.36,39.88-10.83,3.23-1.1,4.72-7.27,7-11.12-3.81-1.29-8.12-4.43-11.34-3.55-13.35,3.63-26.36,8.47-39.49,12.86q-1.89-6.08-3.77-12.14c13.37-3.59,26.94-6.65,40-11.19,3.33-1.16,5-7,7.47-10.72-4.16-1.43-8.94-4.93-12.39-3.92-13.18,3.86-25.94,9.18-38.86,14q-2.26-7.53-4.52-15.06c29.85-8.3,59.75-16.41,89.44-25.24,2.92-.87,4.53-6.18,6.75-9.43-3.93-1.84-8.52-6-11.68-5.13q-39.16,11-77.76,24.05c-3.52,1.19-5.36,7.35-8,11.22l-6.38-20.05c13.36-3.58,26.85-6.72,39.94-11.07,3.2-1.06,5.91-5.77,7.19-9.39.53-1.5-4.28-6.85-5-6.54C1017,1188.63,1002.42,1195.49,987.78,1202.24Z"/><path class="cls-5" d="M5067.36,5381.38q-.31,120.87-.64,241.74c-22.63.33-45.26.94-67.9.94q-697.23.09-1394.47.07c-8,0-15.95.5-23.92.77a5.66,5.66,0,0,0,.2-2.24l-.48-240.21-.43-1.45c2,.2,4,.57,6,.57Q4326.52,5381.5,5067.36,5381.38Z"/><path class="cls-5" d="M5494.78,5053.14l.21,241c-12.65-.12-25.31-.32-38-.32q-724.56-.18-1449.13-.32-.06-119.94-.11-239.89,286.81,0,573.62-.1Q5038.09,5053.37,5494.78,5053.14Z"/><path class="cls-5" d="M265.35,5669l-136.59.41q0-1137.42.08-2274.85c33.31-.1,66.68,1,99.91-.67,27.56-1.41,36.66,8,36.63,36.66q-1.14,1104.26-.57,2208.49C264.81,5649.06,265.16,5659.05,265.35,5669Z"/><path class="cls-6" d="M1119.27,3901.73q16.67-215,33.25-430c3.08-40.45,5.26-81,7.85-121.46q2.19-14.09,4.36-28.18.24-5.84.47-11.66l19.53-252.27q.27-5.82.55-11.65,5.68-60.15,11.35-120.31c1,.05,2.09.06,3.13.05q12.69,38.17,25.39,76.35c-2.65,9.58-4.65,19.4-8.07,28.7-7.24,19.66-11.91,38.58,7.68,54.29-12.07,78.48-26,156.74-35.6,235.53-7.21,59.12-8.6,118.95-13.06,178.42-6.29,83.88-13.14,167.72-19.51,251.59-4.36,57.48-8.12,115-12.5,172.5-6.34,83.21-13.12,166.38-19.49,249.59-4.35,56.82-8.17,113.68-12.52,170.49-6.37,83.21-13.14,166.39-19.46,249.6-4.42,58.14-8.13,116.34-12.59,174.49-6.27,81.88-13.12,163.71-19.4,245.6-4.45,58.14-8.69,116.3-12.3,174.5-.79,12.69-2.34,27.54,3,38,19.94,38.81,38.43,79.5,65.06,113.54,82.43,105.34,192.94,164.25,326.49,165.24,371.06,2.74,742.14.95,1113.22.94.28,44.84.07,89.69,1.27,134.5.24,8.77,6,17.39,9.18,26.08l1.08,1.29c-9.26.56-18.52,1.6-27.78,1.6q-555.3-.15-1110.6-.49c-74.46-7.7-145.51-26.78-207.86-69.46-148.36-101.55-213.51-242.5-198.08-421.73,9.58-111.36,16.78-222.93,25.27-334.39q21.32-279.6,42.84-559.2C1101.06,4156.51,1110,4029.11,1119.27,3901.73Z"/><path class="cls-7" d="M4339.76,1762.64l59.92,8.09c39.18,9.45,78.12,20.08,117.63,27.84,20.68,4.07,25.11,12,20.67,32.31Q4427.45,2336,4318.15,2841.31c-1.27,5.82-1.9,11.77-2.83,17.66l-28.2,117.14q-73.2-156.89-146.39-313.76c2.36-4.5,5.88-8.74,6.93-13.52q51.27-235.1,102.1-470.28Q4294.81,1970.61,4339.76,1762.64Z"/><path class="cls-8" d="M265.35,5669c-.19-10-.54-20-.54-30q0-1104.24.57-2208.49c0-28.68-9.07-38.07-36.63-36.66-33.23,1.69-66.6.57-99.91.66l-16.11.05H100.91l-16.19,0-15.79,0-16.22,3.06c-3.92,9.95-11.26,19.88-11.27,29.83q-.8,1105.84-.51,2211.7c0,10-.43,20-.66,29.94-32,5.57-40.31-8-40.27-39.66q1.29-1122.45.16-2244.9c0-26.49,8.28-35,34.26-34.58,88.58,1.41,177.2,1.06,265.8,1.39,1.52,9.76,4.38,19.51,4.38,29.26q.31,1129.18,0,2258.37c0,9.75-2.85,19.5-4.38,29.25Q282.79,5668.67,265.35,5669Z"/><path class="cls-9" d="M1328,2307.43q2.83,4.64,5.69,9.26,5,7.38,9.92,14.79l5.52,8.3,10.2,15.09q2.52,4.26,5,8.51l10.5,15.32q2.33,4.11,4.66,8.22l9.15,14.7,5.9,9,9.5,13.58,6.14,9q4.78,7.14,9.54,14.29l49.4,75.66c-23.42,36.87-49,72.58-69.8,110.86-43.36,79.67-84.23,160.71-126.13,241.19-6.48-10.07-12.83-20.23-19.47-30.19Q1183.4,2739.64,1113,2634.33q-70.86-109.23-141.68-218.49c-4.26-6.59-7.66-13.74-11.46-20.64l293.59-193.09c7.53,9.87,15.1,19.7,22.58,29.61q22.18,29.43,44.29,59h0q2.07,6.09,4.15,12.16Z"/><path class="cls-5" d="M641.31,5669.05l-92.58.51-.09-1735.18c20-.12,40.14,1.28,59.93-.75,25.37-2.6,32.8,6.09,32.77,32q-1.11,836.71-.54,1673.43C640.8,5649.07,641.13,5659.06,641.31,5669.05Z"/><path class="cls-7" d="M641.31,5669.05c-.18-10-.51-20-.51-30q0-836.71.54-1673.43c0-25.93-7.4-34.62-32.77-32-19.79,2-39.94.63-59.93.74l-11.79,0-12.17-.15h-20c-28.31-4.82-36.33,7.2-36.29,35.31q1.08,834.88.51,1669.75c0,10-.4,20-.61,29.94l-27-.08c-.28-9.32-.8-18.63-.8-27.95q-.06-854.16-.53-1708.33c0-24.19,5.94-32.27,31-31.57,65.89,1.82,131.85.83,197.78,1,1.32,9.1,3.79,18.2,3.79,27.3q.29,854.73,0,1709.46c0,9.8-2.58,19.6-4,29.39Z"/><path class="cls-10" d="M2566.59,5666.24c-3.2-8.69-8.94-17.31-9.18-26.08-1.2-44.81-1-89.66-1.27-134.5.29-45.28,1.63-90.59.43-135.84-.63-23.91,6.54-32.77,31.72-32.64,134.55.74,269.12-.14,403.68-.46,10.61.33,21.22.94,31.83,1q278.14.52,556.27.94-.18,21.18-.35,42.38l.44,1.45a50.21,50.21,0,0,0-5.95-.69q-472.76-.11-945.51-.28c-18.07,0-25,7.79-24.84,25.4.42,57.3.18,114.61.1,171.91-.06,45.19.16,45.52,45.33,45.52q453.77,0,907.53-.06c7.94,0,15.87-1,23.81-1.6a5.7,5.7,0,0,1-.2,2.25c5.7,33.8-7.78,41.88-41.9,41.71-312.5-1.59-625-.95-937.51-.85-7.86,0-15.72,1.32-23.59,2l-10.18-.75Z"/><path class="cls-11" d="M908.82,1962.68c-41.1-135-82.34-270-122.77-405.15-1.57-5.25,3.13-17.29,7.28-18.6,62.17-19.49,124.75-37.7,187.23-56.22q71.09,236.13,142,472.33c5.81,19.47,8.7,39.8,13,59.74-15.87-23.47-31.9-46.83-47.58-70.42-24-36.08-28.39-37.29-66.35-16.8-14.85-18.35-31.79-15.34-49.24-4.57C951.06,1936.09,930,1949.44,908.82,1962.68Z"/><path class="cls-2" d="M5494.78,5053.14q-456.69.2-913.38.38-286.82.1-573.62.1l-.48-.76,4.41-45.28c9.94-.3,19.88-.85,29.82-.87q209.1-.39,418.19-.66l26.62-.42,963.24.48C5496,5006.13,5496.79,5006.94,5494.78,5053.14Z"/><path class="cls-4" d="M2577.43,5667.78c7.87-.7,15.73-2,23.59-2,312.5-.1,625-.74,937.51.85,34.12.17,47.6-7.91,41.9-41.71,8-.27,16-.77,23.92-.77q697.23,0,1394.47-.07c22.64,0,45.27-.61,67.9-.94,4.22,43.62,2.21,45.89-40.58,45.89q-1212.41-.09-2424.82-.24C2593.36,5668.77,2585.4,5668.13,2577.43,5667.78Z"/><path class="cls-12" d="M1135.47,2014.78c-4.25-19.94-7.14-40.27-13-59.74q-70.51-236.31-142-472.33l84.21-29.1q2.18,5.69,4.34,11.36l4.29,10.59q1.62,7.35,3.22,14.72l5.56,10.27q1.21,7.25,2.41,14.51l4.51,12q1.9,7.15,3.8,14.3,2.38,5.25,4.78,10.48,1.47,7.41,2.92,14.83l5.93,10.48q1,7.33,2,14.69l4.51,11.26,3.66,14.82,4.91,9.9q1.49,7.59,3,15.19,2.2,5.94,4.39,11.88l3.78,14.44q2.08,5,4.18,9.92,1.78,7.71,3.58,15.42,2.64,4.72,5.29,9.44l2.88,15.53,3.84,11.17,4.14,14.9q2.22,4.9,4.43,9.8,1.74,7.86,3.47,15.73l5.65,9.49q1.23,7.86,2.44,15.72l3.87,10.39,3.91,15.37,4.83,9.33q1.68,7.92,3.35,15.83l3.48,11.25q2.1,7.53,4.19,15.07,2.19,4.66,4.39,9.34l3.84,15.79,5,9q1.59,8.06,3.17,16.1,1.62,5.33,3.23,10.63,2.23,7.74,4.45,15.47,2.31,4.64,4.63,9.27l3.63,16.06q2.65,4.53,5.32,9.06l2.13,16.7q.55,5.49,1.13,11,3.6,7.19,7.22,14.37l1.29,11,6.9,14.11.42,12.07,7.31,14.45q.42,5.05.83,10.13,3.68,7.37,7.33,14.74c.37,3.6.75,7.2,1.12,10.79q3.51,7.14,7,14.3l.27,11.39q2,7.17,4,14.33l5.27,10.3,2.52,14.9q2,6,4.06,12,2.13,7.07,4.28,14.14,2,5,4.09,10,1.76,7.69,3.49,15.38l5.49,9.72,2.52,15.24q2,5.81,4.07,11.6,2.06,7.44,4.09,14.86l-.39,8.8q-22.14-29.49-44.29-59c-7.48-9.91-15-19.74-22.58-29.61-3.5-7-6.38-14.37-10.58-20.91Q1189.36,2097.86,1135.47,2014.78Z"/><path class="cls-4" d="M3579.72,5381q.18-21.19.35-42.38c17.24-.29,34.48-.77,51.71-.82q188.15-.53,376.29-.9c8.65.27,17.29.78,25.93.78q499.8.06,999.6.08c9.31,0,18.62.63,27.93,1q2.91,21.33,5.83,42.66-740.85.1-1481.69.19C3583.69,5381.57,3581.7,5381.2,3579.72,5381Z"/><path class="cls-2" d="M5061.53,5338.72c-9.31-.33-18.62-1-27.93-1q-499.8-.08-999.6-.08c-8.64,0-17.28-.51-25.93-.78l-.63-42.69.45-.7q724.56.15,1449.13.32c12.66,0,25.32.2,38,.32,1.19,43.7,1.19,43.63-43.14,43.71Q5256.7,5338.25,5061.53,5338.72Z"/><path class="cls-5" d="M468.29,5669.25c.21-10,.61-20,.61-29.94q0-834.87-.51-1669.75c0-28.11,8-40.13,36.29-35.31q0,867.6.08,1735.21Z"/><path class="cls-6" d="M4486.34,5005.62l-26.62.43q-4-51.53-7.9-103.06-14-186.36-28-372.72-11.91-157.61-24-315.19-14-184.36-28-368.72c-6.62-87.22-13.06-174.46-19.94-261.66-9.19-116.25-17.48-232.6-28.75-348.65-4.24-43.76-15.74-86.82-23.93-130.2,17.54-11.73,20.44-27.22,13.83-46.65-9.35-27.45-17.34-55.36-25.9-83.08l28.2-117.15c13.35,141.65,28.32,283.16,39.72,425,22.2,276.06,42.42,552.28,63.39,828.44.55,7.28.37,14.62.54,21.93l.51,11.58c9.29,116.09,18.82,232.17,27.82,348.29q18,232,35.3,464C4483.8,4974,4485.09,4989.8,4486.34,5005.62Z"/><path class="cls-13" d="M1135.47,2014.78q53.74,83.17,107.38,166.42c4.2,6.54,7.08,13.92,10.58,20.91L959.84,2395.2Q884,2281.08,808.13,2167c-7.33-11-14.53-22.17-21.71-33.31-19.62-30.41-17.76-39.33,12.3-59.66l222.82-146.42c38-20.49,42.37-19.28,66.35,16.8C1103.57,1968,1119.6,1991.31,1135.47,2014.78Zm-89.81-46.69c-8.71,3.08-14.84,4-19.58,7.12-61.82,40.34-123.74,80.55-184.7,122.16-6.39,4.36-12.39,20.88-9.24,25.88q62.7,99.51,129.11,196.64c3.7,5.41,21.43,7.79,27.78,3.82,62.56-39.14,124-80.13,186-120.12,15.69-10.11,17.91-21.93,8.18-36.88-40.28-61.84-80.49-123.74-121.23-185.29C1058.15,1975.65,1050.82,1972.2,1045.66,1968.09Z"/><path class="cls-12" d="M2024.84,1426.76c-16.1-8.65-32.85-16.3-48.2-26.13-77.6-49.63-154.84-99.84-232.21-149.84l315.87-95.94q2,24.15,4,48.3c-12.43,1.18-25.22,1-37.13,4.15-5.49,1.46-13.83,10.89-12.8,14.16,1.92,6.1,9.19,13.58,15.24,14.63,11.38,2,23.49-.22,35.29-.68l1.5,12.23c-11.74,1.11-24,.62-35,4-6,1.81-9.87,10.25-14.7,15.71,5.47,4.82,10.46,12.89,16.5,13.77,11.45,1.66,23.51-.8,35.31-1.54l4.35,58.79q-8.19,38.33-16.37,76.65Z"/><path class="cls-14" d="M112.73,3394.64l16.11-.06q0,1137.43-.08,2274.86l-15.86.06Q112.81,4532.07,112.73,3394.64Z"/><path class="cls-14" d="M84.72,3394.66l16.19,0q-.09,1137.42-.17,2274.87H84.89Q84.82,4532.08,84.72,3394.66Z"/><path class="cls-15" d="M84.72,3394.66q.09,1137.42.17,2274.86l-16.15,0q.11-1137.39.19-2274.8Z"/><path class="cls-14" d="M68.93,3394.7q-.09,1137.41-.19,2274.8L53,5669.44c0-11.32-.11-22.64-.12-34l-.12-2237.72Z"/><path class="cls-15" d="M100.74,5669.51q.08-1137.43.17-2274.87h11.82q.08,1137.44.17,2274.87Z"/><path class="cls-15" d="M52.71,3397.76l.12,2237.72c0,11.32.08,22.64.12,34l-12.68-.2c.23-10,.65-20,.66-29.95q0-1105.84.51-2211.7C41.45,3417.64,48.79,3407.71,52.71,3397.76Z"/><path class="cls-5" d="M512.76,3934.26h11.92q0,849.87.22,1699.74c0,11.8,2.51,23.61,3.85,35.41l-16.08.07Z"/><path class="cls-15" d="M536.85,3934.4l11.79,0,.09,1735.19-12.12-.08Z"/><path class="cls-14" d="M536.85,3934.4l-.24,1735.08-7.86-.08c-1.34-11.8-3.85-23.61-3.85-35.41q-.31-849.87-.22-1699.74Z"/><path class="cls-11" d="M1113,2634.33q70.38,105.33,140.74,210.68c6.64,10,13,20.12,19.47,30.18q-24,63.72-48,127.45-12.69-38.19-25.39-76.36-1.29-3.72-2.59-7.42-41-137.45-82-274.9C1114.24,2640.81,1113.71,2637.54,1113,2634.33Z"/><path class="cls-14" d="M512.76,3934.26l-.09,1735.21h-7.91q0-867.61-.08-1735.21Z"/><path class="cls-2" d="M3837,640.58c-31.88-.28-44.7,25.17-60.74,45.68q-102.45,131-204.41,262.36c-3.18,4.09-7.36,7.39-11.08,11q-2.79-20.31-5.57-40.6l73-95.49c46.75-59.13,93.73-118.09,140.15-177.48C3790.45,617.81,3816.79,615.25,3837,640.58Z"/><path class="cls-9" d="M1021.54,1927.56,798.72,2074c-6.55-26.61,4.66-43.13,27.68-56.53,28.46-16.57,55-36.37,82.42-54.77,21.15-13.24,42.24-26.59,63.48-39.69C989.75,1912.22,1006.69,1909.21,1021.54,1927.56Z"/><path class="cls-8" d="M2092.13,463.22q1.89,39.5,3.79,79c-18.9,2.18-45.8-6.34-39.51,29.53l-32.51,2.38c-2.42-39.77-4.18-79.61-8.09-119.24-.5-5.05-12.21-9-18.75-13.44l50.57-2.76C2046,476.67,2075.1,459,2092.13,463.22Z"/><path class="cls-8" d="M2120.14,883.08q2.1,37.9,4.19,75.8c-5.55,1.22-11.18,3.76-16.63,3.41-21.46-1.41-30.35,7.92-26.89,29.1l-32.62,2.44q-4-66.15-8-132.3c.19-.81.41-1.64.63-2.45l31.28-.44C2074.64,893.25,2101.19,880.68,2120.14,883.08Z"/><path class="cls-8" d="M2107.73,672l4.35,78.48c-15.95,8.34-50.29-8.54-43.14,31.46l-32.62,1.46-7.17-132.95,31-2.48C2059,689.68,2089.2,669.29,2107.73,672Z"/><path class="cls-8" d="M2079.86,252.12q2.2,39.38,4.4,78.75c-17,6.74-48.11-6-43,31.19L2012,363.64l-7.53-132.53,31.39-3.12C2032.64,268.64,2060.64,252.37,2079.86,252.12Z"/><path class="cls-8" d="M2064.31,1203.15q-2-24.15-4-48.3-1.68-42.33-3.37-84.67l30.86-2.72c-2.71,30.72,16.78,28.25,37,24.74q-8.22,41.08-16.45,82.17-5.79,13.67-11.59,27.33Z"/><path class="cls-16" d="M2060.16,648l-31,2.48c-11.27.28-22.88,2.3-33.69.2-6.7-1.3-12.2-8.85-18.24-13.59,5.57-5.3,10.71-14.58,16.78-15.24,31-3.36,62.19-5.12,93.35-5.78,5.32-.11,10.8,7.89,16.21,12.14-4.55,5.77-8,14.4-13.91,16.64C2080.7,648.2,2070.08,647.14,2060.16,648Z"/><path class="cls-16" d="M2035.83,228l-31.38,3.12c-11.89.25-24.11,2.24-35.55.09-6.49-1.23-11.7-9.24-17.49-14.2,5.06-5,9.32-12.73,15.34-14.52,10.56-3.14,22.2-2.65,33.38-3.69l32.92-1.39,7.28-.25,20.08-1.81L2077,211.1c-5.27,5-9.76,12.09-16,14.47C2053.41,228.46,2044.29,227.36,2035.83,228Z"/><path class="cls-16" d="M2080.81,991.39c10.57-.19,21.52-2.09,31.57.11,5.59,1.22,12.07,8.69,13.53,14.5.84,3.36-7,12.33-11.79,13.08-22.1,3.44-44.52,4.87-66.82,7-9.22.16-18.9,2.13-27.51-.09-7.07-1.82-12.87-8.63-19.23-13.22,6-5.74,11.08-14,18.22-16.58,8.92-3.23,19.53-1.8,29.41-2.38Z"/><path class="cls-16" d="M2047.63,438.67l-50.57,2.76c-5.27.22-11.6,2.39-15.6.23-6.54-3.54-11.56-9.89-17.22-15.06,5.06-5.13,9.73-14.2,15.24-14.74,30.9-3,62-4.73,93-4.91,5.89,0,11.83,8.8,17.75,13.55-5.72,5-10.71,11.82-17.37,14.53C2065.25,438.14,2056.12,437.62,2047.63,438.67Z"/><path class="cls-16" d="M2052.26,1037.79c16.43-.6,33.19.68,49.2-2.21,25.17-4.54,31.55,5.92,27.15,28.25l-40.82,3.63-30.86,2.72c-11.88.29-24,2-35.56.29-6.29-.94-11.69-7.8-17.5-12,5-5.87,8.85-14.78,15.08-16.93C2029.26,1038,2041.08,1038.81,2052.26,1037.79Z"/><path class="cls-16" d="M2012,363.64l29.25-1.58,23-.48,23.27,2.75c5.07,21.87-4,28.05-25.59,27.68-27-.47-54.1,4.26-81.18,4.66-6.38.09-16.25-6.81-18.66-12.83-5.65-14.13,3.31-18.3,16.52-17.16,5.86.5,11.87-.75,17.81-1.2l5.46-1Z"/><path class="cls-16" d="M1989.82,186.58c-9.19.24-18.66,1.93-27.45.17-5.18-1-13.51-8.32-12.95-11.44,1.18-6.54,6.2-15.76,11.64-17.45,11-3.43,23.3-2.58,35.07-3.49l41.27-2.32c4.65-.15,9.29-.23,13.93-.47,11.65-.62,26.9-4.17,22.47,15.3-1.4,6.14-12.52,11.26-20.2,14.41-6.45,2.65-14.36,1.76-21.62,2.44Z"/><path class="cls-16" d="M2072.05,858.64l-31.28.44-36.87,3.2c-4.74-7.12-10.06-14-13.49-21.67-.42-.94,8.92-8.27,14.38-9.33,9.58-1.86,19.66-1.16,29.5-1.53l35.89-2.94c8.52-.24,17.49-2.25,25.43-.22,7.51,1.93,18,6.69,20.07,12.68,6.24,17.77-8.62,15.55-19.22,16.33l-23.59,2.49Z"/><path class="cls-16" d="M2036.32,783.4l32.62-1.46,19.45-.67,13.08-1.33q4.64,13.65,9.29,27.31l-1.54.08-.66,1.38-32.76,2.57-34,3.29c-11.91.69-24,3-35.63,1.45-6.53-.86-12.23-8-18.31-12.28,5-5.71,8.93-14.38,15.12-16.47C2013.38,783.77,2025.15,784.47,2036.32,783.4Z"/><path class="cls-16" d="M2023.9,574.11l32.51-2.38c9.2-.24,18.83-2.28,27.43-.14,6.28,1.56,11.18,8.62,16.7,13.23-4.93,5.25-9.18,13.94-14.92,15.08-15.36,3-31.36,2.83-47.07,3.92l-5,.26-8.52.54-12.22.72-17.35,1.14-17.35.42q.11-14.5.21-29L2006,576Z"/><path class="cls-8" d="M2037.4,152.05l-41.27,2.32c3.24-59.28,3.24-59.28,64.24-59.43,4,0,8,.19,12,.29q-.21,13.47-.41,27c-9.27.38-18.84-.51-27.69,1.61-5.55,1.32-13.12,6.5-14.12,11.16C2029.05,139.91,2034.69,146.29,2037.4,152.05Z"/><path class="cls-17" d="M1025.24,1324.35c28.43-9.26,56.78-18.77,85.38-27.48,3.86-1.17,9,1.7,13.47,2.69-2.89,4.11-5,10.71-8.79,11.93-28.48,9.08-57.31,17.11-86,25.46C1027.93,1332.74,1026.58,1328.55,1025.24,1324.35Z"/><path class="cls-17" d="M899.93,916.63c28.78-9.59,57.47-19.44,86.44-28.41,3.54-1.09,8.57,2.6,12.9,4.07-3.22,3.8-5.73,9.74-9.77,11.07-28.88,9.51-58.08,18.08-87.18,26.94Q901.12,923.46,899.93,916.63Z"/><path class="cls-17" d="M1056.85,1425.38c27.94-8.81,55.79-17.91,83.9-26.13,4.41-1.29,10,1.43,15,2.3-2.91,4.15-5,10.84-8.87,12-28.52,8.93-57.39,16.76-86.14,24.94Z"/><path class="cls-17" d="M868.89,816.63c28.89-9.51,57.71-19.28,86.79-28.17,3.48-1.07,8.43,2.68,12.7,4.2-2.73,3.63-4.78,9.48-8.3,10.56-29,8.9-58.36,16.91-87.6,25.18Q870.68,822.51,868.89,816.63Z"/><path class="cls-17" d="M932.22,1022.05c30.38-11.16,60.71-22.46,91.27-33.11,1.56-.55,6.7,4.15,7.15,6.9.41,2.52-2.75,7.58-5.26,8.31-30.32,8.73-60.8,16.87-91.25,25.14Q933.17,1025.66,932.22,1022.05Z"/><path class="cls-17" d="M996.11,1229.38c2.61-3.87,4.45-10,8-11.22q38.53-13,77.76-24.05c3.16-.89,7.75,3.29,11.68,5.13-2.22,3.25-3.83,8.56-6.75,9.43-29.69,8.83-59.59,16.94-89.44,25.24C996.92,1232.4,996.52,1230.89,996.11,1229.38Z"/><path class="cls-17" d="M964.17,1125.92c3.13-3.58,5.61-9.13,9.5-10.43q37.76-12.62,76.14-23.3c3.41-1,8.24,3.18,12.41,5-2.18,3.23-3.74,8.53-6.62,9.38-29.8,8.82-59.82,16.92-89.78,25.22C965.26,1129.8,964.72,1127.86,964.17,1125.92Z"/><path class="cls-16" d="M939,1044.5c13.54-4.87,27-10.17,40.72-14.26,2.92-.87,7.15,2.67,10.77,4.17-2.26,3.82-3.7,9.87-6.92,11.06-13.58,5-27.7,8.55-41.63,12.63Z"/><path class="cls-16" d="M891.94,890.76c12.86-4.6,25.57-9.76,38.69-13.45,3.59-1,8.41,2.37,12.67,3.73-2.35,3.75-4,9.89-7.16,10.84-13.53,4-27.51,6.49-41.34,9.5Q893.35,896.06,891.94,890.76Z"/><path class="cls-16" d="M978.14,1171.9c13.45-4.87,26.75-10.28,40.48-14.2,3-.85,7.49,3.7,11.29,5.76-2.18,3.24-3.74,8.51-6.63,9.39-13.71,4.14-27.78,7.09-41.73,10.45-.51-1.8-1-3.6-1.5-5.38q-.81-2.34-1.63-4.69Z"/><path class="cls-16" d="M884,865.16c13-4.58,25.88-9.75,39.16-13.32,3.51-.94,8.34,3.07,12.57,4.81-2.14,3.37-3.63,8.85-6.53,9.75-13.66,4.21-27.72,7.18-41.65,10.57Z"/><path class="cls-16" d="M907.74,942.25c13-4.77,25.92-10.15,39.25-13.9,3.41-1,8.28,3.23,12.48,5-2.21,3.36-3.8,8.85-6.74,9.71-13.8,4-28,6.78-42,10C909.7,949.45,908.72,945.85,907.74,942.25Z"/><path class="cls-16" d="M1041.09,1374.67c12.58-4.18,25-8.88,37.83-12.21,3.85-1,8.69,1.8,13.08,2.86-2.82,4.21-4.77,10.79-8.63,12.22-12.36,4.58-25.43,7.25-38.23,10.66Z"/><path class="cls-16" d="M1048.83,1400.05c13.16-4.34,26.2-9.16,39.57-12.7,3.23-.86,7.58,2.48,11.41,3.89-2.3,3.83-3.79,9.94-7,11.09-13,4.59-26.52,7.64-39.86,11.25Z"/><path class="cls-17" d="M1001.85,1249c12.92-4.77,25.68-10.09,38.86-14,3.45-1,8.23,2.49,12.39,3.92-2.44,3.7-4.14,9.56-7.47,10.72-13,4.54-26.61,7.6-40,11.19C1004.38,1256.88,1003.11,1252.93,1001.85,1249Z"/><path class="cls-16" d="M923.41,993.71c13.58-5.05,27-10.56,40.86-14.74,2.79-.84,7.11,3.42,10.73,5.33-2.18,3.34-3.67,8.61-6.66,9.68-13.76,4.93-27.93,8.69-42,12.87C925.38,1002.46,924.4,998.09,923.41,993.71Z"/><path class="cls-17" d="M971.83,1150.66c14.39-6.46,28.68-13.14,43.31-19,1.23-.49,6.38,4.58,6.71,7.42.28,2.43-3.25,7-5.94,7.79-13.87,4.18-28,7.47-42.06,11C973.18,1155.52,972.5,1153.09,971.83,1150.66Z"/><path class="cls-17" d="M955.87,1098.85c14.52-6.36,29-12.93,43.72-18.65,1.19-.46,6.32,4.79,6.54,7.63.21,2.52-3.4,7-6.15,7.81-13.87,4-28,7.18-42.07,10.63C957.23,1103.78,956.55,1101.32,955.87,1098.85Z"/><path class="cls-17" d="M948.21,1074.05c14.35-6.4,28.6-13,43.2-18.77,1.3-.52,6.53,4.55,6.88,7.39.29,2.39-3.42,6.95-6.16,7.74-13.89,4-28,7.08-42.1,10.47C949.42,1078.59,948.81,1076.32,948.21,1074.05Z"/><path class="cls-17" d="M915.71,967.69c13-4.64,25.95-9.84,39.27-13.52,3.33-.92,8,3.07,12.1,4.8-2.24,3.3-3.89,8.75-6.81,9.54-13.84,3.74-28,6.22-42.09,9.12Q916.94,972.64,915.71,967.69Z"/><path class="cls-17" d="M1033.27,1349.15c12.53-4.05,24.93-8.64,37.68-11.85,3.86-1,8.68,1.9,13.06,3-2.93,4.06-5,10.36-8.93,11.74-12.29,4.4-25.24,7-37.93,10.22Q1035.2,1355.72,1033.27,1349.15Z"/><path class="cls-17" d="M1017.65,1300c13.36-5,26.59-10.49,40.19-14.76,2.81-.88,7,2.66,10.56,4.16-1.86,3.53-3,9.34-5.71,10.2-13.63,4.33-27.68,7.37-41.58,10.86q-.71-2.34-1.4-4.68c-.53-1.29-1.06-2.6-1.59-3.91Z"/><path class="cls-17" d="M876.34,840.47c13-4.7,25.82-10,39.08-13.72,3.42-1,8.19,2.82,12.34,4.43-2.78,3.6-4.89,9.28-8.46,10.43-13.13,4.21-26.74,6.93-40.17,10.21Z"/><path class="cls-17" d="M987.78,1202.24c14.64-6.75,29.24-13.61,44.07-19.91.73-.31,5.54,5,5,6.54-1.28,3.62-4,8.33-7.19,9.39-13.09,4.35-26.58,7.49-39.94,11.07C989.08,1207,988.43,1204.6,987.78,1202.24Z"/><path class="cls-17" d="M1069.11,1465q-2.17-5.67-4.34-11.36l.06-1.95c12.59-4.23,25-9.08,37.85-12.32,3.76-.95,8.67,2.68,13,4.2-2.75,3.61-4.79,9.18-8.37,10.46C1094.9,1458.46,1081.9,1461.43,1069.11,1465Z"/><path class="cls-17" d="M1009.42,1273c13.13-4.39,26.14-9.23,39.49-12.86,3.22-.88,7.53,2.26,11.34,3.55-2.3,3.85-3.79,10-7,11.12-13,4.47-26.54,7.36-39.88,10.83Z"/><path class="cls-8" d="M1989.82,186.58l42.16-2.85q.54,6.83,1.07,13.67l-32.92,1.39Z"/><path class="cls-18" d="M1978.12,606.9l17.35-.42Z"/><path class="cls-19" d="M2003.9,862.28l36.87-3.2c-.22.81-.44,1.64-.63,2.45Z"/><path class="cls-18" d="M2006,576l-27.7,1.91Q1992.21,576.94,2006,576Z"/><path class="cls-20" d="M2087.47,364.33l-23.27-2.75Z"/><path class="cls-21" d="M4419.48,4145.89l-.51-11.58Z"/><path class="cls-21" d="M1165.2,3310.46q-.24,5.82-.47,11.66Q1165,3316.29,1165.2,3310.46Z"/><path class="cls-21" d="M1185.28,3046.54q-.27,5.82-.55,11.65Q1185,3052.37,1185.28,3046.54Z"/><path class="cls-18" d="M2012.82,605.34l12.22-.72Z"/><path class="cls-21" d="M1197.17,2918.86q1.3,3.7,2.59,7.42c-1,0-2.09,0-3.13-.05Z"/><path class="cls-18" d="M2033.56,604.08l5-.26Z"/><path class="cls-4" d="M978.42,1173.23q.83,2.36,1.63,4.69Q979.23,1175.56,978.42,1173.23Z"/><path class="cls-8" d="M2001.83,364.44l-5.46,1Z"/><path class="cls-4" d="M1018.12,1301.91c.53,1.31,1.06,2.62,1.59,3.91Z"/><path class="cls-4" d="M2566.59,5666.24l.66.79.41.5Z"/><path class="cls-22" d="M2131.34,1066.87l22.08-108c23.62-108.33,47.54-216.6,70.76-325,34-158.49,67.16-317.15,101.36-475.59,5.55-25.7,21.84-38.14,50-31.8,78.9,17.78,158,34.89,237,52.26l-4,30.9-4.33,19.08q-9.89,48.92-19.76,97.82-3.7,9.57-7.39,19.14l-16.77,101q-3.95,9.62-7.88,19.21-9.93,50.21-19.85,100.39-2.17,10-4.33,20-9.9,38.26-19.81,76.53-4.11-14.85-8.24-29.69-14.46-29.42-28.91-58.84c0-11.95,2.89-24.79-.49-35.7-26.12-84.44-53.44-168.51-80.49-252.67-.77-2.38-2.73-4.39-4.13-6.57-1.35,2.82-3.37,5.51-3.95,8.48-7,35.93-16.56,71.63-20.07,107.92-6.06,62.51-8.33,125.4-12.18,188.13l-21.37,62.42q14,175.41,27.88,350.82,2.94,30.76,5.87,61.52,10.71,114.11,21.39,228.2l-10.18,17.59-17.22,101.47-7.32,18.68-20.4,100.91q-2.21,9.62-4.42,19.25l-19.74,100.81q-4,9-8,18-11.81,51.27-23.6,102.55l-.42,18-23.56,101.2c-7.19,12.09-4.93,19.1,10.1,21.09,9.66,1.29,19.07,4.43,28.59,6.74-81.63,34.81-164.08,67.83-244.54,105.14-44.22,20.5-85.09,48.23-127.46,72.7q18.43-92.07,36.85-184.12,32-149.73,64-299.46l24.42-116.15,6.75-29.88q1.11-7.1,2.2-14.18l6.87-32.15q8.19-38.33,16.36-76.65,7.22-30.4,14.42-60.81,2.37-15.16,4.73-30.33,2.11-7.7,4.21-15.4l6.78-29.28,5.34-28.18q8.22-41.07,16.45-82.17Q2128,1079.53,2131.34,1066.87Z"/><path class="cls-23" d="M2853.06,987.38q11,53.77,21.91,107.53,5.15,32,10.28,64l9.3,60.43,11,63.68q31.65,193.79,63.32,387.57l7,40.72,16.71,103.34q2.9,19.8,5.78,39.6l-161.57-16.63c-6.85-43.31-13.45-86.66-20.62-129.93q-34.2-206.51-68.75-413-5.51-32.06-11-64.11l-9.2-59.87q-5.56-32.07-11.14-64.15-5.77-47.11-11.56-94.23Z"/><path class="cls-17" d="M3165,1142.75q3.53,30.06,7,60.11l6.69,64.13q6.68,59.61,13.37,119.22l4.2,40.72q3.57,43.54,7.15,87.1c-24-5.14-48.45-8.68-71.77-15.93-19.05-5.92-23.23,1.44-26.65,18-11.53,55.76-24.5,111.21-36.92,166.78l-11-70.45-4.86-42.93c-1.47-17.84-2.48-35.74-4.5-53.53q-13.7-120.72-27.86-241.39-3-30-5.92-59.9l-7-63.93q-3.57-30-7.15-59.89c-10-95.6-20.19-191.18-29.91-286.8-2.79-27.45-4.27-55-6.34-82.55l152.33-15,41.85,372.19Q3161.36,1110.71,3165,1142.75Z"/><path class="cls-24" d="M2508.32,662.83q9.9-38.26,19.81-76.53c31.84,6.44,63.62,13.21,95.58,19,4.95.89,10.76-3,16.17-4.61-4.07-4.45-7.45-11.69-12.33-12.91-31.51-7.87-63.36-14.44-95.09-21.44q9.91-50.19,19.85-100.39c32.41,6.65,64.77,13.63,97.32,19.57,4.72.86,10.36-3.3,15.58-5.14-4-4.31-7.36-11.29-12.16-12.49-30.78-7.76-61.87-14.24-92.86-21.15l16.77-101c31.15,6.35,62.21,13.22,93.53,18.63,6.46,1.11,13.87-3.23,20.84-5-6-4.22-11.36-10.58-18-12.27-29.48-7.55-59.31-13.76-89-20.45q9.87-48.9,19.76-97.82c31.9,6.54,63.74,13.39,95.75,19.28,4.91.9,10.63-2.67,16-4.17-4-4.41-7.29-11.6-12.09-12.8-31.59-7.85-63.5-14.41-95.31-21.39l4-30.9c33.12,6.51,66.64,11.51,99.21,20.1,19.77,5.21,30.27,20.67,25.59,42.72q-68.93,324.89-137.89,649.75-23.7,111.81-46.95,223.71-3.3,11.87-6.61,23.72-3-40-6-79.94-1.2-10.82-2.41-21.61l0-10.82,13.8-8.49L2537,1007q-.52-6.09-1-12.17l21.08-6.15c-4.53-3.63-8.78-7.72-13.71-10.69-2.5-1.51-6.21-1-9.38-1.39q-.41-7.19-.8-14.36l30.6-3.38c-9.12-5-18.21-10.08-27.38-15-1.08-.59-2.6-.35-3.92-.5l-.15-12.22c7.82,1.41,15.65,4,23.43,3.8,4.83-.09,9.58-4.31,14.37-6.67-3.32-3.5-6-8.89-10.06-10.14-10-3.12-20.67-4.37-31.07-6.37q-.16-6.42-.34-12.84c10.93,2.27,21.78,5.48,32.82,6.39,4.74.4,9.87-4,14.83-6.18-3.87-4-7.11-10.17-11.72-11.44-12.55-3.45-25.69-4.82-38.59-7q-.49-7-1-14.08c15.59,3.31,31.12,7,46.83,9.59,3.12.52,8.83-2.43,9.93-5.16,1.21-3-1-10.74-2.63-11-17.89-3.09-36-5.13-54-7.45q-.43-8.58-.88-17.18c16.09,3.29,32.09,7.32,48.34,9.42,5.1.65,10.87-3.89,16.34-6-3.94-3.88-7.29-10-11.91-11.22-18.45-4.67-37.3-7.79-56-11.48q-4.28-54.42-8.54-108.84c29,6.2,58,12.79,87.18,18.16,4.49.83,10-4,15.08-6.2-3.79-3.93-7-10.31-11.47-11.4-30.12-7.32-60.51-13.51-90.81-20.06Q2510.37,675.26,2508.32,662.83ZM2601,546.37l-12.27,13c14.91,5.54,29.61,11.81,44.88,16.06,3.47,1,8.9-5.09,13.42-7.91Zm-45.07,209.44-11.59,12.54c15.16,6,30.14,12.68,45.66,17.61,2.86.91,7.91-5.06,11.95-7.85Zm77.66-359.52-12.73,11.88c14.91,6.17,29.61,13,44.89,18,3.13,1,8.43-4.53,12.72-7.06Zm31.63-148.67-12.48,11c15,6.13,29.81,12.94,45.22,17.8,3.05,1,8.48-5.62,12.82-8.72Zm-20.06,272.79,12.15,6.62c.69-5.92,3.64-16.07,1.73-17.08a253.25,253.25,0,0,0-42.74-18.1c-3.78-1.19-9.7,4.38-14.63,6.85Zm-62.09,300,12.62-11.77c-15-6.07-29.86-12.73-45.25-17.69-3.07-1-8.24,4.55-12.44,7.08Zm43.11-394.95-11.81,14.7c15,5.37,29.86,11.32,45.17,15.63,3.3.92,8.28-4.11,12.49-6.4ZM2613.29,670l12.33,7.15c.66-6.15,3.58-16.73,1.61-17.74A303.69,303.69,0,0,0,2582,641c-3-1-8.06,4.76-12.17,7.39ZM2660.7,277.2l-12.92-7.06c-.38,6.1-3.06,16.34-.78,17.6a237.87,237.87,0,0,0,42.3,18.19c3.79,1.22,9.7-4.2,14.64-6.57Zm-7.49,30.07c-5.44,4.48-9.19,7.57-12.95,10.65,14.89,6.16,29.57,13,44.85,17.91,3,1,8.36-5.32,12.64-8.27Zm-61.9,300.54-12.63-7.95c-.84,6.56-4.07,17.93-2.13,18.9a260.82,260.82,0,0,0,44.31,17c3.31,1,8.62-5.06,13-7.86ZM2563,725.55,2550.58,740c15.62,5.59,31.11,11.63,47,16.32,2.62.78,7-4.38,10.55-6.8Zm44.79-210-12.08,12.87c14.55,6,28.9,12.65,43.82,17.52,3.33,1.09,8.68-4,13.11-6.29Zm31.8-149.3-12.07,13.06c15.46,6,30.77,12.4,46.52,17.46,2.5.81,7-4.47,10.52-6.94Zm-64.1,299.4c-5.45,6.17-8.6,9.73-11.76,13.29,15.58,5.81,31,12,46.87,17,2.45.76,6.79-4.57,10.26-7.08Z"/><path class="cls-25" d="M3115.89,706.46l-152.33,15L2999.41,539l38.9-4.1q34.49,75.77,69,151.53C3110.28,693.07,3113,699.79,3115.89,706.46Z"/><path class="cls-25" d="M2853.06,987.38l-148.54,25L2730,827.86l41-6.52Z"/><path class="cls-9" d="M3388.16,1138.19q11.9-79.39,23.87-158.79c.67-4.42,2.57-8.65,3.89-13l24.14,4.65c-4.75,38.72-9.08,77.49-14.32,116.14q-16.53,121.89-33.88,243.66c-10.3,72-21.24,143.91-31.9,215.86l-27.86-5.37q2-14.55,4-29.11Q3358,1355.12,3380,1198,3384.06,1168.08,3388.16,1138.19Z"/><path class="cls-25" d="M3440.06,971.09l-24.14-4.65,79.5-164.15,39.22,3.85q10.28,56.46,20.54,112.93,2.78,20.29,5.57,40.6,1.34,13.58,2.66,27.15L3536,983.91Z"/><path class="cls-8" d="M3165,1142.75q-3.63-32.05-7.25-64.1c54.87-3.78,109.73-7.9,164.64-11.06,10.63-.61,29.8.38,30.81,4.3,4.51,17.53,4.13,36.39,4.54,54.78,0,1.25-7.85,3.58-12.16,3.88Q3255.3,1136.88,3165,1142.75Z"/><path class="cls-8" d="M2545.81,1138.78q3.3-11.87,6.61-23.73l163.66-8.44q5.58,32.09,11.14,64.15L2549,1179Q2547.4,1158.86,2545.81,1138.78Z"/><path class="cls-2" d="M3388.16,1138.19q-4.1,29.88-8.18,59.78-34.2,42.46-68.37,84.94-57.71,72-115.32,144l-4.2-40.72L3291,1258.75l49-64.08Z"/><path class="cls-8" d="M3340,1194.67l-49,64.08L3178.72,1267l-6.69-64.13Z"/><path class="cls-8" d="M2999.81,1090.86q3.58,29.94,7.15,59.89l-121.71,8.19q-5.14-32-10.28-64Z"/><path class="cls-23" d="M2771,821.34l-41,6.52c2.37-17.72,4.61-35.45,7.22-53.13.44-3,2.48-5.74,3.78-8.6,1.95,2.45,4.37,4.67,5.78,7.4C2755,789.4,2763,805.39,2771,821.34Z"/><path class="cls-16" d="M3038.31,534.93l-38.9,4.1a7.76,7.76,0,0,1,0-2q7.17-30,14.39-60Q3026,506,3038.31,534.93Z"/><path class="cls-26" d="M3534.64,806.14l-39.22-3.85c6.8-16.53,13.45-33.12,20.55-49.52,1.15-2.65,4.28-4.45,6.5-6.65,1.37,3,3.46,5.79,4,8.89C3529.4,772,3532,789.09,3534.64,806.14Z"/><path class="cls-2" d="M3332.1,1541.38l27.86,5.37,95.75,20.85,27.06,6.45,131.62,28.38,29.68,6.89,91.41,19.67,29.16,4.91,52.71,13.16,59.26,11.76q114.19,24.36,228.39,48.7L4269.48,1742l70.28,20.66q-45,208-90,415.91-50.92,235.15-102.1,470.28c-1.05,4.78-4.57,9-6.93,13.52L3935.5,2378.59c33.8,7,67.5,14.51,101.5,20.25,5.39.91,16.58-5.33,17.62-9.94,22.37-99.78,43-200,65.76-299.62,4.61-20.14-3.93-23.24-19.1-26.51q-436.17-94.17-872.15-189.2c-23.69-5.19-42.2-9.11-45.76,22.44l-152.36-36,1-17.23q18.06-80,36.13-159.95c12.42-55.57,25.39-111,36.92-166.78,3.42-16.56,7.6-23.92,26.65-18,23.32,7.25,47.8,10.79,71.77,15.93l76,16.52Z"/><path class="cls-16" d="M3796.33,1103.69c-30.57-23.62-60.87-47.61-91.84-70.69-12.9-9.6-15-18.13-4.51-31.23,32.84-41.13,64.33-83.35,97.93-123.84,4.34-5.23,21.52-7.27,26.84-3.15Q4162.27,1136,4498.34,1399c4.52,3.53,6.44,10.39,9.57,15.7-51.66-24.46-103.57-48.41-154.92-73.49q-217.11-106-433.93-212.58c-6.89-3.37-15.14-3.93-22.77-5.81q-.81-45.58-1.63-91.18c.3-17.3.7-34.6.79-51.91,0-3-1.32-6-2-9-2.38,1.92-5.38,3.41-7,5.82-10.16,14.77-20,29.75-30,44.66Z"/><path class="cls-17" d="M3896.29,1122.79c7.63,1.88,15.88,2.44,22.77,5.81q217.08,106.05,433.93,212.58c51.35,25.08,103.26,49,154.92,73.49-23,31.47-45.47,63.4-69.24,94.3-46,59.8-46.23,59.47-105.15,13.66Q4115,1352.73,3896.38,1183Z"/><path class="cls-27" d="M4010.72,1627.42c-4.58-2.32-17.39-7.16-28.28-14.75-18.51-12.91-35.81-27.54-53.6-41.47-25.24-19.77-29.3-47.93-10.53-73,19.22-25.65,56.59-34.82,79.57-18.17,24.2,17.54,50,34.11,69.8,56,10.12,11.19,14.42,34.3,11,49.67C4072.31,1613.66,4049.2,1626.79,4010.72,1627.42Z"/><path class="cls-27" d="M3536.6,1193.91c40.32-28.91,58.19-28.45,97.72,2.47,14.17,11.08,28.39,22.08,42.5,33.23,26.77,21.16,30.31,47.88,10,74.57-19.13,25.11-56.64,33.11-80.07,15.75-26.72-19.8-52.48-40.9-78.66-61.43Z"/><path class="cls-9" d="M3536.6,1193.91l-8.52,64.59q-8,58-16,116l-16.29,123.37-13,76.19-27.05-6.46c1.43-13.16,2.5-26.36,4.35-39.46,14-99.53,28.33-199,42.25-298.57,11.44-81.86,22.46-163.77,33.66-245.66l27.44,2.91q-12.7,97.62-25.41,195.24C3537.49,1186,3537.07,1190,3536.6,1193.91Z"/><path class="cls-25" d="M3896.29,1122.79l.09,60.19-1.65,31.62-27-7.39-91.79-28.3-23.57-8.8q22-33.21,44-66.42l60.07-82.51,38.26,10.43Q3895.47,1077.2,3896.29,1122.79Z"/><path class="cls-27" d="M4269.48,1742,4105,1707.52c-12-29.18-5.65-55,17.93-72.85,22.39-16.92,52.56-16.48,75.38,1.18,17.37,13.45,34.14,27.75,52.13,40.29C4275.06,1693.3,4281.41,1714.75,4269.48,1742Z"/><path class="cls-28" d="M3752.34,1170.11l23.57,8.8c-26,83.73-52.11,167.41-77.83,251.22-18.3,59.64-36,119.46-54,179.19l-29.67-6.89-1.86-6.86,35.17-103.35Q3695.79,1341.08,3744,1190C3746.14,1183.15,3749.52,1176.72,3752.34,1170.11Z"/><path class="cls-28" d="M3867.7,1207.21l27,7.39c-12.73,42.31-25.57,84.59-38.11,127-2.42,8.16-3.68,16.66-5.48,25q-17.78,55.48-35.58,111l-50.91,156.38q-14.59-2.43-29.17-4.9Q3801.59,1418.09,3867.7,1207.21Z"/><path class="cls-27" d="M3495.78,1497.87l16.29-123.37c7.48,5.51,14.81,11.22,22.46,16.48,22.55,15.53,41,32.63,30.08,64.08C3554.61,1483.8,3532.5,1497.85,3495.78,1497.87Z"/><path class="cls-27" d="M3815.56,1477.51q17.79-55.47,35.58-111c25,16.3,50,32.66,37.15,69.28C3877.81,1465.66,3853.44,1479.6,3815.56,1477.51Z"/><path class="cls-27" d="M3647.7,1492.22l-35.17,103.35c-22.49-11.33-34.83-28.58-28.46-54.4C3592.14,1508.44,3615.38,1494.1,3647.7,1492.22Z"/><path class="cls-27" d="M3876.61,1658.82l-59.26-11.76C3839.82,1637.31,3859.83,1640,3876.61,1658.82Z"/><path class="cls-28" d="M3935.5,2378.59l205.23,283.76q73.2,156.87,146.39,313.76c8.56,27.73,16.55,55.64,25.9,83.09,6.61,19.43,3.71,34.92-13.83,46.65-25.3,4.71-37.33-7.24-44.66-30.91-98-316.66-267.79-587.41-518-806.45-461.44-404-1105.8-488-1644.47-207.29-412.35,214.86-674.54,557.61-819.16,994.9-8.3,25.1-20.78,38.13-48.17,29.52-19.59-15.71-14.92-34.63-7.68-54.29,3.42-9.3,5.42-19.12,8.07-28.7q24-63.72,48-127.44c41.9-80.47,82.77-161.51,126.13-241.18,20.84-38.28,46.38-74,69.8-110.86l71.9-92.67q16.31-20,32.62-39.94c3.17-2.23,6.92-3.94,9.42-6.76q127.11-143.31,282.36-255.48c3.1-2.22,5.27-5.74,7.87-8.65l42.13-28.7c42.38-24.47,83.25-52.2,127.47-72.7,80.46-37.31,162.91-70.33,244.53-105.14l32.45-13.23,23.25-6.22,23.57-6.11,21.79-5.4,69.69-15.67,119.28-20.11,259.34-8.72,161.57,16.64,32.64,5.77L3183.37,1896c5.59,2,11.11,4.37,16.8,6.11,173.1,52.77,334.37,130.79,476.26,242.68C3767.57,2216.66,3849.46,2300.26,3935.5,2378.59Z"/><path class="cls-12" d="M1329.89,1736c-9.85-28-20.54-55.7-29.4-84-25.6-81.69-50.47-163.6-75.63-245.42l319.47-96.07c54.5,33.94,109.26,67.47,163.43,101.94,73.82,47,147.18,94.64,220.73,142L1743.93,1611c-11.13-41.46-22.4-82.88-33.35-124.38-11.14-42.25-15.51-45.21-57.65-37.34-8-20.2-22.84-25.86-43.18-20.65-60.88,15.6-121.82,31-182.71,46.55-20,5.1-31,16.94-28,38.77-42.52,15-43.59,17.78-32.45,62.1,11.81,46.94,22.72,94.1,34,141.16Z"/><path class="cls-12" d="M1431.9,2064.76l53.66-17.73q44,171.77,88.09,343.52L1541,2430.48c-27.51-89.37-55.28-178.67-82.37-268.17C1448.88,2130.05,1440.77,2097.29,1431.9,2064.76Z"/><path class="cls-17" d="M1188.57,1847.4q-1.66-7.92-3.35-15.83c26.62-8,53.15-16.44,80-23.77,4.81-1.31,10.84,1.85,16.31,2.94-3.71,4-6.69,10.23-11.23,11.72C1243.24,1831.38,1215.85,1839.21,1188.57,1847.4Z"/><path class="cls-17" d="M1092.9,1541.39q-1.9-7.14-3.8-14.3c28.34-8.88,56.61-18,85.12-26.32,3.71-1.09,8.68,2.13,13.07,3.36-3,4-5.25,10.28-9.14,11.53C1149.92,1524.81,1121.36,1532.94,1092.9,1541.39Z"/><path class="cls-17" d="M1252.52,2051.59l-6.9-14.11c27.29-8.62,54.48-17.62,82-25.54,4.87-1.41,11,1.68,16.61,2.69-3.83,4.11-6.92,10.38-11.6,12C1306.12,2035.55,1279.26,2043.38,1252.52,2051.59Z"/><path class="cls-17" d="M1124.54,1643q-1.47-7.61-3-15.19c27.25-8.26,54.41-16.91,81.87-24.39,4.54-1.24,10.47,2.63,15.76,4.13-3.61,3.64-6.6,9.22-10.93,10.59C1180.53,1627,1152.49,1634.86,1124.54,1643Z"/><path class="cls-17" d="M1220.27,1950.05q-2.22-7.72-4.45-15.47c27.33-8.44,54.57-17.18,82.07-25,4.32-1.23,9.83,1.73,14.79,2.76-3.52,4.15-6.27,10.57-10.69,12.07C1275,1933.58,1247.55,1941.63,1220.27,1950.05Z"/><path class="cls-17" d="M1156.62,1745.74l-4.14-14.9c27.21-8.48,54.33-17.35,81.76-25.07,4.69-1.32,10.75,2.24,16.17,3.55-4,3.89-7.38,9.76-12.17,11.35C1211.22,1729.59,1183.87,1737.49,1156.62,1745.74Z"/><path class="cls-17" d="M1312.53,2255.41l-2.52-15.24c26.75-8.13,53.4-16.68,80.36-24,4.93-1.34,11.18,2.18,16.81,3.45-4.1,3.89-7.56,9.77-12.41,11.33C1367.54,2239.66,1340,2247.35,1312.53,2255.41Z"/><path class="cls-17" d="M1280.81,2153.79q-2-7.15-4-14.33c27.24-8.48,54.38-17.31,81.81-25.13,5-1.43,11.2,1.23,16.85,2-4.26,4.44-7.75,11.24-12.91,12.94C1335.55,2138.16,1308.1,2145.75,1280.81,2153.79Z"/><path class="cls-17" d="M1359.28,2354.87l-10.2-15.09c24.14-7.23,48.19-14.86,72.53-21.39,5-1.34,11.08,1.42,16.67,2.29-4.21,4.37-7.64,10.88-12.76,12.73C1403.72,2341.31,1381.41,2347.84,1359.28,2354.87Z"/><path class="cls-17" d="M1419.72,2447.49q-4.76-7.15-9.54-14.29c14-4.32,27.77-9.43,42-12.59,5.43-1.21,11.84,2,17.81,3.23-4.09,3.83-7.55,9.21-12.39,11.17C1445.31,2440,1432.39,2443.43,1419.72,2447.49Z"/><path class="cls-16" d="M1164.52,1771.27q-1.73-7.86-3.47-15.73c12.12-3.58,24.11-7.75,36.42-10.4,3.74-.8,8.39,2.59,12.61,4.06-2.41,3.69-4,9.47-7.38,10.7C1190.27,1764.5,1177.3,1767.61,1164.52,1771.27Z"/><path class="cls-17" d="M1320.69,2281.87q-2-7.42-4.09-14.86c13.2-4.09,26.29-8.67,39.7-11.91,3-.72,7.13,3.27,10.74,5.09-2.15,3.33-3.61,8.58-6.58,9.64C1347.44,2274.51,1334,2278,1320.69,2281.87Z"/><path class="cls-16" d="M1328,2307.43l-3.51-4.61c.24-3.84.48-7.66.71-11.49,12.69-3.78,25.24-8.18,38.15-10.92,3.39-.72,7.88,3.71,11.86,5.77-2.4,3.18-4.18,8.12-7.32,9.23C1354.76,2300.05,1341.28,2303.53,1328,2307.43Z"/><path class="cls-16" d="M1076.62,1490.28q-1.61-7.37-3.22-14.72c12.5-3.92,24.86-8.43,37.58-11.39,3.7-.86,8.44,2.7,12.71,4.23-2.48,3.71-4.19,9.57-7.55,10.75C1103.25,1483.67,1089.83,1486.69,1076.62,1490.28Z"/><path class="cls-17" d="M1084.59,1515.06q-1.2-7.26-2.41-14.51c12.64-3.77,25.17-8,38-11,3.23-.77,7.34,2.21,11,3.47-2.2,3.87-3.58,10.11-6.73,11.19C1111.48,1508.68,1097.93,1511.58,1084.59,1515.06Z"/><path class="cls-17" d="M1100.6,1566.7q-1.45-7.41-2.92-14.83c12.61-3.79,25.1-8.18,37.93-11,3.43-.75,7.93,3.33,11.94,5.2-2.36,3.21-4.08,8.27-7.17,9.32C1127.34,1559.82,1113.9,1563,1100.6,1566.7Z"/><path class="cls-17" d="M1116.67,1618l-3.66-14.82c10.67-3.3,21.18-7.55,32.09-9.53,5.64-1,12,2,18.05,3.12-4.13,3.84-7.63,9.29-12.51,11.19C1139.68,1612.19,1128,1614.71,1116.67,1618Z"/><path class="cls-17" d="M1148.64,1719.67l-2.88-15.53c12.64-3.72,25.17-7.92,38-10.83,3-.68,6.93,3,10.44,4.72-1.9,3.38-3.08,8.79-5.84,9.77C1175.36,1712.42,1161.92,1715.83,1148.64,1719.67Z"/><path class="cls-17" d="M1180.39,1822.24l-3.91-15.37c10.76-3.27,21.37-7.34,32.35-9.48,5.17-1,11.06,1.68,16.62,2.69-3.68,4-6.63,9.77-11.19,11.64C1203.37,1816.21,1191.73,1818.85,1180.39,1822.24Z"/><path class="cls-17" d="M1196.24,1873.72q-2.1-7.54-4.19-15.07c12-3.87,23.92-8.31,36.17-11.27,3.8-.92,8.57,2.16,12.9,3.41-2.9,4-5,9.94-8.87,11.51C1220.62,1867,1208.29,1870,1196.24,1873.72Z"/><path class="cls-17" d="M1268.41,2103q-3.66-7.36-7.33-14.74c12.59-3.88,25-8.32,37.84-11.31,3.76-.88,8.49,2.31,12.77,3.64-2.5,3.7-4.2,9.36-7.63,10.75C1292.51,2096,1280.34,2099.22,1268.41,2103Z"/><path class="cls-17" d="M1276.54,2128.07q-3.51-7.16-7-14.3c12.5-3.94,24.87-8.43,37.58-11.5,3.68-.89,8.33,2.27,12.54,3.57-2.45,3.77-4.09,9.59-7.5,10.95C1300.62,2121.4,1288.46,2124.43,1276.54,2128.07Z"/><path class="cls-16" d="M1304.52,2230.45q-1.74-7.69-3.49-15.38c12-3.7,23.94-8.16,36.23-10.7,4.25-.88,9.48,3,14.26,4.69-2.94,3.47-5.23,8.73-8.94,10.08C1330.17,2223.67,1317.25,2226.79,1304.52,2230.45Z"/><path class="cls-16" d="M2056.47,1415l-6.87,32.15c-16.23,2.89-23.55-5.05-24.76-20.4Z"/><path class="cls-17" d="M1204.47,1898.85l-3.84-15.79c10.2-3,20.26-7,30.69-8.69,5.63-.93,11.89,2,17.86,3.11-4,3.9-7.46,9.37-12.3,11.36C1226.47,1893.13,1215.32,1895.62,1204.47,1898.85Z"/><path class="cls-17" d="M1228.53,1975.38l-3.63-16.06c10.13-2.93,20.12-6.79,30.46-8.44,5.53-.88,11.68,2,17.55,3.26-4,3.91-7.42,9.42-12.24,11.41C1250.35,1969.79,1239.28,1972.21,1228.53,1975.38Z"/><path class="cls-17" d="M1108.5,1591.87q-1-7.35-2-14.69c11.42-3.5,22.7-7.73,34.35-10.13,4.31-.89,9.51,2.49,14.31,3.93-3.39,3.78-6.09,9.47-10.29,11C1133.1,1586.18,1120.68,1588.69,1108.5,1591.87Z"/><path class="cls-17" d="M1172.61,1796.48q-1.21-7.86-2.44-15.72c12.09-3.58,24.08-7.62,36.35-10.42,3.17-.72,7.24,2.44,10.89,3.81-2.17,3.8-3.52,9.83-6.67,11C1198.34,1789.76,1185.37,1792.84,1172.61,1796.48Z"/><path class="cls-17" d="M1288.6,2179l-2.52-14.9c12.64-3.71,25.18-7.86,38-10.84,3.25-.76,7.37,2.17,11.09,3.4-2.22,3.83-3.62,10-6.79,11.08C1315.41,2172.31,1301.9,2175.37,1288.6,2179Z"/><path class="cls-17" d="M1212.59,1924q-1.59-8.06-3.17-16.1c12-3.47,23.92-7.4,36.09-10.14,3.27-.73,7.34,2.13,11,3.34-2,3.87-3.19,10-6.26,11.21C1238.05,1917,1225.21,1920.19,1212.59,1924Z"/><path class="cls-17" d="M1260.25,2078.11l-7.31-14.45c11.94-3.94,23.71-8.58,35.91-11.44,4.49-1.06,10,2.08,15,3.31-3.24,3.85-5.73,9.44-9.85,11.22C1283.12,2071.42,1271.54,2074.43,1260.25,2078.11Z"/><path class="cls-16" d="M1140.47,1694.7q-1.79-7.71-3.58-15.42c11.94-3.67,23.73-8.09,35.91-10.6,4.18-.86,9.35,3.08,14.06,4.83-2.85,3.41-5.06,8.58-8.67,9.9C1165.88,1687.91,1153.08,1691,1140.47,1694.7Z"/><path class="cls-17" d="M1236,2001.14l-2.13-16.7c10.81-3.2,21.48-7.15,32.5-9.25,4.29-.81,9.37,2.56,14.09,4-3.42,3.79-6.13,9.28-10.38,11C1259.06,1994.75,1247.38,1997.62,1236,2001.14Z"/><path class="cls-17" d="M1244.33,2026.49q-3.61-7.18-7.22-14.37c12-3.82,23.83-8.3,36.05-11.12,4.48-1,9.86,1.9,14.84,3-3.2,3.87-5.64,9.54-9.74,11.27C1267.33,2019.93,1255.69,2022.87,1244.33,2026.49Z"/><path class="cls-17" d="M1132.71,1669.36l-3.78-14.44c13-4.14,25.88-8.77,39.1-12.06,3-.74,7.12,3.2,10.72,5-2.15,3.32-3.62,8.57-6.58,9.63C1159.25,1662.1,1145.9,1665.51,1132.71,1669.36Z"/><path class="cls-17" d="M1296.94,2205.09q-2.14-7.07-4.28-14.14c12.55-4.09,25-8.8,37.75-11.89,3.72-.9,8.55,2.82,12.87,4.42-2.75,3.55-4.81,9-8.39,10.3C1322.53,2198.33,1309.63,2201.44,1296.94,2205.09Z"/><path class="cls-16" d="M1343.56,2331.48q-4.95-7.41-9.92-14.79c11.38-3.42,22.63-7.52,34.22-9.93,4.47-.93,9.74,2,14.64,3.14-3.54,4.19-6.28,10.06-10.79,12.21C1362.85,2326.32,1353,2328.47,1343.56,2331.48Z"/><path class="cls-16" d="M1374.83,2378.7l-10.5-15.32a21.19,21.19,0,0,1,3.86-.91c10-.53,20-1,30-1.43Z"/><path class="cls-16" d="M2047.4,1461.34l-6.75,29.88c-3.65-6.48-9.9-13-9.91-19.46C2030.73,1468.3,2041.5,1464.82,2047.4,1461.34Z"/><path class="cls-16" d="M1388.64,2401.62l-9.15-14.7c1.25-.4,2.54-1.23,3.76-1.14,7.72.6,15.42,1.41,23.13,2.15Z"/><path class="cls-16" d="M1404,2424.19l-9.5-13.58,18.92.67Z"/><path class="cls-12" d="M1325.15,2291.33c-.23,3.83-.47,7.65-.71,11.49q-2.07-6.08-4.15-12.16Z"/><path class="cls-20" d="M3580.63,5622.65c-7.94.56-15.87,1.6-23.81,1.6q-453.77.12-907.53.06c-45.17,0-45.39-.33-45.33-45.52.08-57.3.32-114.61-.1-171.91-.13-17.61,6.77-25.42,24.84-25.4q472.76.36,945.51.28a49.8,49.8,0,0,1,5.94.69Z"/><path class="cls-20" d="M4007.78,5053.62q.06,120,.11,239.89l-.44.7c-9.32-.15-18.65-.42-28-.42q-457.87,0-915.76.42c-24.64.05-32.72-8-32.17-32.38,1.34-58.62,1.58-117.32-.13-175.92-.73-25.09,6.05-33,32.17-32.91,231.93,1,463.88.65,695.82.56,82.63,0,165.26-.46,247.9-.7Z"/><path class="cls-21" d="M1224.76,3085.62c27.39,8.61,39.87-4.42,48.17-29.52,144.62-437.29,406.81-780,819.16-994.9,538.67-280.69,1183-196.73,1644.47,207.29,250.18,219,419.93,489.79,518,806.45,7.33,23.67,19.36,35.62,44.66,30.91,8.19,43.38,19.69,86.44,23.93,130.2,11.27,116,19.56,232.4,28.75,348.65,6.88,87.2,13.32,174.44,19.94,261.66q14,184.35,28,368.72,12,157.59,24,315.19,14.09,186.34,28,372.72,3.89,51.54,7.9,103.06-209.1.31-418.19.66c-9.94,0-19.88.57-29.82.87L3844,5006.06q-.07-398.22-.16-796.44c.09-.93.2-1.87.31-2.8,10.16-9.14,30.12-21,28.49-26.86-3.6-13-18.06-22.9-28.09-34.08l-.81-41.44q.09-37.26.2-74.51.43-21.51.86-43c9.94-10.33,28-21,27.61-30.91-.45-10.56-18.36-20.39-28.65-30.55.07-51.95.24-103.9.17-155.85-.12-90-73.7-163.47-164-163.48q-920.17-.06-1840.34,0c-76.75,0-149.33,57.73-158,134.05-7,61.13-3.69,123.45-5,185.24-9.7,10.66-25.87,20.69-27,32.2-.87,8.81,17.27,19.49,27,29.34l.9,42.94q.11,37.32.22,74.65l-.78,41.32c-9.79,11.31-23.69,21.44-27.49,34.5-1.67,5.75,17.2,17.47,26.74,26.49.08,1,.2,1.95.35,2.92q0,411.61,0,823.23c.07,86.12,74.92,164.5,158.09,164.57q574.46.45,1148.91,0c.21,37.82,0,75.66,1,113.47.23,8.61,4.86,17.11,7.46,25.66-134.56.32-269.13,1.2-403.68.46-25.18-.13-32.35,8.73-31.72,32.64,1.2,45.25-.14,90.56-.43,135.84-371.08,0-742.16,1.8-1113.22-.94-133.55-1-244.06-59.9-326.49-165.24-26.63-34-45.12-74.73-65.06-113.54-5.38-10.47-3.83-25.32-3-38,3.61-58.2,7.85-116.36,12.3-174.5,6.28-81.89,13.13-163.72,19.4-245.6,4.46-58.15,8.17-116.35,12.59-174.49,6.32-83.21,13.09-166.39,19.46-249.6,4.35-56.81,8.17-113.67,12.52-170.49,6.37-83.21,13.15-166.38,19.49-249.59,4.38-57.49,8.14-115,12.5-172.5,6.37-83.87,13.22-167.71,19.51-251.59,4.46-59.47,5.85-119.3,13.06-178.42C1198.76,3242.36,1212.69,3164.1,1224.76,3085.62Z"/><path class="cls-19" d="M2992,5336.72c-2.6-8.55-7.23-17.05-7.46-25.66-1-37.81-.77-75.65-1-113.47.22-50.61,2.21-101.29,0-151.79-1.36-30.79,8.42-40,39.32-39.86,273.71.9,547.43.29,821.14.12l167.74,1.52-4.41,45.28c-82.64.24-165.27.66-247.9.7-231.94.09-463.89.45-695.82-.56-26.12-.11-32.9,7.82-32.17,32.91,1.71,58.6,1.47,117.3.13,175.92-.55,24.37,7.53,32.43,32.17,32.38q457.88-1,915.76-.42c9.33,0,18.66.27,28,.42q.3,21.34.62,42.69-188.15.43-376.29.9c-17.23.05-34.47.53-51.71.82q-278.13-.45-556.27-.94C3013.19,5337.66,3002.58,5337.05,2992,5336.72Z"/><path class="cls-17" d="M1045.66,1968.09c5.16,4.11,12.49,7.56,16.31,13.33,40.74,61.55,81,123.45,121.23,185.29,9.73,14.95,7.51,26.77-8.18,36.88-62,40-123.43,81-186,120.12-6.35,4-24.08,1.59-27.78-3.82q-66.42-97.07-129.11-196.64c-3.15-5,2.85-21.52,9.24-25.88,61-41.61,122.88-81.82,184.7-122.16C1030.82,1972.12,1037,1971.17,1045.66,1968.09Z"/><path class="cls-16" d="M2103,1202.54l-6.78,29.28-31.28,3.59c-11.8.46-23.91,2.65-35.29.68-6-1-13.32-8.53-15.24-14.63-1-3.27,7.31-12.7,12.8-14.16,11.91-3.15,24.7-3,37.13-4.15l32.41-1.45Z"/><path class="cls-16" d="M2092,1247.22q-2.36,15.16-4.73,30.33l-18.76,2c-11.8.74-23.86,3.2-35.31,1.54-6-.88-11-8.95-16.5-13.77,4.83-5.46,8.75-13.9,14.7-15.71,11-3.37,23.29-2.88,35-4Z"/><path class="cls-8" d="M2068.49,1279.57l18.76-2q-7.22,30.4-14.42,60.81Q2070.67,1309,2068.49,1279.57Z"/><path class="cls-8" d="M2092,1247.22l-25.58.42q-.74-6.12-1.49-12.23l31.28-3.59Q2094.09,1239.52,2092,1247.22Z"/><path class="cls-8" d="M2040.33,197.15l20.08-1.81Z"/><path class="cls-19" d="M2096.46,855.6l-23.6,2.5Z"/><path class="cls-8" d="M2088.39,781.27l13.08-1.33Z"/><path class="cls-18" d="M2110.76,807.25l-.59,1.53s-1.62-.06-1.61-.07l.66-1.38Z"/><path class="cls-4" d="M2577.45,1846.37l-119.28,20.12q-13.5-87.71-27-175.39l-8.52-65.87q-1.68-8.82-3.37-17.65-.21-6.27-.43-12.53-1.8-9.73-3.59-19.49-.21-6.43-.43-12.88-1.76-9.79-3.5-19.57l-.42-12.54q-1.72-9.79-3.46-19.59-.18-6.18-.38-12.36l-3.45-19.61q-.13-6.16-.29-12.34-1.48-7.79-3-15.57-.39-8.36-.79-16.71l-3.48-19.68q-5-54.27-9.92-108.53-1.27-9.67-2.54-19.33-10.7-114.11-21.39-228.2-2.89-30.76-5.87-61.52L2532.56,983q1.68,5.92,3.35,11.85.53,6.07,1,12.17.21,9.71.44,19.41c0,3.61,0,7.21,0,10.82q1.2,10.8,2.42,21.61,3,40,6,79.94,1.59,20.1,3.17,40.18l4.26,63.57,4,60.48c-.08,5.3-.41,10.61-.21,15.9Q2567.21,1582.65,2577.45,1846.37Z"/><path class="cls-14" d="M2532.56,983l-176.19,14.16q-13.93-175.41-27.88-350.82l171.6-13.17q4.11,14.85,8.23,29.69,2,12.43,4.1,24.87,0,9.75,0,19.5,4.26,54.42,8.54,108.84l3.24,19.33q.43,8.6.89,17.18l-.15,14,1,14.08,2.67,18.25q.16,6.42.34,12.84l3.33,19.38.15,12.22q.34,9.43.7,18.87.41,7.17.8,14.36Q2533.22,979.79,2532.56,983Z"/><path class="cls-24" d="M2414.84,1562.68l.45,12.88c-9.63-1.78-19.23-4.57-28.91-4.91-4.63-.16-9.42,4.35-14.13,6.74,3.37,3.51,6.18,9,10.23,10.16,11.87,3.42,24.23,5.13,36.39,7.5q.21,6.27.44,12.53c-13.62-2.74-27.16-6.22-40.91-7.76-3.89-.44-8.4,4.76-12.63,7.37,2.78,3.49,5.05,9.33,8.41,10,16,3.43,32.3,5.46,48.49,8l8.52,65.87c-2.3,6.83-5.3,13.52-6.79,20.52-12.14,56.81-24,113.68-35.92,170.53l-21.79,5.4-55-18.54c-1.2,3.68-3.82,7.64-3.15,10.94.54,2.69,4.65,5.65,7.78,6.67,8.75,2.85,17.82,4.76,26.75,7l-23.26,6.22-71.12-14.6q11.78-50.6,23.56-101.2c33,6.88,66,14.05,99.22,20.28,3.89.73,8.75-3.67,13.16-5.69-2.94-4-5.26-10.71-8.91-11.52-34.22-7.6-68.67-14.2-103.05-21.09q11.81-51.27,23.6-102.55c33.06,7,66.07,14.26,99.27,20.5,4.47.84,9.95-3.68,15-5.71-3.71-3.93-6.81-10.32-11.21-11.4-31.52-7.72-63.3-14.36-95-21.34l19.74-100.81Zm-82.35,242.61-11.69,13.24c15,5.5,29.75,11.74,45.09,15.91,3.41.93,8.8-5.42,13.28-8.43Zm45.22-26.88,10.94,5.87c1-5.76,4.16-15.93,2.77-16.59a340.6,340.6,0,0,0-45.55-17.9c-2.95-.91-7.95,4.75-12,7.38Zm-2.31,80c-3.59-5.36-4.84-9.54-7-10.05-15.36-3.68-30.85-7-46.46-9.32-1.91-.28-6.69,6-6.66,9.24,0,3,4.19,7.76,7.39,8.64a279.63,279.63,0,0,0,38.65,8.18C2365.23,1865.59,2369.73,1861.25,2375.4,1858.4Zm24.94-119.68c-2.37-5-3-8.7-4.48-9-16.58-3.9-33.24-7.51-50-10.36-1.34-.23-5.66,6.12-5.15,8.74.68,3.45,4.24,8.09,7.47,9a273.68,273.68,0,0,0,38.65,8.21C2390.69,1745.76,2395.2,1741.35,2400.34,1738.72Zm-42.85-53.67c-4.91,5.89-7.86,9.44-10.8,13,15.23,5.77,30.29,12.12,45.85,16.79,2.89.87,7.8-5,11.77-7.77Zm45.78-26,13.43-11.12c-15.06-6.17-29.93-12.89-45.33-18-2.77-.92-7.72,4.72-11.67,7.33Z"/><path class="cls-17" d="M2349.86,583.89c3.85-62.73,6.12-125.62,12.18-188.13,3.51-36.29,13.05-72,20.07-107.92.58-3,2.6-5.66,3.95-8.48,1.4,2.18,3.36,4.19,4.13,6.57,27,84.16,54.37,168.23,80.49,252.67,3.38,10.91.48,23.75.49,35.7Z"/><path class="cls-12" d="M1828.4,1943.38l123.88-36.55q-18.42,92.06-36.85,184.12l-42.14,28.69Q1850.85,2031.5,1828.4,1943.38Z"/><path class="cls-4" d="M2349.86,583.89l121.31-9.59q14.45,29.43,28.91,58.84l-171.59,13.17Q2339.19,615.1,2349.86,583.89Z"/><path class="cls-24" d="M2403.35,1466.67l.3,12.34-12.29,9.91,15.73,9.7.39,12.37-22.42,5.11c6.69,4.67,13.29,9.47,20.14,13.88,1.44.93,3.8.43,5.73.59l.42,12.54-82.84-17.61,20.4-100.91,50.66,9.8q.39,8.35.79,16.71Q2401.86,1458.89,2403.35,1466.67Z"/><path class="cls-24" d="M2386.17,1306.18q5,54.25,9.92,108.53l-39.86-8.8,17.22-101.47Z"/><path class="cls-16" d="M2584.35,326.57c29.7,6.69,59.53,12.9,89,20.45,6.61,1.69,12,8.05,18,12.27-7,1.82-14.38,6.16-20.84,5-31.32-5.41-62.38-12.28-93.53-18.63Q2580.65,336.14,2584.35,326.57Z"/><path class="cls-16" d="M2608.44,209.67c31.81,7,63.72,13.54,95.31,21.39,4.8,1.2,8.1,8.39,12.09,12.8-5.35,1.5-11.07,5.07-16,4.17-32-5.89-63.85-12.74-95.75-19.28Q2606.29,219.21,2608.44,209.67Z"/><path class="cls-16" d="M2560.19,446.69c31,6.91,62.08,13.39,92.86,21.15,4.8,1.2,8.14,8.18,12.16,12.49-5.22,1.84-10.86,6-15.58,5.14-32.55-5.94-64.91-12.92-97.32-19.57Q2556.24,456.3,2560.19,446.69Z"/><path class="cls-16" d="M2272.72,1766.06c34.38,6.89,68.83,13.49,103.05,21.09,3.65.81,6,7.54,8.91,11.52-4.41,2-9.27,6.42-13.16,5.69-33.18-6.23-66.17-13.4-99.22-20.28Z"/><path class="cls-16" d="M2532.46,566.29c31.73,7,63.58,13.57,95.09,21.44,4.88,1.22,8.26,8.46,12.33,12.91-5.41,1.65-11.22,5.5-16.17,4.61-32-5.74-63.74-12.51-95.58-19Q2530.29,576.3,2532.46,566.29Z"/><path class="cls-16" d="M2304.35,1645.56c31.7,7,63.48,13.62,95,21.34,4.4,1.08,7.5,7.47,11.21,11.4-5,2-10.5,6.55-15,5.71-33.2-6.24-66.21-13.54-99.27-20.5Q2300.34,1654.54,2304.35,1645.56Z"/><path class="cls-16" d="M2328.51,1525.5l82.84,17.61q1.76,9.78,3.5,19.57l-90.76-17.93Q2326.3,1535.12,2328.51,1525.5Z"/><path class="cls-16" d="M2248.74,1885.28l71.12,14.6-32.44,13.23c-9.51-2.31-18.92-5.45-28.58-6.74C2243.81,1904.38,2241.55,1897.37,2248.74,1885.28Z"/><path class="cls-16" d="M2356.23,1405.91l39.86,8.8,3.48,19.68-50.66-9.8Z"/><path class="cls-16" d="M2386.17,1306.18l-12.72-1.74,10.18-17.59Q2384.9,1296.51,2386.17,1306.18Z"/><path class="cls-1" d="M2577.45,1846.37q-10.22-263.73-20.4-527.47c-.2-5.29.13-10.6.21-15.9l190.16-8.26q34.39,206.49,68.75,413c7.17,43.27,13.77,86.62,20.62,129.93Z"/><path class="cls-1" d="M3019.9,1274.58q14,120.69,27.86,241.39c2,17.79,3,35.69,4.5,53.54l-83.35,101.11q-31.66-193.78-63.32-387.57Z"/><path class="cls-3" d="M3068.1,1682.88q-18.07,80-36.13,159.95l-39.39-28.15-16.71-103.34,81.25-98.91Z"/><path class="cls-8" d="M2747.42,1294.74,2557.26,1303l-4-60.48,183.18-11.89Q2741.93,1262.69,2747.42,1294.74Z"/><path class="cls-1" d="M2736.42,1230.63l-183.18,11.89L2549,1179l178.24-8.19Q2731.83,1200.7,2736.42,1230.63Z"/><path class="cls-1" d="M2885.25,1158.94l121.71-8.19,7,63.93-119.43,4.69Z"/><path class="cls-8" d="M2894.55,1219.37l119.43-4.69q3,30,5.92,59.9l-114.31,8.47Z"/><path class="cls-2" d="M3057.12,1612.43l-81.25,98.91-7-40.73,83.35-101.1Z"/><path class="cls-1" d="M2992.58,1814.68l39.39,28.15-1,17.23-32.65-5.77Q2995.46,1834.48,2992.58,1814.68Z"/><path class="cls-3" d="M3279.49,1530.55l-76-16.52q-3.57-43.56-7.15-87.1,57.66-72,115.32-144,34.11-42.53,68.37-84.94-21.93,157.14-43.85,314.29Z"/><path class="cls-1" d="M3178.72,1267l112.27-8.24-98.9,127.46Q3185.4,1326.6,3178.72,1267Z"/><path class="cls-16" d="M2512.43,707.2q0-9.75,0-19.5c30.29,6.55,60.68,12.74,90.8,20.06,4.48,1.09,7.68,7.47,11.47,11.4-5.05,2.21-10.59,7-15.08,6.2C2570.42,720,2541.46,713.4,2512.43,707.2Z"/><path class="cls-16" d="M2524.21,835.37,2521,816c18.71,3.69,37.56,6.81,56,11.48,4.62,1.17,8,7.34,11.91,11.22-5.47,2.16-11.24,6.7-16.34,6C2556.3,842.69,2540.3,838.66,2524.21,835.37Z"/><path class="cls-16" d="M2601,546.37l46,21.14c-4.52,2.82-9.95,8.88-13.42,7.91-15.27-4.25-30-10.52-44.88-16.06Z"/><path class="cls-16" d="M2525,866.59l.15-14c18,2.32,36.09,4.36,54,7.45,1.65.28,3.84,8,2.63,11-1.1,2.73-6.81,5.68-9.93,5.16C2556.07,873.59,2540.54,869.9,2525,866.59Z"/><path class="cls-16" d="M2555.94,755.81l46,22.3c-4,2.79-9.09,8.76-11.95,7.85-15.52-4.93-30.5-11.56-45.66-17.61Z"/><path class="cls-16" d="M2633.6,396.29l44.88,22.82c-4.29,2.53-9.59,8.09-12.72,7.06-15.28-5-30-11.83-44.89-18Z"/><path class="cls-16" d="M2665.23,247.62l45.56,20.07c-4.34,3.1-9.77,9.68-12.82,8.72-15.41-4.86-30.21-11.67-45.22-17.8Z"/><path class="cls-16" d="M2645.17,520.41l-43.49-21.71c4.93-2.47,10.85-8,14.63-6.85a253.25,253.25,0,0,1,42.74,18.1c1.91,1-1,11.16-1.73,17.08Z"/><path class="cls-16" d="M2583.08,820.37,2538,798c4.2-2.53,9.37-8.06,12.44-7.08,15.39,5,30.22,11.62,45.25,17.69Z"/><path class="cls-16" d="M2626.19,425.42,2672,449.35c-4.21,2.29-9.19,7.32-12.49,6.4-15.31-4.31-30.16-10.26-45.17-15.63Z"/><path class="cls-16" d="M2613.29,670l-43.44-21.63c4.11-2.63,9.21-8.34,12.17-7.39a303.69,303.69,0,0,1,45.21,18.43c2,1-.95,11.59-1.61,17.74Z"/><path class="cls-16" d="M2660.7,277.2l43.24,22.16c-4.94,2.37-10.85,7.79-14.64,6.57a237.87,237.87,0,0,1-42.3-18.19c-2.28-1.26.4-11.5.78-17.6Z"/><path class="cls-16" d="M2653.21,307.27l44.54,20.29c-4.28,2.95-9.63,9.24-12.64,8.27-15.28-4.93-30-11.75-44.85-17.91C2644,314.84,2647.77,311.75,2653.21,307.27Z"/><path class="cls-16" d="M2591.31,607.81l42.56,20.11c-4.39,2.8-9.7,8.81-13,7.86a260.82,260.82,0,0,1-44.31-17c-1.94-1,1.29-12.34,2.13-18.9Z"/><path class="cls-16" d="M2563,725.55l45.18,24c-3.56,2.42-7.93,7.58-10.55,6.8-15.89-4.69-31.38-10.73-47-16.32Z"/><path class="cls-16" d="M2607.74,515.56l44.85,24.1c-4.43,2.26-9.78,7.38-13.11,6.29-14.92-4.87-29.27-11.51-43.82-17.52Z"/><path class="cls-16" d="M2639.54,366.26l45,23.58c-3.56,2.47-8,7.75-10.52,6.94-15.75-5.06-31.06-11.48-46.52-17.46Z"/><path class="cls-16" d="M2575.44,665.66l45.37,23.18c-3.47,2.51-7.81,7.84-10.26,7.08-15.85-4.92-31.29-11.16-46.87-17C2566.84,675.39,2570,671.83,2575.44,665.66Z"/><path class="cls-16" d="M2528.58,898.92l-2.67-18.25c12.91,2.2,26.05,3.57,38.6,7,4.61,1.27,7.85,7.48,11.72,11.44-5,2.2-10.09,6.58-14.83,6.18C2550.36,904.4,2539.51,901.19,2528.58,898.92Z"/><path class="cls-16" d="M2532.25,931.14l-3.33-19.38c10.4,2,21,3.25,31.07,6.37,4,1.25,6.74,6.64,10.06,10.14-4.79,2.36-9.54,6.58-14.37,6.67C2547.9,935.1,2540.07,932.55,2532.25,931.14Z"/><path class="cls-16" d="M2533.1,962.23q-.34-9.43-.7-18.87c1.32.15,2.84-.09,3.92.5,9.17,4.91,18.26,10,27.38,15Z"/><path class="cls-16" d="M2532.56,983q.66-3.18,1.34-6.38c3.17.4,6.88-.12,9.38,1.39,4.93,3,9.18,7.06,13.71,10.69l-21.08,6.15Q2534.23,988.9,2532.56,983Z"/><path class="cls-16" d="M2537.39,1026.4q-.22-9.71-.44-19.41l14.24,10.92Z"/><path class="cls-11" d="M2539.76,1058.83q-1.22-10.82-2.42-21.61Q2538.56,1048,2539.76,1058.83Z"/><path class="cls-26" d="M3536,983.9c-11.2,81.9-22.22,163.81-33.66,245.67-13.92,99.55-28.24,199-42.25,298.57-1.85,13.1-2.92,26.3-4.35,39.46L3360,1546.75c10.66-72,21.6-143.86,31.9-215.86q17.43-121.76,33.88-243.66c5.24-38.65,9.57-77.42,14.32-116.14Z"/><path class="cls-27" d="M3279.49,1530.55l56.64-18.29q-2,14.57-4,29.12Z"/><path class="cls-15" d="M3935.5,2378.59c-86-78.33-167.93-161.93-259.07-233.8-141.89-111.89-303.16-189.91-476.26-242.68-5.69-1.74-11.21-4.06-16.8-6.11,3.56-31.54,22.07-27.62,45.76-22.43q435.87,95.49,872.15,189.2c15.17,3.27,23.71,6.37,19.1,26.51-22.79,99.67-43.39,199.84-65.76,299.62-1,4.61-12.23,10.85-17.62,9.94C4003,2393.1,3969.3,2385.55,3935.5,2378.59Z"/><path class="cls-29" d="M3867.7,1207.21q-66.12,210.88-132.22,421.78l-91.41-19.67c18-59.73,35.71-119.55,54-179.19,25.72-83.81,51.87-167.49,77.83-251.22Z"/><path class="cls-29" d="M3894.66,1031.61l-38.26-10.43c10-14.92,19.82-29.9,30-44.67,1.66-2.41,4.66-3.9,7-5.82.71,3,2,6,2,9C3895.36,997,3895,1014.31,3894.66,1031.61Z"/><path class="cls-23" d="M1828.4,1943.38q22.45,88.13,44.89,176.26c-2.6,2.92-4.77,6.44-7.87,8.66q-155.62,111.79-282.36,255.48c-2.5,2.82-6.25,4.53-9.42,6.76L1485.56,2047q-21.39-88.2-42.79-176.42l341.91-87.86Z"/><path class="cls-1" d="M2388.48,1882.15c11.93-56.85,23.78-113.72,35.92-170.53,1.49-7,4.49-13.69,6.79-20.52q13.48,87.69,27,175.39Z"/><path class="cls-16" d="M2343.12,1893.66c-8.93-2.28-18-4.19-26.75-7-3.13-1-7.24-4-7.78-6.67-.67-3.3,1.95-7.26,3.15-10.94l55,18.54Z"/><path class="cls-13" d="M1784.68,1782.75l-341.91,87.86-42.15-153.44c-11.31-47.07-22.22-94.23-34-141.17-11.14-44.32-10.07-47.06,32.45-62.1l253.89-64.67c42.14-7.87,46.51-4.91,57.65,37.34,11,41.5,22.22,82.92,33.35,124.38q18.78,77.16,37.51,154.33C1782.83,1771,1783.61,1776.93,1784.68,1782.75ZM1481.93,1815c8.55-.43,9.94-.27,11.2-.59,74.6-18.87,149.31-37.31,223.56-57.46,6.53-1.77,15.58-16.12,14.07-22.35-18.17-74.76-37.45-149.27-58.62-223.23-2.12-7.38-20-16.76-28.2-14.87q-108.59,25.14-215.94,55.31c-7.73,2.18-17.74,20.42-15.85,28.75,16.13,71.14,34.3,141.84,53.21,212.3C1467.91,1802.31,1477.92,1809.8,1481.93,1815Z"/><path class="cls-23" d="M1652.93,1449.23,1399,1513.9c-3-21.83,8-33.67,28-38.77,60.89-15.57,121.83-31,182.71-46.55C1630.09,1423.37,1644.91,1429,1652.93,1449.23Z"/><path class="cls-18" d="M3844,5006.06c-273.71.17-547.43.78-821.14-.12-30.9-.1-40.68,9.07-39.32,39.86,2.23,50.5.24,101.18,0,151.79q-574.46.08-1148.91,0c-83.17-.07-158-78.45-158.09-164.57q-.32-411.62,0-823.23c6-.2,12-.57,18-.57q967.36,0,1934.73,0c2,0,4.85-.85,5.86.15,5.48,5.42,14.61,11.06,14.95,17.06,1.19,20.51-2,41.24-1.22,61.81.92,25.93,15.77,41,41.83,41.18,26.34.14,40.59-14.87,41.15-41.22.45-20.63-1.82-41.41-.07-61.88.53-6.11,10.32-16,16.23-16.32,31.9-1.49,63.91-.49,95.89-.35Q3843.89,4607.84,3844,5006.06Z"/><path class="cls-18" d="M1676.6,3925.43c1.27-61.79-2-124.11,5-185.24,8.7-76.32,81.28-134.05,158-134.05q920.18-.07,1840.34,0c90.27,0,163.85,73.47,164,163.48.07,51.95-.1,103.9-.17,155.85-6.64.27-13.29.76-19.93.76q-1063.64.06-2127.26,0C1689.89,3926.22,1683.25,3925.7,1676.6,3925.43Z"/><path class="cls-13" d="M1677.68,4104.56q-.11-37.32-.22-74.65,998.52,0,1997.06.08c10.65,0,21.3.61,31.94.93-33.59,12.92-53.05,35.71-51.28,73.34-4.67.12-9.33.37-14,.37Q2659.44,4104.62,1677.68,4104.56Z"/><path class="cls-30" d="M1676.6,3925.43c6.65.27,13.29.79,19.94.79q1063.62.06,2127.26,0c6.64,0,13.29-.49,19.93-.76,10.29,10.16,28.2,20,28.65,30.55.41,9.9-17.67,20.58-27.61,30.91-6.64-.3-13.28-.85-19.92-.85q-1064.19-.06-2128.38,0c-6.64,0-13.28.58-19.91.9-9.69-9.85-27.83-20.53-27-29.34C1650.73,3946.12,1666.9,3936.09,1676.6,3925.43Z"/><path class="cls-30" d="M1676.15,4206.87c-9.54-9-28.41-20.74-26.74-26.49,3.8-13.06,17.7-23.19,27.49-34.5,8.65.26,17.29.76,25.93.76q806.18.06,1612.36,0,168.82,0,337.64.37c-.06,6.67-1.17,13.52,0,20,5.94,32.93-8,39.39-39.73,39.34q-954.54-1.57-1909.08-.73C1694.72,4205.63,1685.44,4206.44,1676.15,4206.87Z"/><path class="cls-4" d="M1676.56,3987c6.63-.32,13.27-.9,19.91-.9q1064.19-.06,2128.38,0c6.64,0,13.28.55,19.92.85q-.42,21.51-.86,43l-106.06.64-31.38.35c-10.65-.32-21.3-.93-31.95-.93q-998.54-.09-1997.06-.08Z"/><path class="cls-4" d="M3652.83,4147.06q-168.81-.2-337.64-.37-806.18-.06-1612.36,0c-8.64,0-17.28-.5-25.93-.76l.78-41.32q981.75,0,1963.51.07c4.66,0,9.32-.25,14-.37Q3654,4125.66,3652.83,4147.06Z"/><path class="cls-19" d="M3652.83,4147.06q1.17-21.39,2.35-42.8c-1.77-37.63,17.69-60.42,51.28-73.34l31.4-.35c34.91,5.71,27.28,33.25,24,54.12-1.15,7.3-20.44,11.75-31.46,17.5l-4.87,3.9,2,40.82c.11,11.94,1.22,24,.08,35.79-1.73,17.93,4.37,24.14,23.08,23.34,31.06-1.31,62.24.37,93.38.78-.11.93-.22,1.87-.31,2.8-32-.14-64-1.14-95.89.35-5.91.28-15.7,10.21-16.23,16.32-1.75,20.47.52,41.25.07,61.88-.56,26.35-14.81,41.36-41.15,41.22-26.06-.14-40.91-15.25-41.83-41.18-.74-20.57,2.41-41.3,1.22-61.81-.34-6-9.47-11.64-14.95-17.06-1-1-3.86-.15-5.86-.15q-967.36,0-1934.73,0c-6,0-12,.37-18,.57-.15-1-.27-1.94-.35-2.92,9.29-.43,18.57-1.24,27.86-1.24q954.54-.09,1909.08.73c31.69.05,45.67-6.41,39.73-39.34C3651.66,4160.58,3652.77,4153.73,3652.83,4147.06Zm37.34,107.59c-11.92,17.21-24.72,27.71-23.43,36,1.35,8.75,15.83,20.64,25.24,21.27,7.18.49,20.71-13.94,21.59-22.72C3714.39,4281,3702.28,4271.51,3690.17,4254.65Zm-.45-204c-9,16.76-17.35,25.32-16.29,32.47,1,6.78,12.51,17.37,18.29,16.7,7-.81,17.32-11.31,17.9-18.32S3700.61,4066.54,3689.72,4050.61Z"/><path class="cls-30" d="M3844.12,4206.82c-31.14-.41-62.32-2.09-93.38-.78-18.71.8-24.81-5.41-23.08-23.34,1.14-11.82,0-23.85-.07-35.79l116.93-1c10,11.18,24.49,21.12,28.09,34.08C3874.24,4185.83,3854.28,4197.68,3844.12,4206.82Z"/><path class="cls-13" d="M3730.42,4102.19c11-5.75,30.3-10.2,31.45-17.5,3.27-20.87,10.9-48.41-24-54.12l106-.64q-.1,37.26-.2,74.51l-112.91.83A4.81,4.81,0,0,0,3730.42,4102.19Z"/><path class="cls-4" d="M3730.8,4105.27l112.91-.83.81,41.44-116.93,1q-1-20.41-2.06-40.82Z"/><path class="cls-16" d="M2422.67,1625.23c-16.19-2.53-32.49-4.56-48.49-8-3.36-.72-5.63-6.56-8.41-10,4.23-2.61,8.74-7.81,12.63-7.37,13.75,1.54,27.29,5,40.91,7.76Z"/><path class="cls-16" d="M2418.87,1595.05c-12.16-2.37-24.52-4.08-36.39-7.5-4.05-1.17-6.86-6.65-10.23-10.16,4.71-2.39,9.5-6.9,14.13-6.74,9.68.34,19.28,3.13,28.91,4.91Q2417.07,1585.31,2418.87,1595.05Z"/><path class="cls-16" d="M2410.93,1530.57c-1.93-.16-4.29.34-5.73-.59-6.85-4.41-13.45-9.21-20.14-13.88l22.42-5.11Z"/><path class="cls-16" d="M2407.09,1498.62l-15.73-9.7,12.29-9.91Q2405.36,1488.82,2407.09,1498.62Z"/><path class="cls-16" d="M2403.35,1466.67q-1.48-7.79-3-15.57Q2401.86,1458.89,2403.35,1466.67Z"/><path class="cls-16" d="M2332.49,1805.29l46.68,20.72c-4.48,3-9.87,9.36-13.28,8.43-15.34-4.17-30.11-10.41-45.09-15.91Z"/><path class="cls-16" d="M2377.71,1778.41l-43.84-21.24c4.05-2.63,9.05-8.29,12-7.38a340.6,340.6,0,0,1,45.55,17.9c1.39.66-1.74,10.83-2.77,16.59Z"/><path class="cls-16" d="M2375.4,1858.4c-5.67,2.85-10.17,7.19-14.05,6.69a279.63,279.63,0,0,1-38.65-8.18c-3.2-.88-7.37-5.63-7.39-8.64,0-3.22,4.75-9.52,6.66-9.24,15.61,2.32,31.1,5.64,46.46,9.32C2370.56,1848.86,2371.81,1853,2375.4,1858.4Z"/><path class="cls-16" d="M2400.34,1738.72c-5.14,2.63-9.65,7-13.53,6.54a273.68,273.68,0,0,1-38.65-8.21c-3.23-.9-6.79-5.54-7.47-9-.51-2.62,3.81-9,5.15-8.74,16.78,2.85,33.44,6.46,50,10.36C2397.31,1730,2398,1733.74,2400.34,1738.72Z"/><path class="cls-16" d="M2357.49,1685.05l46.82,22c-4,2.77-8.88,8.64-11.77,7.77-15.56-4.67-30.62-11-45.85-16.79C2349.63,1694.49,2352.58,1690.94,2357.49,1685.05Z"/><path class="cls-16" d="M2403.27,1659.05l-43.57-21.8c4-2.61,8.9-8.25,11.67-7.33,15.4,5.12,30.27,11.84,45.33,18Z"/><path class="cls-17" d="M1481.93,1815.44c-4-5.16-14-12.65-16.57-22.14-18.91-70.47-37.08-141.17-53.21-212.31-1.89-8.33,8.12-26.56,15.85-28.75q107.25-30.29,215.94-55.3c8.18-1.9,26.08,7.48,28.2,14.86,21.17,74,40.45,148.48,58.62,223.24,1.51,6.22-7.54,20.57-14.07,22.34-74.25,20.15-149,38.6-223.56,57.46C1491.87,1815.16,1490.48,1815,1481.93,1815.44Z"/><path class="cls-21" d="M3690.17,4254.65c12.11,16.86,24.22,26.37,23.4,34.58-.88,8.78-14.41,23.21-21.59,22.72-9.41-.63-23.89-12.52-25.24-21.27C3665.45,4282.36,3678.25,4271.86,3690.17,4254.65Z"/><path class="cls-21" d="M3689.72,4050.61c10.89,15.93,20.49,23.82,19.9,30.85s-10.9,17.51-17.9,18.32c-5.78.67-17.29-9.92-18.29-16.7C3672.37,4075.93,3680.74,4067.37,3689.72,4050.61Z"/><path class="cls-27" d="M3730.8,4105.27l-5.27.82,4.88-3.9A4.75,4.75,0,0,1,3730.8,4105.27Z"/></g></g></svg>