<svg xmlns="http://www.w3.org/2000/svg" xmlns:xlink="http://www.w3.org/1999/xlink" version="1.1" x="0px" y="0px" viewBox="0 0 60 75" style="enable-background:new 0 0 60 60;fill: #012835;" xml:space="preserve"><path d="M37,35H23c-1.65,0-3,1.35-3,3v4c0,1.65,1.35,3,3,3h14c1.65,0,3-1.35,3-3v-4C40,36.35,38.65,35,37,35z M38,42  c0,0.55-0.45,1-1,1H23c-0.55,0-1-0.45-1-1v-4c0-0.55,0.45-1,1-1h14c0.55,0,1,0.45,1,1V42z"/><path d="M51,29h-3.27l-0.57-9.41C46.9,15.33,42.74,12,37.69,12H37V9c0-1.65-1.35-3-3-3h-8c-1.65,0-3,1.35-3,3v3h-0.69  c-5.06,0-9.22,3.33-9.47,7.59L12.27,29H9c-1.65,0-3,1.35-3,3v12c0,1.65,1.35,3,3,3h2.18l-0.17,2.79c-0.06,1,0.31,1.97,1.03,2.73  c0.88,0.94,2.2,1.48,3.6,1.48h28.73c1.41,0,2.72-0.54,3.6-1.48c0.72-0.77,1.09-1.74,1.03-2.73L48.82,47H51c1.65,0,3-1.35,3-3V32  C54,30.35,52.65,29,51,29z M11.3,45H9c-0.55,0-1-0.45-1-1V32c0-0.55,0.45-1,1-1h3.15L11.3,45z M25,9c0-0.55,0.45-1,1-1h8  c0.55,0,1,0.45,1,1v3H25V9z M46.51,51.15c-0.5,0.53-1.3,0.85-2.15,0.85H15.64c-0.84,0-1.65-0.32-2.15-0.85  c-0.24-0.26-0.52-0.68-0.49-1.24l1.83-30.2c0.19-3.2,3.48-5.71,7.48-5.71H24h12h1.69c4,0,7.28,2.51,7.48,5.71L47,49.91  C47.03,50.47,46.75,50.9,46.51,51.15z M52,44c0,0.55-0.45,1-1,1h-2.3l-0.85-14H51c0.55,0,1,0.45,1,1V44z"/></svg>