<svg xmlns:dc="http://purl.org/dc/elements/1.1/" xmlns:cc="http://creativecommons.org/ns#" xmlns:rdf="http://www.w3.org/1999/02/22-rdf-syntax-ns#" xmlns:svg="http://www.w3.org/2000/svg" xmlns="http://www.w3.org/2000/svg" xmlns:sodipodi="http://sodipodi.sourceforge.net/DTD/sodipodi-0.dtd" xmlns:inkscape="http://www.inkscape.org/namespaces/inkscape" viewBox="0 0 16.933333 21.166666250000002" version="1.1" x="0px" y="0px"><g><path style="color:#000000;font-style:normal;font-variant:normal;font-weight:normal;font-stretch:normal;font-size:medium;line-height:normal;font-family:sans-serif;font-variant-ligatures:normal;font-variant-position:normal;font-variant-caps:normal;font-variant-numeric:normal;font-variant-alternates:normal;font-feature-settings:normal;text-indent:0;text-align:start;text-decoration:none;text-decoration-line:none;text-decoration-style:solid;text-decoration-color:#000000;letter-spacing:normal;word-spacing:normal;text-transform:none;writing-mode:lr-tb;direction:ltr;text-orientation:mixed;dominant-baseline:auto;baseline-shift:baseline;text-anchor:start;white-space:normal;shape-padding:0;clip-rule:nonzero;display:inline;overflow:visible;visibility:visible;opacity:1;isolation:auto;mix-blend-mode:normal;color-interpolation:sRGB;color-interpolation-filters:linearRGB;solid-color:#000000;solid-opacity:1;vector-effect:none;fill: #06A4F0;fill-opacity:1;fill-rule:nonzero;stroke:none;stroke-width:0.52916664;stroke-linecap:butt;stroke-linejoin:round;stroke-miterlimit:4;stroke-dasharray:none;stroke-dashoffset:0;stroke-opacity:1;paint-order:fill markers stroke;color-rendering:auto;image-rendering:auto;shape-rendering:auto;text-rendering:auto;enable-background:accumulate;" d="M 1.851566,3.9677158 A 0.26460979,0.26460979 0 0 0 1.5880162,4.2312657 V 6.3484491 H 1.2205967 a 0.26464839,0.26464839 0 1 0 0,0.5291666 h 0.3674195 v 2.1177002 h -0.271818 a 0.26460981,0.26460981 0 0 0 -0.027389,0 0.26500132,0.26500132 0 0 0 0.027389,0.5291666 h 0.271818 v 1.8515665 a 0.26460979,0.26460979 0 0 0 0.2635498,0.265617 h 1.1983765 c 0.068421,0.884783 0.8096988,1.58595 1.7115234,1.58595 0.9018244,0 1.6455184,-0.701167 1.7141071,-1.58595 h 4.371827 0.536401 c 0.06859,0.884783 0.812284,1.585949 1.714107,1.58595 0.901825,-10e-7 1.643103,-0.701167 1.711524,-1.58595 H 15.61145 A 0.26460979,0.26460979 0 0 0 15.875,11.376049 V 8.3328241 A 0.26460979,0.26460979 0 0 0 15.8533,8.227404 L 14.529346,5.1846957 A 0.26460979,0.26460979 0 0 0 14.286983,5.0265659 h -3.17345 V 4.2312657 A 0.26460979,0.26460979 0 0 0 10.8474,3.9677158 Z M 2.1171828,4.4968825 H 10.58385 V 11.112499 H 6.4342318 C 6.2539027,10.355634 5.5716431,9.7880324 4.7614659,9.7880324 c -0.8101774,0 -1.4907826,0.5676016 -1.670699,1.3244666 H 2.1171828 V 9.5244825 h 1.0588501 a 0.26464839,0.26464839 0 1 0 0,-0.5291666 H 2.1171828 V 6.8776157 H 4.497916 a 0.26464839,0.26464839 0 1 0 0,-0.5291666 H 2.1171828 Z m 1.5099853,0.5296834 a 0.26495274,0.26495274 0 0 0 0.025322,0.5291667 h 4.2850092 a 0.26464839,0.26464839 0 1 0 0,-0.5291667 H 3.6524898 a 0.26460981,0.26460981 0 0 0 -0.025322,0 z m 7.4863649,0.5291667 h 2.999817 l 0.575159,1.3218831 H 13.22865 a 0.2648417,0.2648417 0 0 0 0,0.5296834 h 1.690336 l 0.426847,0.9803019 v 2.724898 h -0.577226 c -0.179916,-0.756865 -0.860521,-1.3244664 -1.670699,-1.3244666 -0.810176,2e-7 -1.492436,0.5676016 -1.672765,1.3244666 h -0.31161 z M 7.9369826,5.8812941 c -1.2776067,0 -2.3182048,1.0426658 -2.3182048,2.3202718 0,1.2776051 1.0405981,2.3182051 2.3182048,2.3182051 1.2776041,0 2.3202724,-1.0406 2.3202724,-2.3182051 0,-1.277606 -1.0426683,-2.3202718 -2.3202724,-2.3202718 z m 0,0.5291667 c 0.9916213,0 1.7911051,0.7994822 1.7911051,1.7911051 0,0.2474986 -0.049886,0.4826722 -0.1400432,0.6965984 C 9.3312785,8.7443453 9.0747094,8.5901996 8.8180657,8.4361769 L 8.7581209,8.4000034 C 8.6980473,8.2957398 8.6137592,8.2093965 8.5250603,8.1529899 8.362495,8.049609 8.1818484,7.9948125 8.0093295,7.9457675 7.8525242,7.9011876 7.7131911,7.8493745 7.6382929,7.8010735 c -0.074901,-0.04831 -0.072347,-0.052613 -0.072347,-0.085783 0,-0.04007 0.018521,-0.082262 0.082166,-0.1307412 0.063651,-0.04848 0.1674487,-0.089917 0.2888713,-0.089917 0.1214226,0 0.2272874,0.041447 0.2909382,0.089917 0.063648,0.04848 0.082166,0.090672 0.082166,0.1307412 H 8.839253 C 8.839253,7.4874689 8.7151796,7.2894378 8.5483148,7.1623529 8.4482444,7.0861363 8.3299751,7.0340123 8.2025994,7.0021559 V 6.877099 6.6135491 H 7.6734327 V 6.877099 7.0021559 C 7.5460914,7.0339599 7.4281479,7.0858645 7.3277173,7.1623529 7.2406879,7.2286358 7.1665331,7.3150276 7.1142938,7.4140172 L 6.5561884,7.0786369 6.5463699,7.0729526 C 6.873773,6.6685711 7.3738726,6.4104608 7.9369826,6.4104608 Z m -1.6582967,1.1187949 0.00413,0.00258 0.784965,0.4702556 0.084749,0.05116 c 0.056258,0.079052 0.12564,0.1463193 0.1984375,0.1932699 0.160864,0.1037489 0.3397134,0.1593225 0.5136637,0.2087729 0.1582396,0.04499 0.3002171,0.097033 0.3751709,0.1446937 0.074949,0.04767 0.07115,0.046608 0.07028,0.080099 -0.00238,0.08847 -0.1302824,0.2263428 -0.3731038,0.2263428 -0.1214226,0 -0.2252231,-0.03937 -0.2888713,-0.08785 -0.063651,-0.04848 -0.082166,-0.092735 -0.082166,-0.1328084 H 7.0367791 c 0,0.2278232 0.1240764,0.4258529 0.2909382,0.5529379 0.1004358,0.076494 0.2183662,0.1293812 0.3457154,0.1617472 V 9.523963 9.7895798 l 0.5291667,-0.00207 V 9.5239658 9.3994256 C 8.436208,9.3395531 8.6383081,9.2043589 8.7488192,9.0118523 l 0.5203817,0.3126425 0.042375,0.025321 c -0.3281286,0.391917 -0.8211535,0.6407878 -1.374593,0.6407878 -0.9916239,0 -1.7890381,-0.7974161 -1.7890381,-1.7890381 0,-0.2382028 0.047072,-0.4647081 0.1307411,-0.6723098 z M 5.0565382,7.6718825 a 0.26460981,0.26460981 0 0 0 -0.028939,0.00103 h -2.349727 a 0.26460981,0.26460981 0 0 0 -0.027389,0 0.26460981,0.26460981 0 0 0 0.027389,0.5270998 H 5.0275994 A 0.26460981,0.26460981 0 1 0 5.0565382,7.6718825 Z M 4.7614659,10.317199 c 0.6606977,0 1.1916585,0.530961 1.1916585,1.191659 2e-7,0.660697 -0.5309606,1.189074 -1.1916585,1.189074 -0.6606982,0 -1.189075,-0.528377 -1.1890748,-1.189074 3e-7,-0.660698 0.5283769,-1.191659 1.1890748,-1.191659 z m 8.3364421,0 c 0.660699,10e-7 1.189075,0.530961 1.189075,1.191659 0,0.660697 -0.528376,1.189074 -1.189075,1.189074 -0.660696,0 -1.191658,-0.528377 -1.191658,-1.189074 0,-0.660698 0.530962,-1.191658 1.191658,-1.191659 z m -8.3364421,0.529167 c -0.3621796,0 -0.6599081,0.300312 -0.6599081,0.662492 0,0.362179 0.2977285,0.659908 0.6599081,0.659908 0.3621794,0 0.6624918,-0.297729 0.6624918,-0.659908 0,-0.36218 -0.3003124,-0.662492 -0.6624918,-0.662492 z m 8.3364421,0 c -0.362178,0 -0.662491,0.300312 -0.662491,0.662492 0,0.362179 0.300313,0.659908 0.662491,0.659908 0.362181,0 0.65991,-0.297729 0.659909,-0.659908 1e-6,-0.36218 -0.297728,-0.662492 -0.659909,-0.662492 z m -8.3364421,0.529683 c 0.076196,0 0.1328084,0.05662 0.1328084,0.132809 0,0.0762 -0.056612,0.132808 -0.1328084,0.132808 -0.076197,0 -0.1307415,-0.05662 -0.1307415,-0.132808 0,-0.0762 0.054545,-0.132809 0.1307415,-0.132809 z m 8.3364421,0 c 0.0762,0 0.130742,0.05662 0.130742,0.132809 0,0.0762 -0.05454,0.132808 -0.130742,0.132808 -0.0762,0 -0.132808,-0.05662 -0.132808,-0.132808 0,-0.0762 0.05662,-0.132809 0.132808,-0.132809 z"/></g><text x="0" y="31.933333" fill="#000000" font-size="5px" font-weight="bold" font-family="'Helvetica Neue', Helvetica, Arial-Unicode, Arial, Sans-serif">Created by Aficons</text><text x="0" y="36.933333000000005" fill="#000000" font-size="5px" font-weight="bold" font-family="'Helvetica Neue', Helvetica, Arial-Unicode, Arial, Sans-serif">from the Noun Project</text></svg>